<svg width="55" height="52" fill="none" xmlns="http://www.w3.org/2000/svg"><g fill="#F11F60"><path fill-rule="evenodd" clip-rule="evenodd" d="M40.813 14.28h8.953a4.436 4.436 0 0 1 4.431 4.432v26.586a4.436 4.436 0 0 1-4.431 4.431h-11.28a19.306 19.306 0 0 1-7.93 1.694 19.31 19.31 0 0 1-7.93-1.694H5.248a4.436 4.436 0 0 1-4.43-4.431V18.712a4.438 4.438 0 0 1 3.388-4.306v-3.252c0-.576.467-1.043 1.042-1.043h4.978c.576 0 1.043.467 1.043 1.043v3.127H14.2l3.786-5.5c.195-.283.516-.452.859-.452h17.322c.343 0 .664.17.858.452l3.787 5.5zm-5.193-3.865H19.394l-2.662 3.866h5.894a19.304 19.304 0 0 1 7.93-1.695c2.71 0 5.292.559 7.637 1.566l-2.573-3.737zM6.29 12.196h2.893v2.085H6.29v-2.085zM2.902 45.298a2.349 2.349 0 0 0 2.346 2.346H19.06c-4.801-3.539-7.922-9.231-7.922-15.64 0-6.407 3.12-12.1 7.921-15.638H5.248a2.349 2.349 0 0 0-2.346 2.346v26.586zm27.654 4.04c-9.557 0-17.333-7.776-17.333-17.333 0-9.558 7.776-17.333 17.333-17.333 9.558 0 17.334 7.775 17.334 17.333 0 9.557-7.776 17.333-17.334 17.333zm19.21-1.694a2.35 2.35 0 0 0 2.346-2.346V18.712a2.349 2.349 0 0 0-2.346-2.346h-7.712c4.8 3.539 7.921 9.23 7.921 15.639 0 6.408-3.12 12.1-7.922 15.639h7.713z"/><path d="M8.726 43.667H6.878V38.88a1.043 1.043 0 0 0-2.085 0v5.828c0 .576.467 1.043 1.043 1.043h2.89a1.043 1.043 0 1 0 0-2.085zm-2.89-8.729c-.576 0-1.043.467-1.043 1.043v.05a1.043 1.043 0 0 0 2.085 0v-.05c0-.576-.467-1.043-1.042-1.043z"/><path fill-rule="evenodd" clip-rule="evenodd" d="M15.314 32.005c0-8.405 6.838-15.243 15.242-15.243 8.405 0 15.243 6.838 15.243 15.243 0 8.405-6.838 15.243-15.243 15.243-8.404 0-15.242-6.838-15.242-15.243zm2.085 0c0 7.255 5.903 13.157 13.157 13.157 7.255 0 13.158-5.902 13.158-13.157S37.81 18.847 30.556 18.847 17.399 24.75 17.399 32.005z"/><path d="M39.816 25.118a11.482 11.482 0 0 0-5.785-4.12 1.043 1.043 0 0 0-.627 1.988 9.417 9.417 0 0 1 6.606 9.019 1.043 1.043 0 0 0 2.086 0c0-2.504-.789-4.885-2.28-6.887zm-9.143-4.652h-.117a1.043 1.043 0 0 0 0 2.085h.108a1.043 1.043 0 0 0 .01-2.085z"/><path fill-rule="evenodd" clip-rule="evenodd" d="M6.641 20.994a3.131 3.131 0 0 1 3.128-3.128 3.131 3.131 0 0 1 3.128 3.128 3.131 3.131 0 0 1-3.128 3.127 3.131 3.131 0 0 1-3.128-3.127zm2.085 0a1.044 1.044 0 0 0 2.086 0 1.044 1.044 0 0 0-2.086 0z"/></g></svg>