<svg width="52" height="52" fill="none" xmlns="http://www.w3.org/2000/svg"><path fill-rule="evenodd" clip-rule="evenodd" d="M35.028 28.678c1.912-.886 3.816-1.532 5.686-1.928a.998.998 0 1 0-.413-1.953c-2.165.458-4.363 1.224-6.562 2.283a70.73 70.73 0 0 0-4.151-4.514 69.942 69.942 0 0 0-4.788-4.38 22.558 22.558 0 0 0 3.258-5.663c1.29-3.235 1.943-6.93 1.943-10.985a.998.998 0 0 0-1.997 0c0 6.247-1.601 11.417-4.764 15.406a36.768 36.768 0 0 0-1.729-1.246c-2.958-1.996-4.72-2.463-5.706-1.514l-.007.007a.59.59 0 0 0-.014.013l-.003.002-.001.002a1.643 1.643 0 0 0-.467.924L.578 50.27a.998.998 0 0 0 1.306 1.306h.003L37.022 36.84a1.64 1.64 0 0 0 .905-.45.235.235 0 0 1 .01-.009.159.159 0 0 0 .01-.01l.003-.002.014-.015.006-.007c.95-.985.482-2.747-1.514-5.705a37.741 37.741 0 0 0-1.428-1.965zM8.418 44.542c-.208 1.299-.671 2.153-.894 2.504l-4.161 1.745 4.225-10.077c.827 2.073 1.114 4.059.83 5.828zm4.37.297c.303-.274 1.371-1.38 1.773-3.675.403-2.296.17-6.195-2.934-12.08l-2.991 7.134c2.26 4.337 2.106 7.642 1.521 9.724l2.63-1.103zm5.335-2.237l-2.152.902c.205-.518.386-1.108.517-1.777.799-4.078-.506-9.12-3.875-14.993l1.08-2.576c.855 1.029 1.829 2.485 2.223 3.403a.999.999 0 1 0 1.835-.788c-.586-1.362-2.07-3.482-3.205-4.648l1.65-3.936c.29.53.647 1.11 1.077 1.747.295.439.62.893.968 1.36 3.415 5.183 3.338 10.487 2.67 14.026-.71 3.764-2.23 6.52-2.788 7.28zm2.952-1.239l4.74-1.987c.466-.409 2.627-2.557 2.77-7.27a70.915 70.915 0 0 1-4.444-4.093c-.499-.5-.986-1-1.458-1.5.857 3.49.653 6.721.19 9.179a25.16 25.16 0 0 1-1.798 5.671zm8.181-3.43c.535-1.106 1.006-2.53 1.217-4.31.603.46 1.187.882 1.744 1.258.638.43 1.218.788 1.749 1.077l-4.71 1.975zM25.553 26.6c2.482 2.482 5.044 4.695 7.214 6.233 2.1 1.487 3.17 1.888 3.635 1.994-.105-.465-.506-1.536-1.993-3.635a39.693 39.693 0 0 0-1.2-1.6c-.277.15-.554.304-.831.464a.998.998 0 0 1-.998-1.73c.18-.103.36-.205.54-.305a69.798 69.798 0 0 0-3.744-4.044 68.045 68.045 0 0 0-4.685-4.282c-.122.128-.246.255-.371.38a.995.995 0 0 1-1.412 0 .998.998 0 0 1 0-1.412l.147-.15.063-.066a36.586 36.586 0 0 0-.957-.703c-2.099-1.487-3.17-1.888-3.634-1.993.105.464.506 1.536 1.993 3.634 1.537 2.17 3.751 4.733 6.233 7.215z" fill="#F11F60"/><path d="M18.558 29.345a.998.998 0 0 0-1.84.772.999.999 0 1 0 1.84-.772zM37.78 15.983a.996.996 0 0 0 1.413 0c2.23-2.23 5.844-3.253 8.482-3.466a.998.998 0 0 0-.16-1.99c-2.993.242-7.12 1.43-9.734 4.044a.998.998 0 0 0 0 1.412zm13.094-5.263a5.34 5.34 0 0 0-.086-.023.998.998 0 1 0-.482 1.937l.05.013a1 1 0 0 0 1.224-.705.998.998 0 0 0-.706-1.223zM7.838 8.888h.998v.998a.998.998 0 0 0 1.997 0v-.998h.998a.998.998 0 0 0 0-1.997h-.998v-.998a.998.998 0 0 0-1.997 0v.998h-.998a.998.998 0 0 0 0 1.997zm23.361 9.684h.998v.998a.998.998 0 0 0 1.997 0v-.998h.998a.998.998 0 0 0 0-1.997h-.998v-.998a.998.998 0 0 0-1.997 0v.998h-.998a.998.998 0 0 0 0 1.997zm13.876 23.66h-.998v-.999a.998.998 0 0 0-1.997 0v.999h-.998a.998.998 0 0 0 0 1.996h.998v.999a.998.998 0 0 0 1.997 0v-.999h.998a.998.998 0 0 0 0-1.996z" fill="#F11F60"/><path fill-rule="evenodd" clip-rule="evenodd" d="M42.426 3.535a2.998 2.998 0 0 1-2.995 2.995 2.998 2.998 0 0 1-2.994-2.995A2.998 2.998 0 0 1 39.43.54a2.998 2.998 0 0 1 2.995 2.995zm-1.996 0a1 1 0 0 0-1.997 0 1 1 0 0 0 1.997 0zm2.25 17.333a2.998 2.998 0 0 1 2.994-2.995 2.998 2.998 0 0 1 2.995 2.995 2.998 2.998 0 0 1-2.995 2.995 2.998 2.998 0 0 1-2.995-2.995zm1.996 0a1 1 0 0 0 1.997 0 1 1 0 0 0-1.997 0zM23.312 7.09a2.998 2.998 0 0 1-2.995 2.996 2.998 2.998 0 0 1-2.995-2.995 2.998 2.998 0 0 1 2.995-2.995 2.998 2.998 0 0 1 2.995 2.995zm-1.997 0a1 1 0 0 0-1.996 0 1 1 0 0 0 1.996 0z" fill="#F11F60"/><path d="M45.344 29.896a1 1 0 0 0-.999-.998 1 1 0 0 0-.998.998 1 1 0 0 0 .998.999 1 1 0 0 0 .999-.999zM33.963 10.03a1 1 0 0 0 .998-.998 1 1 0 0 0-.998-.999 1 1 0 0 0-.999.999 1 1 0 0 0 .999.998zM47.34 36.385a1 1 0 0 0-.998.999 1 1 0 0 0 .998.998 1 1 0 0 0 .999-.998 1 1 0 0 0-.999-.999zM14.396 3.535a1 1 0 0 0 .998-.998 1 1 0 0 0-.998-.999 1 1 0 0 0-.999.999 1 1 0 0 0 .999.998z" fill="#F11F60"/></svg>