<svg width="59" height="52" fill="none" xmlns="http://www.w3.org/2000/svg"><path fill-rule="evenodd" clip-rule="evenodd" d="M4.277 9.858a5.595 5.595 0 0 1 5.591-5.586 5.595 5.595 0 0 1 5.592 5.586 5.595 5.595 0 0 1-5.592 5.586 5.595 5.595 0 0 1-5.591-5.586zm1.734 0a3.86 3.86 0 0 0 3.857 3.853 3.86 3.86 0 0 0 3.857-3.853 3.86 3.86 0 0 0-3.857-3.853 3.86 3.86 0 0 0-3.857 3.853z" fill="#F11F60"/><path d="M9.868 0a.867.867 0 0 0-.867.866V2.61a.867.867 0 0 0 1.735 0V.866A.867.867 0 0 0 9.867 0zm6.979 2.887a.868.868 0 0 0-1.227 0L14.387 4.12A.866.866 0 0 0 15 5.6a.865.865 0 0 0 .613-.254l1.234-1.233a.866.866 0 0 0 0-1.225zm2.023 6.105h-1.745a.867.867 0 1 0 0 1.732h1.745a.867.867 0 1 0 0-1.732zm-2.023 6.612l-1.234-1.232a.868.868 0 0 0-1.226 1.225l1.233 1.232a.865.865 0 0 0 1.227 0 .866.866 0 0 0 0-1.225zm-6.979.637a.867.867 0 0 0-.867.866v1.743a.867.867 0 0 0 1.735 0v-1.743a.867.867 0 0 0-.868-.866zM5.35 14.372a.868.868 0 0 0-1.226 0L2.89 15.604a.866.866 0 1 0 1.227 1.225l1.233-1.232a.866.866 0 0 0 0-1.225zm-2.739-5.38H.867a.867.867 0 1 0 0 1.732h1.744a.867.867 0 1 0 0-1.732zM5.35 4.12L4.117 2.886A.868.868 0 0 0 2.89 4.112l1.234 1.233a.865.865 0 0 0 1.226 0 .866.866 0 0 0 0-1.226z" fill="#F11F60"/><path fill-rule="evenodd" clip-rule="evenodd" d="M58.58 49.159a8.107 8.107 0 0 0-4.994-1.395c-1.597-2.198-4.61-4.082-8.762-5.47-2.576-.862-5.452-1.485-8.51-1.854l6.213-15.572c.938.677 1.756 1.48 2.425 2.389.22.3.562.47.938.379 2.052-.372 4.228-.134 6.295.69 2.083.828 3.836 2.164 5.071 3.862a.867.867 0 0 0 1.56-.387c.033-.229.784-5.682-1.005-11.622a.868.868 0 0 0-1.66.499c1.043 3.467 1.157 6.82 1.093 8.866a13.547 13.547 0 0 0-4.417-2.828c-1.912-.762-3.912-1.085-5.859-.956l.023-.072.02-.06c.677-2.069 1.183-4.2 1.431-6.363.228-1.98.249-3.98 0-5.958a18.741 18.741 0 0 0-.744-3.38l-.003-.008-.005-.016c3.112 1.684 5.504 4.166 7.127 7.4a.868.868 0 0 0 1.55-.776c-2.152-4.288-5.528-7.372-10.038-9.168C40.126 4.89 33.67 5.702 27.66 9.71c-4.486 2.99-7.113 6.657-7.223 6.812a.865.865 0 0 0 .867 1.352c2.065-.384 4.258-.148 6.34.681 2.053.817 3.786 2.126 5.018 3.79.24.323.59.522 1 .4a10.991 10.991 0 0 1 3.373-.063l-6.928 17.366-.18-.002c-.114-.002-.23-.003-.345-.003-3.996 0-7.816.398-11.353 1.182a.866.866 0 1 0 .376 1.691c3.366-.746 7.161-1.14 10.977-1.14a54.867 54.867 0 0 1 5.43.265h.008c3.348.332 6.485.97 9.254 1.896 3.305 1.106 5.857 2.563 7.355 4.178a8.195 8.195 0 0 0-2.168 1.044 6.363 6.363 0 0 1-7.173 0 8.09 8.09 0 0 0-9.12 0 6.363 6.363 0 0 1-7.172 0 8.09 8.09 0 0 0-9.12 0 6.363 6.363 0 0 1-7.172 0 8.19 8.19 0 0 0-2.168-1.044c1.496-1.612 4.043-3.068 7.342-4.173a.866.866 0 1 0-.551-1.643c-4.144 1.388-7.153 3.27-8.748 5.466a8.108 8.108 0 0 0-4.994 1.394.866.866 0 1 0 .973 1.434 6.372 6.372 0 0 1 4.266-1.07.854.854 0 0 0 .16.02 6.402 6.402 0 0 1 2.747 1.05 8.09 8.09 0 0 0 9.12 0 6.363 6.363 0 0 1 7.172 0 8.09 8.09 0 0 0 9.12 0 6.363 6.363 0 0 1 7.172 0A8.116 8.116 0 0 0 45.875 52a8.13 8.13 0 0 0 4.56-1.407 6.403 6.403 0 0 1 2.74-1.05.85.85 0 0 0 .17-.02 6.372 6.372 0 0 1 4.262 1.07.868.868 0 0 0 .973-1.434zM34.838 20.866l.016-.033.012-.025a31.141 31.141 0 0 1 2.85-4.84.88.88 0 0 0-.194-1.209.886.886 0 0 0-1.211.194 32.26 32.26 0 0 0-2.37 3.837l-.017.03c-.249.47-.5.946-.714 1.434l-.012.024c-1.325-1.432-2.999-2.572-4.911-3.333a13.56 13.56 0 0 0-5.155-.982c1.158-1.3 3.06-3.2 5.535-4.842 2.455-1.629 4.989-2.692 7.53-3.16a16.66 16.66 0 0 1 7.404.314l-.03.017a19.153 19.153 0 0 0-3.689 2.654c-.437.4-.864.81-1.273 1.238a.866.866 0 1 0 1.255 1.196c1.112-1.165 2.367-2.23 3.737-3.091.632-.397 1.29-.756 1.98-1.045.18.41.415 1.016.636 1.81 1.046 3.763.763 7.824-.154 11.582a32.298 32.298 0 0 1-.683 2.4l-.008.024a13.361 13.361 0 0 0-4.27-2.998l-.067-.03c-1.94-.856-4.076-1.283-6.197-1.166zm-1.53 19.297c.407.026.812.056 1.214.09l6.505-16.304a52.79 52.79 0 0 0-1.056-.486c-.397-.16-.802-.3-1.214-.418l-6.8 17.046c.45.018.9.041 1.35.072z" fill="#F11F60"/></svg>