<svg width="47" height="52" fill="none" xmlns="http://www.w3.org/2000/svg"><path fill-rule="evenodd" clip-rule="evenodd" d="M38.53 30.436h7.028c.469 0 .849.384.849.857v19.85c0 .473-.38.857-.85.857H.936a.853.853 0 0 1-.85-.857v-19.85c0-.473.38-.857.85-.857h7.031V18.2c0-.473.38-.857.849-.857h12.25l.004-7.987c-.475-.619-.817-1.57-.817-3.117 0-2.658 2.177-5.751 2.27-5.882a.846.846 0 0 1 1.38 0c.092.13 2.27 3.224 2.27 5.882 0 1.489-.284 2.376-.732 2.998l-.01 8.106h12.251c.469 0 .849.384.849.857v12.236zM24.474 6.24c0-1.267-.7-2.768-1.263-3.768-.561 1-1.261 2.501-1.261 3.768 0 .909.157 2.44 1.209 2.488a.92.92 0 0 1 .053.005.758.758 0 0 1 .054-.005c1.051-.049 1.208-1.58 1.208-2.488zm-.742 4.2v6.904h-.968V10.44h.968zm13.1 12.35v-3.732H9.664v3.761c.6 1.056 2.445 3.648 6.096 3.648h.031l.06.001c.798 0 4.865-.197 6.627-4.076a.85.85 0 0 1 .771-.5h.009a.849.849 0 0 1 .77.516c.072.163 1.832 4.059 6.313 4.059h.069c.461 0 4.507-.104 6.422-3.677zm7.877 27.497H1.784v-7.241c1.298 1.172 3.224 2.258 5.9 2.262l.132.001c.877 0 5.224-.195 7.751-3.942 1.108 1.579 3.428 3.936 7.402 3.94.396.013 5.178.067 7.88-3.94 1.103 1.575 3.422 3.937 7.408 3.94.291.008 3.745.02 6.452-2.403v7.382zm0-9.962V32.15H34.215a.853.853 0 0 1-.849-.857c0-.473.38-.857.85-.857h2.615v-4.83c-2.53 2.486-5.957 2.575-6.422 2.575l-.075-.001h-.004c-3.78-.005-5.994-2.221-7.064-3.73-2.42 3.534-6.535 3.731-7.415 3.731l-.105-.001c-2.868-.004-4.835-1.288-6.082-2.561v4.817h17.345c.468 0 .849.384.849.857s-.38.857-.85.857H1.785v8.359c1.057 1.455 2.911 3.084 5.915 3.084a.7.7 0 0 1 .033 0c.202.006 5.03.115 7.036-4.274a.85.85 0 0 1 .78-.52c.36 0 .667.224.79.542.18.394 2.062 4.252 6.645 4.252h.032c.204.006 5.045.115 7.045-4.295.138-.305.44-.5.772-.5h.008a.848.848 0 0 1 .77.515c.076.172 1.93 4.28 6.656 4.28h.031c.21-.001 4.22-.022 6.412-3.27z" fill="#F11F60"/></svg>