<svg width="54" height="53" fill="none" xmlns="http://www.w3.org/2000/svg"><path d="M7.607 47.465a.77.77 0 0 0-.77.77v.052a.77.77 0 0 0 1.541 0v-.051a.77.77 0 0 0-.77-.771z" fill="#F11F60"/><path d="M7.607 47.465a.77.77 0 0 0-.77.77v.052a.77.77 0 0 0 1.541 0v-.051a.77.77 0 0 0-.77-.771z" stroke="#F11F60" stroke-width=".2"/><path d="M9.814 47.465a.77.77 0 0 0-.77.77v.052a.77.77 0 0 0 1.541 0v-.051a.77.77 0 0 0-.77-.771z" fill="#F11F60"/><path d="M9.814 47.465a.77.77 0 0 0-.77.77v.052a.77.77 0 0 0 1.541 0v-.051a.77.77 0 0 0-.77-.771z" stroke="#F11F60" stroke-width=".2"/><path fill-rule="evenodd" clip-rule="evenodd" d="M52.05 16.997h-6.882a7.923 7.923 0 0 0-1.034-5.668.771.771 0 0 0-1.313.81 6.384 6.384 0 0 1 .77 4.858H33.227v-.211c.37-.358 1.904-1.694 4.496-2.099a.77.77 0 1 0-.238-1.523 10.434 10.434 0 0 0-4.343 1.717 3.292 3.292 0 0 0-1.577-2.111 6.452 6.452 0 0 1 5.799-3.68c1.143 0 2.267.306 3.249.885a.772.772 0 0 0 .784-1.328 7.913 7.913 0 0 0-1.661-.736c.292-4.038-.84-6.95-3.003-7.653-1.586-.515-3.426.236-5.183 2.114-1.615 1.729-3.016 4.251-3.943 7.104-.102.313-.197.628-.285.942a23.932 23.932 0 0 0-.285-.942C26.11 6.623 24.71 4.1 23.094 2.372 21.337.494 19.497-.258 17.91.258c-2.163.702-3.294 3.614-3.003 7.652-3.227 1.01-5.576 4.027-5.576 7.582 0 .507.049 1.011.144 1.506h-2.17a.77.77 0 1 0 0 1.54h44.744c.028 0 .051.024.051.052v5.007H2.542V18.59c0-.028.023-.051.052-.051h1.25a.77.77 0 1 0 0-1.542h-1.25c-.88 0-1.594.715-1.594 1.593v8.148c0 .878.715 1.592 1.594 1.592h.742v22.177c0 .878.715 1.592 1.593 1.592h44.785c.879 0 1.594-.714 1.594-1.592v-13.07a.77.77 0 0 0-1.543 0v13.07a.051.051 0 0 1-.05.051H4.928a.051.051 0 0 1-.051-.051V28.33h14.917v14.182a1.593 1.593 0 0 0 2.437 1.351l5.09-3.173 5.09 3.173a1.595 1.595 0 0 0 2.437-1.35V28.33h14.917v5.647a.77.77 0 0 0 1.542 0V28.33h.742c.879 0 1.594-.714 1.594-1.592V18.59c0-.878-.715-1.593-1.594-1.593zM29.073 9.953c.86-2.642 2.14-4.96 3.604-6.527 1.305-1.396 2.61-2.017 3.58-1.701 1.38.448 2.138 2.77 1.954 5.87a7.876 7.876 0 0 0-3.635.467c.199-.923.538-1.99 1.066-2.541a.77.77 0 1 0-1.113-1.067c-1.157 1.206-1.553 3.567-1.668 4.505a7.953 7.953 0 0 0-2.796 3.385h-.014a1.884 1.884 0 0 0-.107-.003H28.44c.162-.792.373-1.592.632-2.388zm-7.107-6.527c-1.305-1.396-2.609-2.016-3.579-1.701-1.38.448-2.138 2.77-1.954 5.87a7.855 7.855 0 0 1 3.032.266l-.573-2.33a.77.77 0 0 1 1.498-.368l.848 3.453a7.975 7.975 0 0 1 3.34 3.728h.014l.108-.003h1.503a21.956 21.956 0 0 0-.633-2.388c-.859-2.642-2.139-4.96-3.604-6.527zm-.287 10.91c-.901-.5-2.4-1.086-4.58-1.18a.771.771 0 0 0-.066 1.54c2.46.106 3.865.921 4.383 1.293v1.008H11.053a6.422 6.422 0 0 1-.18-1.505c0-3.53 2.875-6.402 6.407-6.402a6.452 6.452 0 0 1 5.799 3.68 3.303 3.303 0 0 0-1.4 1.566zm1.28 2.661h8.726v-1.375c0-.96-.78-1.74-1.741-1.74H24.7c-.96 0-1.741.78-1.741 1.74v1.375zm10.347 25.515c0 .013 0 .03-.026.045s-.041.006-.052-.001l-5.498-3.429a.771.771 0 0 0-.816 0l-5.498 3.429c-.01.007-.026.016-.052.001-.027-.015-.027-.032-.027-.045V28.33h11.97v14.182zM52.05 26.79a.051.051 0 0 0 .051-.051v-1.6H2.542v1.6c0 .028.023.051.052.051H52.05z" fill="#F11F60" stroke="#F11F60" stroke-width=".2"/></svg>