<svg width="58" height="53" fill="none" xmlns="http://www.w3.org/2000/svg"><path fill-rule="evenodd" clip-rule="evenodd" d="M44.316 7.932l12.955 13.84a.903.903 0 0 1 .244.617v17.12a2.11 2.11 0 0 1-1.204 1.902v2.915a.903.903 0 0 1-.904.903H49.74a.903.903 0 0 1-.903-.903V41.41a2.108 2.108 0 0 1-1.204-1.9V27.542l-4.306-4.537v20.116a2.11 2.11 0 0 1-1.507 2.019v6.41a.903.903 0 0 1-.903.903H17.214a.903.903 0 0 1-.903-.903v-6.528a2.108 2.108 0 0 1-1.204-1.901V23.006L10.8 27.542V39.51c0 .839-.494 1.562-1.205 1.901v2.916a.903.903 0 0 1-.903.903H3.025a.903.903 0 0 1-.903-.903V41.41a2.108 2.108 0 0 1-1.204-1.9V22.39c0-.23.087-.45.243-.618l12.955-13.84c.808-.863 2.354-1.698 3.519-1.9l4.253-.74.346-3.886a.903.903 0 0 1 .436-.694l.007-.005.005-.002a.898.898 0 0 1 .077-.04l.005-.002a.924.924 0 0 1 .08-.032l.005-.002a.813.813 0 0 1 .049-.014l.04-.01a.903.903 0 0 1 .177-.021h.007l.012-.001H35.32a1.017 1.017 0 0 1 .177.023c.012.003.025.005.037.009l.049.015.006.002.025.008a.877.877 0 0 1 .05.021l.007.003.021.01.048.025.008.005.019.01a.957.957 0 0 1 .04.027l.003.002.01.008a.493.493 0 0 1 .018.012l.033.027.003.002.008.006.022.02a.472.472 0 0 1 .02.018l.008.009.008.007.025.025.006.007.004.006a.903.903 0 0 1 .07.09l.008.011v.001l.012.018a.495.495 0 0 1 .014.024l.005.01.004.007.02.036.009.02.004.01a.859.859 0 0 1 .029.072l.003.009a.806.806 0 0 1 .017.056l.002.005.001.006.003.01v.001a.828.828 0 0 1 .018.104l.001.01v.001l.002.015.346 3.886 4.253.74c1.165.202 2.71 1.037 3.52 1.9zM41.52 38.035h-4.515a.903.903 0 1 1 0-1.806h4.515V21.093c-1.262-1.429-1.806-2.886-1.806-4.806v-8.61l-3.847-.67-5.747 3.2V16.9a.903.903 0 0 1-1.806 0v-6.694l-5.747-3.199-3.847.67v8.61c0 1.92-.543 3.377-1.806 4.806v15.136h4.516a.903.903 0 1 1 0 1.806h-4.516v5.087c0 .163.138.301.301.301h11.099v-22.91a.903.903 0 1 1 1.806 0v22.91h11.1a.305.305 0 0 0 .3-.301v-5.087zm-13.206 9H18.117V45.23h10.196v1.807zm1.951-38.977l4.49-2.5-.25-2.815c-1.357.627-3.646 2.133-4.24 5.315zm-1.048-2.582A8.866 8.866 0 0 0 26.75 2.39h4.934a8.868 8.868 0 0 0-2.467 3.087zm-5.538.083l4.49 2.5c-.594-3.183-2.883-4.69-4.24-5.316l-.25 2.816zM3.928 43.423v-1.806H7.79v1.806H3.928zM8.994 22.39a.903.903 0 1 1 1.807 0v2.53l4.554-4.798c1.136-1.197 1.558-2.236 1.558-3.834V8.163c-.573.27-1.143.645-1.478 1.004L2.724 22.747v16.762c0 .164.138.301.3.301h5.67a.305.305 0 0 0 .3-.3V22.39zm9.123 26.453h10.196v1.806H18.117v-1.806zm12.002-3.613v5.42h9.894v-1.807H32.83a.903.903 0 1 1 0-1.806h7.184V45.23H30.12zm12.958-25.108c-1.136-1.197-1.558-2.236-1.558-3.834V8.163c.573.27 1.143.645 1.479 1.004l12.71 13.58v16.762a.305.305 0 0 1-.3.302h-5.669a.305.305 0 0 1-.3-.302V22.39a.903.903 0 0 0-1.807 0v2.53l-4.555-4.798zm7.565 21.496v1.806h3.862v-1.806h-3.862z" fill="#F11F60"/></svg>