<svg xmlns="http://www.w3.org/2000/svg" width="44" height="50"><defs><clipPath id="a"><path clip-rule="evenodd" d="M-531-779H909v4080H-531z"/></clipPath></defs><g clip-path="url(#a)"><path d="M34.203 19.125v3.334l9.982 22.508-.582.497c-.19.163-4.858 3.988-21.017 3.988-16.158 0-20.825-3.825-21.016-3.988l-.582-.497 9.99-22.527v-3.315c-.484-1.16-1.59-4.304-1.416-8.425.113-2.66-1.467-8.017-1.483-8.071l-.311-1.047L14.646 0l.238.987c.057.23 1.488 5.704 7.706 5.704 2.633 0 4.727-.96 6.226-2.855C29.928 2.43 30.294 1 30.296.987l.24-.987 6.878 1.581-.311 1.048c-.016.053-1.596 5.414-1.483 8.07.174 4.122-.932 7.266-1.416 8.426zm-20.99-16.69a10.84 10.84 0 0 0 1.542 2.674c1.312 1.658 3.736 3.634 7.835 3.634 4.1 0 6.524-1.976 7.835-3.634a10.836 10.836 0 0 0 1.543-2.674l2.873.66c-.481 1.792-1.368 5.446-1.272 7.691.147 3.472-.734 6.204-1.177 7.337H12.786c-.443-1.127-1.322-3.844-1.174-7.337.095-2.245-.791-5.899-1.272-7.69l2.873-.66zm-.184 17.74v1.456h19.122v-1.456H13.03zM22.586 47.4c4.388 0 10.66-.305 15.624-1.756 1.726-.504 2.819-1.011 3.432-1.349l-9.14-20.612h-3.895l2.015 8.945-2.002.451-2.116-9.395H18.58l-2.116 9.395-2.002-.45 2.015-8.945H12.67l-9.14 20.61c.614.337 1.706.845 3.431 1.35 4.964 1.45 11.236 1.755 15.624 1.755z" fill-rule="evenodd"/></g></svg>