<svg xmlns="http://www.w3.org/2000/svg" width="43" height="50"><defs><clipPath id="a"><path clip-rule="evenodd" d="M-708-779H732v4080H-708z"/></clipPath></defs><g clip-path="url(#a)"><path d="M24.671 24.605h-.008a.765.765 0 0 0-.765.769c0 .425.349.769.773.769a.769.769 0 1 0 0-1.538z"/></g><defs><clipPath id="b"><path clip-rule="evenodd" d="M-708-779H732v4080H-708z"/></clipPath></defs><g clip-path="url(#b)"><path d="M24.68 36.088h-.009a.765.765 0 0 0-.765.769c0 .424.349.768.773.768a.769.769 0 0 0 0-1.537z"/></g><defs><clipPath id="c"><path clip-rule="evenodd" d="M-708-779H732v4080H-708z"/></clipPath></defs><g clip-path="url(#c)"><path d="M24.671 18.864h-.008a.765.765 0 0 0-.765.769c0 .425.349.769.773.769a.769.769 0 1 0 0-1.538z"/></g><defs><clipPath id="d"><path clip-rule="evenodd" d="M-708-779H732v4080H-708z"/></clipPath></defs><g clip-path="url(#d)"><path d="M24.671 30.346h-.008a.765.765 0 0 0-.765.77c0 .424.349.768.773.768a.769.769 0 0 0 0-1.538z"/></g><defs><clipPath id="e"><path clip-rule="evenodd" d="M-708-779H732v4080H-708z"/></clipPath></defs><g clip-path="url(#e)"><path d="M41.926 10.678l.713 26.393a1.59 1.59 0 0 1-.985 1.512l.146 2.551a1.584 1.584 0 0 1-1.021 1.576l-4.687 1.786a1.59 1.59 0 0 1-1.177 1.467l-11.694 3.119a.77.77 0 0 1-.96-.641l-.879-6.587-.878 6.587a.769.769 0 0 1-.96.641L7.85 45.964a1.59 1.59 0 0 1-1.177-1.468L1.986 42.71a1.583 1.583 0 0 1-1.021-1.576l.146-2.55a1.59 1.59 0 0 1-.986-1.513L.84 10.678a5.727 5.727 0 0 1 3.774-5.205l8.07-2.882L14.18.342a.769.769 0 0 1 .64-.341V0h13.123a.763.763 0 0 1 .64.342l1.498 2.249 8.07 2.882a5.727 5.727 0 0 1 3.774 5.205zm-25.059-9.14l4.515 3.95 4.515-3.95h-9.03zm-1.893.387l5.21 4.559-2.663 2.13a.044.044 0 0 1-.04.011.047.047 0 0 1-.036-.023l-3.35-5.36.88-1.317zM25.32 8.602l3.35-5.36-.879-1.317-5.21 4.559 2.664 2.13a.044.044 0 0 0 .04.011.048.048 0 0 0 .035-.023zm-4.706 27.384l-1.518 11.385-10.848-2.894a.051.051 0 0 1-.039-.049V14.712a.769.769 0 0 0-1.538 0v24.316l-4.974-1.866a.051.051 0 0 1-.033-.05l.713-26.393A4.179 4.179 0 0 1 5.13 6.921l7.727-2.76 3.284 5.256a1.59 1.59 0 0 0 2.34.399l2.132-1.706v27.876zm15.487 3.04l4.969-1.864a.052.052 0 0 0 .033-.05l-.713-26.393a4.179 4.179 0 0 0-2.754-3.798l-7.727-2.76-3.284 5.256a1.59 1.59 0 0 1-2.34.399L22.15 8.11v27.875l1.52 11.385 10.85-2.894a.05.05 0 0 0 .038-.049l.029-29.717a.769.769 0 0 1 1.538.001L36.1 39.027zm4.131 2.247l-4.135 1.575.002-2.18 4.048-1.517.118 2.07a.051.051 0 0 1-.033.052zm-37.698 0l4.137 1.576v-2.178L2.62 39.15l-.12 2.072a.051.051 0 0 0 .033.05z" fill-rule="evenodd"/></g><defs><clipPath id="f"><path clip-rule="evenodd" d="M-708-779H732v4080H-708z"/></clipPath></defs><g clip-path="url(#f)"><path d="M17.281 13.943h-6.56a.769.769 0 0 0-.77.769v5.741c0 1.329 1.08 2.41 2.41 2.41h3.28a2.413 2.413 0 0 0 2.41-2.41v-5.741a.769.769 0 0 0-.77-.77zm-1.64 3.28c.48 0 .872-.39.872-.87v-.872h-5.024v.871c0 .48.39.872.871.872h3.281zm.872 3.23c0 .48-.391.871-.872.871h-3.28a.872.872 0 0 1-.872-.871v-1.856c.27.106.564.164.871.164h3.281c.307 0 .601-.058.872-.164v1.856z" fill-rule="evenodd"/></g><defs><clipPath id="g"><path clip-rule="evenodd" d="M-708-779H732v4080H-708z"/></clipPath></defs><g clip-path="url(#g)"><path d="M24.663 14.66a.769.769 0 1 0 0-1.537.769.769 0 0 0 0 1.538z"/></g></svg>