<svg xmlns="http://www.w3.org/2000/svg" width="42" height="50"><defs><clipPath id="a"><path clip-rule="evenodd" d="M-1057-779H383v4080h-1440z"/></clipPath></defs><g clip-path="url(#a)"><path d="M27.25 0h4.166c5.755 0 10.418 4.664 10.418 10.417v31.25h-6.25V50H6.416v-8.333H.166v-31.25C.166 4.664 4.831 0 10.584 0h4.167A6.257 6.257 0 0 0 21 6.25 6.258 6.258 0 0 0 27.25 0zm8.334 35.417h4.167v-25a8.28 8.28 0 0 0-2.441-5.893 8.278 8.278 0 0 0-5.893-2.44H29.07a8.336 8.336 0 0 1-16.14 0h-2.347a8.28 8.28 0 0 0-5.893 2.44 8.282 8.282 0 0 0-2.44 5.893v25h4.166V12.5H8.5v2.084h25V12.5h2.083v22.917zM8.5 25h25v-8.333h-25V25zm25 22.917h-1.042a1.043 1.043 0 0 0-2.083 0H28.29a1.041 1.041 0 1 0-2.082 0h-2.083a1.043 1.043 0 0 0-2.085 0h-2.08a1.043 1.043 0 0 0-2.083 0H15.79a1.041 1.041 0 1 0-2.082 0h-2.083a1.043 1.043 0 0 0-2.085 0H8.5V27.084h25v20.833zM5.376 38.542c.575 0 1.04.466 1.04 1.042V37.5H2.251v2.084a1.04 1.04 0 1 1 2.083 0c0-.576.466-1.042 1.042-1.042zm34.375 1.042a1.042 1.042 0 1 0-2.085 0 1.04 1.04 0 1 0-2.082 0V37.5h4.167v2.084z" fill-rule="evenodd"/></g></svg>