<svg xmlns="http://www.w3.org/2000/svg" width="44" height="51"><defs><clipPath id="a"><path clip-rule="evenodd" d="M-1207-779H233v4080h-1440z"/></clipPath></defs><g clip-path="url(#a)"><path d="M5.546 32.87h33.8c2.764 0 5.011 2.228 5.011 4.967v7.593c0 2.74-2.247 4.968-5.01 4.968h-33.8c-2.764 0-5.011-2.228-5.011-4.968v-7.592c0-2.74 2.248-4.968 5.01-4.968zm33.8 15.935c1.885 0 3.418-1.514 3.418-3.374v-7.593c0-1.861-1.533-3.375-3.417-3.375h-33.8c-1.885 0-3.418 1.514-3.418 3.375v7.592c0 1.861 1.533 3.375 3.417 3.375h33.8z" fill-rule="evenodd"/></g><defs><clipPath id="b"><path clip-rule="evenodd" d="M-1207-779H233v4080h-1440z"/></clipPath></defs><g clip-path="url(#b)"><path fill="none" stroke="#000" stroke-width=".5" d="M5.546 32.87h33.8c2.764 0 5.011 2.228 5.011 4.967v7.593c0 2.74-2.247 4.968-5.01 4.968h-33.8c-2.764 0-5.011-2.228-5.011-4.968v-7.592c0-2.74 2.248-4.968 5.01-4.968zm33.8 15.935c1.885 0 3.418-1.514 3.418-3.374v-7.593c0-1.861-1.533-3.375-3.417-3.375h-33.8c-1.885 0-3.418 1.514-3.418 3.375v7.592c0 1.861 1.533 3.375 3.417 3.375h33.8z"/></g><defs><clipPath id="c"><path clip-rule="evenodd" d="M-1207-779H233v4080h-1440z"/></clipPath></defs><g clip-path="url(#c)"><path d="M42.764 37.65H1.333a.797.797 0 0 0 0 1.594h41.43a.797.797 0 0 0 0-1.594z"/></g><defs><clipPath id="d"><path clip-rule="evenodd" d="M-1207-779H233v4080h-1440z"/></clipPath></defs><g clip-path="url(#d)"><path fill="none" stroke="#000" stroke-width=".5" d="M42.764 37.65H1.333a.797.797 0 0 0 0 1.594h41.43a.797.797 0 0 0 0-1.594z"/></g><defs><clipPath id="e"><path clip-rule="evenodd" d="M-1207-779H233v4080h-1440z"/></clipPath></defs><g clip-path="url(#e)"><path d="M13.491 14.544c-5.136 5.635-7.886 11.97-8.175 18.829l1.593.067c.272-6.475 2.883-12.472 7.76-17.822l-1.178-1.074z"/></g><defs><clipPath id="f"><path clip-rule="evenodd" d="M-1207-779H233v4080h-1440z"/></clipPath></defs><g clip-path="url(#f)"><path fill="none" stroke="#000" stroke-width=".5" d="M13.491 14.544c-5.136 5.635-7.886 11.97-8.175 18.829l1.593.067c.272-6.475 2.883-12.472 7.76-17.822l-1.178-1.074z"/></g><defs><clipPath id="g"><path clip-rule="evenodd" d="M-1207-779H233v4080h-1440z"/></clipPath></defs><g clip-path="url(#g)"><path d="M31.193 14.544l-1.177 1.074c4.877 5.35 7.488 11.346 7.76 17.822l1.592-.067c-.288-6.86-3.039-13.194-8.175-18.828z"/></g><defs><clipPath id="h"><path clip-rule="evenodd" d="M-1207-779H233v4080h-1440z"/></clipPath></defs><g clip-path="url(#h)"><path fill="none" stroke="#000" stroke-width=".5" d="M31.193 14.544l-1.177 1.074c4.877 5.35 7.488 11.346 7.76 17.822l1.592-.067c-.288-6.86-3.039-13.194-8.175-18.828z"/></g><defs><clipPath id="i"><path clip-rule="evenodd" d="M-1207-779H233v4080h-1440z"/></clipPath></defs><g clip-path="url(#i)"><path d="M11.69 10.56C11.69 4.85 16.337.204 22.049.204S32.407 4.85 32.407 10.562c0 5.711-4.646 10.357-10.358 10.357-5.711 0-10.357-4.646-10.357-10.357zm1.594 0c0 4.833 3.932 8.765 8.764 8.765 4.833 0 8.765-3.932 8.765-8.764 0-4.833-3.932-8.765-8.765-8.765-4.832 0-8.764 3.932-8.764 8.765z" fill-rule="evenodd"/></g><defs><clipPath id="j"><path clip-rule="evenodd" d="M-1207-779H233v4080h-1440z"/></clipPath></defs><g clip-path="url(#j)"><path fill="none" stroke="#000" stroke-width=".5" d="M11.69 10.56C11.69 4.85 16.337.204 22.049.204S32.407 4.85 32.407 10.562c0 5.711-4.646 10.357-10.358 10.357-5.711 0-10.357-4.646-10.357-10.357zm1.594 0c0 4.833 3.932 8.765 8.764 8.765 4.833 0 8.765-3.932 8.765-8.764 0-4.833-3.932-8.765-8.765-8.765-4.832 0-8.764 3.932-8.764 8.765z"/></g><defs><clipPath id="k"><path clip-rule="evenodd" d="M-1207-779H233v4080h-1440z"/></clipPath></defs><g clip-path="url(#k)"><path d="M36.39 24.902H7.707a.797.797 0 0 0 0 1.594H36.39a.797.797 0 0 0 0-1.594z"/></g><defs><clipPath id="l"><path clip-rule="evenodd" d="M-1207-779H233v4080h-1440z"/></clipPath></defs><g clip-path="url(#l)"><path fill="none" stroke="#000" stroke-width=".5" d="M36.39 24.902H7.707a.797.797 0 0 0 0 1.594H36.39a.797.797 0 0 0 0-1.594z"/></g><defs><clipPath id="m"><path clip-rule="evenodd" d="M-1207-779H233v4080h-1440z"/></clipPath></defs><g clip-path="url(#m)"><path d="M12.487 31.276a1.593 1.593 0 1 0 0-3.187 1.593 1.593 0 0 0 0 3.187z"/></g><defs><clipPath id="n"><path clip-rule="evenodd" d="M-1207-779H233v4080h-1440z"/></clipPath></defs><g clip-path="url(#n)"><path fill="none" stroke="#000" stroke-width=".5" d="M12.487 31.276a1.593 1.593 0 1 0 0-3.187 1.593 1.593 0 0 0 0 3.187z"/></g><defs><clipPath id="o"><path clip-rule="evenodd" d="M-1207-779H233v4080h-1440z"/></clipPath></defs><g clip-path="url(#o)"><path d="M18.861 31.276a1.593 1.593 0 1 0 0-3.187 1.593 1.593 0 0 0 0 3.187z"/></g><defs><clipPath id="p"><path clip-rule="evenodd" d="M-1207-779H233v4080h-1440z"/></clipPath></defs><g clip-path="url(#p)"><path fill="none" stroke="#000" stroke-width=".5" d="M18.861 31.276a1.593 1.593 0 1 0 0-3.187 1.593 1.593 0 0 0 0 3.187z"/></g><defs><clipPath id="q"><path clip-rule="evenodd" d="M-1207-779H233v4080h-1440z"/></clipPath></defs><g clip-path="url(#q)"><path d="M26.032 31.276a1.593 1.593 0 1 0 0-3.187 1.593 1.593 0 0 0 0 3.187z"/></g><defs><clipPath id="r"><path clip-rule="evenodd" d="M-1207-779H233v4080h-1440z"/></clipPath></defs><g clip-path="url(#r)"><path fill="none" stroke="#000" stroke-width=".5" d="M26.032 31.276a1.593 1.593 0 1 0 0-3.187 1.593 1.593 0 0 0 0 3.187z"/></g><defs><clipPath id="s"><path clip-rule="evenodd" d="M-1207-779H233v4080h-1440z"/></clipPath></defs><g clip-path="url(#s)"><path d="M32.406 31.276a1.593 1.593 0 1 0 0-3.187 1.593 1.593 0 0 0 0 3.187z"/></g><defs><clipPath id="t"><path clip-rule="evenodd" d="M-1207-779H233v4080h-1440z"/></clipPath></defs><g clip-path="url(#t)"><path fill="none" stroke="#000" stroke-width=".5" d="M32.406 31.276a1.593 1.593 0 1 0 0-3.187 1.593 1.593 0 0 0 0 3.187z"/></g><defs><clipPath id="u"><path clip-rule="evenodd" d="M-1207-779H233v4080h-1440z"/></clipPath></defs><g clip-path="url(#u)"><path d="M18.652 5.241a.797.797 0 0 0-1.126-.048c-1.134 1.04-1.982 2.522-2.39 4.17a8.381 8.381 0 0 0-.218 2.873.797.797 0 0 0 1.585-.164 6.796 6.796 0 0 1 .181-2.328c.333-1.346 1.014-2.546 1.92-3.377a.797.797 0 0 0 .048-1.126z"/></g><defs><clipPath id="v"><path clip-rule="evenodd" d="M-1207-779H233v4080h-1440z"/></clipPath></defs><g clip-path="url(#v)"><path fill="none" stroke="#000" stroke-width=".5" d="M18.652 5.241a.797.797 0 0 0-1.126-.048c-1.134 1.04-1.982 2.522-2.39 4.17a8.381 8.381 0 0 0-.218 2.873.797.797 0 0 0 1.585-.164 6.796 6.796 0 0 1 .181-2.328c.333-1.346 1.014-2.546 1.92-3.377a.797.797 0 0 0 .048-1.126z"/></g><defs><clipPath id="w"><path clip-rule="evenodd" d="M-1207-779H233v4080h-1440z"/></clipPath></defs><g clip-path="url(#w)"><path d="M23.642 43.228H1.332a.797.797 0 0 0 0 1.593h22.31a.797.797 0 0 0 0-1.593z"/></g><defs><clipPath id="x"><path clip-rule="evenodd" d="M-1207-779H233v4080h-1440z"/></clipPath></defs><g clip-path="url(#x)"><path fill="none" stroke="#000" stroke-width=".5" d="M23.642 43.228H1.332a.797.797 0 0 0 0 1.593h22.31a.797.797 0 0 0 0-1.593z"/></g></svg>