<svg xmlns="http://www.w3.org/2000/svg" width="43" height="50"><defs><clipPath id="a"><path clip-rule="evenodd" d="M-882-779H558v4080H-882z"/></clipPath></defs><g clip-path="url(#a)"><path d="M42.195 9.347a8.14 8.14 0 0 0-5.752-7.596L31.806.324A7.318 7.318 0 0 0 29.651 0H13.58a7.32 7.32 0 0 0-2.156.324L6.787 1.751a8.14 8.14 0 0 0-5.751 7.596l-.68 28.577a1.58 1.58 0 0 0 .806 1.42v2.747c0 .605.337 1.15.879 1.421l5.683 2.841v1.166a1.59 1.59 0 0 0 1.589 1.589h24.605a1.59 1.59 0 0 0 1.589-1.59v-1.165l5.683-2.841a1.58 1.58 0 0 0 .878-1.421v-2.747a1.58 1.58 0 0 0 .807-1.42l-.68-28.577zm-27.043-7.81H13.58c-.06 0-.12.002-.181.004a8.206 8.206 0 0 0 2.484 5.166 8.212 8.212 0 0 0 5.732 2.315 8.227 8.227 0 0 0 8.217-7.48 6.045 6.045 0 0 0-.182-.004h-1.572c-.381 3.228-3.133 5.741-6.463 5.741s-6.081-2.513-6.463-5.741zm11.376 0a4.98 4.98 0 0 1-4.913 4.204 4.98 4.98 0 0 1-4.912-4.203h9.825zm10.486 38.311l4.293-1.84a.05.05 0 0 0 .03-.048l-.68-28.576A6.605 6.605 0 0 0 35.99 3.22l-4.637-1.427-.004-.001a9.736 9.736 0 0 1-2.947 6.031 9.744 9.744 0 0 1-6.788 2.736 9.742 9.742 0 0 1-6.8-2.747 9.733 9.733 0 0 1-2.935-6.02h-.004L7.24 3.222a6.605 6.605 0 0 0-4.666 6.163l-.68 28.576c0 .021.012.04.031.049l4.293 1.84.687-26.797a.769.769 0 1 1 1.537.04l-.233 9.084 1.718.723 3.596-1.514a.769.769 0 0 1 .597 0l3.596 1.514 3.595-1.514a.768.768 0 0 1 .597 0l3.595 1.514 3.599-1.514a.77.77 0 0 1 .596 0L33.3 22.9l1.723-.725-.233-9.083a.769.769 0 1 1 1.538-.04l.687 26.797zM8.124 25.421l.042-1.595 1.462.616c.19.08.406.08.597 0l3.595-1.514 3.596 1.514c.191.08.406.08.597 0l3.595-1.514 3.595 1.514c.19.08.406.08.597 0l3.599-1.514L33 24.442a.767.767 0 0 0 .597 0l1.467-.617.041 1.595-1.806.76-3.602-1.515a.77.77 0 0 0-.596 0l-3.6 1.515-3.594-1.515a.77.77 0 0 0-.598 0l-3.594 1.515-3.596-1.515a.77.77 0 0 0-.597 0L9.926 26.18l-1.801-.759zm2.1 2.302a.77.77 0 0 1-.596 0l-1.545-.65-.208 8.085 2.051.864 3.596-1.514a.773.773 0 0 1 .597 0l3.596 1.514 3.595-1.514a.768.768 0 0 1 .597 0l3.595 1.514 3.599-1.514a.77.77 0 0 1 .596 0l3.602 1.514 2.056-.865-.207-8.086-1.551.652a.77.77 0 0 1-.596 0l-3.602-1.515-3.599 1.515a.769.769 0 0 1-.597 0l-3.595-1.514-3.595 1.514a.77.77 0 0 1-.597 0l-3.595-1.514-3.596 1.514zm0 9.842a.769.769 0 0 1-.596 0l-1.795-.756-.041 1.595 2.134.899 3.596-1.515a.77.77 0 0 1 .597 0l3.596 1.515 3.595-1.515a.77.77 0 0 1 .597 0l3.595 1.515 3.599-1.515a.77.77 0 0 1 .596 0l3.602 1.515 2.14-.9-.041-1.595-1.801.757a.767.767 0 0 1-.596 0l-3.602-1.515-3.599 1.515a.768.768 0 0 1-.597 0l-3.595-1.514-3.595 1.514a.769.769 0 0 1-.597 0l-3.595-1.515-3.596 1.515zm25.095 6.461a.865.865 0 0 1-.624.263H8.535a.865.865 0 0 1-.624-.263.864.864 0 0 1-.247-.63l.086-3.341 1.878.79c.19.081.406.081.597 0l3.595-1.514 3.596 1.515c.191.08.406.08.597 0l3.595-1.515 3.595 1.515c.191.08.406.08.597 0l3.599-1.515L33 40.846a.768.768 0 0 0 .597 0l1.884-.792.085 3.342a.864.864 0 0 1-.247.63zm-29.154-.17l-3.437-1.72a.051.051 0 0 1-.028-.045v-2.077l3.474 1.49-.047 1.852c-.005.17.009.337.038.5zM40.53 42.09a.05.05 0 0 1-.028.046l-3.437 1.718c.03-.162.043-.33.039-.499l-.048-1.853 3.474-1.489v2.077zm-6.612 5.479a.051.051 0 0 0 .051-.051v-1.692H9.261v1.692c0 .028.023.05.052.05h24.605z" fill-rule="evenodd"/></g></svg>