<svg xmlns="http://www.w3.org/2000/svg" width="47" height="50"><defs><clipPath id="a"><path clip-rule="evenodd" d="M-355-779h1440v4080H-355z"/></clipPath></defs><g clip-path="url(#a)"><path d="M21.643 4.218h4a.775.775 0 1 0 0-1.551h-4a.775.775 0 1 0 0 1.55z"/></g><defs><clipPath id="b"><path clip-rule="evenodd" d="M-355-779h1440v4080H-355z"/></clipPath></defs><g clip-path="url(#b)"><path d="M44.035 7.49l2.668 10.992a.775.775 0 0 1-.467.903l-7.622 3.028v5.42a.775.775 0 1 1-1.551 0v-15.28c0-.14.038-.28.112-.4l3.91-6.468a3.747 3.747 0 0 0-.883-.53c-1.561-.663-6.19-2.43-8.32-3.239-.515 4.564-4.066 8.228-8.211 8.228-4.158 0-7.717-3.686-8.216-8.268-2.078.79-6.838 2.605-8.426 3.28-.338.144-.63.327-.883.53l3.91 6.466c.073.122.112.26.112.402v31.85h5.254a.775.775 0 1 1 0 1.551h-5.254v1.602h26.894v-1.602H18.006a.775.775 0 1 1 0-1.55h19.056V30.417a.775.775 0 1 1 1.551 0v17.915a.775.775 0 0 1-.775.776H9.392a.775.775 0 0 1-.775-.776V22.414L.995 19.386a.775.775 0 0 1-.467-.904l.772-3.18 1.896-7.813.002-.01a.552.552 0 0 0 .004-.014c.073-.281.767-2.694 3.22-3.736C8.494 2.848 15.595.164 15.896.05l.02-.006.038-.013.033-.008.037-.009a.727.727 0 0 1 .04-.006l.032-.004A.769.769 0 0 1 16.17 0h15.001c.185 0 .354.065.488.173 1.462.554 7.302 2.77 9.15 3.556 2.55 1.084 3.2 3.652 3.226 3.76zM16.978 1.55c.359 4.245 3.628 7.043 6.693 7.043 3.064 0 6.334-2.797 6.692-7.042H16.978zm21.635 11.22l3.523-5.826c.186.331.296.617.35.776v.002l.014.041.002.007.009.028.003.01.005.018.003.007.002.011.002.006.002.005 1.74 7.17-5.655 2.371V12.77zm-29.996 0v4.626l-5.654-2.371 1.74-7.166c.001-.009.107-.409.392-.915l3.522 5.826zm0 7.975v-1.667L2.592 16.55l-.398 1.642 6.423 2.552zm0 0zm29.996-1.667v1.667l6.424-2.552-.399-1.642-6.025 2.527z" fill-rule="evenodd"/></g></svg>