<svg width="64" height="44" fill="none" xmlns="http://www.w3.org/2000/svg"><path d="M12.651 6.814l2.905-1.235a.613.613 0 0 0-.478-1.129l-2.905 1.236a.613.613 0 0 0 .478 1.128z" fill="#000"/><path fill-rule="evenodd" clip-rule="evenodd" d="M29.922 2.28l5.326 7.173a.614.614 0 0 1-.06.801l-4.603 4.557 1.67 3.942a.613.613 0 0 1-1.125.48L26.42 8.116a.614.614 0 0 1-.043-.327l.846-5.912a2.95 2.95 0 0 0-.804-.113c-1.339 0-5.244.144-7.041.213 1.033 3.479-.417 7.24-3.427 8.521-3.02 1.284-6.74-.298-8.515-3.478-1.267 1.216-4.164 4.007-5.109 4.988a2.99 2.99 0 0 0-.478.659l4.833 3.497c.09.065.162.154.205.257l9.82 23.172 3.815-1.622A.613.613 0 0 1 21 39.1l-3.816 1.623.494 1.165 19.532-8.306-.494-1.165-13.84 5.885a.613.613 0 0 1-.478-1.128l13.84-5.885-4.312-10.176a.611.611 0 1 1 1.126-.479l5.523 13.034a.613.613 0 0 1-.324.803l-20.658 8.785a.611.611 0 0 1-.802-.325L8.8 24.074l-6.47.151a.612.612 0 0 1-.617-.513l-.42-2.552-1.031-6.27v-.009l-.002-.01c-.034-.228-.274-2.197 1.186-3.713C2.68 9.878 7.01 5.732 7.193 5.557l.012-.011.024-.02a.766.766 0 0 1 .021-.017l.025-.018a.573.573 0 0 1 .027-.017l.022-.013a.607.607 0 0 1 .053-.025L18.27.803a.608.608 0 0 1 .407-.025C19.911.73 24.836.54 26.42.54c2.187 0 3.45 1.669 3.503 1.74zM8.442 6.314c1.568 2.978 4.805 4.003 7.03 3.057 2.226-.947 3.738-3.991 2.69-7.19l-9.72 4.133zm19.17 1.481l.763-5.326c.237.183.405.357.493.457h.001l.023.026c0 .002.002.003.004.005l.014.017.005.006.01.012.004.005.005.007.003.003.003.004 3.474 4.678-3.376 3.472-1.426-3.366zM5.828 17.058l1.426 3.366-4.838.021-.946-5.75a3.37 3.37 0 0 1 .004-.787l4.354 3.15zm2.458 5.802l-.514-1.212-5.154.022.216 1.317 5.452-.127zm0 0zm21.27-10.476l.515 1.213 3.878-3.84-.795-1.072-3.597 3.7z" fill="#000"/><path d="M36.007 37.97l-12.724-7.537 7.855-27.151 5.479 6.291-5.48 5.18 9.154 19.42-4.284 3.796z" fill="#fff"/><path d="M43.78 22.253l-.006-.001a.496.496 0 0 0-.608.354c-.07.266.09.54.355.612a.498.498 0 1 0 .258-.965zm-1.921 7.202l-.006-.002a.496.496 0 0 0-.607.354.501.501 0 0 0 .355.612.498.498 0 1 0 .258-.964zm2.883-10.802l-.005-.001a.496.496 0 0 0-.608.353.503.503 0 0 0 .355.613.498.498 0 1 0 .258-.965zm-1.926 7.2l-.005-.001a.496.496 0 0 0-.608.354c-.07.266.09.54.355.612a.498.498 0 1 0 .258-.965z" fill="#000"/><path fill-rule="evenodd" clip-rule="evenodd" d="M56.916 16.42l-3.98 16.669a1.03 1.03 0 0 1-.871.783l-.336 1.624c-.092.442-.455.77-.904.816l-3.233.333a1.031 1.031 0 0 1-.983.722l-7.843-.01a.499.499 0 0 1-.493-.563l.555-4.277-1.655 3.982a.499.499 0 0 1-.708.241l-6.797-3.92a1.033 1.033 0 0 1-.49-1.118l-2.635-1.908a1.029 1.029 0 0 1-.375-1.16l.52-1.574a1.033 1.033 0 0 1-.364-1.114l4.873-16.43a3.712 3.712 0 0 1 3.235-2.63l5.535-.451 1.315-1.158a.498.498 0 0 1 .458-.107l8.215 2.204v.001a.492.492 0 0 1 .343.322l.56 1.662 4.568 3.162a3.72 3.72 0 0 1 1.49 3.898zM42.763 6.477l2.164 3.236 3.489-1.719-5.653-1.517zm-1.25-.076l2.497 3.734-2.025.89c-.003 0-.013.005-.027-.001a.031.031 0 0 1-.018-.02L40.743 7.08l.77-.679zm5.356 5.925l2.996-2.797-.33-.974-4.025 1.983 1.31 1.784a.03.03 0 0 0 .023.013.029.029 0 0 0 .026-.009zm-7.539 16.38l-2.86 6.885-6.305-3.637a.034.034 0 0 1-.015-.038l4.984-18.633a.5.5 0 0 0-.963-.259l-4.078 15.248-2.801-2.006a.033.033 0 0 1-.013-.037L32.152 9.8a2.71 2.71 0 0 1 2.361-1.919l5.3-.432 1.174 3.847a1.031 1.031 0 0 0 1.398.644l1.62-.712-4.675 17.48zm9.185 4.51l3.422-.335a.034.034 0 0 0 .03-.025l3.98-16.67a2.715 2.715 0 0 0-1.087-2.844l-4.374-3.029-2.937 2.744a1.03 1.03 0 0 1-1.532-.144l-1.048-1.427-4.676 17.478-.96 7.395 7.278.009c.014 0 .028-.01.032-.025l5.002-18.629a.5.5 0 0 1 .962.26l-4.092 15.241zm2.208 2.102l-2.852.293.367-1.366 2.788-.272-.273 1.319a.033.033 0 0 1-.03.026zm-23.597-6.334l2.326 1.684.365-1.366-2.281-1.634-.422 1.279a.033.033 0 0 0 .012.037z" fill="#000"/><path fill-rule="evenodd" clip-rule="evenodd" d="M40.942 14.326l-4.107-1.103a.498.498 0 0 0-.61.353l-.963 3.6a1.566 1.566 0 0 0 1.104 1.916l2.053.551a1.563 1.563 0 0 0 1.912-1.106l.963-3.6a.5.5 0 0 0-.352-.611zm-1.577 1.781c.3.081.61-.098.692-.4l.146-.546-3.145-.844-.146.546a.566.566 0 0 0 .4.693l2.053.551zm.004 2.172a.565.565 0 0 1-.692.4l-2.053-.551a.566.566 0 0 1-.4-.693l.311-1.164c.152.112.326.198.518.25l2.054.55c.192.052.386.065.573.044l-.311 1.164z" fill="#000"/><path d="M45.442 16.016a.498.498 0 1 0 .258-.962.498.498 0 0 0-.258.962z" fill="#000"/><path fill-rule="evenodd" clip-rule="evenodd" d="M53.755 18.627a4.824 4.824 0 0 1 4.807 4.462 7.45 7.45 0 0 1 5.243 7.12 7.433 7.433 0 0 1-.623 2.988c-.025 4.07-2.505 5.96-6.59 5.96-4.106 0-5.863-1.248-6.948-5.77-.447-1.862-.093-2.925.765-3.53a13.78 13.78 0 0 1-.05-1.16c0-.614.043-1.177.13-1.691a4.82 4.82 0 0 1-1.554-3.55 4.824 4.824 0 0 1 4.82-4.829z" fill="#fff"/><path fill-rule="evenodd" clip-rule="evenodd" d="M51.612 31.4l8.983-4.006c.734-.328 1.595 0 1.919.728l.898 2.022a1.457 1.457 0 0 1-.743 1.916l-8.983 4.006a1.453 1.453 0 0 1-1.92-.728l-.898-2.022a1.457 1.457 0 0 1 .744-1.916zm10.868.236a.991.991 0 0 0 .509-1.303l-.899-2.022a.988.988 0 0 0-1.307-.493l-8.982 4.006a.991.991 0 0 0-.509 1.304l.898 2.02a.988.988 0 0 0 1.308.494l8.982-4.006z" fill="#000"/><path d="M1.458 0h9.835c.804 0 1.458.65 1.458 1.447V3.66c0 .798-.654 1.447-1.458 1.447H1.458A1.455 1.455 0 0 1 0 3.66V1.447C0 .65.654 0 1.458 0zm9.835 4.642a.99.99 0 0 0 .994-.983V1.447a.99.99 0 0 0-.994-.983H1.458a.99.99 0 0 0-.994.983V3.66a.99.99 0 0 0 .994.983h9.835z" transform="rotate(-24.037 100.28 -102.09) skewX(-.075)" stroke="#000" stroke-width=".5"/><path d="M62.068 28.262l-11.01 4.91a.232.232 0 0 0 .189.424l11.01-4.91a.232.232 0 0 0-.189-.424z" fill="#000"/><path d="M12.287 0H.232a.232.232 0 0 0 0 .464h12.055a.232.232 0 0 0 0-.464z" transform="rotate(-24.037 103.552 -102.782) skewX(-.075)" stroke="#000" stroke-width=".5"/><path d="M51.555 25.58c-.698 2.109-.68 4.121.056 5.981l.43-.17c-.693-1.757-.709-3.662-.046-5.665l-.44-.146z" fill="#000"/><path d="M2.379 0C.884 1.641.084 3.487 0 5.485l.463.02c.08-1.887.84-3.634 2.258-5.192L2.38 0z" transform="rotate(-24.037 87.043 -102.704) skewX(-.075)" stroke="#000" stroke-width=".5"/><path d="M56.26 23.482l-.186.425c1.929.846 3.332 2.133 4.17 3.825l.416-.207c-.888-1.792-2.369-3.152-4.4-4.043z" fill="#000"/><path d="M.343 0L0 .313C1.42 1.87 2.179 3.618 2.258 5.505l.463-.02C2.637 3.487 1.837 1.641.343 0z" transform="rotate(-24.037 83.45 -119.583) skewX(-.075)" stroke="#000" stroke-width=".5"/><path fill-rule="evenodd" clip-rule="evenodd" d="M50.605 24.733a3.024 3.024 0 0 1 1.527-3.985 3.014 3.014 0 0 1 3.979 1.53 3.024 3.024 0 0 1-1.528 3.985 3.014 3.014 0 0 1-3.978-1.53zm.424-.189a2.55 2.55 0 0 0 3.366 1.294 2.559 2.559 0 0 0 1.292-3.372 2.55 2.55 0 0 0-3.366-1.294 2.559 2.559 0 0 0-1.292 3.372z" fill="#000"/><path d="M0 3.017A3.02 3.02 0 0 1 3.014 0a3.02 3.02 0 0 1 3.014 3.017 3.02 3.02 0 0 1-3.014 3.018A3.02 3.02 0 0 1 0 3.017zm.464 0a2.555 2.555 0 0 0 2.55 2.554 2.555 2.555 0 0 0 2.55-2.554A2.555 2.555 0 0 0 3.014.464a2.555 2.555 0 0 0-2.55 2.553z" transform="rotate(-24.037 76.3 -104.984) skewX(-.075)" stroke="#000" stroke-width=".5"/><path d="M58.866 25.623l-7.622 3.4a.232.232 0 0 0 .188.424l7.623-3.4a.232.232 0 0 0-.189-.424z" fill="#000"/><path d="M8.578 0H.232a.232.232 0 0 0 0 .464h8.346a.232.232 0 0 0 0-.464z" transform="rotate(-24.037 93.9 -105.292) skewX(-.075)" stroke="#000" stroke-width=".5"/><path d="M53.268 30.153a.465.465 0 1 0-.38-.848.465.465 0 0 0 .38.848z" fill="#000"/><path d="M.464.928a.464.464 0 1 0 0-.927.464.464 0 0 0 0 .927z" transform="rotate(-24.037 95.502 -108.476) skewX(-.075)" stroke="#000" stroke-width=".5"/><path d="M54.962 29.398a.465.465 0 1 0-.38-.849.465.465 0 0 0 .38.849z" fill="#000"/><path d="M.464.928a.464.464 0 1 0 0-.927.464.464 0 0 0 0 .927z" transform="rotate(-24.037 94.574 -112.832) skewX(-.075)" stroke="#000" stroke-width=".5"/><path d="M56.868 28.548a.465.465 0 1 0-.38-.849.465.465 0 0 0 .38.849z" fill="#000"/><path d="M.464.928a.464.464 0 1 0 0-.927.464.464 0 0 0 0 .927z" transform="rotate(-24.037 93.531 -117.732) skewX(-.075)" stroke="#000" stroke-width=".5"/><path d="M58.561 27.792a.465.465 0 1 0-.379-.848.465.465 0 0 0 .38.848z" fill="#000"/><path d="M.464.928a.464.464 0 1 0 0-.927.464.464 0 0 0 0 .927z" transform="rotate(-24.037 92.604 -122.088) skewX(-.075)" stroke="#000" stroke-width=".5"/><path d="M51.826 22.492a.232.232 0 0 0-.305.12 2.46 2.46 0 0 0-.142 1.393c.052.29.147.556.282.791a.232.232 0 1 0 .402-.231 1.983 1.983 0 0 1-.227-.641 1.99 1.99 0 0 1 .11-1.127.232.232 0 0 0-.12-.305z" fill="#000"/><path d="M1.098.075A.232.232 0 0 0 .771.061a2.444 2.444 0 0 0-.695 1.215c-.07.285-.092.566-.064.837a.232.232 0 1 0 .461-.048 1.982 1.982 0 0 1 .053-.678C.623.995.82.645 1.084.403a.232.232 0 0 0 .014-.328z" transform="rotate(-24.037 79.109 -107.853) skewX(-.075)" stroke="#000" stroke-width=".5"/><path d="M57.647 32.013l-5.93 2.644a.232.232 0 0 0 .19.424l5.928-2.644a.232.232 0 0 0-.188-.424z" fill="#000"/><path d="M6.723 0H.232a.232.232 0 0 0 0 .464h6.491a.232.232 0 0 0 0-.464z" transform="rotate(-24.037 107.369 -103.59) skewX(-.075)" stroke="#000" stroke-width=".5"/></svg>