<svg width="46" height="55" viewBox="0 0 46 55" fill="none" xmlns="http://www.w3.org/2000/svg">
<path fill-rule="evenodd" clip-rule="evenodd" d="M32.2002 0H34.5C40.8516 0 46 5.13025 46 11.4589V45.8339H39.0996V55H6.90039V45.8339H0V11.4589C0 5.13025 5.14941 0 11.5 0H13.7998H14.9502H16.1006C16.1006 3.79083 19.1953 6.875 23.001 6.875C26.8047 6.875 29.9004 3.79083 29.9004 0H31.0498H32.2002ZM5.75098 42.3964C6.38574 42.3964 6.89941 42.9084 6.89941 43.5428V41.25H2.30078V43.5428C2.30078 42.9084 2.81445 42.3964 3.44922 42.3964C4.08496 42.3964 4.60059 42.9084 4.60059 43.5428C4.60059 42.9084 5.11523 42.3964 5.75098 42.3964ZM36.7998 52.7089H35.6494C35.6494 52.076 35.1338 51.5625 34.499 51.5625C33.8633 51.5625 33.3496 52.076 33.3496 52.7089H31.0488C31.0488 52.076 30.5352 51.5625 29.9004 51.5625C29.2646 51.5625 28.749 52.076 28.749 52.7089H26.4502C26.4502 52.076 25.9346 51.5625 25.2998 51.5625C24.6641 51.5625 24.1484 52.076 24.1484 52.7089H21.8496C21.8496 52.076 21.334 51.5625 20.6992 51.5625C20.0635 51.5625 19.5498 52.076 19.5498 52.7089H17.249C17.249 52.076 16.7354 51.5625 16.1006 51.5625C15.4648 51.5625 14.9492 52.076 14.9492 52.7089H12.6504C12.6504 52.076 12.1348 51.5625 11.5 51.5625C10.8643 51.5625 10.3486 52.076 10.3486 52.7089H9.2002V29.7928H36.7998V52.7089ZM9.2002 27.4999H36.7998V18.3339H9.2002V27.4999ZM43.7002 43.5428C43.7002 42.9084 43.1846 42.3964 42.5498 42.3964C41.9141 42.3964 41.3994 42.9084 41.3994 43.5428C41.3994 42.9084 40.8848 42.3964 40.25 42.3964C39.6152 42.3964 39.0996 42.9084 39.0996 43.5428V41.25H43.7002V43.5428ZM39.0996 38.9589H43.7002V11.4589C43.7002 9.01001 42.7432 6.70795 41.0049 4.97662C39.2686 3.2453 36.957 2.29193 34.499 2.29193H31.9102C30.8896 6.24561 27.2881 9.16693 23.001 9.16693C18.7129 9.16693 15.1113 6.24561 14.0908 2.29193H11.5C9.04199 2.29193 6.73242 3.2453 4.99414 4.97662C3.25781 6.70795 2.30078 9.01001 2.30078 11.4589V38.9589H6.89941V13.75H9.20117V16.0419H36.8008V13.75H39.0996V38.9589Z" fill="#F11F60"/>
</svg>
