<svg xmlns="http://www.w3.org/2000/svg" width="55" height="56" fill="none" viewBox="0 0 55 56"><mask id="path-2-inside-1" fill="#fff"><path fill-rule="evenodd" d="M51.0459 48.1664H54.0957C54.5957 48.1664 55 48.5728 55 49.0743C55 52.3417 52.3516 55 49.0967 55H5.90332C2.64844 55 0 52.3417 0 49.0743C0 48.5729 0.405273 48.1665 0.904297 48.1665H4.85938H49.2363V37.5461C49.2363 36.1699 48.1211 35.0504 46.75 35.0504H44.5215H10.4785H8.25C6.87891 35.0504 5.76367 36.1699 5.76367 37.5461V44.9948C5.76367 45.4962 5.3584 45.9026 4.85938 45.9026C4.35938 45.9026 3.95508 45.4961 3.95508 44.9948V37.5461C3.95508 35.1689 5.88086 33.2349 8.25 33.2349H10.4785H43.6172V22.1622C43.6172 21.0356 42.7041 20.1188 41.582 20.1188H13.418C12.2959 20.1188 11.3828 21.0356 11.3828 22.1622V30.1487C11.3828 30.6501 10.9775 31.0565 10.4785 31.0565C9.97852 31.0565 9.57422 30.65 9.57422 30.1487V22.1622C9.57422 20.0345 11.2988 18.3034 13.418 18.3034H24.1348V9.40186C24.1348 8.90045 24.54 8.49408 25.0391 8.49408H26.5957V7.138C25.3994 6.75305 24.5312 5.62653 24.5312 4.29993C24.5312 2.90912 26.2949 0.88092 26.835 0.292542C27.0068 0.106018 27.2471 0 27.5 0C27.7529 0 27.9941 0.106018 28.165 0.292542C28.7051 0.88092 30.4688 2.90912 30.4688 4.29993C30.4688 5.62659 29.6006 6.75317 28.4043 7.138V8.49396H29.9609C30.46 8.49396 30.8652 8.90045 30.8652 9.40173V18.3033H41.582C43.7012 18.3033 45.4258 20.0344 45.4258 22.1621V33.2349H46.75C49.1191 33.2349 51.0459 35.1688 51.0459 37.546V48.1664ZM27.501 2.30872C26.8418 3.14972 26.3408 3.98743 26.3408 4.2998C26.3408 4.94189 26.8613 5.46417 27.501 5.46417C28.1406 5.46417 28.6611 4.94189 28.6611 4.2998C28.6611 3.98743 28.1602 3.14972 27.501 2.30872ZM25.9434 18.3033V10.3094H29.0557V18.3033H25.9434ZM1.90918 49.9818C2.32227 51.813 3.95605 53.1844 5.90332 53.1844H49.0967C51.0439 53.1844 52.6777 51.813 53.0908 49.9818H50.1406H4.85938H1.90918Z" clip-rule="evenodd"/></mask><path fill="#F11F60" fill-rule="evenodd" d="M51.0459 48.1664H54.0957C54.5957 48.1664 55 48.5728 55 49.0743C55 52.3417 52.3516 55 49.0967 55H5.90332C2.64844 55 0 52.3417 0 49.0743C0 48.5729 0.405273 48.1665 0.904297 48.1665H4.85938H49.2363V37.5461C49.2363 36.1699 48.1211 35.0504 46.75 35.0504H44.5215H10.4785H8.25C6.87891 35.0504 5.76367 36.1699 5.76367 37.5461V44.9948C5.76367 45.4962 5.3584 45.9026 4.85938 45.9026C4.35938 45.9026 3.95508 45.4961 3.95508 44.9948V37.5461C3.95508 35.1689 5.88086 33.2349 8.25 33.2349H10.4785H43.6172V22.1622C43.6172 21.0356 42.7041 20.1188 41.582 20.1188H13.418C12.2959 20.1188 11.3828 21.0356 11.3828 22.1622V30.1487C11.3828 30.6501 10.9775 31.0565 10.4785 31.0565C9.97852 31.0565 9.57422 30.65 9.57422 30.1487V22.1622C9.57422 20.0345 11.2988 18.3034 13.418 18.3034H24.1348V9.40186C24.1348 8.90045 24.54 8.49408 25.0391 8.49408H26.5957V7.138C25.3994 6.75305 24.5312 5.62653 24.5312 4.29993C24.5312 2.90912 26.2949 0.88092 26.835 0.292542C27.0068 0.106018 27.2471 0 27.5 0C27.7529 0 27.9941 0.106018 28.165 0.292542C28.7051 0.88092 30.4688 2.90912 30.4688 4.29993C30.4688 5.62659 29.6006 6.75317 28.4043 7.138V8.49396H29.9609C30.46 8.49396 30.8652 8.90045 30.8652 9.40173V18.3033H41.582C43.7012 18.3033 45.4258 20.0344 45.4258 22.1621V33.2349H46.75C49.1191 33.2349 51.0459 35.1688 51.0459 37.546V48.1664ZM27.501 2.30872C26.8418 3.14972 26.3408 3.98743 26.3408 4.2998C26.3408 4.94189 26.8613 5.46417 27.501 5.46417C28.1406 5.46417 28.6611 4.94189 28.6611 4.2998C28.6611 3.98743 28.1602 3.14972 27.501 2.30872ZM25.9434 18.3033V10.3094H29.0557V18.3033H25.9434ZM1.90918 49.9818C2.32227 51.813 3.95605 53.1844 5.90332 53.1844H49.0967C51.0439 53.1844 52.6777 51.813 53.0908 49.9818H50.1406H4.85938H1.90918Z" clip-rule="evenodd" transform="translate(0 0.103821)"/><path fill="#F11F60" d="M51.0459 48.1664H50.0459V49.1664H51.0459V48.1664ZM49.2363 48.1665V49.1665H50.2363V48.1665H49.2363ZM43.6172 33.2349V34.2349H44.6172V33.2349H43.6172ZM24.1348 18.3034V19.3034H25.1348V18.3034H24.1348ZM26.5957 8.49408V9.49408H27.5957V8.49408H26.5957ZM26.5957 7.138H27.5957V6.40929L26.902 6.18607L26.5957 7.138ZM26.835 0.292542L26.0996 -0.3851L26.0982 -0.383654L26.835 0.292542ZM28.165 0.292542L27.4277 0.968092L27.4283 0.968737L28.165 0.292542ZM28.4043 7.138L28.0981 6.18604L27.4043 6.40922V7.138H28.4043ZM28.4043 8.49396H27.4043V9.49396H28.4043V8.49396ZM30.8652 18.3033H29.8652V19.3033H30.8652V18.3033ZM45.4258 33.2349H44.4258V34.2349H45.4258V33.2349ZM27.501 2.30872L28.288 1.69183L27.501 0.687682L26.7139 1.69183L27.501 2.30872ZM25.9434 10.3094V9.30939H24.9434V10.3094H25.9434ZM25.9434 18.3033H24.9434V19.3033H25.9434V18.3033ZM29.0557 10.3094H30.0557V9.30939H29.0557V10.3094ZM29.0557 18.3033V19.3033H30.0557V18.3033H29.0557ZM1.90918 49.9818V48.9818H0.658466L0.933692 50.2019L1.90918 49.9818ZM53.0908 49.9818L54.0663 50.2019L54.3415 48.9818H53.0908V49.9818ZM54.0957 47.1664H51.0459V49.1664H54.0957V47.1664ZM56 49.0743C56 48.0246 55.1521 47.1664 54.0957 47.1664V49.1664C54.0393 49.1664 54 49.121 54 49.0743H56ZM49.0967 56C52.9074 56 56 52.8904 56 49.0743H54C54 51.7929 51.7957 54 49.0967 54V56ZM5.90332 56H49.0967V54H5.90332V56ZM-1 49.0743C-1 52.8904 2.0926 56 5.90332 56V54C3.20427 54 1 51.7929 1 49.0743H-1ZM0.904297 47.1665C-0.150298 47.1665 -1 48.0239 -1 49.0743H1C1 49.1219 0.960845 49.1665 0.904297 49.1665V47.1665ZM4.85938 47.1665H0.904297V49.1665H4.85938V47.1665ZM49.2363 47.1665H4.85938V49.1665H49.2363V47.1665ZM48.2363 37.5461V48.1665H50.2363V37.5461H48.2363ZM46.75 36.0504C47.5653 36.0504 48.2363 36.7186 48.2363 37.5461H50.2363C50.2363 35.6212 48.6769 34.0504 46.75 34.0504V36.0504ZM44.5215 36.0504H46.75V34.0504H44.5215V36.0504ZM10.4785 36.0504H44.5215V34.0504H10.4785V36.0504ZM8.25 36.0504H10.4785V34.0504H8.25V36.0504ZM6.76367 37.5461C6.76367 36.7186 7.43473 36.0504 8.25 36.0504V34.0504C6.32308 34.0504 4.76367 35.6211 4.76367 37.5461H6.76367ZM6.76367 44.9948V37.5461H4.76367V44.9948H6.76367ZM4.85938 46.9026C5.91397 46.9026 6.76367 46.0452 6.76367 44.9948H4.76367C4.76367 44.9472 4.80283 44.9026 4.85938 44.9026V46.9026ZM2.95508 44.9948C2.95508 46.0443 3.80301 46.9026 4.85938 46.9026V44.9026C4.91574 44.9026 4.95508 44.9479 4.95508 44.9948H2.95508ZM2.95508 37.5461V44.9948H4.95508V37.5461H2.95508ZM8.25 32.2349C5.32489 32.2349 2.95508 34.6203 2.95508 37.5461H4.95508C4.95508 35.7175 6.43683 34.2349 8.25 34.2349V32.2349ZM10.4785 32.2349H8.25V34.2349H10.4785V32.2349ZM43.6172 32.2349H10.4785V34.2349H43.6172V32.2349ZM42.6172 22.1622V33.2349H44.6172V22.1622H42.6172ZM41.582 21.1188C42.148 21.1188 42.6172 21.5841 42.6172 22.1622H44.6172C44.6172 20.4871 43.2602 19.1188 41.582 19.1188V21.1188ZM13.418 21.1188H41.582V19.1188H13.418V21.1188ZM12.3828 22.1622C12.3828 21.5841 12.852 21.1188 13.418 21.1188V19.1188C11.7398 19.1188 10.3828 20.4871 10.3828 22.1622H12.3828ZM12.3828 30.1487V22.1622H10.3828V30.1487H12.3828ZM10.4785 32.0565C11.5331 32.0565 12.3828 31.1991 12.3828 30.1487H10.3828C10.3828 30.1011 10.422 30.0565 10.4785 30.0565V32.0565ZM8.57422 30.1487C8.57422 31.1982 9.42215 32.0565 10.4785 32.0565V30.0565C10.5349 30.0565 10.5742 30.1018 10.5742 30.1487H8.57422ZM8.57422 22.1622V30.1487H10.5742V22.1622H8.57422ZM13.418 17.3034C10.7429 17.3034 8.57422 19.4859 8.57422 22.1622H10.5742C10.5742 20.5832 11.8548 19.3034 13.418 19.3034V17.3034ZM24.1348 17.3034H13.418V19.3034H24.1348V17.3034ZM23.1348 9.40186V18.3034H25.1348V9.40186H23.1348ZM25.0391 7.49408C23.9845 7.49408 23.1348 8.35146 23.1348 9.40186H25.1348C25.1348 9.44944 25.0956 9.49408 25.0391 9.49408V7.49408ZM26.5957 7.49408H25.0391V9.49408H26.5957V7.49408ZM25.5957 7.138V8.49408H27.5957V7.138H25.5957ZM23.5312 4.29993C23.5312 6.07252 24.691 7.57558 26.2894 8.08993L26.902 6.18607C26.1079 5.93052 25.5312 5.18053 25.5312 4.29993H23.5312ZM26.0982 -0.383654C25.8132 -0.0730889 25.1997 0.622743 24.6513 1.43648C24.377 1.84348 24.1057 2.29957 23.9 2.76699C23.6989 3.2239 23.5312 3.75682 23.5312 4.29993H25.5312C25.5312 4.14763 25.5841 3.90547 25.7306 3.57254C25.8724 3.25013 26.0757 2.90161 26.3099 2.55417C26.7783 1.85901 27.3167 1.24655 27.5717 0.968737L26.0982 -0.383654ZM27.5 -1C26.9653 -1 26.4592 -0.775371 26.0996 -0.385099L27.5704 0.970182C27.5545 0.987407 27.5288 1 27.5 1V-1ZM28.9024 -0.383008C28.5418 -0.776494 28.033 -1 27.5 -1V1C27.4729 1 27.4465 0.988531 27.4277 0.968091L28.9024 -0.383008ZM31.4688 4.29993C31.4688 3.75682 31.3011 3.2239 31.1 2.76699C30.8943 2.29957 30.623 1.84348 30.3487 1.43648C29.8003 0.622743 29.1868 -0.0730889 28.9018 -0.383654L27.4283 0.968737C27.6833 1.24655 28.2217 1.85901 28.6901 2.55417C28.9243 2.90161 29.1276 3.25013 29.2694 3.57254C29.4159 3.90547 29.4688 4.14763 29.4688 4.29993H31.4688ZM28.7105 8.08996C30.3091 7.57573 31.4688 6.07253 31.4688 4.29993H29.4688C29.4688 5.18065 28.8921 5.93062 28.0981 6.18604L28.7105 8.08996ZM29.4043 8.49396V7.138H27.4043V8.49396H29.4043ZM29.9609 7.49396H28.4043V9.49396H29.9609V7.49396ZM31.8652 9.40173C31.8652 8.35155 31.0156 7.49396 29.9609 7.49396V9.49396C29.9043 9.49396 29.8652 9.44936 29.8652 9.40173H31.8652ZM31.8652 18.3033V9.40173H29.8652V18.3033H31.8652ZM41.582 17.3033H30.8652V19.3033H41.582V17.3033ZM46.4258 22.1621C46.4258 19.4858 44.2571 17.3033 41.582 17.3033V19.3033C43.1452 19.3033 44.4258 20.5831 44.4258 22.1621H46.4258ZM46.4258 33.2349V22.1621H44.4258V33.2349H46.4258ZM46.75 32.2349H45.4258V34.2349H46.75V32.2349ZM52.0459 37.546C52.0459 34.6199 49.6748 32.2349 46.75 32.2349V34.2349C48.5635 34.2349 50.0459 35.7177 50.0459 37.546H52.0459ZM52.0459 48.1664V37.546H50.0459V48.1664H52.0459ZM27.3408 4.2998C27.3408 4.43299 27.3028 4.47752 27.3506 4.36422C27.3851 4.28263 27.4453 4.16329 27.536 4.00887C27.7161 3.7022 27.9792 3.31966 28.288 2.92561L26.7139 1.69183C26.3636 2.13877 26.0466 2.59559 25.8114 2.99612C25.6944 3.19529 25.5883 3.39652 25.5082 3.58614C25.4415 3.74405 25.3408 4.01043 25.3408 4.2998H27.3408ZM27.501 4.46417C27.417 4.46417 27.3408 4.39296 27.3408 4.2998H25.3408C25.3408 5.49083 26.3057 6.46417 27.501 6.46417V4.46417ZM27.6611 4.2998C27.6611 4.39296 27.585 4.46417 27.501 4.46417V6.46417C28.6963 6.46417 29.6611 5.49083 29.6611 4.2998H27.6611ZM26.7139 2.92561C27.0228 3.31966 27.2859 3.7022 27.4659 4.00887C27.5566 4.16329 27.6169 4.28263 27.6513 4.36422C27.6992 4.47752 27.6611 4.43299 27.6611 4.2998H29.6611C29.6611 4.01043 29.5605 3.74405 29.4938 3.58614C29.4137 3.39652 29.3075 3.19529 29.1906 2.99612C28.9554 2.59559 28.6383 2.13877 28.288 1.69183L26.7139 2.92561ZM24.9434 10.3094V18.3033H26.9434V10.3094H24.9434ZM29.0557 9.30939H25.9434V11.3094H29.0557V9.30939ZM30.0557 18.3033V10.3094H28.0557V18.3033H30.0557ZM25.9434 19.3033H29.0557V17.3033H25.9434V19.3033ZM5.90332 52.1844C4.43713 52.1844 3.19789 51.1503 2.88467 49.7618L0.933692 50.2019C1.44664 52.4757 3.47498 54.1844 5.90332 54.1844V52.1844ZM49.0967 52.1844H5.90332V54.1844H49.0967V52.1844ZM52.1153 49.7618C51.8021 51.1503 50.5629 52.1844 49.0967 52.1844V54.1844C51.525 54.1844 53.5534 52.4757 54.0663 50.2019L52.1153 49.7618ZM50.1406 50.9818H53.0908V48.9818H50.1406V50.9818ZM4.85938 50.9818H50.1406V48.9818H4.85938V50.9818ZM1.90918 50.9818H4.85938V48.9818H1.90918V50.9818Z" mask="url(#path-2-inside-1)" transform="translate(0 0.103821)"/><path fill="#F11F60" d="M27.2408 0.16357C25.9284 0.142113 25.0273 1.03328 24.3024 1.75085C23.646 2.40039 23.2111 2.79255 22.742 2.77982C22.3012 2.76688 21.9646 2.38368 21.4519 1.7597C20.8511 1.02832 20.1031 0.118176 18.8203 0.0804371C17.5535 0.0425907 16.7188 0.873702 15.9827 1.60626C15.3018 2.28405 14.8476 2.6955 14.2835 2.69615C14.2832 2.69615 14.2829 2.69615 14.2826 2.69615C13.7261 2.69615 13.2861 2.28383 12.6282 1.60486C11.9346 0.889336 11.0726 0 9.76309 0C9.75493 0 9.74644 0 9.73828 0.000107824C8.37133 0.0118607 7.49143 0.978831 6.78438 1.75592C6.15091 2.45225 5.73067 2.87536 5.24276 2.87536C5.2419 2.87536 5.24115 2.87536 5.2404 2.87536C4.75173 2.87406 4.34138 2.4502 3.72349 1.75258C3.05102 0.993171 2.21496 0.0487367 0.914286 0.0487367C0.909345 0.0487367 0.904296 0.0487367 0.899247 0.0487367C0.39984 0.0515401 -0.00277854 0.460195 1.44438e-05 0.961579C0.00280742 1.46124 0.407038 1.86418 0.904188 1.86418C0.907303 1.86429 0.910419 1.86429 0.913641 1.86429C1.36965 1.86429 1.76915 2.27822 2.37179 2.9587C3.05371 3.72879 3.90213 4.68713 5.23556 4.69101C5.23814 4.69101 5.24061 4.69101 5.2433 4.69101C6.56373 4.69101 7.42666 3.7428 8.12018 2.98048C8.77674 2.25892 9.21438 1.8204 9.75396 1.81566C10.2786 1.81361 10.695 2.21385 11.332 2.87104C12.0407 3.60209 12.9223 4.5117 14.2827 4.5117C14.2835 4.5117 14.2846 4.5117 14.2855 4.5117C15.6342 4.51051 16.5338 3.61503 17.2567 2.89552C17.8801 2.27499 18.2948 1.89502 18.7444 1.89502C18.7522 1.89502 18.76 1.89512 18.7678 1.89523C19.208 1.90817 19.5444 2.29116 20.0568 2.91493C20.658 3.64641 21.4058 4.55677 22.6892 4.59462C23.9702 4.63537 24.8577 3.75143 25.5728 3.04367C26.2482 2.37505 26.6948 1.96704 27.2093 1.97901C27.7132 1.98591 28.1208 1.58869 28.1295 1.08741C28.1378 0.58581 27.7403 0.172411 27.2408 0.16357Z" transform="translate(13.335 22.7103)"/><path stroke="#F11F60" d="M24.6541 2.1062L24.6541 2.10625C24.33 2.42694 24.0296 2.71616 23.742 2.92095C23.4499 3.129 23.1168 3.29017 22.7284 3.27964L22.7273 3.27961C22.3493 3.26851 22.0484 3.09414 21.7973 2.87749C21.5556 2.66895 21.316 2.38195 21.0656 2.07709L21.4519 1.7597L21.0656 2.07708C20.4454 1.32209 19.8317 0.610405 18.8056 0.580221L18.8054 0.580214C17.7841 0.549704 17.0958 1.20395 16.3355 1.96064C15.9993 2.29522 15.6859 2.59873 15.3753 2.81529C15.0538 3.03939 14.7008 3.19567 14.2841 3.19615L14.2835 3.19615V2.69615L14.2835 3.19615H14.2835H14.2835H14.2835H14.2835H14.2835H14.2835H14.2835H14.2835H14.2835H14.2835H14.2834H14.2834H14.2834H14.2834H14.2834H14.2834H14.2834H14.2834H14.2834H14.2834H14.2834H14.2834H14.2834H14.2833H14.2833H14.2833H14.2833H14.2833H14.2833H14.2833H14.2833H14.2833H14.2833H14.2833H14.2833H14.2833H14.2832H14.2832H14.2832H14.2832H14.2832H14.2832H14.2832H14.2832H14.2832H14.2832H14.2832H14.2832H14.2832H14.2831H14.2831H14.2831H14.2831H14.2831H14.2831H14.2831H14.2831H14.2831H14.2831H14.2831H14.2831H14.2831H14.283H14.283H14.283H14.283H14.283H14.283H14.283H14.283H14.283H14.283H14.283H14.283H14.283H14.2829H14.2829H14.2829H14.2829H14.2829H14.2829H14.2829H14.2829H14.2829H14.2829H14.2829H14.2829H14.2829H14.2828H14.2828H14.2828H14.2828H14.2828H14.2828H14.2828H14.2828H14.2828H14.2828H14.2828H14.2828H14.2828H14.2827H14.2827H14.2827H14.2827H14.2827H14.2827H14.2827H14.2827H14.2827H14.2827H14.2827H14.2827H14.2827H14.2826H14.2826H14.2826H14.2826H14.2826H14.2826H14.2826H14.2826H14.2826H14.2826H14.2826C13.8666 3.19615 13.517 3.03756 13.2018 2.81129C12.898 2.59315 12.5937 2.28777 12.2691 1.95281M24.6541 2.1062L12.2691 1.95281M24.6541 2.1062C25.4033 1.36463 26.1608 0.646149 27.2323 0.663497M24.6541 2.1062L27.2323 0.663497M12.2691 1.95281C11.5537 1.21475 10.8316 0.5 9.76309 0.5L9.74488 0.500064M12.2691 1.95281L9.74488 0.500064M27.2323 0.663497C27.4536 0.667571 27.6333 0.851298 27.6296 1.07917C27.6254 1.30486 27.4448 1.4813 27.2179 1.47908C26.8139 1.47053 26.4696 1.63091 26.1628 1.84784C25.863 2.05977 25.5537 2.35899 25.221 2.68832C24.4777 3.42398 23.7388 4.12776 22.7051 4.09487L22.704 4.09483C21.6773 4.06456 21.0638 3.35267 20.4431 2.59747C20.1928 2.29275 19.9534 2.0059 19.7119 1.79747C19.461 1.58094 19.1603 1.40655 18.7825 1.39545L18.7825 1.39539L18.7747 1.39528L18.774 1.39527C18.7667 1.39517 18.7558 1.39502 18.7444 1.39502C18.3697 1.39502 18.0505 1.55584 17.7721 1.75789C17.4977 1.95701 17.2114 2.23514 16.9039 2.54113L16.9039 2.54115C16.1605 3.28111 15.3994 4.01072 14.285 4.0117H14.285H14.285H14.285H14.285H14.285H14.285H14.285H14.2849H14.2849H14.2849H14.2849H14.2849H14.2849H14.2849H14.2849H14.2849H14.2848H14.2848H14.2848H14.2848H14.2848H14.2848H14.2848H14.2848H14.2848H14.2847H14.2847H14.2847H14.2847H14.2847H14.2847H14.2847H14.2847H14.2847H14.2846H14.2846H14.2846H14.2846H14.2846H14.2846H14.2846H14.2846H14.2846H14.2845H14.2845H14.2845H14.2845H14.2845H14.2845H14.2845H14.2845H14.2845H14.2844H14.2844H14.2844H14.2844H14.2844H14.2844H14.2844H14.2844H14.2844H14.2843H14.2843H14.2843H14.2843H14.2843H14.2843H14.2843H14.2843H14.2843H14.2842H14.2842H14.2842H14.2842H14.2842H14.2842H14.2842H14.2842H14.2841H14.2841H14.2841H14.2841H14.2841H14.2841H14.2841H14.2841H14.2841H14.284H14.284H14.284H14.284H14.284H14.284H14.284H14.284H14.284H14.2839H14.2839H14.2839H14.2839H14.2839H14.2839H14.2839H14.2839H14.2839H14.2838H14.2838H14.2838H14.2838H14.2838H14.2838H14.2838H14.2838H14.2838H14.2837H14.2837H14.2837H14.2837H14.2837H14.2837H14.2837H14.2837H14.2837H14.2836H14.2836H14.2836H14.2836H14.2836H14.2836H14.2836H14.2836H14.2836H14.2835H14.2835H14.2835H14.2835H14.2835H14.2835H14.2835H14.2835H14.2835H14.2834H14.2834H14.2834H14.2834H14.2834H14.2834H14.2834H14.2834H14.2834H14.2833H14.2833H14.2833H14.2833H14.2833H14.2833H14.2833H14.2833H14.2833H14.2832H14.2832H14.2832H14.2832H14.2832H14.2832H14.2832H14.2832H14.2832H14.2831H14.2831H14.2831H14.2831H14.2831H14.2831H14.2831H14.2831H14.2831H14.283H14.283H14.283H14.283H14.283H14.283H14.283H14.283H14.283H14.283H14.2829H14.2829H14.2829H14.2829H14.2829H14.2829H14.2829H14.2829H14.2829H14.2828H14.2828H14.2828H14.2828H14.2828H14.2828H14.2828H14.2828H14.2828H14.2828H14.2827H14.2827H14.2827H14.2827H14.2827H14.2827H14.2827H14.2827C13.1622 4.0117 12.4197 3.27475 11.691 2.52303C11.3783 2.20045 11.0855 1.90382 10.7956 1.69226C10.4946 1.47253 10.1568 1.31408 9.75201 1.31565L9.74957 1.31568C9.33121 1.31935 8.98293 1.49544 8.67489 1.73387C8.37595 1.96526 8.07413 2.28816 7.75036 2.64398L7.75033 2.64401C7.0308 3.43493 6.31031 4.19101 5.2433 4.19101H5.24328H5.24327H5.24325H5.24324H5.24322H5.2432H5.24319H5.24317H5.24316H5.24314H5.24313H5.24311H5.24309H5.24308H5.24306H5.24305H5.24303H5.24302H5.243H5.24298H5.24297H5.24295H5.24294H5.24292H5.24291H5.24289H5.24288H5.24286H5.24284H5.24283H5.24281H5.2428H5.24278H5.24277H5.24275H5.24273H5.24272H5.2427H5.24269H5.24267H5.24266H5.24264H5.24263H5.24261H5.2426H5.24258H5.24256H5.24255H5.24253H5.24252H5.2425H5.24249H5.24247H5.24246H5.24244H5.24242H5.24241H5.24239H5.24238H5.24236H5.24235H5.24233H5.24232H5.2423H5.24229H5.24227H5.24225H5.24224H5.24222H5.24221H5.24219H5.24218H5.24216H5.24215H5.24213H5.24212H5.2421H5.24208H5.24207H5.24205H5.24204H5.24202H5.24201H5.24199H5.24198H5.24196H5.24195H5.24193H5.24192H5.2419H5.24188H5.24187H5.24185H5.24184H5.24182H5.24181H5.24179H5.24178H5.24176H5.24175H5.24173H5.24172H5.2417H5.24169H5.24167H5.24165H5.24164H5.24162H5.24161H5.24159H5.24158H5.24156H5.24155H5.24153H5.24152H5.2415H5.24149H5.24147H5.24146H5.24144H5.24143H5.24141H5.2414H5.24138H5.24136H5.24135H5.24133H5.24132H5.2413H5.24129H5.24127H5.24126H5.24124H5.24123H5.24121H5.2412H5.24118H5.24117H5.24115H5.24114H5.24112H5.24111H5.24109H5.24108H5.24106H5.24105H5.24103H5.24102H5.241H5.24099H5.24097H5.24095H5.24094H5.24092H5.24091H5.24089H5.24088H5.24086H5.24085H5.24083H5.24082H5.2408H5.24079H5.24077H5.24076H5.24074H5.24073H5.24071H5.2407H5.24068H5.24067H5.24065H5.24064H5.24062H5.24061H5.24059H5.24058H5.24056H5.24055H5.24053H5.24052H5.2405H5.24049H5.24047H5.24046H5.24044H5.24043H5.24041H5.2404H5.24038H5.24037H5.24035H5.24034H5.24032H5.24031H5.24029H5.24028H5.24026H5.24025H5.24023H5.24022H5.2402H5.24019H5.24017H5.24016H5.24014H5.24013H5.24011H5.2401H5.24008H5.24007H5.24005H5.24004H5.24002H5.24001H5.23999H5.23997H5.23996H5.23994H5.23993H5.23991H5.2399H5.23988H5.23987H5.23985H5.23984H5.23982H5.23981H5.23979H5.23978H5.23977H5.23975H5.23974H5.23972H5.23971H5.23969H5.23968H5.23966H5.23965H5.23963H5.23962H5.2396H5.23959H5.23957H5.23956H5.23954H5.23953H5.23951H5.2395H5.23948H5.23947H5.23945H5.23944H5.23942H5.23941H5.23939H5.23938H5.23936H5.23935H5.23933H5.23932H5.2393H5.23929H5.23927H5.23926H5.23924H5.23923H5.23921H5.2392H5.23918H5.23917H5.23915H5.23914H5.23912H5.23911H5.23909H5.23908H5.23906H5.23905H5.23903H5.23902H5.239H5.23899H5.23897H5.23896H5.23894H5.23893H5.23891H5.2389H5.23888H5.23887H5.23885H5.23884H5.23882H5.23881H5.23879H5.23878H5.23876H5.23875H5.23873H5.23872H5.2387H5.23869H5.23867H5.23866H5.23864H5.23863H5.23862H5.2386H5.23858H5.23857H5.23855H5.23854H5.23853H5.23851H5.2385H5.23848H5.23847H5.23845H5.23844H5.23842H5.23841H5.23839H5.23838H5.23836H5.23835H5.23833H5.23832H5.2383H5.23829H5.23827H5.23826H5.23824H5.23823H5.23821H5.2382H5.23818H5.23817H5.23815H5.23814H5.23812H5.23811H5.23809H5.23808H5.23806H5.23805H5.23803H5.23802H5.238H5.23799H5.23797H5.23796H5.23794H5.23793H5.23791H5.2379H5.23788H5.23787H5.23785H5.23784H5.23783H5.23781H5.2378H5.23778H5.23777H5.23775H5.23774H5.23772H5.23771H5.23769H5.23768H5.23766H5.23765H5.23763H5.23762H5.2376H5.23759H5.23757H5.23756H5.23754H5.23753H5.23751H5.2375H5.23748H5.23747H5.23745H5.23744H5.23742H5.23741H5.23739H5.23738H5.23736H5.23735H5.23733H5.23732H5.2373H5.23729H5.23727H5.23726H5.23724H5.23723H5.23721H5.2372H5.23718H5.23717H5.23715H5.23714H5.23712H5.23711H5.23709H5.23708H5.23706H5.23705H5.23703H5.23702H5.237H5.23699H5.23698H5.23696H5.23695H5.23693H5.23692H5.2369H5.23689H5.23687H5.23686H5.23684H5.23683H5.23681H5.2368H5.23678H5.23677H5.23675H5.23674H5.23672H5.23671H5.23669H5.23668H5.23666H5.23665H5.23663H5.23662H5.2366H5.23659H5.23657H5.23656H5.23654H5.23653H5.23651H5.2365H5.23648H5.23647H5.23645H5.23644H5.23642H5.23641H5.23639C4.15968 4.18758 3.45297 3.42547 2.74612 2.62723L2.74611 2.62721C2.44938 2.29215 2.17232 1.98691 1.9029 1.76816C1.62966 1.5463 1.30682 1.36502 0.91602 1.36429L0.912839 1.36418H0.904188C0.683688 1.36418 0.501276 1.185 0.500007 0.958793L27.2323 0.663497ZM9.74488 0.500064L9.74258 0.500095C8.62512 0.509697 7.88501 1.28922 7.15423 2.09239L9.74488 0.500064ZM5.2404 3.37536H5.23907C4.83649 3.37429 4.50386 3.19488 4.21746 2.96505C3.93792 2.74072 3.65351 2.42768 3.34919 2.0841L3.34916 2.08405C2.6502 1.29473 1.95688 0.548737 0.914286 0.548737H0.914257H0.914228H0.914199H0.91417H0.914141H0.914112H0.914083H0.914054H0.914025H0.913996H0.913967H0.913938H0.913909H0.91388H0.913851H0.913822H0.913793H0.913764H0.913735H0.913706H0.913677H0.913648H0.913619H0.91359H0.913561H0.913532H0.913503H0.913474H0.913445H0.913416H0.913387H0.913358H0.913329H0.9133H0.913271H0.913242H0.913213H0.913184H0.913155H0.913126H0.913097H0.913068H0.913039H0.91301H0.912981H0.912952H0.912923H0.912893H0.912864H0.912835H0.912806H0.912777H0.912748H0.912719H0.91269H0.912661H0.912632H0.912603H0.912574H0.912544H0.912515H0.912486H0.912457H0.912428H0.912399H0.91237H0.912341H0.912312H0.912283H0.912253H0.912224H0.912195H0.912166H0.912137H0.912108H0.912079H0.91205H0.91202H0.911991H0.911962H0.911933H0.911904H0.911875H0.911846H0.911816H0.911787H0.911758H0.911729H0.9117H0.911671H0.911642H0.911612H0.911583H0.911554H0.911525H0.911496H0.911467H0.911437H0.911408H0.911379H0.91135H0.911321H0.911292H0.911262H0.911233H0.911204H0.911175H0.911146H0.911116H0.911087H0.911058H0.911029H0.911H0.91097H0.910941H0.910912H0.910883H0.910854H0.910824H0.910795H0.910766H0.910737H0.910708H0.910678H0.910649H0.91062H0.910591H0.910561H0.910532H0.910503H0.910474H0.910444H0.910415H0.910386H0.910357H0.910327H0.910298H0.910269H0.91024H0.91021H0.910181H0.910152H0.910123H0.910093H0.910064H0.910035H0.910006H0.909976H0.909947H0.909918H0.909889H0.909859H0.90983H0.909801H0.909772H0.909742H0.909713H0.909684H0.909654H0.909625H0.909596H0.909567H0.909537H0.909508H0.909479H0.909449H0.90942H0.909391H0.909361H0.909332H0.909303H0.909274H0.909244H0.909215H0.909186H0.909156H0.909127H0.909098H0.909068H0.909039H0.90901H0.90898H0.908951H0.908922H0.908893H0.908863H0.908834H0.908804H0.908775H0.908746H0.908716H0.908687H0.908658H0.908628H0.908599H0.90857H0.90854H0.908511H0.908482H0.908452H0.908423H0.908394H0.908364H0.908335H0.908306H0.908276H0.908247H0.908218H0.908188H0.908159H0.90813H0.9081H0.908071H0.908041H0.908012H0.907983H0.907953H0.907924H0.907894H0.907865H0.907836H0.907806H0.907777H0.907748H0.907718H0.907689H0.907659H0.90763H0.907601H0.907571H0.907542H0.907512H0.907483H0.907454H0.907424H0.907395H0.907366H0.907336H0.907307H0.907277H0.907248H0.907218H0.907189H0.90716H0.90713H0.907101H0.907071H0.907042H0.907013H0.906983H0.906954H0.906924H0.906895H0.906865H0.906836H0.906807H0.906777H0.906748H0.906718H0.906689H0.906659H0.90663H0.906601H0.906571H0.906542H0.906512H0.906483H0.906453H0.906424H0.906395H0.906365H0.906336H0.906306H0.906277H0.906247H0.906218H0.906188H0.906159H0.90613H0.9061H0.906071H0.906041H0.906012H0.905982H0.905953H0.905923H0.905894H0.905864H0.905835H0.905805H0.905776H0.905747H0.905717H0.905688H0.905658H0.905629H0.905599H0.90557H0.90554H0.905511H0.905481H0.905452H0.905422H0.905393H0.905363H0.905334H0.905304H0.905275H0.905245H0.905216H0.905186H0.905157H0.905128H0.905098H0.905069H0.905039H0.90501H0.90498H0.904951H0.904921H0.904892H0.904862H0.904833H0.904803H0.904774H0.904744H0.904715H0.904685H0.904656H0.904626H0.904597H0.904567H0.904538H0.904508H0.904479H0.904449H0.90442H0.90439H0.904361H0.904331H0.904302H0.904272H0.904242H0.904213H0.904183H0.904154H0.904124H0.904095H0.904065H0.904036H0.904006H0.903977H0.903947H0.903918H0.903888H0.903859H0.903829H0.9038H0.90377H0.903741H0.903711H0.903682H0.903652H0.903623H0.903593H0.903563H0.903534H0.903504H0.903475H0.903445H0.903416H0.903386H0.903357H0.903327H0.903298H0.903268H0.903239H0.903209H0.903179H0.90315H0.90312H0.903091H0.903061H0.903032H0.903002H0.902973H0.902943H0.902914H0.902884H0.902855H0.902825H0.902795H0.902766H0.902736H0.902707H0.902677H0.902648H0.902618H0.902589H0.902559H0.902529H0.9025H0.90247H0.902441H0.902411H0.902382H0.902352H0.902323H0.902293H0.902263H0.902234H0.902204H0.902175H0.902145H0.902116H0.902086H0.902057H0.902027H0.901997H0.901968H0.901938H0.901909H0.901879H0.90185H0.90182H0.90179H0.901761H0.901731H0.901702H0.901672H0.901643H0.901613H0.901583H0.901554H0.901524H0.901495H0.901465H0.901436H0.901406H0.901376H0.901347H0.901317H0.901288H0.901258H0.901229H0.901199H0.901169H0.90114H0.90111H0.901081H0.901051H0.901022H0.900992H0.900962H0.900933H0.900922C0.679947 0.550592 0.498749 0.732131 0.500007 0.958784L5.2404 3.37536ZM5.2404 3.37536H5.2404H5.24041H5.24041H5.24042H5.24042H5.24042H5.24043H5.24043H5.24044H5.24044H5.24045H5.24045H5.24046H5.24046H5.24046H5.24047H5.24047H5.24048H5.24048H5.24049H5.24049H5.2405H5.2405H5.2405H5.24051H5.24051H5.24052H5.24052H5.24053H5.24053H5.24053H5.24054H5.24054H5.24055H5.24055H5.24056H5.24056H5.24057H5.24057H5.24057H5.24058H5.24058H5.24059H5.24059H5.2406H5.2406H5.24061H5.24061H5.24061H5.24062H5.24062H5.24063H5.24063H5.24064H5.24064H5.24064H5.24065H5.24065H5.24066H5.24066H5.24067H5.24067H5.24068H5.24068H5.24068H5.24069H5.24069H5.2407H5.2407H5.24071H5.24071H5.24072H5.24072H5.24072H5.24073H5.24073H5.24074H5.24074H5.24075H5.24075H5.24076H5.24076H5.24076H5.24077H5.24077H5.24078H5.24078H5.24079H5.24079H5.2408H5.2408H5.2408H5.24081H5.24081H5.24082H5.24082H5.24083H5.24083H5.24084H5.24084H5.24084H5.24085H5.24085H5.24086H5.24086H5.24087H5.24087H5.24087H5.24088H5.24088H5.24089H5.24089H5.2409H5.2409H5.24091H5.24091H5.24091H5.24092H5.24092H5.24093H5.24093H5.24094H5.24094H5.24095H5.24095H5.24095H5.24096H5.24096H5.24097H5.24097H5.24098H5.24098H5.24099H5.24099H5.24099H5.241H5.241H5.24101H5.24101H5.24102H5.24102H5.24103H5.24103H5.24103H5.24104H5.24104H5.24105H5.24105H5.24106H5.24106H5.24107H5.24107H5.24108H5.24108H5.24108H5.24109H5.24109H5.2411H5.2411H5.24111H5.24111H5.24112H5.24112H5.24112H5.24113H5.24113H5.24114H5.24114H5.24115H5.24115H5.24116H5.24116H5.24116H5.24117H5.24117H5.24118H5.24118H5.24119H5.24119H5.2412H5.2412H5.2412H5.24121H5.24121H5.24122H5.24122H5.24123H5.24123H5.24124H5.24124H5.24125H5.24125H5.24125H5.24126H5.24126H5.24127H5.24127H5.24128H5.24128H5.24129H5.24129H5.24129H5.2413H5.2413H5.24131H5.24131H5.24132H5.24132H5.24133H5.24133H5.24134H5.24134H5.24134H5.24135H5.24135H5.24136H5.24136H5.24137H5.24137H5.24138H5.24138H5.24138H5.24139H5.24139H5.2414H5.2414H5.24141H5.24141H5.24142H5.24142H5.24143H5.24143H5.24143H5.24144H5.24144H5.24145H5.24145H5.24146H5.24146H5.24147H5.24147H5.24148H5.24148H5.24148H5.24149H5.24149H5.2415H5.2415H5.24151H5.24151H5.24152H5.24152H5.24153H5.24153H5.24153H5.24154H5.24154H5.24155H5.24155H5.24156H5.24156H5.24157H5.24157H5.24158H5.24158H5.24159H5.24159H5.24159H5.2416H5.2416H5.24161H5.24161H5.24162H5.24162H5.24163H5.24163H5.24164H5.24164H5.24164H5.24165H5.24165H5.24166H5.24166H5.24167H5.24167H5.24168H5.24168H5.24169H5.24169H5.2417H5.2417H5.2417H5.24171H5.24171H5.24172H5.24172H5.24173H5.24173H5.24174H5.24174H5.24175H5.24175H5.24176H5.24176H5.24176H5.24177H5.24177H5.24178H5.24178H5.24179H5.24179H5.2418H5.2418H5.24181H5.24181H5.24182H5.24182H5.24183H5.24183H5.24183H5.24184H5.24184H5.24185H5.24185H5.24186H5.24186H5.24187H5.24187H5.24188H5.24188H5.24189H5.24189H5.24189H5.2419H5.2419H5.24191H5.24191H5.24192H5.24192H5.24193H5.24193H5.24194H5.24194H5.24195H5.24195H5.24196H5.24196H5.24196H5.24197H5.24197H5.24198H5.24198H5.24199H5.24199H5.242H5.242H5.24201H5.24201H5.24202H5.24202H5.24203H5.24203H5.24204H5.24204H5.24204H5.24205H5.24205H5.24206H5.24206H5.24207H5.24207H5.24208H5.24208H5.24209H5.24209H5.2421H5.2421H5.24211H5.24211H5.24212H5.24212H5.24213H5.24213H5.24214H5.24214H5.24214H5.24215H5.24215H5.24216H5.24216H5.24217H5.24217H5.24218H5.24218H5.24219H5.24219H5.2422H5.2422H5.24221H5.24221H5.24222H5.24222H5.24223H5.24223H5.24224H5.24224H5.24225H5.24225H5.24225H5.24226H5.24226H5.24227H5.24227H5.24228H5.24228H5.24229H5.24229H5.2423H5.2423H5.24231H5.24231H5.24232H5.24232H5.24233H5.24233H5.24234H5.24234H5.24235H5.24235H5.24236H5.24236H5.24237H5.24237H5.24238H5.24238H5.24239H5.24239H5.24239H5.2424H5.2424H5.24241H5.24241H5.24242H5.24242H5.24243H5.24243H5.24244H5.24244H5.24245H5.24245H5.24246H5.24246H5.24247H5.24247H5.24248H5.24248H5.24249H5.24249H5.2425H5.2425H5.24251H5.24251H5.24252H5.24252H5.24253H5.24253H5.24254H5.24254H5.24255H5.24255H5.24256H5.24256H5.24257H5.24257H5.24258H5.24258H5.24259H5.24259H5.2426H5.2426H5.24261H5.24261H5.24262H5.24262H5.24263H5.24263H5.24264H5.24264H5.24265H5.24265H5.24266H5.24266H5.24267H5.24267H5.24268H5.24268H5.24269H5.24269H5.2427H5.2427H5.24271H5.24271H5.24272H5.24272H5.24273H5.24273H5.24274H5.24274H5.24275H5.24275H5.24276H5.24276C5.64419 3.37536 5.97862 3.19737 6.26803 2.96982M5.2404 3.37536L6.26803 2.96982M6.26803 2.96982C6.55141 2.74701 6.84204 2.43555 7.15421 2.09242L6.26803 2.96982ZM9.73828 0.000213873V0.000107824V0.000213873Z" transform="translate(13.335 22.7103)"/><path fill="#F11F60" d="M39.0751 0.0880926C37.7244 0.0459332 36.8261 0.943141 36.0329 1.73274C35.3792 2.38324 34.8146 2.94555 34.1209 2.95008C33.5825 2.93832 33.1965 2.53582 32.6132 1.88121C31.9469 1.13388 31.1177 0.20368 29.7197 0.178989C29.702 0.178773 29.6845 0.17845 29.6668 0.17845C28.2959 0.17845 27.3376 1.12698 26.5657 1.89103C25.9325 2.5177 25.3864 3.05704 24.796 3.04151C24.277 3.02631 23.8975 2.59555 23.3213 1.89426C22.6747 1.10736 21.8701 0.127988 20.5051 0.0878769C19.1556 0.0457176 18.256 0.942925 17.4629 1.73252C16.8071 2.3854 16.2407 2.94911 15.5437 2.94986C15.5434 2.94986 15.5428 2.94986 15.5425 2.94986C14.9002 2.94986 14.407 2.4888 13.6712 1.73004C12.9236 0.958667 11.9943 0 10.5972 0C10.5885 0 10.5796 0 10.571 0.000107824C9.11254 0.0126155 8.16368 1.05549 7.40109 1.89351C6.69221 2.67265 6.2203 3.14599 5.6514 3.14599C5.65043 3.14599 5.64946 3.14599 5.6485 3.14599C5.0783 3.14438 4.61724 2.66984 3.92544 1.88876C3.19819 1.06746 2.29606 0.0494914 0.899247 0.0531575C0.39984 0.0559609 -0.00277854 0.464616 1.44438e-05 0.965999C0.00280742 1.46555 0.407038 1.8686 0.904188 1.8686C0.906229 1.86881 0.907948 1.86881 0.909667 1.86881C1.44914 1.86105 1.89645 2.33009 2.57375 3.09499C3.30851 3.92481 4.223 4.95766 5.64355 4.96165C5.64645 4.96165 5.64914 4.96165 5.65215 4.96165C7.05895 4.96154 7.95034 3.98217 8.73678 3.11785C9.47069 2.31122 9.9615 1.82105 10.5866 1.81555C10.5899 1.81555 10.5934 1.81555 10.5966 1.81555C11.1875 1.81555 11.6637 2.26237 12.375 2.99623C13.1391 3.78464 14.09 4.76552 15.5424 4.76552C15.5434 4.76552 15.5443 4.76552 15.5453 4.76552C16.986 4.76422 17.9565 3.79812 18.7364 3.02189C19.4465 2.3151 19.9131 1.88833 20.4523 1.90267C20.9707 1.91787 21.35 2.34842 21.926 3.04938C22.5727 3.83639 23.3775 4.81609 24.7429 4.8562C26.1068 4.89868 27.0246 3.98649 27.8356 3.18373C28.4866 2.53937 29.0469 1.97912 29.6877 1.99411C30.2668 2.00424 30.6645 2.41786 31.2652 3.09176C31.9216 3.8282 32.7387 4.74471 34.1007 4.7652C34.1055 4.7652 34.1104 4.7653 34.1152 4.7653C35.5558 4.76401 36.5264 3.7979 37.3063 3.02167C38.0165 2.31488 38.4847 1.88984 39.0221 1.90246C39.5221 1.91787 39.9379 1.52281 39.9525 1.02174C39.9671 0.520792 39.5743 0.102757 39.0751 0.0880926Z" transform="translate(7.61719 37.8144)"/><path stroke="#F11F60" d="M39.0604 0.587877L39.0595 0.58785C37.9558 0.5534 37.2051 1.27141 36.3856 2.0871L36.3856 2.08715L36.3674 2.1053C36.0539 2.41726 35.7257 2.74394 35.3837 2.98969C35.0284 3.24503 34.6135 3.44687 34.1242 3.45007L34.1171 3.45011L34.11 3.44996C33.7022 3.44106 33.3701 3.27921 33.0771 3.05154C32.798 2.8347 32.5258 2.53464 32.24 2.21397C31.5586 1.44967 30.8643 0.699833 29.7121 0.678934C29.7062 0.67886 29.701 0.678789 29.6964 0.678725C29.6847 0.678565 29.6763 0.67845 29.6668 0.67845C28.5323 0.67845 27.715 1.45696 26.9174 2.24639L26.9036 2.26003C26.5989 2.56168 26.2806 2.87668 25.9595 3.111C25.6328 3.34943 25.239 3.55334 24.7828 3.54134L24.7813 3.5413C24.3696 3.52924 24.0396 3.34723 23.7561 3.10594C23.4842 2.8746 23.2171 2.55509 22.935 2.21168C22.2676 1.3995 21.5978 0.620202 20.4904 0.587661L20.4895 0.587634C19.3869 0.553189 18.6348 1.27131 17.8157 2.08686L17.8157 2.08687L17.7988 2.10367C17.4839 2.41723 17.154 2.74569 16.81 2.99217C16.4529 3.248 16.036 3.44933 15.5442 3.44986L15.5437 3.44986L39.0604 0.587877ZM39.0604 0.587877L39.0751 0.0880926L39.0604 0.587877ZM13.3123 2.07811L13.3122 2.07803C12.5415 1.28287 11.7526 0.5 10.5972 0.5L10.5773 0.500068L10.5753 0.500093C9.36702 0.510451 8.55853 1.36449 7.77093 2.22999L13.3123 2.07811ZM13.3123 2.07811C13.6757 2.45294 14.0135 2.79121 14.3522 3.03201C14.7035 3.28175 15.087 3.44986 15.5425 3.44986H15.5425M13.3123 2.07811L15.5425 3.44986M5.6485 3.64599H5.64708C5.20844 3.64475 4.844 3.45684 4.52192 3.20147C4.20881 2.9532 3.89241 2.60558 3.55114 2.22028L3.5511 2.22023C2.797 1.3686 2.03855 0.550584 0.901423 0.553154C0.680221 0.554738 0.498748 0.73638 0.500007 0.963204L5.6485 3.64599ZM5.6485 3.64599H5.6485H5.64851H5.64851H5.64852H5.64852H5.64853H5.64854H5.64854H5.64855H5.64855H5.64856H5.64856H5.64857H5.64857H5.64858H5.64859H5.64859H5.6486H5.6486H5.64861H5.64861H5.64862H5.64863H5.64863H5.64864H5.64864H5.64865H5.64865H5.64866H5.64867H5.64867H5.64868H5.64868H5.64869H5.64869H5.6487H5.64871H5.64871H5.64872H5.64872H5.64873H5.64873H5.64874H5.64874H5.64875H5.64876H5.64876H5.64877H5.64877H5.64878H5.64878H5.64879H5.6488H5.6488H5.64881H5.64881H5.64882H5.64882H5.64883H5.64884H5.64884H5.64885H5.64885H5.64886H5.64886H5.64887H5.64888H5.64888H5.64889H5.64889H5.6489H5.6489H5.64891H5.64891H5.64892H5.64893H5.64893H5.64894H5.64894H5.64895H5.64895H5.64896H5.64897H5.64897H5.64898H5.64898H5.64899H5.64899H5.649H5.64901H5.64901H5.64902H5.64902H5.64903H5.64903H5.64904H5.64904H5.64905H5.64906H5.64906H5.64907H5.64907H5.64908H5.64908H5.64909H5.6491H5.6491H5.64911H5.64911H5.64912H5.64912H5.64913H5.64914H5.64914H5.64915H5.64915H5.64916H5.64916H5.64917H5.64918H5.64918H5.64919H5.64919H5.6492H5.6492H5.64921H5.64921H5.64922H5.64923H5.64923H5.64924H5.64924H5.64925H5.64925H5.64926H5.64927H5.64927H5.64928H5.64928H5.64929H5.64929H5.6493H5.64931H5.64931H5.64932H5.64932H5.64933H5.64933H5.64934H5.64935H5.64935H5.64936H5.64936H5.64937H5.64937H5.64938H5.64938H5.64939H5.6494H5.6494H5.64941H5.64941H5.64942H5.64942H5.64943H5.64944H5.64944H5.64945H5.64945H5.64946H5.64946H5.64947H5.64948H5.64948H5.64949H5.64949H5.6495H5.6495H5.64951H5.64952H5.64952H5.64953H5.64953H5.64954H5.64954H5.64955H5.64955H5.64956H5.64957H5.64957H5.64958H5.64958H5.64959H5.64959H5.6496H5.64961H5.64961H5.64962H5.64962H5.64963H5.64963H5.64964H5.64965H5.64965H5.64966H5.64966H5.64967H5.64967H5.64968H5.64968H5.64969H5.6497H5.6497H5.64971H5.64971H5.64972H5.64972H5.64973H5.64974H5.64974H5.64975H5.64975H5.64976H5.64976H5.64977H5.64978H5.64978H5.64979H5.64979H5.6498H5.6498H5.64981H5.64982H5.64982H5.64983H5.64983H5.64984H5.64984H5.64985H5.64986H5.64986H5.64987H5.64987H5.64988H5.64988H5.64989H5.64989H5.6499H5.64991H5.64991H5.64992H5.64992H5.64993H5.64993H5.64994H5.64995H5.64995H5.64996H5.64996H5.64997H5.64997H5.64998H5.64999H5.64999H5.65H5.65H5.65001H5.65001H5.65002H5.65002H5.65003H5.65004H5.65004H5.65005H5.65005H5.65006H5.65006H5.65007H5.65008H5.65008H5.65009H5.65009H5.6501H5.6501H5.65011H5.65012H5.65012H5.65013H5.65013H5.65014H5.65014H5.65015H5.65016H5.65016H5.65017H5.65017H5.65018H5.65018H5.65019H5.65019H5.6502H5.65021H5.65021H5.65022H5.65022H5.65023H5.65023H5.65024H5.65025H5.65025H5.65026H5.65026H5.65027H5.65027H5.65028H5.65029H5.65029H5.6503H5.6503H5.65031H5.65031H5.65032H5.65033H5.65033H5.65034H5.65034H5.65035H5.65035H5.65036H5.65036H5.65037H5.65038H5.65038H5.65039H5.65039H5.6504H5.6504H5.65041H5.65042H5.65042H5.65043H5.65043H5.65044H5.65044H5.65045H5.65046H5.65046H5.65047H5.65047H5.65048H5.65048H5.65049H5.6505H5.6505H5.65051H5.65051H5.65052H5.65052H5.65053H5.65053H5.65054H5.65055H5.65055H5.65056H5.65056H5.65057H5.65057H5.65058H5.65059H5.65059H5.6506H5.6506H5.65061H5.65061H5.65062H5.65063H5.65063H5.65064H5.65064H5.65065H5.65065H5.65066H5.65066H5.65067H5.65068H5.65068H5.65069H5.65069H5.6507H5.6507H5.65071H5.65072H5.65072H5.65073H5.65073H5.65074H5.65074H5.65075H5.65076H5.65076H5.65077H5.65077H5.65078H5.65078H5.65079H5.6508H5.6508H5.65081H5.65081H5.65082H5.65082H5.65083H5.65084H5.65084H5.65085H5.65085H5.65086H5.65086H5.65087H5.65087H5.65088H5.65089H5.65089H5.6509H5.6509H5.65091H5.65091H5.65092H5.65093H5.65093H5.65094H5.65094H5.65095H5.65095H5.65096H5.65097H5.65097H5.65098H5.65098H5.65099H5.65099H5.651H5.651H5.65101H5.65102H5.65102H5.65103H5.65103H5.65104H5.65104H5.65105H5.65106H5.65106H5.65107H5.65107H5.65108H5.65108H5.65109H5.6511H5.6511H5.65111H5.65111H5.65112H5.65112H5.65113H5.65113H5.65114H5.65115H5.65115H5.65116H5.65116H5.65117H5.65118H5.65118H5.65119H5.65119H5.6512H5.6512H5.65121H5.65121H5.65122H5.65123H5.65123H5.65124H5.65124H5.65125H5.65125H5.65126H5.65127H5.65127H5.65128H5.65128H5.65129H5.65129H5.6513H5.65131H5.65131H5.65132H5.65132H5.65133H5.65133H5.65134H5.65134H5.65135H5.65136H5.65136H5.65137H5.65137H5.65138H5.65138H5.65139H5.6514C6.08872 3.64599 6.45505 3.4596 6.78049 3.20678M5.6485 3.64599L6.78049 3.20678M0.930529 1.3686L0.931919 1.36874C1.351 1.37135 1.69964 1.55865 2.00306 1.80227C2.30595 2.04546 2.61502 2.38738 2.94809 2.76353L2.59219 3.07866L2.94809 2.76353C3.70912 3.623 4.48128 4.45808 5.64431 4.46165H5.64431H5.64433H5.64435H5.64436H5.64438H5.6444H5.64441H5.64443H5.64445H5.64446H5.64448H5.6445H5.64452H5.64453H5.64455H5.64457H5.64458H5.6446H5.64462H5.64463H5.64465H5.64467H5.64468H5.6447H5.64472H5.64473H5.64475H5.64477H5.64478H5.6448H5.64482H5.64483H5.64485H5.64487H5.64488H5.6449H5.64492H5.64493H5.64495H5.64497H5.64498H5.645H5.64502H5.64503H5.64505H5.64507H5.64508H5.6451H5.64512H5.64513H5.64515H5.64517H5.64518H5.6452H5.64522H5.64523H5.64525H5.64527H5.64528H5.6453H5.64532H5.64533H5.64535H5.64537H5.64538H5.6454H5.64542H5.64543H5.64545H5.64546H5.64548H5.6455H5.64551H5.64553H5.64555H5.64556H5.64558H5.6456H5.64561H5.64563H5.64565H5.64566H5.64568H5.6457H5.64571H5.64573H5.64575H5.64576H5.64578H5.6458H5.64581H5.64583H5.64585H5.64586H5.64588H5.6459H5.64591H5.64593H5.64595H5.64596H5.64598H5.646H5.64601H5.64603H5.64604H5.64606H5.64608H5.64609H5.64611H5.64613H5.64614H5.64616H5.64618H5.64619H5.64621H5.64623H5.64624H5.64626H5.64628H5.64629H5.64631H5.64633H5.64634H5.64636H5.64637H5.64639H5.64641H5.64642H5.64644H5.64646H5.64647H5.64649H5.64651H5.64652H5.64654H5.64656H5.64657H5.64659H5.64661H5.64662H5.64664H5.64666H5.64667H5.64669H5.6467H5.64672H5.64674H5.64675H5.64677H5.64679H5.6468H5.64682H5.64684H5.64685H5.64687H5.64689H5.6469H5.64692H5.64694H5.64695H5.64697H5.64699H5.647H5.64702H5.64703H5.64705H5.64707H5.64708H5.6471H5.64712H5.64713H5.64715H5.64717H5.64718H5.6472H5.64722H5.64723H5.64725H5.64727H5.64728H5.6473H5.64732H5.64733H5.64735H5.64736H5.64738H5.6474H5.64741H5.64743H5.64745H5.64746H5.64748H5.6475H5.64751H5.64753H5.64755H5.64756H5.64758H5.6476H5.64761H5.64763H5.64764H5.64766H5.64768H5.64769H5.64771H5.64773H5.64774H5.64776H5.64778H5.64779H5.64781H5.64783H5.64784H5.64786H5.64788H5.64789H5.64791H5.64793H5.64794H5.64796H5.64798H5.64799H5.64801H5.64803H5.64804H5.64806H5.64807H5.64809H5.64811H5.64812H5.64814H5.64816H5.64817H5.64819H5.64821H5.64822H5.64824H5.64826H5.64827H5.64829H5.64831H5.64832H5.64834H5.64836H5.64837H5.64839H5.64841H5.64842H5.64844H5.64846H5.64847H5.64849H5.64851H5.64852H5.64854H5.64856H5.64857H5.64859H5.64861H5.64862H5.64864H5.64865H5.64867H5.64869H5.64871H5.64872H5.64874H5.64875H5.64877H5.64879H5.6488H5.64882H5.64884H5.64885H5.64887H5.64889H5.6489H5.64892H5.64894H5.64895H5.64897H5.64899H5.649H5.64902H5.64904H5.64905H5.64907H5.64909H5.6491H5.64912H5.64914H5.64915H5.64917H5.64919H5.6492H5.64922H5.64924H5.64926H5.64927H5.64929H5.64931H5.64932H5.64934H5.64936H5.64937H5.64939H5.64941H5.64942H5.64944H5.64946H5.64947H5.64949H5.64951H5.64952H5.64954H5.64956H5.64957H5.64959H5.64961H5.64962H5.64964H5.64966H5.64967H5.64969H5.64971H5.64972H5.64974H5.64976H5.64978H5.64979H5.64981H5.64983H5.64984H5.64986H5.64988H5.64989H5.64991H5.64993H5.64994H5.64996H5.64998H5.64999H5.65001H5.65003H5.65004H5.65006H5.65008H5.6501H5.65011H5.65013H5.65015H5.65016H5.65018H5.6502H5.65021H5.65023H5.65025H5.65027H5.65028H5.6503H5.65032H5.65033H5.65035H5.65037H5.65038H5.6504H5.65042H5.65043H5.65045H5.65047H5.65049H5.6505H5.65052H5.65054H5.65055H5.65057H5.65059H5.65061H5.65062H5.65064H5.65066H5.65067H5.65069H5.65071H5.65072H5.65074H5.65076H5.65078H5.65079H5.65081H5.65083H5.65084H5.65086H5.65088H5.6509H5.65091H5.65093H5.65095H5.65096H5.65098H5.651H5.65102H5.65103H5.65105H5.65107H5.65109H5.6511H5.65112H5.65114H5.65115H5.65117H5.65119H5.65121H5.65122H5.65124H5.65126H5.65128H5.65129H5.65131H5.65133H5.65134H5.65136H5.65138H5.6514H5.65141H5.65143H5.65145H5.65147H5.65148H5.6515H5.65152H5.65154H5.65155H5.65157H5.65159H5.6516H5.65162H5.65164H5.65166H5.65167H5.65169H5.65171H5.65173H5.65174H5.65176H5.65178H5.6518H5.65181H5.65183H5.65185H5.65187H5.65188H5.6519H5.65192H5.65194H5.65195H5.65197H5.65199H5.65201H5.65202H5.65204H5.65206H5.65208H5.65209H5.65211L0.930529 1.3686ZM0.930529 1.3686H0.904188M0.930529 1.3686H0.904188M0.904188 1.3686C0.683727 1.3686 0.501277 1.18935 0.500007 0.963214L0.904188 1.3686ZM10.5866 1.31553V1.31555H10.5866H10.5866H10.5867H10.5867H10.5867H10.5867H10.5867H10.5867H10.5868H10.5868H10.5868H10.5868H10.5868H10.5869H10.5869H10.5869H10.5869H10.5869H10.587H10.587H10.587H10.587H10.587H10.5871H10.5871H10.5871H10.5871H10.5871H10.5872H10.5872H10.5872H10.5872H10.5872H10.5873H10.5873H10.5873H10.5873H10.5873H10.5874H10.5874H10.5874H10.5874H10.5874H10.5875H10.5875H10.5875H10.5875H10.5875H10.5876H10.5876H10.5876H10.5876H10.5876H10.5876H10.5877H10.5877H10.5877H10.5877H10.5877H10.5878H10.5878H10.5878H10.5878H10.5878H10.5879H10.5879H10.5879H10.5879H10.5879H10.588H10.588H10.588H10.588H10.588H10.5881H10.5881H10.5881H10.5881H10.5881H10.5882H10.5882H10.5882H10.5882H10.5882H10.5883H10.5883H10.5883H10.5883H10.5883H10.5884H10.5884H10.5884H10.5884H10.5884H10.5885H10.5885H10.5885H10.5885H10.5885H10.5886H10.5886H10.5886H10.5886H10.5886H10.5887H10.5887H10.5887H10.5887H10.5887H10.5887H10.5888H10.5888H10.5888H10.5888H10.5888H10.5889H10.5889H10.5889H10.5889H10.5889H10.589H10.589H10.589H10.589H10.589H10.5891H10.5891H10.5891H10.5891H10.5891H10.5892H10.5892H10.5892H10.5892H10.5892H10.5893H10.5893H10.5893H10.5893H10.5893H10.5894H10.5894H10.5894H10.5894H10.5894H10.5895H10.5895H10.5895H10.5895H10.5895H10.5896H10.5896H10.5896H10.5896H10.5896H10.5897H10.5897H10.5897H10.5897H10.5897H10.5898H10.5898H10.5898H10.5898H10.5898H10.5899H10.5899H10.5899H10.5899H10.5899H10.59H10.59H10.59H10.59H10.59H10.5901H10.5901H10.5901H10.5901H10.5901H10.5901H10.5902H10.5902H10.5902H10.5902H10.5902H10.5903H10.5903H10.5903H10.5903H10.5903H10.5904H10.5904H10.5904H10.5904H10.5904H10.5905H10.5905H10.5905H10.5905H10.5905H10.5906H10.5906H10.5906H10.5906H10.5906H10.5907H10.5907H10.5907H10.5907H10.5907H10.5908H10.5908H10.5908H10.5908H10.5908H10.5909H10.5909H10.5909H10.5909H10.5909H10.591H10.591H10.591H10.591H10.591H10.5911H10.5911H10.5911H10.5911H10.5911H10.5912H10.5912H10.5912H10.5912H10.5912H10.5913H10.5913H10.5913H10.5913H10.5913H10.5914H10.5914H10.5914H10.5914H10.5914H10.5915H10.5915H10.5915H10.5915H10.5915H10.5915H10.5916H10.5916H10.5916H10.5916H10.5916H10.5917H10.5917H10.5917H10.5917H10.5917H10.5918H10.5918H10.5918H10.5918H10.5918H10.5919H10.5919H10.5919H10.5919H10.5919H10.592H10.592H10.592H10.592H10.592H10.5921H10.5921H10.5921H10.5921H10.5921H10.5922H10.5922H10.5922H10.5922H10.5922H10.5923H10.5923H10.5923H10.5923H10.5923H10.5924H10.5924H10.5924H10.5924H10.5924H10.5925H10.5925H10.5925H10.5925H10.5925H10.5926H10.5926H10.5926H10.5926H10.5926H10.5926H10.5927H10.5927H10.5927H10.5927H10.5927H10.5928H10.5928H10.5928H10.5928H10.5928H10.5929H10.5929H10.5929H10.5929H10.5929H10.593H10.593H10.593H10.593H10.593H10.5931H10.5931H10.5931H10.5931H10.5931H10.5932H10.5932H10.5932H10.5932H10.5932H10.5933H10.5933H10.5933H10.5933H10.5933H10.5934H10.5934H10.5934H10.5934H10.5934H10.5934H10.5935H10.5935H10.5935H10.5935H10.5935H10.5936H10.5936H10.5936H10.5936H10.5936H10.5937H10.5937H10.5937H10.5937H10.5937H10.5938H10.5938H10.5938H10.5938H10.5938H10.5939H10.5939H10.5939H10.5939H10.5939H10.594H10.594H10.594H10.594H10.594H10.5941H10.5941H10.5941H10.5941H10.5941H10.5941H10.5942H10.5942H10.5942H10.5942H10.5942H10.5943H10.5943H10.5943H10.5943H10.5943H10.5944H10.5944H10.5944H10.5944H10.5944H10.5945H10.5945H10.5945H10.5945H10.5945H10.5946H10.5946H10.5946H10.5946H10.5946H10.5947H10.5947H10.5947H10.5947H10.5947H10.5947H10.5948H10.5948H10.5948H10.5948H10.5948H10.5949H10.5949H10.5949H10.5949H10.5949H10.595H10.595H10.595H10.595H10.595H10.5951H10.5951H10.5951H10.5951H10.5951H10.5952H10.5952H10.5952H10.5952H10.5952H10.5952H10.5953H10.5953H10.5953H10.5953H10.5953H10.5954H10.5954H10.5954H10.5954H10.5954H10.5955H10.5955H10.5955H10.5955H10.5955H10.5956H10.5956H10.5956H10.5956H10.5956H10.5957H10.5957H10.5957H10.5957H10.5957H10.5957H10.5958H10.5958H10.5958H10.5958H10.5958H10.5959H10.5959H10.5959H10.5959H10.5959H10.596H10.596H10.596H10.596H10.596H10.5961H10.5961H10.5961H10.5961H10.5961H10.5961H10.5962H10.5962H10.5962H10.5962H10.5962H10.5963H10.5963H10.5963H10.5963H10.5963H10.5964H10.5964H10.5964H10.5964H10.5964H10.5964H10.5965H10.5965H10.5965H10.5965H10.5965H10.5966H10.5966C11.0319 1.31555 11.3997 1.48445 11.7333 1.72528C12.0565 1.95857 12.3827 2.28583 12.734 2.64825L12.734 2.64825C13.5192 3.45847 14.3306 4.26552 15.5424 4.26552L10.5866 1.31553ZM10.5866 1.31553L10.5822 1.31557M10.5866 1.31553L10.5822 1.31557M10.5822 1.31557C10.125 1.31959 9.74309 1.50541 9.39849 1.76931C9.0646 2.025 8.72941 2.38298 8.36696 2.78135C7.55491 3.67382 6.80577 4.46155 5.65215 4.46165L10.5822 1.31557ZM20.4656 1.40285L20.4669 1.40288L20.4656 1.40285ZM20.4656 1.40285C20.0472 1.39172 19.6901 1.55668 19.3694 1.78385L20.4656 1.40285ZM24.7576 4.35641L24.7585 4.35644L24.7576 4.35641ZM24.7576 4.35641C23.6498 4.32387 22.9798 3.54426 22.3123 2.73195L21.9524 3.02765M24.7576 4.35641L21.9524 3.02765M21.9524 3.02765L22.3123 2.73195L21.9524 3.02765ZM39.0339 1.40259L39.0376 1.40268C39.2582 1.4095 39.4461 1.23484 39.4527 1.00717L39.0339 1.40259ZM39.0339 1.40259C38.6173 1.39282 38.2609 1.55734 37.9403 1.78403L39.0339 1.40259ZM15.5425 3.44986H15.5425M15.5425 3.44986H15.5425M15.5425 3.44986H15.5425M15.5425 3.44986H15.5425M15.5425 3.44986H15.5426M15.5425 3.44986H15.5426M15.5426 3.44986H15.5426M15.5426 3.44986H15.5426M15.5426 3.44986H15.5426M15.5426 3.44986H15.5426M15.5426 3.44986H15.5426M15.5426 3.44986H15.5426M15.5426 3.44986H15.5426M15.5426 3.44986H15.5426M15.5426 3.44986H15.5426M15.5426 3.44986H15.5426M15.5426 3.44986H15.5426M15.5426 3.44986H15.5426M15.5426 3.44986H15.5426M15.5426 3.44986H15.5426M15.5426 3.44986H15.5426M15.5426 3.44986H15.5426M15.5426 3.44986H15.5426M15.5426 3.44986H15.5426M15.5426 3.44986H15.5426M15.5426 3.44986H15.5426M15.5426 3.44986H15.5426M15.5426 3.44986H15.5426M15.5426 3.44986H15.5427M15.5426 3.44986H15.5427M15.5427 3.44986H15.5427M15.5427 3.44986H15.5427M15.5427 3.44986H15.5427M15.5427 3.44986H15.5427M15.5427 3.44986H15.5427M15.5427 3.44986H15.5427M15.5427 3.44986H15.5427M15.5427 3.44986H15.5427M15.5427 3.44986H15.5427M15.5427 3.44986H15.5427M15.5427 3.44986H15.5427M15.5427 3.44986H15.5427M15.5427 3.44986H15.5427M15.5427 3.44986H15.5427M15.5427 3.44986H15.5427M15.5427 3.44986H15.5427M15.5427 3.44986H15.5427M15.5427 3.44986H15.5427M15.5427 3.44986H15.5427M15.5427 3.44986H15.5427M15.5427 3.44986H15.5427M15.5427 3.44986H15.5427M15.5427 3.44986H15.5428M15.5427 3.44986H15.5428M15.5428 3.44986H15.5428M15.5428 3.44986H15.5428M15.5428 3.44986H15.5428M15.5428 3.44986H15.5428M15.5428 3.44986H15.5428M15.5428 3.44986H15.5428M15.5428 3.44986H15.5428M15.5428 3.44986H15.5428M15.5428 3.44986H15.5428M15.5428 3.44986H15.5428M15.5428 3.44986H15.5428M15.5428 3.44986H15.5428M15.5428 3.44986H15.5428M15.5428 3.44986H15.5428M15.5428 3.44986H15.5428M15.5428 3.44986H15.5428M15.5428 3.44986H15.5428M15.5428 3.44986H15.5428M15.5428 3.44986H15.5428M15.5428 3.44986H15.5428M15.5428 3.44986H15.5429M15.5428 3.44986H15.5429M15.5429 3.44986H15.5429M15.5429 3.44986H15.5429M15.5429 3.44986H15.5429M15.5429 3.44986H15.5429M15.5429 3.44986H15.5429M15.5429 3.44986H15.5429M15.5429 3.44986H15.5429M15.5429 3.44986H15.5429M15.5429 3.44986H15.5429M15.5429 3.44986H15.5429M15.5429 3.44986H15.5429M15.5429 3.44986H15.5429M15.5429 3.44986H15.5429M15.5429 3.44986H15.5429M15.5429 3.44986H15.5429M15.5429 3.44986H15.5429M15.5429 3.44986H15.5429M15.5429 3.44986H15.5429M15.5429 3.44986H15.5429M15.5429 3.44986H15.5429M15.5429 3.44986H15.5429M15.5429 3.44986H15.5429M15.5429 3.44986H15.543M15.5429 3.44986H15.543M15.543 3.44986H15.543M15.543 3.44986H15.543M15.543 3.44986H15.543M15.543 3.44986H15.543M15.543 3.44986H15.543M15.543 3.44986H15.543M15.543 3.44986H15.543M15.543 3.44986H15.543M15.543 3.44986H15.543M15.543 3.44986H15.543M15.543 3.44986H15.543M15.543 3.44986H15.543M15.543 3.44986H15.543M15.543 3.44986H15.543M15.543 3.44986H15.543M15.543 3.44986H15.543M15.543 3.44986H15.543M15.543 3.44986H15.543M15.543 3.44986H15.543M15.543 3.44986H15.543M15.543 3.44986H15.543M15.543 3.44986H15.543M15.543 3.44986H15.5431M15.543 3.44986H15.5431M15.5431 3.44986H15.5431M15.5431 3.44986H15.5431M15.5431 3.44986H15.5431M15.5431 3.44986H15.5431M15.5431 3.44986H15.5431M15.5431 3.44986H15.5431M15.5431 3.44986H15.5431M15.5431 3.44986H15.5431M15.5431 3.44986H15.5431M15.5431 3.44986H15.5431M15.5431 3.44986H15.5431M15.5431 3.44986H15.5431M15.5431 3.44986H15.5431M15.5431 3.44986H15.5431M15.5431 3.44986H15.5431M15.5431 3.44986H15.5431M15.5431 3.44986H15.5431M15.5431 3.44986H15.5431M15.5431 3.44986H15.5431M15.5431 3.44986H15.5431M15.5431 3.44986H15.5431M15.5431 3.44986H15.5431M15.5431 3.44986H15.5431M15.5431 3.44986H15.5431M15.5431 3.44986H15.5432M15.5431 3.44986H15.5432M15.5432 3.44986H15.5432M15.5432 3.44986H15.5432M15.5432 3.44986H15.5432M15.5432 3.44986H15.5432M15.5432 3.44986H15.5432M15.5432 3.44986H15.5432M15.5432 3.44986H15.5432M15.5432 3.44986H15.5432M15.5432 3.44986H15.5432M15.5432 3.44986H15.5432M15.5432 3.44986H15.5432M15.5432 3.44986H15.5432M15.5432 3.44986H15.5432M15.5432 3.44986H15.5432M15.5432 3.44986H15.5432M15.5432 3.44986H15.5432M15.5432 3.44986H15.5432M15.5432 3.44986H15.5432M15.5432 3.44986H15.5432M15.5432 3.44986H15.5432M15.5432 3.44986H15.5432M15.5432 3.44986H15.5432M15.5432 3.44986H15.5433M15.5432 3.44986H15.5433M15.5433 3.44986H15.5433M15.5433 3.44986H15.5433M15.5433 3.44986H15.5433M15.5433 3.44986H15.5433M15.5433 3.44986H15.5433M15.5433 3.44986H15.5433M15.5433 3.44986H15.5433M15.5433 3.44986H15.5433M15.5433 3.44986H15.5433M15.5433 3.44986H15.5433M15.5433 3.44986H15.5433M15.5433 3.44986H15.5433M15.5433 3.44986H15.5433M15.5433 3.44986H15.5433M15.5433 3.44986H15.5433M15.5433 3.44986H15.5433M15.5433 3.44986H15.5433M15.5433 3.44986H15.5433M15.5433 3.44986H15.5433M15.5433 3.44986H15.5433M15.5433 3.44986H15.5433M15.5433 3.44986H15.5433M15.5433 3.44986H15.5434M15.5433 3.44986H15.5434M15.5434 3.44986H15.5434M15.5434 3.44986H15.5434M15.5434 3.44986H15.5434M15.5434 3.44986H15.5434M15.5434 3.44986H15.5434M15.5434 3.44986H15.5434M15.5434 3.44986H15.5434M15.5434 3.44986H15.5434M15.5434 3.44986H15.5434M15.5434 3.44986H15.5434M15.5434 3.44986H15.5434M15.5434 3.44986H15.5434M15.5434 3.44986H15.5434M15.5434 3.44986H15.5434M15.5434 3.44986H15.5434M15.5434 3.44986H15.5434M15.5434 3.44986H15.5434M15.5434 3.44986H15.5434M15.5434 3.44986H15.5434M15.5434 3.44986H15.5434M15.5434 3.44986H15.5435M15.5434 3.44986H15.5435M15.5435 3.44986H15.5435M15.5435 3.44986H15.5435M15.5435 3.44986H15.5435M15.5435 3.44986H15.5435M15.5435 3.44986H15.5435M15.5435 3.44986H15.5435M15.5435 3.44986H15.5435M15.5435 3.44986H15.5435M15.5435 3.44986H15.5435M15.5435 3.44986H15.5435M15.5435 3.44986H15.5435M15.5435 3.44986H15.5435M15.5435 3.44986H15.5435M15.5435 3.44986H15.5435M15.5435 3.44986H15.5435M15.5435 3.44986H15.5435M15.5435 3.44986H15.5435M15.5435 3.44986H15.5435M15.5435 3.44986H15.5435M15.5435 3.44986H15.5435M15.5435 3.44986H15.5435M15.5435 3.44986H15.5435M15.5435 3.44986H15.5436M15.5435 3.44986H15.5436M15.5436 3.44986H15.5436M15.5436 3.44986H15.5436M15.5436 3.44986H15.5436M15.5436 3.44986H15.5436M15.5436 3.44986H15.5436M15.5436 3.44986H15.5436M15.5436 3.44986H15.5436M15.5436 3.44986H15.5436M15.5436 3.44986H15.5436M15.5436 3.44986H15.5436M15.5436 3.44986H15.5436M15.5436 3.44986H15.5436M15.5436 3.44986H15.5436M15.5436 3.44986H15.5436M15.5436 3.44986H15.5436M15.5436 3.44986H15.5436M15.5436 3.44986H15.5436M15.5436 3.44986H15.5436M15.5436 3.44986H15.5436M15.5436 3.44986H15.5436M15.5436 3.44986H15.5437M15.5436 3.44986H15.5437M15.5437 3.44986H15.5437M15.5437 3.44986H15.5437M15.5437 3.44986H15.5437M15.5437 3.44986H15.5437M15.5437 3.44986H15.5437M15.5437 3.44986H15.5437M15.5437 3.44986H15.5437M15.5437 3.44986H15.5437M15.5437 3.44986H15.5437M15.5437 3.44986H15.5437M15.5437 3.44986H15.5437M15.5437 3.44986H15.5437M15.5437 3.44986L15.5437 2.94986L15.5437 3.44986ZM6.78049 3.20678C7.09779 2.9603 7.42103 2.61457 7.77089 2.23003L6.78049 3.20678ZM15.5448 4.26552H15.5449H15.5449H15.5448ZM15.5448 4.26552H15.5448M15.5448 4.26552H15.5448M15.5448 4.26552H15.5448M15.5448 4.26552H15.5448M15.5448 4.26552H15.5448M15.5448 4.26552H15.5448M15.5448 4.26552H15.5448M15.5448 4.26552H15.5448M15.5448 4.26552H15.5448M15.5448 4.26552H15.5448M15.5448 4.26552H15.5448M15.5448 4.26552H15.5448M15.5448 4.26552H15.5448M15.5448 4.26552H15.5448M15.5448 4.26552H15.5448M15.5448 4.26552H15.5448M15.5448 4.26552H15.5447M15.5448 4.26552H15.5447M15.5447 4.26552H15.5447M15.5447 4.26552H15.5447M15.5447 4.26552H15.5447M15.5447 4.26552H15.5447M15.5447 4.26552H15.5447M15.5447 4.26552H15.5447M15.5447 4.26552H15.5447M15.5447 4.26552H15.5447M15.5447 4.26552H15.5447M15.5447 4.26552H15.5447M15.5447 4.26552H15.5447M15.5447 4.26552H15.5447M15.5447 4.26552H15.5447M15.5447 4.26552H15.5447M15.5447 4.26552H15.5447M15.5447 4.26552H15.5447M15.5447 4.26552H15.5446M15.5447 4.26552H15.5446M15.5446 4.26552H15.5446M15.5446 4.26552H15.5446M15.5446 4.26552H15.5446M15.5446 4.26552H15.5446M15.5446 4.26552H15.5446M15.5446 4.26552H15.5446M15.5446 4.26552H15.5446M15.5446 4.26552H15.5446M15.5446 4.26552H15.5446M15.5446 4.26552H15.5446M15.5446 4.26552H15.5446M15.5446 4.26552H15.5446M15.5446 4.26552H15.5446M15.5446 4.26552H15.5446M15.5446 4.26552H15.5446M15.5446 4.26552H15.5446M15.5446 4.26552H15.5445M15.5446 4.26552H15.5445M15.5445 4.26552H15.5445M15.5445 4.26552H15.5445M15.5445 4.26552H15.5445M15.5445 4.26552H15.5445M15.5445 4.26552H15.5445M15.5445 4.26552H15.5445M15.5445 4.26552H15.5445M15.5445 4.26552H15.5445M15.5445 4.26552H15.5445M15.5445 4.26552H15.5445M15.5445 4.26552H15.5445M15.5445 4.26552H15.5445M15.5445 4.26552H15.5445M15.5445 4.26552H15.5445M15.5445 4.26552H15.5445M15.5445 4.26552H15.5445M15.5445 4.26552H15.5444M15.5445 4.26552H15.5444M15.5444 4.26552H15.5444M15.5444 4.26552H15.5444M15.5444 4.26552H15.5444M15.5444 4.26552H15.5444M15.5444 4.26552H15.5444M15.5444 4.26552H15.5444M15.5444 4.26552H15.5444M15.5444 4.26552H15.5444M15.5444 4.26552H15.5444M15.5444 4.26552H15.5444M15.5444 4.26552H15.5444M15.5444 4.26552H15.5444M15.5444 4.26552H15.5444M15.5444 4.26552H15.5444M15.5444 4.26552H15.5444M15.5444 4.26552H15.5444M15.5444 4.26552H15.5443M15.5444 4.26552H15.5443M15.5443 4.26552H15.5443M15.5443 4.26552H15.5443M15.5443 4.26552H15.5443M15.5443 4.26552H15.5443M15.5443 4.26552H15.5443M15.5443 4.26552H15.5443M15.5443 4.26552H15.5443M15.5443 4.26552H15.5443M15.5443 4.26552H15.5443M15.5443 4.26552H15.5443M15.5443 4.26552H15.5443M15.5443 4.26552H15.5443M15.5443 4.26552H15.5443M15.5443 4.26552H15.5443M15.5443 4.26552H15.5442M15.5443 4.26552H15.5442M15.5442 4.26552H15.5442M15.5442 4.26552H15.5442M15.5442 4.26552H15.5442M15.5442 4.26552H15.5442M15.5442 4.26552H15.5442M15.5442 4.26552H15.5442M15.5442 4.26552H15.5442M15.5442 4.26552H15.5442M15.5442 4.26552H15.5442M15.5442 4.26552H15.5442M15.5442 4.26552H15.5442M15.5442 4.26552H15.5442M15.5442 4.26552H15.5442M15.5442 4.26552H15.5442M15.5442 4.26552H15.5442M15.5442 4.26552H15.5442M15.5442 4.26552H15.5441M15.5442 4.26552H15.5441M15.5441 4.26552H15.5441M15.5441 4.26552H15.5441M15.5441 4.26552H15.5441M15.5441 4.26552H15.5441M15.5441 4.26552H15.5441M15.5441 4.26552H15.5441M15.5441 4.26552H15.5441M15.5441 4.26552H15.5441M15.5441 4.26552H15.5441M15.5441 4.26552H15.5441M15.5441 4.26552H15.5441M15.5441 4.26552H15.5441M15.5441 4.26552H15.5441M15.5441 4.26552H15.5441M15.5441 4.26552H15.5441M15.5441 4.26552H15.5441M15.5441 4.26552H15.544M15.5441 4.26552H15.544M15.544 4.26552H15.544M15.544 4.26552H15.544M15.544 4.26552H15.544M15.544 4.26552H15.544M15.544 4.26552H15.544M15.544 4.26552H15.544M15.544 4.26552H15.544M15.544 4.26552H15.544M15.544 4.26552H15.544M15.544 4.26552H15.544M15.544 4.26552H15.544M15.544 4.26552H15.544M15.544 4.26552H15.544M15.544 4.26552H15.544M15.544 4.26552H15.544M15.544 4.26552H15.544M15.544 4.26552H15.5439M15.544 4.26552H15.5439M15.5439 4.26552H15.5439M15.5439 4.26552H15.5439M15.5439 4.26552H15.5439M15.5439 4.26552H15.5439M15.5439 4.26552H15.5439M15.5439 4.26552H15.5439M15.5439 4.26552H15.5439M15.5439 4.26552H15.5439M15.5439 4.26552H15.5439M15.5439 4.26552H15.5439M15.5439 4.26552H15.5439M15.5439 4.26552H15.5439M15.5439 4.26552H15.5439M15.5439 4.26552H15.5439M15.5439 4.26552H15.5439M15.5439 4.26552H15.5439M15.5439 4.26552H15.5438M15.5439 4.26552H15.5438M15.5438 4.26552H15.5438M15.5438 4.26552H15.5438M15.5438 4.26552H15.5438M15.5438 4.26552H15.5438M15.5438 4.26552H15.5438M15.5438 4.26552H15.5438M15.5438 4.26552H15.5438M15.5438 4.26552H15.5438M15.5438 4.26552H15.5438M15.5438 4.26552H15.5438M15.5438 4.26552H15.5438M15.5438 4.26552H15.5438M15.5438 4.26552H15.5438M15.5438 4.26552H15.5438M15.5438 4.26552H15.5438M15.5438 4.26552H15.5438M15.5438 4.26552H15.5437M15.5438 4.26552H15.5437M15.5437 4.26552H15.5437M15.5437 4.26552H15.5437M15.5437 4.26552H15.5437M15.5437 4.26552H15.5437M15.5437 4.26552H15.5437M15.5437 4.26552H15.5437M15.5437 4.26552H15.5437M15.5437 4.26552H15.5437M15.5437 4.26552H15.5437M15.5437 4.26552H15.5437M15.5437 4.26552H15.5437M15.5437 4.26552H15.5437M15.5437 4.26552H15.5437M15.5437 4.26552H15.5437M15.5437 4.26552H15.5436M15.5437 4.26552H15.5436M15.5436 4.26552H15.5436M15.5436 4.26552H15.5436M15.5436 4.26552H15.5436M15.5436 4.26552H15.5436M15.5436 4.26552H15.5436M15.5436 4.26552H15.5436M15.5436 4.26552H15.5436M15.5436 4.26552H15.5436M15.5436 4.26552H15.5436M15.5436 4.26552H15.5436M15.5436 4.26552H15.5436M15.5436 4.26552H15.5436M15.5436 4.26552H15.5436M15.5436 4.26552H15.5436M15.5436 4.26552H15.5436M15.5436 4.26552H15.5436M15.5436 4.26552H15.5435M15.5436 4.26552H15.5435M15.5435 4.26552H15.5435M15.5435 4.26552H15.5435M15.5435 4.26552H15.5435M15.5435 4.26552H15.5435M15.5435 4.26552H15.5435M15.5435 4.26552H15.5435M15.5435 4.26552H15.5435M15.5435 4.26552H15.5435M15.5435 4.26552H15.5435M15.5435 4.26552H15.5435M15.5435 4.26552H15.5435M15.5435 4.26552H15.5435M15.5435 4.26552H15.5435M15.5435 4.26552H15.5435M15.5435 4.26552H15.5435M15.5435 4.26552H15.5435M15.5435 4.26552H15.5434M15.5435 4.26552H15.5434M15.5434 4.26552H15.5434M15.5434 4.26552H15.5434M15.5434 4.26552H15.5434M15.5434 4.26552H15.5434M15.5434 4.26552H15.5434M15.5434 4.26552H15.5434M15.5434 4.26552H15.5434M15.5434 4.26552H15.5434M15.5434 4.26552H15.5434M15.5434 4.26552H15.5434M15.5434 4.26552H15.5434M15.5434 4.26552H15.5434M15.5434 4.26552H15.5434M15.5434 4.26552H15.5434M15.5434 4.26552H15.5434M15.5434 4.26552H15.5434M15.5434 4.26552H15.5433M15.5434 4.26552H15.5433M15.5433 4.26552H15.5433M15.5433 4.26552H15.5433M15.5433 4.26552H15.5433M15.5433 4.26552H15.5433M15.5433 4.26552H15.5433M15.5433 4.26552H15.5433M15.5433 4.26552H15.5433M15.5433 4.26552H15.5433M15.5433 4.26552H15.5433M15.5433 4.26552H15.5433M15.5433 4.26552H15.5433M15.5433 4.26552H15.5433M15.5433 4.26552H15.5433M15.5433 4.26552H15.5433M15.5433 4.26552H15.5433M15.5433 4.26552H15.5433M15.5433 4.26552H15.5432M15.5433 4.26552H15.5432M15.5432 4.26552H15.5432M15.5432 4.26552H15.5432M15.5432 4.26552H15.5432M15.5432 4.26552H15.5432M15.5432 4.26552H15.5432M15.5432 4.26552H15.5432M15.5432 4.26552H15.5432M15.5432 4.26552H15.5432M15.5432 4.26552H15.5432M15.5432 4.26552H15.5432M15.5432 4.26552H15.5432M15.5432 4.26552H15.5432M15.5432 4.26552H15.5432M15.5432 4.26552H15.5432M15.5432 4.26552H15.5431M15.5432 4.26552H15.5431M15.5431 4.26552H15.5431M15.5431 4.26552H15.5431M15.5431 4.26552H15.5431M15.5431 4.26552H15.5431M15.5431 4.26552H15.5431M15.5431 4.26552H15.5431M15.5431 4.26552H15.5431M15.5431 4.26552H15.5431M15.5431 4.26552H15.5431M15.5431 4.26552H15.5431M15.5431 4.26552H15.5431M15.5431 4.26552H15.5431M15.5431 4.26552H15.5431M15.5431 4.26552H15.5431M15.5431 4.26552H15.5431M15.5431 4.26552H15.5431M15.5431 4.26552H15.543M15.5431 4.26552H15.543M15.543 4.26552H15.543M15.543 4.26552H15.543M15.543 4.26552H15.543M15.543 4.26552H15.543M15.543 4.26552H15.543M15.543 4.26552H15.543M15.543 4.26552H15.543M15.543 4.26552H15.543M15.543 4.26552H15.543M15.543 4.26552H15.543M15.543 4.26552H15.543M15.543 4.26552H15.543M15.543 4.26552H15.543M15.543 4.26552H15.543M15.543 4.26552H15.543M15.543 4.26552H15.543M15.543 4.26552H15.5429M15.543 4.26552H15.5429M15.5429 4.26552H15.5429M15.5429 4.26552H15.5429M15.5429 4.26552H15.5429M15.5429 4.26552H15.5429M15.5429 4.26552H15.5429M15.5429 4.26552H15.5429M15.5429 4.26552H15.5429M15.5429 4.26552H15.5429M15.5429 4.26552H15.5429M15.5429 4.26552H15.5429M15.5429 4.26552H15.5429M15.5429 4.26552H15.5429M15.5429 4.26552H15.5429M15.5429 4.26552H15.5429M15.5429 4.26552H15.5429M15.5429 4.26552H15.5429M15.5429 4.26552H15.5428M15.5429 4.26552H15.5428M15.5428 4.26552H15.5428M15.5428 4.26552H15.5428M15.5428 4.26552H15.5428M15.5428 4.26552H15.5428M15.5428 4.26552H15.5428M15.5428 4.26552H15.5428M15.5428 4.26552H15.5428H15.5428ZM36.9536 2.66728L37.3063 3.02167L36.9536 2.66728Z" transform="translate(7.61719 37.8144)"/></svg>