<svg xmlns="http://www.w3.org/2000/svg" width="42" height="57" fill="none" viewBox="0 0 42 57"><path fill="#F11F60" d="M0.497753 3.3775C0.772637 3.3775 0.995506 3.15463 0.995506 2.87975V0.497753C0.995506 0.222869 0.772637 0 0.497753 0C0.222869 0 0 0.222869 0 0.497753V2.87975C0 3.15463 0.222869 3.3775 0.497753 3.3775Z" transform="translate(33.2715 44.458)"/><path stroke="#F11F60" stroke-width=".5" d="M0.497753 3.3775C0.772637 3.3775 0.995506 3.15463 0.995506 2.87975V0.497753C0.995506 0.222869 0.772637 0 0.497753 0C0.222869 0 0 0.222869 0 0.497753V2.87975C0 3.15463 0.222869 3.3775 0.497753 3.3775Z" transform="translate(33.2715 44.458)"/><path fill="#F11F60" d="M0.497753 3.3775C0.772637 3.3775 0.995506 3.15463 0.995506 2.87975V0.497753C0.995506 0.222869 0.772637 0 0.497753 0C0.222869 0 0 0.222869 0 0.497753V2.87975C0 3.15463 0.222869 3.3775 0.497753 3.3775Z" transform="translate(36.6064 44.458)"/><path stroke="#F11F60" stroke-width=".5" d="M0.497753 3.3775C0.772637 3.3775 0.995506 3.15463 0.995506 2.87975V0.497753C0.995506 0.222869 0.772637 0 0.497753 0C0.222869 0 0 0.222869 0 0.497753V2.87975C0 3.15463 0.222869 3.3775 0.497753 3.3775Z" transform="translate(36.6064 44.458)"/><path fill="#F11F60" fill-rule="evenodd" stroke="#F11F60" stroke-width=".5" d="M39.043 48.7031H39.5107C39.7812 48.7031 40 48.9222 40 49.1924V54.5105C40 54.7808 39.7812 55 39.5107 55H0.489258C0.21875 55 0 54.7808 0 54.5105V49.1924C0 48.9221 0.21875 48.7029 0.489258 48.7029H2.26172V43.0049C1.99707 42.9991 1.7832 42.7832 1.7832 42.5165C1.7832 42.2462 2.00195 42.027 2.27246 42.027H2.81445V34.9041C1.99609 34.1746 1.49609 33.2038 1.49609 32.1395C1.49609 30.8379 2.62012 29.5965 3.81055 28.2822C4.66504 27.3395 5.5459 26.3654 6.03223 25.3558V21.0146C6.03223 20.7443 6.25098 20.5251 6.52148 20.5251C6.79199 20.5251 7.01074 20.7443 7.01074 21.0146V25.3641C7.44824 26.3589 8.35156 27.3508 9.22754 28.3109C10.4199 29.6188 11.5469 30.8541 11.5469 32.1395C11.5469 33.2036 11.0469 34.1741 10.2285 34.9036V42.027H10.7705C11.041 42.027 11.2598 42.2462 11.2598 42.5165C11.2598 42.7828 11.0469 42.9985 10.7822 43.0048V48.7029H13.3848V34.1473C13.3848 33.8769 13.6035 33.6577 13.874 33.6577H14.5605L15.4609 24.0941H15.0059H14.459C14.1895 24.0941 13.9697 23.8749 13.9697 23.6045C13.9697 23.3342 14.1895 23.115 14.459 23.115H14.6582L18.1846 13.012V10.0591C17.7891 9.6217 17.5469 9.04834 17.5469 8.41919C17.5469 7.6452 18.0703 6.93591 18.625 6.18494C18.9932 5.68555 19.3721 5.16992 19.583 4.64771V0.489502C19.583 0.219177 19.8018 0 20.0723 0C20.3418 0 20.5605 0.219177 20.5605 0.489502V4.6543C20.751 5.16711 21.1387 5.69189 21.5166 6.20013C22.0723 6.94775 22.5967 7.65369 22.5967 8.41919C22.5967 9.12128 22.2959 9.75476 21.8164 10.2059V13.0125L25.3428 23.1151H25.541C25.8115 23.1151 26.0303 23.3343 26.0303 23.6046C26.0303 23.875 25.8115 24.0942 25.541 24.0942H24.9951H24.5391L25.4404 33.6578H26.127C26.3965 33.6578 26.6162 33.877 26.6162 34.1474V48.7032H28.7783V41.1182H28.4785C28.3223 41.1182 28.1768 41.0444 28.084 40.9193C27.9922 40.7941 27.9648 40.6327 28.0107 40.4843L29.1191 36.8919C29.1826 36.6868 29.3721 36.5468 29.5869 36.5468H30.7686V31.5811C30.2275 30.9117 29.9033 30.067 29.9033 29.149C29.9033 27.9286 30.7744 26.7487 31.6963 25.4993C32.3604 24.5997 33.0459 23.6703 33.4219 22.705V18.6066C33.4219 18.3363 33.6416 18.1171 33.9111 18.1171C34.1816 18.1171 34.4004 18.3363 34.4004 18.6066V22.7121C34.7393 23.6639 35.4414 24.6104 36.1221 25.5263C37.0459 26.7697 37.9189 27.944 37.9189 29.149C37.9189 30.0783 37.5869 30.9325 37.0342 31.6057V36.5467H38.2168C38.4316 36.5467 38.6211 36.6866 38.6846 36.8918L39.793 40.4841C39.8389 40.6326 39.8115 40.7941 39.7197 40.9192C39.627 41.0443 39.4814 41.118 39.3262 41.118H39.043V48.7031ZM38.6631 40.1391L37.8564 37.5259H35.9229V40.1391H38.6631ZM33.9111 34.0479C33.6406 34.0479 33.4219 34.2671 33.4219 34.5374V36.5468H31.7471V32.4506C32.3721 32.8447 33.1143 33.0747 33.9111 33.0747C34.6992 33.0747 35.4346 32.8497 36.0557 32.4631V36.5468H34.4004V34.5374C34.4004 34.2671 34.1816 34.0479 33.9111 34.0479ZM34.9443 37.5259H32.8789V40.1391H34.9443V37.5259ZM38.0645 41.1185V48.7031H29.7559V41.1185H38.0645ZM33.9111 32.0956C35.582 32.0956 36.9404 30.7737 36.9404 29.1491C36.9404 29.0532 36.9297 28.955 36.9121 28.8553L32.1279 31.5289C32.6289 31.8848 33.2451 32.0956 33.9111 32.0956ZM32.4834 26.0809C32.9834 25.4042 33.4941 24.7112 33.9004 23.9767C34.2432 24.6096 34.6768 25.2177 35.1152 25.812L31.1426 28.1418C31.4395 27.4976 31.9512 26.8024 32.4834 26.0809ZM36.5654 27.9276C36.3408 27.5051 36.0352 27.0611 35.7012 26.6035L30.8955 29.4219C30.9443 29.9329 31.127 30.4066 31.4102 30.8088L36.5654 27.9276ZM29.9473 37.5259H31.8994V40.1391H29.1406L29.9473 37.5259ZM24.002 23.1151H24.3057L23.5234 20.8739L22.5703 23.1151H24.002ZM23.5557 24.0942L23.7666 26.3295C23.2197 26.4247 22.7012 26.6282 22.2354 26.9331C21.5742 26.5015 20.793 26.267 19.999 26.267C19.2061 26.267 18.4248 26.5015 17.7627 26.9331C17.2979 26.6284 16.7793 26.4247 16.2324 26.3295L16.4434 24.0942H23.5557ZM20.001 19.9742L18.665 23.1151H21.3359L20.001 19.9742ZM17.46 27.9194C17.5488 27.9899 17.6562 28.0252 17.7637 28.0252C17.8711 28.0252 17.9785 27.9899 18.0674 27.9193C18.6152 27.485 19.3018 27.2458 20.001 27.2458C20.6992 27.2458 21.3857 27.485 21.9336 27.9193C22.1113 28.0604 22.3633 28.0605 22.541 27.9194C22.9307 27.611 23.3799 27.4041 23.8594 27.308L24.1357 30.2402C23.4609 30.2969 22.8047 30.5206 22.2373 30.8899C21.5752 30.4589 20.7939 30.2246 20.001 30.2246C19.208 30.2246 18.4268 30.4587 17.7646 30.8898C17.1953 30.5182 16.542 30.2979 15.8652 30.2419L16.1416 27.3082C16.6211 27.404 17.0713 27.611 17.46 27.9194ZM19.4297 6.74121L19.4111 6.76648C18.9551 7.38416 18.5244 7.96753 18.5244 8.41913C18.5244 9.24536 19.2178 9.9176 20.0713 9.9176C20.9238 9.9176 21.6172 9.24536 21.6172 8.41913C21.6172 7.97784 21.166 7.37115 20.7305 6.78436L20.7158 6.7644C20.4912 6.46179 20.2627 6.15393 20.0635 5.83392C19.8672 6.14691 19.6465 6.44666 19.4297 6.74121ZM20.8379 10.8967V12.5727H19.1631V10.8967H20.8379ZM20.9678 13.5518H19.0312L16.9551 19.5005L18.0459 22.0662L19.5488 18.5321C19.626 18.3515 19.8037 18.2343 19.999 18.2343C20.1953 18.2343 20.373 18.3516 20.4492 18.5321L21.9521 22.0663L23.0439 19.5007L20.9678 13.5518ZM16.4766 20.8739L17.4297 23.1151H15.998H15.6943L16.4766 20.8739ZM17.46 31.8757C16.9736 31.4911 16.3857 31.2658 15.7725 31.2173L15.543 33.6575H24.457L24.2275 31.2141C23.6143 31.2635 23.0234 31.4937 22.54 31.8759C22.4512 31.9462 22.3447 31.9813 22.2373 31.9813C22.1299 31.9813 22.0225 31.9462 21.9336 31.8759C21.3857 31.4424 20.6992 31.2036 20 31.2036C19.3018 31.2036 18.6152 31.4424 18.0664 31.8759C17.8896 32.0167 17.6377 32.0164 17.46 31.8757ZM14.3633 34.6369H25.6377V39.332H23.7119V37.4421C23.7119 37.1718 23.4932 36.9526 23.2227 36.9526C22.9531 36.9526 22.7334 37.1718 22.7334 37.4421V39.332H20.4893V37.4421C20.4893 37.1718 20.2705 36.9526 20.001 36.9526C19.7305 36.9526 19.5117 37.1718 19.5117 37.4421V39.332H17.2676V37.4421C17.2676 37.1718 17.0479 36.9526 16.7783 36.9526C16.5078 36.9526 16.2891 37.1718 16.2891 37.4421V39.332H14.3633V34.6369ZM25.6377 44.6424V40.3112H14.3633V44.6424H16.2891V42.7526C16.2891 42.4822 16.5078 42.2631 16.7783 42.2631C17.0479 42.2631 17.2676 42.4822 17.2676 42.7526V44.6424H19.5117V42.7526C19.5117 42.4822 19.7305 42.2631 20.001 42.2631C20.2705 42.2631 20.4893 42.4822 20.4893 42.7526V44.6424H22.7334V42.7526C22.7334 42.4822 22.9531 42.2631 23.2227 42.2631C23.4932 42.2631 23.7119 42.4822 23.7119 42.7526V44.6424H25.6377ZM25.6377 45.6213V48.7031H14.3633V45.6213H25.6377ZM10.5684 32.1397C10.5684 31.2338 9.56543 30.1348 8.50391 28.9711L8.21582 28.6545C8.58789 30.4534 8.99023 33.0239 8.72168 34.7559C9.83203 34.1989 10.5684 33.2346 10.5684 32.1397ZM3.24023 45.0896V43.0069H9.80371V45.0896H3.24023ZM9.80371 48.7031V46.0687H3.24023V48.7031H9.80371ZM6.52148 38.6228C6.25098 38.6228 6.03223 38.842 6.03223 39.1124V42.0271H3.79297V35.5793C4.5791 35.9956 5.51562 36.2387 6.52148 36.2387C7.52637 36.2387 8.46387 35.9956 9.25 35.579V42.0271H7.01074V39.1124C7.01074 38.842 6.79199 38.6228 6.52148 38.6228ZM6.50977 26.5053C6.41406 26.6559 6.31055 26.8043 6.20508 26.9518C6.00586 27.7116 4.68457 32.9781 5.38184 35.1329C5.74414 35.2149 6.12598 35.2597 6.52148 35.2597C6.90723 35.2597 7.28125 35.2169 7.63477 35.1387C8.33203 32.9985 7.02539 27.7661 6.81641 26.9637C6.70898 26.8121 6.60449 26.6597 6.50977 26.5053ZM2.47461 32.1396C2.47461 31.2157 3.47559 30.1104 4.53613 28.9399L4.80469 28.6432C4.43262 30.4379 4.0293 33.007 4.29395 34.7423C3.19824 34.1833 2.47461 33.2257 2.47461 32.1396ZM37.0869 54.0211H39.0215V49.6821H0.978516V54.0211H2.91406V52.2303C2.91406 51.96 3.13281 51.7408 3.40332 51.7408C3.67285 51.7408 3.89258 51.96 3.89258 52.2303V54.0211H5.93164V52.2303C5.93164 51.96 6.15039 51.7408 6.4209 51.7408C6.69043 51.7408 6.91016 51.96 6.91016 52.2303V54.0211H8.94922V52.2303C8.94922 51.96 9.16797 51.7408 9.43848 51.7408C9.70801 51.7408 9.92773 51.96 9.92773 52.2303V54.0211H11.9668V52.2303C11.9668 51.96 12.1855 51.7408 12.4561 51.7408C12.7256 51.7408 12.9453 51.96 12.9453 52.2303V54.0211H14.9844V52.2303C14.9844 51.96 15.2031 51.7408 15.4736 51.7408C15.7441 51.7408 15.9629 51.96 15.9629 52.2303V54.0211H18.002V52.2303C18.002 51.96 18.2207 51.7408 18.4912 51.7408C18.7617 51.7408 18.9805 51.96 18.9805 52.2303V54.0211H21.0195V52.2303C21.0195 51.96 21.2383 51.7408 21.5088 51.7408C21.7793 51.7408 21.998 51.96 21.998 52.2303V54.0211H24.0371V52.2303C24.0371 51.96 24.2568 51.7408 24.5264 51.7408C24.7969 51.7408 25.0156 51.96 25.0156 52.2303V54.0211H27.0547V52.2303C27.0547 51.96 27.2744 51.7408 27.5439 51.7408C27.8145 51.7408 28.0332 51.96 28.0332 52.2303V54.0211H30.0723V52.2303C30.0723 51.96 30.292 51.7408 30.5615 51.7408C30.832 51.7408 31.0508 51.96 31.0508 52.2303V54.0211H33.0908V52.2303C33.0908 51.96 33.3096 51.7408 33.5801 51.7408C33.8496 51.7408 34.0684 51.96 34.0684 52.2303V54.0211H36.1084V52.2303C36.1084 51.96 36.3271 51.7408 36.5977 51.7408C36.8672 51.7408 37.0869 51.96 37.0869 52.2303V54.0211Z" clip-rule="evenodd" transform="translate(1 1)"/></svg>