<svg xmlns="http://www.w3.org/2000/svg" width="53" height="55" fill="none" viewBox="0 0 53 55"><path fill="#F11F60" d="M0.978965 1.95793C1.51963 1.95793 1.95793 1.51963 1.95793 0.978965C1.95793 0.438298 1.51963 0 0.978965 0C0.438298 0 0 0.438298 0 0.978965C0 1.51963 0.438298 1.95793 0.978965 1.95793Z" transform="translate(41.2363 36.9829)"/><path fill="#F11F60" d="M0.978965 1.95793C1.51963 1.95793 1.95793 1.51963 1.95793 0.978965C1.95793 0.438298 1.51963 0 0.978965 0C0.438298 0 0 0.438298 0 0.978965C0 1.51963 0.438298 1.95793 0.978965 1.95793Z" transform="translate(3.96973 36.9829)"/><path fill="#F11F60" fill-rule="evenodd" d="M51.9326 52.8511H42.7676L42.7109 26.4498C42.71 25.8572 42.2324 25.3777 41.6416 25.3777C41.0518 25.3791 40.5752 25.8611 40.5762 26.4545L40.6328 52.8511H37.5322L37.5049 41.1048C37.5029 40.5122 37.0254 40.0329 36.4346 40.0329C35.8457 40.0343 35.3682 40.5164 35.3701 41.1098L35.3975 52.8511H32.8057V38.6328C35.8271 38.3639 38.2021 35.8648 38.2021 32.8303V22.4185C38.2021 20.7629 37.8535 19.1401 37.1855 17.6414C39.2939 17.783 41.2559 18.6463 42.7656 20.1135C44.417 21.719 45.3301 23.8539 45.335 26.126L45.3545 32.24C45.3564 32.8322 45.833 33.311 46.4248 33.311C47.0146 33.3091 47.4912 32.8265 47.4893 32.2331L47.4697 26.1203C47.4639 23.2629 46.3193 20.5806 44.248 18.5677C43.0654 17.418 41.6602 16.5665 40.1289 16.0499C41.2139 15.0108 41.8906 13.5445 41.8877 11.922C41.8809 8.7915 39.3486 6.24939 36.2393 6.24939H36.2275C35.3213 6.2514 34.4209 6.47461 33.623 6.89496C33.1006 7.17017 32.8994 7.81946 33.1729 8.34515C33.4463 8.87091 34.0908 9.07404 34.6133 8.79883C35.1152 8.53424 35.6602 8.39941 36.2324 8.39813C38.1719 8.39716 39.748 9.97681 39.7529 11.9265C39.7568 13.8762 38.1846 15.4658 36.2471 15.47C36.2012 15.4702 36.1562 15.4741 36.1123 15.4799L35.9414 15.4875C34.3994 13.3632 32.2344 11.8221 29.7686 11.04C31.0771 9.88397 31.9062 8.18964 31.9062 6.30298C31.9062 2.82745 29.0967 0 25.6436 0C22.1904 0 19.3818 2.82745 19.3818 6.30298C19.3818 8.28107 20.293 10.0483 21.7139 11.2048C19.4502 12.027 17.4668 13.4998 16.0254 15.4814C15.8564 15.4738 15.6875 15.4693 15.5195 15.4693L15.2812 15.4723L15.2227 15.4693C13.2852 15.4693 11.71 13.8831 11.71 11.9334C11.71 9.9837 13.2852 8.39746 15.2227 8.39746C15.8076 8.39746 16.3867 8.5451 16.8975 8.82428C17.415 9.10754 18.0635 8.91486 18.3447 8.39349C18.627 7.87219 18.4346 7.21985 17.917 6.93634C17.0947 6.48633 16.1631 6.24854 15.2227 6.24854C12.1084 6.24854 9.57422 8.79871 9.57422 11.9333C9.57422 13.6402 10.3271 15.1727 11.5137 16.2156C7.47852 17.782 4.61719 21.6417 4.61719 26.1436V32.2366C4.61719 32.83 5.09473 33.311 5.68457 33.311C6.27441 33.311 6.75195 32.83 6.75195 32.2366V26.1436C6.75195 21.6877 10.2861 18.0219 14.7725 17.6514C14.1074 19.1472 13.7598 20.7664 13.7598 22.4185V32.8303C13.7598 35.9249 16.2305 38.4627 19.3369 38.6462V52.851H16.4287V41.1069C16.4287 40.5135 15.9512 40.0325 15.3613 40.0325C14.7715 40.0325 14.2939 40.5135 14.2939 41.1069V52.8511H11.6699V26.463C11.6699 25.8696 11.1914 25.3885 10.6025 25.3885C10.0127 25.3885 9.53516 25.8696 9.53516 26.463V52.8511H1.06738C0.477539 52.8511 0 53.3322 0 53.9255C0 54.519 0.477539 55 1.06738 55H51.9326C52.5225 55 53 54.519 53 53.9255C53 53.3322 52.5225 52.8511 51.9326 52.8511ZM21.5166 6.30298C21.5166 4.01239 23.3682 2.14886 25.6436 2.14886C27.9199 2.14886 29.7705 4.01239 29.7705 6.30298C29.7705 8.59351 27.9189 10.4571 25.6436 10.4571C23.3682 10.4571 21.5166 8.59351 21.5166 6.30298ZM30.6699 22.7808C30.6699 22.1873 31.1484 21.7063 31.7383 21.7063C32.3271 21.7063 32.8057 22.1873 32.8057 22.7808V36.4714C34.6465 36.2169 36.0674 34.6815 36.0674 32.8304V22.4186C36.0674 20.5642 35.5322 18.7584 34.5215 17.1965C32.6602 14.322 29.4668 12.606 25.9805 12.606C22.501 12.606 19.3105 14.3176 17.4482 17.1846C16.4316 18.7492 15.8945 20.5591 15.8945 22.4186V32.8304C15.8945 34.7413 17.4082 36.316 19.3369 36.4922V22.7808C19.3369 22.1873 19.8145 21.7063 20.4043 21.7063C20.9941 21.7063 21.4717 22.1873 21.4717 22.7808V52.8513H24.7334V37.9037C24.7334 37.3103 25.2119 36.8293 25.8008 36.8293C26.3906 36.8293 26.8682 37.3103 26.8682 37.9037V52.8511H30.6699V22.7808Z" clip-rule="evenodd"/></svg>