<svg width="88" height="88" fill="none" xmlns="http://www.w3.org/2000/svg"><path fill-rule="evenodd" clip-rule="evenodd" d="M44.148 86.06c23.374 0 42.322-18.949 42.322-42.323S67.522 1.415 44.148 1.415c-23.374 0-42.322 18.948-42.322 42.322 0 23.374 18.948 42.323 42.322 42.323z" fill="#fff"/><path d="M44.148 86.06c23.374 0 42.322-18.949 42.322-42.323S67.522 1.415 44.148 1.415c-23.374 0-42.322 18.948-42.322 42.322 0 23.374 18.948 42.323 42.322 42.323z" stroke="#14A3CC" stroke-width="2"/><path d="M65.521 57.796a2.741 2.741 0 0 0-1.497-1.537 2.692 2.692 0 0 0-2.106 0L57.04 58.33c.013-.09.021-.18.025-.272a2.633 2.633 0 0 0-2.633-2.633h-5.836a3.83 3.83 0 0 1-1.7-.4 17.677 17.677 0 0 0-7.86-1.856h-.402a.752.752 0 0 0 0 1.504h.402c2.495.003 4.955.584 7.187 1.697.737.368 1.55.56 2.373.56h5.836a1.128 1.128 0 0 1 .249 2.228c-.099.009-.196.029-.296.029h-8.98a.752.752 0 0 0 0 1.505h9.026c.015 0 .029-.005.045-.005a4.652 4.652 0 0 0 1.736-.367l6.29-2.67c.3-.13.639-.13.939 0 .312.13.556.384.677.7a1.29 1.29 0 0 1-.02 1 1.24 1.24 0 0 1-.696.667l-11.622 4.43a11.51 11.51 0 0 1-8.464-.091l-6.188-2.572v-8.615a.752.752 0 0 0-.752-.753h-6.019a.752.752 0 0 0-.752.753h-3.761a.752.752 0 0 0 0 1.504h3.761v3.762a.752.752 0 0 0 1.505 0V53.92h4.513v9.027H31.11v-1.504a.752.752 0 0 0-1.505 0v.752h-3.761a.752.752 0 0 0 0 1.505h3.761c0 .415.337.752.752.752h6.019a.752.752 0 0 0 .752-.752v-.287l5.617 2.332a13.023 13.023 0 0 0 9.573.105l11.62-4.43a2.736 2.736 0 0 0 1.538-1.465c.305-.685.32-1.464.044-2.16z" fill="#14A3CC"/><path fill-rule="evenodd" clip-rule="evenodd" d="M64.932 28.115v.026c.02.066.03.134.032.202v18.055a.753.753 0 0 1-.522.717l-16.55 5.266a.752.752 0 0 1-.456 0l-16.551-5.266a.753.753 0 0 1-.527-.717V28.343a.752.752 0 0 1 .53-.714l16.55-5.266a.754.754 0 0 1 .456 0l16.55 5.266c.023.01.046.022.068.034a.771.771 0 0 1 .231.158l.021.021a.74.74 0 0 1 .167.273zm-3.203.228l-14.068-4.476-2.909.925 14.067 4.477 2.91-.926zm-19.459-2.76l14.068 4.475-2.91.926-14.067-4.476 2.909-.926zm6.143 25.052l15.046-4.788V29.372l-3.89 1.237v5.47a.753.753 0 0 1-.527.717l-1.38.438a.752.752 0 0 1-.451-1.434l.854-.271V31.09l-3.886 1.237v4.439l.775-.247a.752.752 0 0 1 .456 1.434l-1.756.56a.752.752 0 0 1-.978-.717v-4.991l-4.263 1.354v10.735a.752.752 0 0 1-1.504 0V34.159l-12.267-3.902a.752.752 0 1 1 .456-1.434L47.66 32.82l3.285-1.045-14.068-4.477-5.015 1.596v16.955l15.046 4.787v-2.732a.752.752 0 0 1 1.504 0v2.732z" fill="#14A3CC"/><path d="M34.12 41.132a.752.752 0 0 0-.752.752v2.257a.752.752 0 0 0 1.504 0v-2.257a.752.752 0 0 0-.752-.752zm3.01.752a.752.752 0 0 0-.753.753v2.256a.752.752 0 0 0 1.505 0v-2.256a.752.752 0 0 0-.753-.753z" fill="#14A3CC"/></svg>