<svg width="88" height="88" viewBox="0 0 88 88" fill="none" xmlns="http://www.w3.org/2000/svg">
<path fill-rule="evenodd" clip-rule="evenodd" d="M42.3224 84.6447C65.6964 84.6447 84.6447 65.6964 84.6447 42.3224C84.6447 18.9484 65.6964 0 42.3224 0C18.9484 0 0 18.9484 0 42.3224C0 65.6964 18.9484 84.6447 42.3224 84.6447Z" transform="translate(1.82568 1.41504)" fill="white"/>
<path d="M42.3224 84.6447C65.6964 84.6447 84.6447 65.6964 84.6447 42.3224C84.6447 18.9484 65.6964 0 42.3224 0C18.9484 0 0 18.9484 0 42.3224C0 65.6964 18.9484 84.6447 42.3224 84.6447Z" transform="translate(1.82568 1.41504)" stroke="#14A3CC" stroke-width="2"/>
<path d="M40.4288 5.37963C40.1593 4.68517 39.6189 4.13036 38.9318 3.8427C38.2588 3.55655 37.4984 3.55655 36.8254 3.8427L31.9475 5.91376C31.9606 5.82376 31.9689 5.73311 31.9724 5.64218C31.9724 4.188 30.7935 3.00916 29.3393 3.00916H23.5038C22.9137 3.00822 22.3319 2.87102 21.8036 2.60819C19.362 1.39136 16.6718 0.756146 13.9437 0.752291H13.5412C13.1258 0.752291 12.7889 1.08913 12.7889 1.50458C12.7889 1.92003 13.1258 2.25687 13.5412 2.25687H13.9437C16.4384 2.25998 18.8985 2.84093 21.1311 3.95404C21.8681 4.32135 22.6803 4.5129 23.5038 4.51374H29.3393C29.9625 4.51741 30.4649 5.02549 30.4612 5.64876C30.4582 6.17104 30.0971 6.62307 29.5883 6.74128C29.4898 6.7503 29.3927 6.77062 29.2927 6.77062H20.3118C19.8964 6.77062 19.5596 7.10745 19.5596 7.52291C19.5596 7.93836 19.8964 8.2752 20.3118 8.2752H29.2927H29.3303H29.3393C29.3544 8.2752 29.3687 8.27068 29.3845 8.27068C29.9814 8.2609 30.5709 8.13621 31.1208 7.90356L37.4099 5.23293C37.7099 5.10429 38.0495 5.10429 38.3495 5.23293C38.6612 5.36449 38.9057 5.61735 39.0266 5.93332C39.1551 6.25586 39.1478 6.61677 39.0063 6.93386C38.8737 7.2408 38.6227 7.48115 38.3104 7.60039L26.689 12.0314C23.9582 13.0772 20.9317 13.0443 18.2242 11.9396L12.0366 9.36752V0.752291C12.0366 0.336838 11.6998 0 11.2844 0H5.26603C4.85058 0 4.51374 0.336838 4.51374 0.752291H0.752291C0.336838 0.752291 0 1.08913 0 1.50458C0 1.92003 0.336838 2.25687 0.752291 2.25687H4.51374V6.01832C4.51374 6.43378 4.85058 6.77062 5.26603 6.77062C5.68149 6.77062 6.01832 6.43378 6.01832 6.01832V1.50458H10.5321V10.5321H6.01832V9.02749C6.01832 8.61204 5.68149 8.2752 5.26603 8.2752C4.85058 8.2752 4.51374 8.61204 4.51374 9.02749V9.77978H0.752291C0.336838 9.77978 0 10.1166 0 10.5321C0 10.9475 0.336838 11.2844 0.752291 11.2844H4.51374C4.51374 11.6998 4.85058 12.0366 5.26603 12.0366H11.2844C11.6998 12.0366 12.0366 11.6998 12.0366 11.2844V10.9977L17.6533 13.3298C20.7154 14.5793 24.1381 14.6169 27.2269 13.4352L38.8475 9.00417C39.5362 8.74275 40.0902 8.21473 40.3845 7.53946C40.6894 6.85487 40.7054 6.07616 40.4288 5.37963Z" transform="translate(25.0923 52.4163)" fill="#14A3CC"/>
<path fill-rule="evenodd" clip-rule="evenodd" d="M34.5732 5.78735V5.81368C34.5928 5.87913 34.604 5.94693 34.6055 6.01529V24.0703C34.6055 24.3973 34.3945 24.6871 34.0835 24.7872L17.5327 30.0532C17.3848 30.1003 17.2251 30.1003 17.0771 30.0532L0.526367 24.7872C0.213379 24.6887 0.000488281 24.3985 0 24.0703V6.01529C0.00195312 5.68748 0.21582 5.3987 0.528809 5.30137L17.0791 0.0353336C17.2275 -0.0117779 17.3867 -0.0117779 17.5352 0.0353336L34.0854 5.30137C34.1089 5.31143 34.1313 5.32271 34.1533 5.33522C34.1826 5.3481 34.2114 5.36268 34.2388 5.37885C34.292 5.41101 34.3403 5.44938 34.3843 5.4932L34.4058 5.51427C34.418 5.52555 34.4297 5.53679 34.4404 5.55038C34.499 5.62053 34.5439 5.70093 34.5732 5.78735ZM31.3706 6.01529L17.3027 1.53916L14.3936 2.46448L28.4604 6.94136L31.3706 6.01529ZM11.9116 3.25439L25.9795 7.73051L23.0703 8.65658L9.00244 4.18046L11.9116 3.25439ZM18.0547 28.3072L33.1006 23.5196V7.04443L29.21 8.28119V13.7511C29.2095 14.0794 28.9961 14.3696 28.6831 14.468L27.3032 14.9066C27.2305 14.9301 27.1543 14.9421 27.0776 14.942C26.751 14.941 26.4619 14.7292 26.3633 14.4176C26.2373 14.0216 26.4561 13.5987 26.8521 13.4727L27.7065 13.2012V8.76266L23.8203 9.99942V14.4379L24.5952 14.1912C24.9912 14.0653 25.4141 14.2842 25.54 14.6802C25.666 15.0762 25.4473 15.4991 25.0513 15.6251L23.2959 16.1848C23.2231 16.2077 23.147 16.2196 23.0703 16.2201C22.6548 16.2201 22.3179 15.8833 22.3179 15.4678V10.4771L18.0547 11.8313V22.5657C18.0547 22.9811 17.7178 23.318 17.3027 23.318C16.8872 23.318 16.5503 22.9811 16.5503 22.5657V11.8313L4.2832 7.92912C3.88721 7.8032 3.66846 7.38023 3.79443 6.98424C3.92041 6.58826 4.34326 6.36934 4.73926 6.49525L17.3027 10.4914L20.5879 9.44649L6.52002 4.96961L1.50439 6.56522V23.5203L16.5503 28.3072V25.5748C16.5503 25.1594 16.8872 24.8226 17.3027 24.8226C17.7178 24.8226 18.0547 25.1594 18.0547 25.5748V28.3072Z" transform="translate(30.3584 22.3278)" fill="#14A3CC"/>
<path d="M0.752291 0C0.336838 0 0 0.336838 0 0.752291V3.00916C0 3.42461 0.336838 3.76145 0.752291 3.76145C1.16774 3.76145 1.50458 3.42461 1.50458 3.00916V0.752291C1.50458 0.336838 1.16774 0 0.752291 0Z" transform="translate(33.3677 41.132)" fill="#14A3CC"/>
<path d="M0.752291 0C0.336838 0 0 0.336838 0 0.752291V3.00916C0 3.42461 0.336838 3.76145 0.752291 3.76145C1.16774 3.76145 1.50458 3.42461 1.50458 3.00916V0.752291C1.50458 0.336838 1.16774 0 0.752291 0Z" transform="translate(36.377 41.8843)" fill="#14A3CC"/>
</svg>
