<svg xmlns="http://www.w3.org/2000/svg" width="185" height="53" fill="none" viewBox="0 0 185 53"><path fill="#F11F60" fill-rule="evenodd" d="M10.498 0.00695801C10.498 0.00695801 8.34201 0.115356 4.85715 3.5321C1.37537 6.94885 0.0526733 11.7781 0 13.8783C0.0236206 14.9961 0.271149 16.0979 0.727966 17.1184C1.61389 19.2249 4.07343 20.9751 5.62225 21.1206C5.79294 21.1313 5.95975 21.0669 6.07886 20.9441C6.198 20.8214 6.25751 20.6528 6.24179 20.4825C6.25671 20.155 6.12634 19.8376 5.88556 19.6152C5.88556 19.6152 4.31503 17.7473 4.38321 14.1261C4.5195 11.71 5.0275 6.72888 9.14432 3.18823C9.5687 3.03333 9.48196 3.52588 9.48196 3.52588L9.37973 30.4756C9.37973 30.4756 9.46646 35.1003 8.41327 37.7706C8.41327 37.7706 8.05392 38.7897 8.10349 39.1801C8.15305 39.5703 8.3761 39.6044 8.66415 39.6044C8.78189 39.6044 9.73596 39.4836 10.9224 38.5171C13.0133 36.6461 14.7542 33.9574 14.5404 26.9567V1.94604C14.5404 1.94604 14.4754 1.06323 12.8274 0.484009C11.1795 -0.0952148 10.498 0.00695801 10.498 0.00695801ZM179.339 35.342C179.339 35.342 184.212 35.4814 184.212 27.4275H184.209C184.209 26.8483 183.512 26.6871 183.512 26.6871C183.141 26.7231 182.828 26.9767 182.716 27.3315C182.635 27.5887 182.531 28.0116 182.42 28.4679L182.419 28.4695C182.266 29.0953 182.097 29.7837 181.951 30.1937C181.697 30.9031 181.093 32.3807 179.943 32.2847C178.794 32.1886 176.846 31.1602 177.775 15.4303C177.775 15.4303 178.199 13.5964 175.102 12.5339C175.102 12.5339 172.521 11.3445 171.629 13.0172C170.737 14.6899 168.513 21.1238 168.017 25.0485C168.017 25.0485 168.027 25.1383 167.98 25.1818C167.934 25.2251 167.841 25.1941 167.841 25.098C167.841 25.098 167.314 18.9988 167.426 15.2754C167.379 13.0079 164.92 12.3574 164.92 12.3574C164.92 12.3574 162.649 11.5736 161.958 12.7662C161.144 14.1509 160.286 16.248 158.492 21.7495V13.6553C158.492 13.6553 158.827 12.7384 156.417 12.376L154.697 12.1127C154.241 12.1605 153.881 12.5231 153.836 12.98L153.79 27.3129V28.0439C153.04 30.0078 151.832 32.4457 150.398 32.486C148.911 32.613 148.406 30.8815 148.124 27.9666C147.904 22.9514 148.291 14.4637 148.291 14.4637C148.347 13.804 147.629 12.9769 145.522 12.6455C143.416 12.314 143.527 13.6367 143.527 13.6367L143.471 14.7395C142.578 12.9854 140.793 11.8635 138.825 11.8184C133.819 11.8184 131.641 17.5273 131.124 22.4C130.898 24.7026 131.029 27.0264 131.511 29.2892C131.511 29.2892 130.848 32.0431 128.909 32.486C126.97 32.929 126.301 29.1808 126.081 26.6996C125.861 24.2184 127.246 18.1005 127.246 18.1005C127.525 17.5574 127.64 16.9451 127.577 16.3379C127.398 13.5809 125.012 13.8597 123.241 14.2996C121.469 14.7395 119.418 15.0151 119.418 15.0151C119.796 13.5283 119.7 11.3785 117.25 11.3785C114.799 11.3785 113.979 13.361 113.87 15.0151C113.762 16.6693 115.311 17.8247 115.311 17.8247C114.202 23.6143 109.769 29.5649 109.769 29.5649C109.769 29.5649 109.936 15.0369 109.936 14.2098C109.936 13.3827 109.657 13.1627 108.771 12.8313C108.216 12.627 107.641 12.4795 107.055 12.3915C105.06 12.0043 105.225 13.3827 105.225 13.3827L105.169 14.4297C103.453 11.2887 99.6859 11.5643 99.6859 11.5643C99.6859 11.5643 91.1859 13.4508 93.0446 29.0011C92.4901 30.5004 91.5763 32.2599 90.2907 32.4457C88.7946 32.5665 88.2927 30.8287 88.0078 27.8922C87.7847 22.8398 88.175 14.2872 88.175 14.2872C88.2246 13.6212 87.5028 12.791 85.3871 12.4565C83.2714 12.1219 83.3829 13.454 83.3829 13.454L83.3272 14.566C82.4369 12.7854 80.6338 11.6443 78.6435 11.6016C73.6036 11.6016 71.4167 17.3539 70.8994 22.2637C70.7802 23.385 70.7388 24.5132 70.7755 25.6401L70.7445 25.6897C70.7445 25.6897 69.1399 31.7983 66.4077 31.6652C64.4562 31.6992 64.354 26.7677 64.354 24.6768L64.7907 11.2051L71.0604 11.0719C71.0604 11.0719 71.7977 10.7714 71.968 9.52307C72.1384 8.27466 71.8844 8.07336 71.1595 8.00513C70.4347 7.93701 64.8589 7.66748 64.8589 7.66748L65.1284 1.55579C65.1284 1.55579 65.1098 1.0509 62.8733 0.477783C60.6368 -0.0952148 59.8748 0.0751953 59.7075 1.28943C59.6734 2.13196 59.5031 7.36707 59.5031 7.36707L54.4507 7.29895C54.4507 7.29895 53.4719 8.07336 53.4719 9.93188C53.54 10.9108 53.9458 10.9448 53.9458 10.9448L59.2336 11.0129L59.1685 22.6261C59.1685 22.6261 58.899 26.111 55.3274 29.2086C55.5287 28.5042 55.5742 27.7642 55.4606 27.0403C55.0951 24.271 52.7377 22.3815 47.7164 18.8005C47.7164 18.8005 50.3123 15.9662 50.2441 13.6367C50.3123 11.5087 47.7846 11.6449 47.7846 11.6449C46.7317 11.75 45.7231 12.1222 44.8542 12.726C42.912 14.1633 41.5645 17.4592 44.0426 20.1604C44.0426 20.1604 38.4172 31.0332 36.8343 30.6615C36.2148 30.5592 35.8028 29.4471 35.905 26.6097C36.0073 23.7722 36.2427 15.74 36.2427 15.74C36.2427 15.74 36.5555 14.1448 34.2973 13.0172L34.141 12.9387C31.8685 11.7947 28.1877 9.94177 23.3502 24.2122L23.4153 13.5438C23.4153 13.5438 23.4648 12.9056 21.5566 12.3977C19.6485 11.8896 19.063 12.1467 19.029 12.7662L18.8958 31.1664C18.8958 31.1664 18.7409 35.0137 20.7698 35.0819C22.0673 35.1255 22.2589 35.1552 22.3605 35.1708C22.4178 35.1797 22.4464 35.1841 22.6284 35.1841C23.1334 35.1841 23.6383 34.9177 23.6383 34.6792C23.6383 34.4407 25.3234 22.0872 30.9859 16.0776C30.9859 16.0776 31.3577 15.8732 31.3577 16.2791C31.3577 16.3627 31.3406 16.7573 31.314 17.3708C31.2116 19.7349 30.9684 25.3485 31.02 28.9392C31.0851 33.4618 32.5348 35.0168 34.0526 35.2181C35.1616 35.3638 38.0021 34.6327 40.8675 29.9862C41.469 28.9158 42.1873 27.7607 43.0279 26.4089C43.8366 25.1085 44.7586 23.6259 45.799 21.861C45.799 21.861 46.9327 22.8739 48.4289 24.2245C49.925 25.5751 50.9907 27.1952 50.8544 28.7162C50.718 30.2371 50.3216 31.7178 48.463 31.7859C47.0132 31.7859 45.7308 30.5469 45.7308 30.5469C45.7308 30.5469 44.8976 29.8375 44.4174 29.8375C43.9373 29.8375 43.3704 30.2433 42.6982 31.2222C42.1018 32.0907 42.115 32.4496 42.1256 32.7358L42.1256 32.7371C42.127 32.7729 42.1282 32.8077 42.1282 32.8423C42.1282 33.152 42.8252 35.2894 48.7201 35.3235C54.6149 35.3575 57.7838 30.426 59.4008 26.5787C59.4008 26.5787 59.6362 35.2522 65.2306 35.2522C68.2725 35.2058 70.2581 31.6311 71.0604 29.5804C71.1255 29.407 71.175 29.2614 71.2184 29.125C71.4153 30.002 71.7126 30.8531 72.1043 31.662C72.1043 31.662 73.5262 35.3235 77.0606 35.3793C82.2616 35.4349 84.1543 30.519 84.1543 30.519C84.21 31.1849 84.9597 34.9611 88.745 35.3793C91.4369 35.6611 93.0848 33.1272 93.8097 31.6342C96.2723 35.9926 99.2027 35.3978 99.2027 35.3978C99.2027 35.3978 102.997 35.6301 105.475 31.5258L105.63 33.849C105.63 33.849 104.082 35.2522 100.209 38.892C96.3374 42.5317 95.4081 45.2422 95.563 46.7136C95.563 46.7136 95.1881 51.7194 101.693 52.1593C109.199 51.5521 109.893 44.1177 109.893 38.5729C109.893 35.6332 109.837 32.9971 109.837 32.9971C116.983 24.5653 118.675 17.7876 118.675 17.7876C118.675 17.7876 121.667 17.704 122.138 17.7318C122.609 17.7598 122.33 18.2832 122.33 18.2832C122.33 18.2832 121.537 20.8605 121.317 26.0428C121.097 31.2252 123.95 35.2181 127.413 35.3575C130.876 35.4969 132.289 31.693 132.289 31.693C132.289 31.693 133.701 35.3297 137.22 35.3854C142.4 35.4412 144.283 30.5624 144.283 30.5624C144.339 31.2252 145.073 35.1407 148.855 35.3854C151.355 35.5588 152.978 33.4525 153.852 31.8417L153.966 33.9171C153.966 33.9171 153.873 35.1407 156.389 35.3328C156.389 35.3328 159.35 35.8717 159.35 34.1433C159.35 32.4148 159.381 23.859 162.854 18.0354C162.854 18.0354 163.3 17.6141 163.3 18.1624C163.3 18.7107 163.743 29.1653 164.508 30.9031C165.081 32.7369 166.707 34.3756 169.222 33.2201C169.444 33.0555 169.562 32.7855 169.532 32.5107C169.58 31.0344 169.717 29.5624 169.944 28.1028C170.461 24.7976 171.518 20.5291 173.067 17.7133C173.194 17.5212 173.224 17.7133 173.224 17.7133C173.224 17.7133 173.005 21.8827 173.224 25.6278C173.516 30.6088 174.693 35.5062 179.339 35.342ZM79.8702 15.3868C78.7829 15.4271 76.2397 16.1365 75.7782 23.2178C75.3166 30.299 77.2 32.1298 78.7829 32.3373C80.3658 32.5448 83.1661 30.0048 83.3272 22.465C83.4883 14.9253 79.8702 15.3868 79.8702 15.3868ZM97.5764 23.2797C98.196 16.4246 100.984 15.4612 102.068 15.4177C102.068 15.4177 105.41 14.885 105.243 22.5208C105.076 30.1565 102.238 32.7306 100.628 32.52C99.0168 32.3093 97.1118 30.4539 97.5764 23.2797ZM105.785 37.4113C99.5125 42.8322 98.9704 46.7042 98.9704 46.7042C98.9704 46.7042 98.3509 49.8794 101.371 50.0342C105.002 50.4028 105.609 46.0073 105.708 42.1353C105.754 40.3137 105.785 37.4113 105.785 37.4113ZM136.077 23.4686C136.536 16.3873 139.082 15.678 140.169 15.6377H140.179C140.179 15.6377 143.8 15.1824 143.633 22.719C143.465 30.2556 140.668 32.7957 139.082 32.5881C137.496 32.3806 135.619 30.5499 136.077 23.4686Z" clip-rule="evenodd" transform="translate(0 0.302856)"/></svg>