<svg xmlns="http://www.w3.org/2000/svg" width="1440" height="696" fill="none" viewBox="0 0 1440 696"><g opacity=".374"><path fill="#F9F9F9" fill-rule="evenodd" d="M0 0H1440V695.59H0V0Z" clip-rule="evenodd"/><path fill="#F11F60" d="M22.1313 13.3834C22.734 13.9666 23.6886 13.9736 24.2997 13.3992L34.5363 3.77896L43.7448 13.344C44.3414 13.9637 45.3256 13.9883 45.9525 13.3992L57.3202 2.71592C57.9525 2.12171 57.9833 1.12744 57.3891 0.495159C56.7949 -0.13712 55.8006 -0.167981 55.1684 0.426231L44.9318 10.0465L35.7233 0.481454C35.1267 -0.138311 34.1425 -0.162928 33.5156 0.426231L23.2397 10.0835L13.276 0.442055C12.6583 -0.155736 11.6748 -0.146019 11.0689 0.46386L0.456468 11.1471C-0.155029 11.7627 -0.151722 12.7574 0.463855 13.3689C1.07943 13.9804 2.07417 13.9771 2.68567 13.3616L12.2053 3.77837L22.1313 13.3834Z" transform="translate(42.7382 100.836)"/><path fill="#F11F60" d="M22.1313 13.3834C22.734 13.9666 23.6886 13.9736 24.2997 13.3992L34.5363 3.77896L43.7448 13.344C44.3414 13.9637 45.3256 13.9883 45.9525 13.3992L57.3202 2.71592C57.9525 2.12171 57.9833 1.12744 57.3891 0.495159C56.7949 -0.13712 55.8006 -0.167981 55.1684 0.426231L44.9318 10.0465L35.7233 0.481454C35.1267 -0.138311 34.1425 -0.162928 33.5156 0.426231L23.2397 10.0835L13.276 0.442055C12.6583 -0.155736 11.6748 -0.146019 11.0689 0.46386L0.456468 11.1471C-0.155029 11.7627 -0.151722 12.7574 0.463855 13.3689C1.07943 13.9804 2.07417 13.9771 2.68567 13.3616L12.2053 3.77837L22.1313 13.3834Z" transform="translate(1278 589.223)"/><path fill="#F11F60" d="M2.72493 11.1524L8.19205 5.23607C10.4298 2.8145 14.2069 2.66545 16.6284 4.90316C16.7699 5.03388 16.9049 5.17137 17.0331 5.31514L19.9368 8.5724C23.2856 12.329 29.0456 12.6595 32.8022 9.31075C33.0293 9.10835 33.246 8.89472 33.4517 8.67065L36.3692 5.49216C38.5988 3.06312 42.3753 2.90142 44.8044 5.13102C45.0026 5.31294 45.1883 5.50806 45.3602 5.71503L47.2959 8.04589C50.5111 11.9174 56.256 12.4495 60.1275 9.23431C60.4657 8.95349 60.7831 8.64856 61.0772 8.32193L66.2097 2.6224C66.7904 1.97763 66.7384 0.984245 66.0936 0.403615C65.4488 -0.177014 64.4554 -0.125014 63.8748 0.51976L58.7423 6.21928C58.5496 6.43329 58.3416 6.63306 58.1201 6.81705C55.5836 8.92356 51.8196 8.57496 49.7131 6.03843L47.7774 3.70757C47.5151 3.39167 47.2317 3.09386 46.9291 2.81618C43.2217 -0.586878 37.4574 -0.340086 34.0543 3.36741L31.1369 6.5459C31.0021 6.6927 30.8601 6.83267 30.7113 6.96527C28.2501 9.15931 24.4763 8.94273 22.2823 6.48153L19.3786 3.22426C19.183 3.00482 18.9768 2.79497 18.7609 2.59546C15.0648 -0.819997 9.2998 -0.592508 5.88435 3.10357L0.417224 9.01988C-0.171648 9.65714 -0.132425 10.6511 0.50483 11.24C1.14208 11.8289 2.13606 11.7896 2.72493 11.1524Z" transform="translate(1370.48 40.6582) rotate(90)"/><path fill="#F11F60" d="M22.1313 13.3834C22.734 13.9666 23.6886 13.9736 24.2997 13.3992L34.5363 3.77896L43.7448 13.344C44.3414 13.9637 45.3256 13.9883 45.9525 13.3992L57.3202 2.71592C57.9525 2.12171 57.9833 1.12744 57.3891 0.495159C56.7949 -0.13712 55.8006 -0.167981 55.1684 0.426231L44.9318 10.0465L35.7233 0.481454C35.1267 -0.138311 34.1425 -0.162928 33.5156 0.426231L23.2397 10.0835L13.276 0.442055C12.6583 -0.155736 11.6748 -0.146019 11.0689 0.46386L0.456468 11.1471C-0.155029 11.7627 -0.151722 12.7574 0.463855 13.3689C1.07943 13.9804 2.07417 13.9771 2.68567 13.3616L12.2053 3.77837L22.1313 13.3834Z" transform="translate(174.518 638) rotate(90)"/><path fill="#FFEE19" fill-rule="evenodd" d="M10.4066 14.4475H1.93741C0.867406 14.4475 0 13.5801 0 12.5101C0 11.4401 0.867406 10.5727 1.93741 10.5727H10.4066V2.07579C10.4066 0.929364 11.336 0 12.4824 0C13.6289 0 14.5582 0.929364 14.5582 2.07579V10.5727H23.1935C24.2635 10.5727 25.1309 11.4401 25.1309 12.5101C25.1309 13.5801 24.2635 14.4475 23.1935 14.4475H14.5582V23.0551C14.5582 24.2016 13.6289 25.1309 12.4824 25.1309C11.336 25.1309 10.4066 24.2016 10.4066 23.0551V14.4475Z" clip-rule="evenodd" transform="translate(1013.89 633.954) rotate(45)"/><path fill="#FFEE19" fill-rule="evenodd" d="M0.460144 27.4826L27.4825 0.460236C28.0961 -0.153412 29.0908 -0.153412 29.7043 0.460236C30.3179 1.07376 30.3179 2.06851 29.7043 2.68204L2.68201 29.7044C2.06842 30.3179 1.07367 30.3179 0.460144 29.7044C-0.153381 29.0909 -0.153381 28.0961 0.460144 27.4826ZM18.0397 22.4718L28.4087 11.7885C29.013 11.1659 30.0076 11.151 30.6303 11.7554C31.2529 12.3596 31.2678 13.3543 30.6635 13.977L20.2944 24.6602C19.6901 25.2829 18.6954 25.2978 18.0728 24.6934C17.4502 24.089 17.4353 23.0944 18.0397 22.4718Z" clip-rule="evenodd" transform="translate(42.5536 440.392)"/><path fill="#FFEE19" fill-rule="evenodd" d="M0.460144 27.4826L27.4825 0.460236C28.0961 -0.153412 29.0908 -0.153412 29.7044 0.460236C30.3179 1.07376 30.3179 2.06851 29.7044 2.68204L2.68198 29.7044C2.06845 30.3179 1.0737 30.3179 0.460144 29.7044C-0.153381 29.0909 -0.153381 28.0961 0.460144 27.4826ZM18.0397 22.4718L28.4087 11.7885C29.0131 11.1659 30.0077 11.151 30.6303 11.7554C31.2529 12.3596 31.2678 13.3543 30.6635 13.977L20.2944 24.6602C19.6901 25.2829 18.6955 25.2978 18.0728 24.6934C17.4502 24.089 17.4354 23.0944 18.0397 22.4718Z" clip-rule="evenodd" transform="translate(1342.32 317.835)"/><path fill="#4FBAD9" fill-rule="evenodd" d="M22.8985 20.6662C24.5072 19.6385 24.978 17.5013 23.9502 15.8927L14.63 1.30565C14.4091 0.959836 14.1154 0.666187 13.7696 0.445248C12.4535 -0.395682 10.7049 -0.010407 9.86393 1.30565L0.543763 15.8927C0.188737 16.4485 1.61844e-05 17.0942 0 17.7536C4.31584e-05 19.6626 1.54744 21.21 3.45638 21.21L21.0376 21.21C21.6972 21.2101 22.3428 21.0213 22.8985 20.6662ZM3.1422 17.7537C3.14214 17.6937 3.15935 17.6351 3.1916 17.5845L12.247 3.4119L21.3024 17.5845C21.3958 17.7307 21.3531 17.9251 21.2068 18.0185C21.1563 18.0507 21.0976 18.0679 21.0376 18.0679L3.4564 18.0679C3.28288 18.0679 3.14218 17.9272 3.1422 17.7537Z" clip-rule="evenodd" transform="translate(1122.4 57.7632) rotate(45)"/><path fill="#4FBAD9" fill-rule="evenodd" d="M22.8986 20.6663C24.5071 19.6384 24.978 17.5014 23.9502 15.8927L14.63 1.30568C14.4091 0.959853 14.1154 0.666274 13.7696 0.445205C12.4535 -0.395616 10.7048 -0.010484 9.86395 1.30568L0.543762 15.8927C0.18866 16.4485 0 17.0941 0 17.7537C0 19.6626 1.54749 21.21 3.45636 21.21H21.0376C21.6971 21.21 22.3428 21.0214 22.8986 20.6663ZM3.14215 17.7537C3.14215 17.6937 3.1593 17.635 3.19159 17.5845L12.247 3.41188L21.3024 17.5845C21.3958 17.7307 21.353 17.9251 21.2068 18.0184C21.1562 18.0508 21.0975 18.0679 21.0376 18.0679H3.45636C3.28284 18.0679 3.14215 17.9273 3.14215 17.7537Z" clip-rule="evenodd" transform="translate(382.126 581.964)"/><path fill="#098DB2" fill-rule="evenodd" d="M11.5998 16.9872H2.60111C1.16456 16.9872 0 15.8226 0 14.386C0 12.9495 1.16456 11.7849 2.60111 11.7849H11.5998V2.75536C11.5998 1.23362 12.8334 0 14.3552 0C15.8769 0 17.1106 1.23362 17.1106 2.75536V11.7849H26.2944C27.7309 11.7849 28.8955 12.9495 28.8955 14.386C28.8955 15.8226 27.7309 16.9872 26.2944 16.9872H17.1106V26.1401C17.1106 27.6619 15.8769 28.8955 14.3552 28.8955C12.8334 28.8955 11.5998 27.6619 11.5998 26.1401V16.9872Z" clip-rule="evenodd" transform="translate(331.186 50.2758) rotate(90)"/></g></svg>