<svg width="88" height="88" fill="none" xmlns="http://www.w3.org/2000/svg"><path fill-rule="evenodd" clip-rule="evenodd" d="M44.148 86.01c23.374 0 42.322-18.949 42.322-42.323S67.522 1.365 44.148 1.365c-23.374 0-42.323 18.948-42.323 42.322 0 23.374 18.949 42.323 42.323 42.323z" fill="#fff"/><path d="M44.148 86.01c23.374 0 42.322-18.949 42.322-42.323S67.522 1.365 44.148 1.365c-23.374 0-42.323 18.948-42.323 42.322 0 23.374 18.949 42.323 42.323 42.323z" stroke="#F11F60" stroke-width="2"/><mask id="a" fill="#fff"><path d="M38.699 10.747C38.133 4.519 33.725 0 28.209 0c-3.676 0-7.041 1.978-8.935 5.147C17.398 1.938 14.171 0 10.554 0 5.04 0 .63 4.518.064 10.746c-.044.275-.227 1.723.33 4.084.804 3.405 2.66 6.503 5.367 8.955l13.504 12.256 13.737-12.255c2.707-2.453 4.563-5.55 5.366-8.956.558-2.36.375-3.808.33-4.083z"/></mask><path d="M38.699 10.747C38.133 4.519 33.725 0 28.209 0c-3.676 0-7.041 1.978-8.935 5.147C17.398 1.938 14.171 0 10.554 0 5.04 0 .63 4.518.064 10.746c-.044.275-.227 1.723.33 4.084.804 3.405 2.66 6.503 5.367 8.955l13.504 12.256 13.737-12.255c2.707-2.453 4.563-5.55 5.366-8.956.558-2.36.375-3.808.33-4.083z" transform="translate(24.388 25.396)" fill="#fff" stroke="#F11F60" stroke-width="2" mask="url(#a)"/><path fill-rule="evenodd" clip-rule="evenodd" d="M47.662 47.06c0 1.746-.29 3.101-.87 4.067-.58.966-1.446 1.449-2.596 1.449-1.161 0-2.045-.494-2.65-1.48-.586-.996-.879-2.342-.879-4.037 0-1.684.288-3.025.863-4.021.585-.997 1.464-1.495 2.635-1.495 1.181 0 2.054.498 2.62 1.495.585.986.877 2.326.877 4.021zm-3.467 4.36c.75 0 1.297-.36 1.641-1.079.344-.719.517-1.813.517-3.282 0-1.458-.178-2.55-.532-3.274-.354-.724-.907-1.086-1.656-1.086-1.46 0-2.188 1.453-2.188 4.36s.74 4.36 2.218 4.36z" fill="#F11F60"/></svg>