<svg xmlns="http://www.w3.org/2000/svg" xmlns:xlink="http://www.w3.org/1999/xlink" id="Capa_1" width="50" height="50" x="0" y="0" enable-background="new 0 0 511.999 511.999" version="1.1" viewBox="0 0 511.999 511.999" xml:space="preserve"><g><g><path fill="#f11f60" d="M503.087,463.03l-4.415-82.372c-2.01-31.612-22.583-58.851-52.412-69.393l-101.68-35.936 c-4.676-1.653-9.967-0.453-13.474,3.06l-3.259,3.264l-22.138-11.113l-0.001-19.553c21.301-14.304,38.349-38.828,42.995-63.165 c0.048-0.25,0.09-0.498,0.135-0.748c0.149-0.828,0.29-1.656,0.411-2.483c0.115-0.778,0.219-1.555,0.306-2.33 c0.036-0.327,0.065-0.653,0.097-0.979c0.08-0.811,0.145-1.619,0.195-2.424c0.014-0.223,0.029-0.446,0.041-0.669 c0.011-0.216,0.031-0.433,0.039-0.648h5.468c10.718,0,19.438-8.72,19.438-19.438v-23.797c0-1.111-0.094-2.207-0.279-3.285 c0.178-0.63,0.279-1.292,0.279-1.979c0-6.517-1.102-12.777-3.101-18.624V84.544C371.731,37.926,333.805,0,287.187,0H224.81 c-46.618,0-84.544,37.926-84.544,84.544v25.874c-2,5.848-3.101,12.108-3.101,18.624c0,0.687,0.102,1.349,0.279,1.979 c-0.185,1.078-0.279,2.174-0.279,3.285v23.797c0,10.718,8.72,19.438,19.438,19.438h5.461c0.01,0.262,0.032,0.526,0.046,0.789 c0.011,0.224,0.025,0.447,0.039,0.671c0.051,0.834,0.118,1.67,0.202,2.509c0.027,0.272,0.049,0.543,0.079,0.816 c0.106,0.952,0.23,1.906,0.376,2.863c0.082,0.543,0.183,1.087,0.278,1.632c0.071,0.403,0.141,0.805,0.219,1.208 c0.132,0.688,0.274,1.376,0.425,2.064c0.029,0.131,0.061,0.263,0.09,0.394c5.298,23.498,21.907,46.873,42.47,60.693l-0.002,19.36 l-22.132,11.116l-3.262-3.267c-3.507-3.512-8.798-4.713-13.474-3.059L65.736,311.265c-29.829,10.542-50.401,37.781-52.416,69.465 l-4.407,82.227c-0.4,6.296,1.845,12.545,6.16,17.143c4.308,4.591,10.389,7.224,16.682,7.224h98.85v13.342 c0,6.249,5.084,11.333,11.333,11.333h228.12c6.249,0,11.333-5.084,11.333-11.333v-13.342h98.85c6.293,0,12.373-2.633,16.682-7.224 C501.238,475.502,503.483,469.254,503.087,463.03z M360.257,158.103c0,2.681-2.182,4.863-4.863,4.863h-5.421V136.33h10.284 V158.103z M224.81,14.575h62.378c38.581,0,69.969,31.388,69.969,69.969v2.979c-0.113-0.109-0.233-0.21-0.347-0.318 c-0.517-0.491-1.042-0.974-1.577-1.445c-0.081-0.071-0.162-0.141-0.243-0.211c-8.805-7.675-19.944-12.734-32.204-13.933 c-0.079-0.008-0.16-0.011-0.239-0.018c-0.845-0.079-1.694-0.147-2.549-0.19c-0.953-0.048-1.91-0.073-2.871-0.073H194.873 c-0.961,0-1.918,0.025-2.871,0.073c-0.855,0.042-1.704,0.11-2.549,0.19c-0.079,0.008-0.16,0.01-0.239,0.018 c-12.261,1.199-23.399,6.258-32.204,13.933c-0.081,0.07-0.163,0.14-0.243,0.211c-0.535,0.472-1.06,0.954-1.577,1.445 c-0.114,0.108-0.234,0.209-0.347,0.318v-2.979h-0.002C154.841,45.963,186.229,14.575,224.81,14.575z M162.023,162.966h-5.421 c-2.682,0-4.863-2.182-4.863-4.863V136.33h10.284V162.966z M152.355,121.755c1.513-8.855,5.736-16.796,11.781-22.941 c0.168-0.17,0.341-0.336,0.512-0.503c0.219-0.215,0.437-0.43,0.66-0.64c0.288-0.271,0.581-0.536,0.876-0.798 c0.101-0.09,0.201-0.18,0.303-0.269c0.371-0.323,0.746-0.642,1.127-0.952c0.009-0.008,0.019-0.015,0.028-0.023 c5.833-4.743,12.876-7.958,20.444-9.175c0.08-0.013,0.16-0.026,0.24-0.038c0.428-0.066,0.858-0.124,1.29-0.178 c0.206-0.025,0.412-0.048,0.619-0.071c0.35-0.038,0.701-0.074,1.053-0.103c0.324-0.027,0.65-0.047,0.976-0.067 c0.261-0.016,0.522-0.035,0.784-0.046c0.605-0.025,1.213-0.041,1.824-0.041h122.251c0.611,0,1.219,0.016,1.824,0.041 c0.262,0.011,0.523,0.03,0.784,0.046c0.326,0.02,0.652,0.04,0.976,0.067c0.352,0.03,0.703,0.065,1.053,0.103 c0.207,0.022,0.413,0.045,0.619,0.071c0.431,0.053,0.862,0.111,1.29,0.178c0.08,0.012,0.16,0.026,0.24,0.038 c7.568,1.216,14.611,4.432,20.444,9.175c0.009,0.008,0.019,0.015,0.028,0.023c0.381,0.31,0.756,0.629,1.127,0.952 c0.102,0.089,0.202,0.179,0.303,0.269c0.295,0.262,0.588,0.528,0.876,0.798c0.223,0.21,0.442,0.425,0.66,0.64 c0.171,0.167,0.344,0.333,0.512,0.503c6.044,6.145,10.267,14.086,11.781,22.941H152.355z M176.941,180.915 c-0.012-0.103-0.023-0.206-0.034-0.309c-0.09-0.815-0.159-1.627-0.209-2.436c-0.006-0.103-0.015-0.207-0.021-0.31 c-0.05-0.899-0.079-1.794-0.079-2.682V136.33h158.801v38.659c0,0.887-0.028,1.781-0.079,2.679 c-0.006,0.115-0.016,0.232-0.024,0.347c-0.05,0.789-0.117,1.582-0.204,2.378c-0.014,0.129-0.028,0.257-0.043,0.386 c-3.297,28.292-29.718,60.248-56.609,66.935l-0.951,0.236c-19.556,4.864-24.506,4.852-44.138-0.097 C206.546,241.095,180.208,209.132,176.941,180.915z M212.686,283.635c4.918-1.829,8.173-6.473,8.174-11.777l0.001-12.838 c2.942,1.201,5.922,2.209,8.927,2.967c11.091,2.796,18.418,4.19,25.76,4.19c7.258,0,14.53-1.364,25.459-4.081l0.95-0.236 c3.09-0.768,6.152-1.797,9.175-3.031l0.001,13.03c0.001,5.304,3.257,9.949,8.174,11.777l17.182,8.625 c-0.098,0.079-0.196,0.157-0.294,0.236c-0.963,0.774-1.935,1.533-2.923,2.266c-0.024,0.018-0.048,0.035-0.072,0.052 c-0.977,0.724-1.97,1.423-2.971,2.107c-0.159,0.109-0.317,0.219-0.476,0.327c-0.975,0.658-1.963,1.294-2.96,1.914 c-0.197,0.123-0.396,0.245-0.594,0.366c-1.003,0.614-2.016,1.211-3.04,1.786c-0.157,0.088-0.315,0.173-0.472,0.26 c-1.028,0.57-2.065,1.123-3.112,1.654c-0.068,0.034-0.135,0.071-0.203,0.105c-1.075,0.541-2.162,1.056-3.256,1.556 c-0.196,0.089-0.391,0.18-0.587,0.268c-1.06,0.476-2.13,0.931-3.207,1.367c-0.213,0.086-0.427,0.171-0.64,0.255 c-1.099,0.436-2.204,0.856-3.319,1.25c-0.136,0.048-0.273,0.092-0.408,0.14c-1.092,0.381-2.191,0.743-3.298,1.084 c-0.126,0.039-0.251,0.08-0.377,0.119c-1.139,0.346-2.287,0.667-3.44,0.97c-0.219,0.058-0.437,0.116-0.657,0.172 c-1.134,0.29-2.274,0.56-3.421,0.809c-0.212,0.046-0.425,0.089-0.638,0.134c-1.186,0.249-2.376,0.482-3.574,0.687 c-0.085,0.015-0.171,0.026-0.256,0.041c-1.172,0.197-2.351,0.37-3.534,0.525c-0.168,0.022-0.334,0.047-0.502,0.068 c-1.19,0.149-2.385,0.273-3.585,0.378c-0.229,0.02-0.457,0.04-0.686,0.058c-1.195,0.097-2.394,0.174-3.597,0.227 c-0.196,0.009-0.393,0.014-0.589,0.021c-1.263,0.048-2.53,0.08-3.802,0.08c-1.272,0-2.538-0.031-3.802-0.08 c-0.195-0.007-0.39-0.013-0.584-0.021c-1.205-0.053-2.404-0.13-3.6-0.227c-0.226-0.018-0.452-0.038-0.679-0.058 c-1.204-0.106-2.404-0.23-3.598-0.38c-0.155-0.019-0.309-0.042-0.464-0.062c-1.204-0.157-2.404-0.333-3.597-0.534 c-0.067-0.011-0.135-0.021-0.202-0.032c-1.218-0.208-2.428-0.444-3.633-0.698c-0.186-0.039-0.373-0.077-0.559-0.118 c-1.176-0.255-2.345-0.532-3.507-0.83c-0.177-0.045-0.353-0.092-0.53-0.139c-1.198-0.315-2.391-0.648-3.574-1.008 c-0.051-0.015-0.101-0.032-0.152-0.048c-1.222-0.375-2.436-0.773-3.641-1.197c-0.05-0.017-0.1-0.034-0.15-0.051 c-1.193-0.421-2.376-0.869-3.55-1.337c-0.12-0.048-0.24-0.095-0.36-0.143c-1.167-0.471-2.326-0.964-3.473-1.48 c-0.079-0.035-0.157-0.072-0.236-0.108c-2.408-1.093-4.773-2.284-7.086-3.577c-0.006-0.004-0.013-0.007-0.019-0.01 c-1.15-0.643-2.287-1.312-3.411-2.004c-0.056-0.035-0.112-0.069-0.168-0.104c-1.124-0.695-2.236-1.412-3.334-2.155 c-0.005-0.004-0.011-0.007-0.016-0.011c-2.221-1.505-4.385-3.109-6.488-4.808c-0.026-0.021-0.051-0.041-0.077-0.062 L212.686,283.635z M486.295,470.123c-1.587,1.691-3.737,2.623-6.053,2.623h-60.193v-86.309c0-4.025-3.263-7.288-7.288-7.288 c-4.025,0-7.288,3.263-7.288,7.288v86.309H381.39V351.654c0-6.249-5.084-11.333-11.333-11.333H141.938v0.001 c-6.249,0-11.333,5.084-11.333,11.333v48.689c0,4.025,3.263,7.288,7.288,7.288c4.025,0,7.288-3.263,7.288-7.288v-45.447h74.447 v63.274c0,2.582,1.366,4.971,3.591,6.28c2.225,1.309,4.977,1.344,7.234,0.091l25.006-13.885l26.198,13.946 c1.072,0.571,2.249,0.854,3.425,0.854c1.3,0,2.6-0.348,3.752-1.04c2.193-1.318,3.536-3.689,3.536-6.248v-63.274h74.447v142.528 H145.18v-45.758c0-4.025-3.263-7.288-7.288-7.288c-4.025,0-7.288,3.263-7.288,7.288v21.083h-24.083v-86.309 c0-4.025-3.263-7.288-7.288-7.288c-4.025,0-7.288,3.263-7.288,7.288v86.309h-60.19c-2.316,0-4.466-0.932-6.053-2.623 c-1.594-1.699-2.39-3.916-2.238-6.317l4.407-82.227c1.639-25.775,18.409-47.982,42.723-56.576l100.71-35.593l6.293,6.303 c0.001,0.001,0.002,0.003,0.004,0.004c20.86,20.891,48.702,32.397,78.398,32.397c3.043,0,6.066-0.128,9.065-0.367 c26.263-2.097,50.612-13.28,69.333-32.03l0.037-0.037c0.001-0.001,0.002-0.002,0.003-0.003v-0.001l6.257-6.267l100.71,35.593 c24.314,8.594,41.084,30.801,42.718,56.503l4.415,82.372C488.685,466.207,487.889,468.425,486.295,470.123z M277.794,354.897 v51.139L258.81,395.93c-1.071-0.57-2.248-0.854-3.425-0.854c-1.219,0-2.438,0.306-3.537,0.916l-17.645,9.797v-50.892H277.794z"/></g></g></svg>