<svg xmlns="http://www.w3.org/2000/svg" width="39" height="50" fill="none" viewBox="0 0 39 50"><path fill="#F11F60" d="M0.972352 0C0.435419 0 0 0.437305 0 0.976562V1.05273C0 1.59199 0.435419 2.0293 0.972352 2.0293C1.50929 2.0293 1.9447 1.59199 1.9447 1.05273V0.976562C1.9447 0.437207 1.50929 0 0.972352 0Z" transform="translate(37.0547 40.9639)"/><path fill="#F11F60" fill-rule="evenodd" d="M37.0547 45.8008C37.0547 45.2615 37.4902 44.8242 38.0273 44.8242C38.5645 44.8242 39 45.2615 39 45.8008V49.0234C39 49.5627 38.5645 50 38.0273 50H0.972656C0.435547 50 0 49.5627 0 49.0234V41.9405C0 39.9438 0.624023 38.039 1.80371 36.4318C2.9834 34.8247 4.61133 33.6632 6.50977 33.0729L6.52832 33.0673L12.4219 31.2358C13.0635 31.0363 13.583 30.6138 13.9111 30.0683L13.9238 30.0426L13.9287 30.0353C8.65723 29.5591 4.51074 25.0974 4.51074 19.6808V14.7105C4.51074 6.59912 11.082 0 19.1582 0H19.8418C27.918 0 34.4883 6.59912 34.4883 14.7105V19.6808C34.4883 25.0978 30.3428 29.5598 25.0693 30.0354C25.3965 30.5966 25.9238 31.0323 26.5781 31.2357L32.4893 33.0729C34.7256 33.7679 36.6006 35.2733 37.7695 37.312C38.0371 37.7794 37.877 38.3765 37.4111 38.6455C37.2588 38.7338 37.0918 38.7759 36.9268 38.7759C36.5908 38.7759 36.2637 38.6002 36.084 38.2862C35.3037 36.926 34.125 35.8682 32.7139 35.2412L29.2373 40.5273L31.0234 43.2067C31.2939 43.6125 31.2246 44.1566 30.8604 44.4806L26.8564 48.0469H37.0547V45.8008ZM6.45605 14.7104V19.6807C6.45605 24.1444 9.92285 27.8098 14.2939 28.1052V27.7084C11.0898 25.8903 8.91406 22.4493 8.88184 18.5044L8.88086 18.4821L8.88184 18.4688L8.88086 18.4159V13.1939C8.88086 12.6547 9.31641 12.2174 9.85352 12.2174C10.3906 12.2174 10.8262 12.6547 10.8262 13.1939V13.541H12.501C17.2568 13.541 21.7285 11.681 25.0908 8.30342C25.4707 7.92216 26.0869 7.92216 26.4668 8.30342C26.8457 8.68486 26.8457 9.30322 26.4668 9.68457C25.582 10.5723 24.626 11.3658 23.6055 12.063C24.8652 12.9701 26.3701 13.461 27.9512 13.461H28.1748V13.194C28.1748 12.6548 28.6104 12.2175 29.1465 12.2175C29.6836 12.2175 30.1191 12.6548 30.1191 13.194V18.416V18.4497V18.4582L30.1182 18.4724C30.0977 22.4308 27.9189 25.8855 24.7061 27.7085V28.1053C29.0771 27.8098 32.5439 24.1445 32.5439 19.6808V14.7105C32.5439 7.67607 26.8457 1.95312 19.8418 1.95312H19.1582C12.1543 1.95312 6.45605 7.67607 6.45605 14.7104ZM16.0176 30.1077C16.1611 29.6577 16.2383 29.1795 16.2383 28.6855V28.5658C17.2666 28.8999 18.3623 29.0811 19.5 29.0811C20.6377 29.0811 21.7334 28.8999 22.7617 28.5658V28.6855C22.7617 29.1292 22.8232 29.5602 22.9395 29.9695L19.4824 32.072L16.0176 30.1077ZM16.376 35.4772L18.0117 33.4813L15.2949 31.9409L16.376 35.4772ZM23.8613 31.6921L23.9189 31.758L22.7393 35.6183L20.9648 33.4538L23.8613 31.6921ZM10.8877 19.4587C11.4023 23.7727 15.0674 27.128 19.5 27.128C23.9395 27.128 27.6104 23.7603 28.1143 19.4347H27.7617C27.7441 20.8975 26.5547 22.0825 25.0938 22.0825H22.2168C20.7461 22.0825 19.5488 20.8803 19.5488 19.4026V18.1525C19.5488 16.6749 20.7451 15.4728 22.2168 15.4728H25.0938C26.335 15.4728 27.3799 16.3276 27.6777 17.4816H28.1738V15.4142H27.9512C25.6807 15.4142 23.5322 14.6132 21.8271 13.1447C21.2539 13.4523 20.6641 13.7325 20.0586 13.9844C17.6504 14.9863 15.1074 15.4943 12.501 15.4943H10.8252V17.5057H11.3896C11.6787 16.3397 12.7295 15.4729 13.9785 15.4729H16.8564C18.3271 15.4729 19.5244 16.6749 19.5244 18.1526V19.4028C19.5244 20.8803 18.3281 22.0826 16.8564 22.0826H13.9785C12.5264 22.0826 11.3418 20.9106 11.3125 19.4587H10.8877ZM13.2549 19.4027V18.1526C13.2549 17.7519 13.5791 17.426 13.9785 17.426H16.8555C17.2549 17.426 17.5791 17.752 17.5791 18.1526V19.4027C17.5791 19.8035 17.2549 20.1294 16.8555 20.1294H13.9785C13.5791 20.1294 13.2549 19.8034 13.2549 19.4027ZM25.8184 19.4027V18.1526C25.8184 17.7519 25.4941 17.4259 25.0947 17.426H22.2178C21.8184 17.426 21.4941 17.7519 21.4941 18.1526V19.4027C21.4941 19.8034 21.8184 20.1294 22.2178 20.1294H25.0947C25.4941 20.1294 25.8184 19.8035 25.8184 19.4027ZM1.94434 48.0469V41.9405C1.94434 38.9515 3.71191 36.3217 6.4082 35.1867L9.9209 40.5274L8.13477 43.2068C7.86426 43.6126 7.93359 44.1568 8.29785 44.4807L12.3018 48.0469H1.94434ZM10.2236 43.585L15.2324 48.0469H18.1846L15.0449 37.7774L13.5508 32.8893C13.3721 32.9707 13.1875 33.042 12.9961 33.1014L8.32324 34.5538L11.9004 39.9929C12.1162 40.3211 12.1143 40.7473 11.8965 41.0742L10.2236 43.585ZM17.0605 37.7153L19.5 34.7396L22.0557 37.8566L19.5791 45.9559L17.0605 37.7153ZM25.5898 32.9502L20.9746 48.0469H23.9258L28.9355 43.5849L27.2617 41.0741C27.0439 40.7473 27.043 40.321 27.2588 39.9928L30.8086 34.5947L26.0039 33.1015C25.8623 33.0574 25.7236 33.0063 25.5898 32.9502Z" clip-rule="evenodd"/><path fill="#F11F60" d="M1.01377 0L0.972352 9.76562e-05C0.435419 9.76562e-05 0 0.437402 0 0.97666C0 1.51592 0.435322 1.95322 0.972352 1.95322L1.01377 1.95312C1.55071 1.95312 1.98613 1.51582 1.98613 0.976562C1.98613 0.437305 1.55071 0 1.01377 0Z" transform="translate(18.1445 3.18837)"/><path fill="#F11F60" d="M4.9392 0.655045C4.76233 0.145866 4.208 -0.122982 3.70072 0.0548503C2.49539 0.477409 1.37437 1.09684 0.368955 1.89596C-0.0520739 2.23073 -0.123347 2.84489 0.209878 3.26784C0.401917 3.51129 0.686039 3.63825 0.973077 3.63825C1.18437 3.63825 1.39722 3.5694 1.57584 3.42751C2.4108 2.76383 3.34124 2.24948 4.3416 1.89889C4.84858 1.72116 5.11617 1.16432 4.9392 0.655045Z" transform="translate(11.6748 3.77484)"/></svg>