<svg xmlns="http://www.w3.org/2000/svg" width="28" height="50" fill="none" viewBox="0 0 28 50"><path fill="#F11F60" fill-rule="evenodd" d="M3.62793 0H24.373C26.3721 0 28 1.64751 28 3.67084V46.3292C28 48.3525 26.3721 50 24.3721 50H3.62793C1.62793 50 0 48.3525 0 46.3283V3.67084C0 1.64751 1.62793 0 3.62793 0ZM26.3535 6.66669H1.64746V38.3334H26.3535V6.66669ZM3.62793 1.66667H24.3721C25.4648 1.66667 26.3535 2.56584 26.3535 3.67084V5H1.64746V3.67084C1.64746 2.56584 2.53613 1.66667 3.62793 1.66667ZM3.62793 48.3334H24.373C25.4648 48.3334 26.3535 47.4342 26.3535 46.3292V40H1.64746V46.3292C1.64746 47.4342 2.53613 48.3334 3.62793 48.3334Z" clip-rule="evenodd"/><path fill="#F11F60" fill-rule="evenodd" d="M0 3.33334C0 1.495 1.47754 0 3.29395 0C5.11133 0 6.58789 1.495 6.58789 3.33334C6.58789 5.17166 5.11133 6.66666 3.29395 6.66666C1.47754 6.66666 0 5.17166 0 3.33334ZM1.64746 3.33331C1.64746 4.2525 2.38574 5 3.29492 5C4.20312 5 4.94141 4.2525 4.94141 3.33331C4.94141 2.41415 4.20312 1.66666 3.29492 1.66666C2.38574 1.66666 1.64746 2.41415 1.64746 3.33331Z" clip-rule="evenodd" transform="translate(10.7061 40.8333)"/><path fill="#F11F60" d="M0.823539 1.66667H4.11769C4.57311 1.66667 4.94123 1.29417 4.94123 0.833334C4.94123 0.3725 4.57311 0 4.11769 0H0.823539C0.368122 0 0 0.3725 0 0.833334C0 1.29417 0.368122 1.66667 0.823539 1.66667Z" transform="translate(9.88281 2.5)"/><path fill="#F11F60" d="M0.823539 1.66667H1.64708C2.10249 1.66667 2.47062 1.29417 2.47062 0.833334C2.47062 0.3725 2.10249 0 1.64708 0H0.823539C0.368122 0 0 0.3725 0 0.833334C0 1.29417 0.368122 1.66667 0.823539 1.66667Z" transform="translate(15.6475 2.5)"/><path fill="#F11F60" fill-rule="evenodd" d="M3.66992 18.9775L3.63281 19.0125L4.4375 19.6025L4.51758 19.6567C4.67676 19.7717 4.83984 19.88 5.00586 19.9867C5.10742 20.0517 5.20996 20.1142 5.3125 20.175C5.46973 20.2683 5.62695 20.36 5.78906 20.445C5.91113 20.5096 6.03613 20.5688 6.16113 20.628L6.18457 20.6389L6.20312 20.6475L6.32031 20.7038L6.33984 20.7133C6.43164 20.7575 6.52344 20.8014 6.61816 20.8409C6.89355 20.9575 7.1748 21.0609 7.45898 21.1534C7.52051 21.1735 7.58301 21.1904 7.64551 21.2073L7.75977 21.2392C7.97266 21.3017 8.18652 21.3592 8.4043 21.4075C8.5166 21.4325 8.62793 21.4542 8.74121 21.475C8.96387 21.5175 9.18652 21.5517 9.41211 21.5792L9.50391 21.5908L9.71777 21.6158C10.0449 21.6467 10.374 21.6667 10.7061 21.6667C11.0381 21.6667 11.3662 21.6467 11.6934 21.6158L11.9072 21.5908L11.999 21.5792C12.2246 21.5517 12.4482 21.5175 12.6709 21.475C12.7832 21.4542 12.8945 21.4325 13.0049 21.4075C13.2256 21.3583 13.4414 21.3008 13.6572 21.2375L13.7695 21.2062C13.8301 21.1897 13.8906 21.1732 13.9502 21.1542C14.2354 21.0617 14.5166 20.9583 14.7939 20.8417C14.8857 20.8032 14.9756 20.76 15.0654 20.7167L15.1934 20.6559L15.2129 20.6465C15.3525 20.5813 15.4902 20.5166 15.625 20.445C15.7812 20.3625 15.9336 20.2742 16.085 20.1842C16.1953 20.1192 16.3047 20.0525 16.4121 19.9833C16.5713 19.8817 16.7275 19.7775 16.8799 19.6683L16.9668 19.61L17.7998 19.0009L17.7588 18.9642C19.9922 16.9767 21.4121 14.0725 21.4121 10.8333C21.4121 4.86002 16.6094 0 10.7061 0C4.80273 0 0 4.86002 0 10.8333C0 14.08 1.42676 16.9908 3.66992 18.9775ZM8.49902 19.7133C8.17285 19.6317 7.85156 19.5284 7.53516 19.4092L7.42285 19.3675C7.09766 19.24 6.77832 19.095 6.46875 18.9283L8.46875 17.825C9.08301 17.4858 9.46387 16.835 9.46387 16.1275V14.7209L9.27246 14.4892C9.26562 14.4808 8.61035 13.6667 8.36328 12.5775L8.25293 12.1884L7.9707 12.0042L7.99805 10.745L8.26953 10.4967V8.38L8.2627 8.27084C8.26172 8.26501 8.20312 7.65085 8.61523 7.17502C9 6.73166 9.73047 6.49667 10.7285 6.49667C11.7148 6.49667 12.4414 6.72668 12.8291 7.16251C13.2539 7.63916 13.1953 8.25668 13.1934 8.27167L13.1865 10.1275L13.2139 10.5483L13.4854 10.7967V12.005C13.4854 12.04 13.4521 12.0634 13.4316 12.07L13.0215 12.1975L12.8896 12.6117C12.7061 13.1884 12.4463 13.72 12.1143 14.1933C12.0371 14.3042 11.9648 14.3983 11.9014 14.4709L11.6953 14.7075V16.155C11.6953 16.8917 12.0996 17.5542 12.75 17.8833L14.8779 18.96L14.8418 18.9775C14.5518 19.13 14.2529 19.2633 13.9492 19.3809L13.793 19.4384C13.4844 19.5508 13.1699 19.65 12.8506 19.7283L12.8262 19.7342C11.415 20.0725 9.9248 20.0667 8.51562 19.7167L8.49902 19.7133ZM19.7646 10.8333C19.7646 5.77914 15.7002 1.66666 10.7051 1.66666C5.71094 1.66666 1.64648 5.77914 1.64648 10.8333C1.64648 13.6675 2.92578 16.205 4.92969 17.8883L4.9707 17.8614L5.01758 17.8317L7.67969 16.3617C7.76465 16.315 7.81738 16.225 7.81738 16.1275V15.3017C7.55664 14.93 7.09473 14.1825 6.83008 13.2333C6.50977 12.91 6.3252 12.4725 6.3252 12.005V10.7967C6.3252 10.4492 6.43164 10.11 6.62402 9.82416V8.42416C6.59766 8.1225 6.56543 7.01666 7.37793 6.07748C8.09473 5.25082 9.22266 4.83081 10.7295 4.83081C12.2363 4.83081 13.3643 5.25082 14.0801 6.07748C14.8936 7.01666 14.8613 8.12332 14.835 8.42416V9.82416C15.0273 10.11 15.1338 10.4492 15.1338 10.7967V12.005C15.1338 12.61 14.8281 13.1533 14.3408 13.4658C14.1162 14.0742 13.8213 14.6417 13.46 15.1558L13.3428 15.3183V16.1558C13.3428 16.2558 13.4004 16.3492 13.4893 16.3942L16.3389 17.8358C16.3623 17.8476 16.3848 17.8617 16.4072 17.8759L16.46 17.9075C18.4766 16.225 19.7646 13.6792 19.7646 10.8333Z" clip-rule="evenodd" transform="translate(3.29492 7.5)"/><path fill="#F11F60" fill-rule="evenodd" d="M6.58789 0H0V6.66666H6.58789H23.0596V0H6.58789ZM1.64746 5.00003V1.66669H4.94141V5.00003H1.64746ZM6.58789 5.00003H21.4111V1.66669H6.58789V5.00003Z" clip-rule="evenodd" transform="translate(2.4707 30.8333)"/></svg>