<svg xmlns="http://www.w3.org/2000/svg" width="74" height="48" fill="none" viewBox="0 0 74 48"><path fill="#F11F60" d="M1.55836 0.267675C1.20237 -0.0892251 0.623663 -0.0892251 0.267675 0.267675C-0.0892251 0.623663 -0.0892251 1.20237 0.267675 1.55836C0.623663 1.91526 1.20237 1.91526 1.55836 1.55836C1.91526 1.20237 1.91526 0.623663 1.55836 0.267675Z" transform="translate(27.5 42.1943)"/><path fill="#F11F60" fill-rule="evenodd" d="M37.2744 19.6423L37.2773 19.6262L38.3223 13.8546C38.3877 13.4966 38.2334 13.1342 37.9307 12.9324C34.7559 10.8154 32.8604 7.27393 32.8604 3.45856V0.912781C32.8604 0.408752 32.4521 0 31.9473 0H28.3154H28.2969C28.1797 0 28.0547 0.0264893 27.958 0.0653687C19.6748 3.3786 12.7412 0.92865 10.6553 0.191589C10.3223 0.0739746 10.1123 0 10.041 0H10.0234H6.38965C5.88574 0 5.47656 0.408752 5.47656 0.912781V3.45856C5.47656 7.27393 3.58105 10.8156 0.40625 12.9324C0.103516 13.1342 -0.0498047 13.4966 0.0146484 13.8546L1.05957 19.6262L1.0625 19.6425C2.75684 28.1151 2.39258 37.3234 0.0351562 45.5712C-0.0439453 45.8467 0.0117188 46.1431 0.18457 46.3718C0.356445 46.6003 0.625977 46.7348 0.913086 46.7348H37.4248C37.7109 46.7348 37.9805 46.6003 38.1533 46.3716C38.3252 46.1429 38.3809 45.8466 38.3018 45.5711C35.9453 37.3233 35.5801 28.115 37.2744 19.6423ZM19.1689 3.59204C21.915 3.59204 24.6621 3.14276 27.3115 2.24713C26.7754 7.15509 23.3281 10.9535 19.1689 10.9535C15.0088 10.9535 11.5615 7.15503 11.0264 2.24713C13.6758 3.14276 16.4219 3.59204 19.1689 3.59204ZM2.85449 19.2928C4.52344 27.6466 4.25488 36.6932 2.1084 44.9092H36.2285C34.082 36.6932 33.8135 27.6466 35.4824 19.2928L36.4219 14.1041C33.0371 11.6186 31.0352 7.68323 31.0352 3.45856V1.82556H29.1797C28.7842 7.94373 24.4453 12.7791 19.1689 12.7791C13.8916 12.7791 9.55273 7.94373 9.15723 1.82556H7.30176V3.45856C7.30176 7.68323 5.2998 11.6186 1.91504 14.104L2.85449 19.2928Z" clip-rule="evenodd" transform="translate(0.116211 0.936462)"/><path fill="#F11F60" d="M15.5174 0H0.912789C0.408747 0 0 0.408747 0 0.912789C0 1.41683 0.408747 1.82558 0.912789 1.82558H15.5174C16.0215 1.82558 16.4302 1.41683 16.4302 0.912789C16.4302 0.408747 16.0215 0 15.5174 0Z" transform="translate(9.24414 42.1945)"/><path fill="#F11F60" d="M0.960679 0.165013C0.741224 -0.0550045 0.384469 -0.0550045 0.165013 0.165013C-0.0550045 0.384469 -0.0550045 0.741224 0.165013 0.960679C0.384469 1.1807 0.741224 1.1807 0.960679 0.960679C1.1807 0.741224 1.1807 0.384469 0.960679 0.165013Z" transform="translate(66.5371 26.3706)"/><path fill="#F11F60" fill-rule="evenodd" d="M22.9785 12.1089L22.9805 12.0989L23.625 8.54089C23.665 8.32025 23.5693 8.0968 23.3828 7.97241C21.4258 6.66736 20.2578 4.48413 20.2578 2.13208V0.562683C20.2578 0.251953 20.0059 0 19.6943 0H17.4551H17.4443C17.3721 0 17.2949 0.0162964 17.2354 0.0402832C12.1299 2.08246 7.85645 0.572937 6.56934 0.118347C6.36328 0.0457153 6.2334 0 6.18945 0H6.17969H3.93945C3.62793 0 3.37598 0.251953 3.37598 0.562683V2.13208C3.37598 4.48413 2.20801 6.66742 0.250977 7.97241C0.0644531 8.0968 -0.03125 8.32025 0.00878906 8.54089L0.65332 12.0989L0.655273 12.1089C1.69922 17.3321 1.47461 23.0087 0.0214844 28.0933C-0.0263672 28.2631 0.00683594 28.4458 0.113281 28.5867C0.219727 28.7277 0.385742 28.8105 0.5625 28.8105H23.0713C23.248 28.8105 23.4141 28.7277 23.5205 28.5866C23.627 28.4457 23.6602 28.2629 23.6123 28.0931C22.1592 23.0087 21.9346 17.332 22.9785 12.1089ZM11.8164 2.21436C13.5098 2.21436 15.2031 1.93738 16.8359 1.38525C16.5059 4.41089 14.3809 6.75244 11.8164 6.75244C9.25195 6.75244 7.12695 4.41083 6.79688 1.38525C8.43066 1.93738 10.123 2.21436 11.8164 2.21436ZM1.75977 11.8934C2.78906 17.0433 2.62305 22.6202 1.2998 27.6851H22.334C21.0107 22.6202 20.8447 17.0433 21.874 11.8934L22.4531 8.69476C20.3662 7.16254 19.1318 4.73645 19.1318 2.13208V1.12543H17.9883C17.7441 4.89709 15.0693 7.87787 11.8164 7.87787C8.56445 7.87787 5.88965 4.89709 5.64551 1.12543H4.50195V2.13208C4.50195 4.73645 3.26758 7.16254 1.18066 8.6947L1.75977 11.8934Z" clip-rule="evenodd" transform="translate(49.6562 0.936462)"/><path fill="#F11F60" d="M9.566 0H0.562706C0.25198 0 0 0.25198 0 0.562706C0 0.873432 0.25198 1.12541 0.562706 1.12541H9.566C9.87672 1.12541 10.1287 0.873432 10.1287 0.562706C10.1287 0.25198 9.87678 0 9.566 0Z" transform="translate(55.2832 26.3708)"/></svg>