<svg xmlns="http://www.w3.org/2000/svg" width="52" height="52" fill="none" viewBox="0 0 52 52"><path fill="#F11F60" fill-rule="evenodd" stroke="#F11F60" d="M0 25C0 11.215 11.2148 0 25 0C38.7852 0 50 11.215 50 25C50 38.785 38.7852 50 25 50C11.2148 50 0 38.785 0 25ZM1.66602 25C1.66602 37.8658 12.1338 48.3333 24.999 48.3333C37.8652 48.3333 48.333 37.8658 48.333 25C48.333 12.1342 37.8652 1.66666 24.999 1.66666C12.1338 1.66666 1.66602 12.1342 1.66602 25Z" clip-rule="evenodd" transform="translate(1 1)"/><path fill="#F11F60" fill-rule="evenodd" stroke="#F11F60" d="M10.833 0.833344V9.285C12.2666 9.6575 13.333 10.9508 13.333 12.5C13.333 14.3383 11.8379 15.8333 10 15.8333C8.45215 15.8333 7.15723 14.7667 6.78516 13.3333H0.833008C0.373047 13.3333 0 12.9608 0 12.5C0 12.0392 0.373047 11.6667 0.833008 11.6667H6.78516C7.08789 10.5008 8.00098 9.58835 9.16699 9.285V0.833344C9.16699 0.372498 9.54004 0 10 0C10.46 0 10.833 0.372498 10.833 0.833344ZM8.33398 12.5C8.33398 13.4192 9.08105 14.1667 10.001 14.1667C10.9199 14.1667 11.667 13.4192 11.667 12.5C11.667 11.5808 10.9199 10.8333 10.001 10.8333C9.08105 10.8333 8.33398 11.5808 8.33398 12.5Z" clip-rule="evenodd" transform="translate(16 13.3992)"/><path fill="#F11F60" stroke="#F11F60" d="M0.833334 2.5C1.29333 2.5 1.66667 2.1275 1.66667 1.66667V0.833334C1.66667 0.3725 1.29333 0 0.833334 0C0.373333 0 0 0.3725 0 0.833334V1.66667C0 2.1275 0.373333 2.5 0.833334 2.5Z" transform="translate(25.166 6.73251)"/><path fill="#F11F60" stroke="#F11F60" d="M0.833334 0C0.373333 0 0 0.3725 0 0.833334V1.66667C0 2.1275 0.373333 2.5 0.833334 2.5C1.29333 2.5 1.66667 2.1275 1.66667 1.66667V0.833334C1.66667 0.3725 1.29333 0 0.833334 0Z" transform="translate(25.166 42.5659)"/><path fill="#F11F60" stroke="#F11F60" d="M1.66667 0H0.833334C0.373333 0 0 0.3725 0 0.833334C0 1.29417 0.373333 1.66667 0.833334 1.66667H1.66667C2.12667 1.66667 2.5 1.29417 2.5 0.833334C2.5 0.3725 2.12667 0 1.66667 0Z" transform="translate(42.666 25.0659)"/><path fill="#F11F60" stroke="#F11F60" d="M1.66667 0H0.833334C0.373333 0 0 0.3725 0 0.833334C0 1.29417 0.373333 1.66667 0.833334 1.66667H1.66667C2.12667 1.66667 2.5 1.29417 2.5 0.833334C2.5 0.3725 2.12667 0 1.66667 0Z" transform="translate(6.83301 25.0659)"/><path fill="#F11F60" stroke="#F11F60" d="M0.833542 0.244063L0.244375 0.83323C-0.0814583 1.15906 -0.0814583 1.68573 0.244375 2.01156C0.406875 2.17406 0.620208 2.25573 0.833542 2.25573C1.04688 2.25573 1.26021 2.17406 1.42271 2.01156L2.01188 1.4224C2.33771 1.09656 2.33771 0.569896 2.01188 0.244063C1.68604 -0.0817708 1.15938 -0.0809374 0.833542 0.244063Z" transform="translate(37.541 12.1017)"/><path fill="#F11F60" stroke="#F11F60" d="M0.833542 0.244063L0.244375 0.83323C-0.0814583 1.15906 -0.0814583 1.68573 0.244375 2.01156C0.406875 2.17406 0.620208 2.25573 0.833542 2.25573C1.04688 2.25573 1.26021 2.17406 1.42271 2.01156L2.01188 1.4224C2.33771 1.09656 2.33771 0.569896 2.01188 0.244063C1.68604 -0.0817708 1.15854 -0.0809374 0.833542 0.244063Z" transform="translate(12.2031 37.4401)"/><path fill="#F11F60" stroke="#F11F60" d="M1.42271 0.244375C1.09688 -0.0814583 0.570209 -0.0814583 0.244375 0.244375C-0.0814583 0.570209 -0.0814583 1.09688 0.244375 1.42271L0.833542 2.01188C0.996042 2.17438 1.20938 2.25604 1.42271 2.25604C1.63604 2.25604 1.84938 2.17438 2.01188 2.01188C2.33771 1.68604 2.33771 1.15938 2.01188 0.833542L1.42271 0.244375Z" transform="translate(37.541 37.4398)"/><path fill="#F11F60" stroke="#F11F60" d="M1.42271 0.244375C1.09688 -0.0814583 0.570209 -0.0814583 0.244375 0.244375C-0.0814583 0.570209 -0.0814583 1.09688 0.244375 1.42271L0.833542 2.01188C0.996042 2.17438 1.20938 2.25604 1.42271 2.25604C1.63604 2.25604 1.84938 2.17438 2.01188 2.01188C2.33771 1.68604 2.33771 1.15938 2.01188 0.833542L1.42271 0.244375Z" transform="translate(12.2031 12.1014)"/></svg>