<svg xmlns="http://www.w3.org/2000/svg" width="1366" height="322" fill="none" viewBox="0 0 1366 322"><g opacity=".685"><path fill="#fff" d="M22.1313 13.3834C22.734 13.9666 23.6886 13.9736 24.2997 13.3992L34.5363 3.77896L43.7448 13.344C44.3414 13.9637 45.3256 13.9883 45.9525 13.3992L57.3202 2.71592C57.9525 2.12171 57.9833 1.12744 57.3891 0.495159C56.7949 -0.13712 55.8006 -0.167981 55.1684 0.426231L44.9318 10.0465L35.7233 0.481454C35.1267 -0.138311 34.1425 -0.162928 33.5156 0.426231L23.2397 10.0835L13.276 0.442055C12.6583 -0.155736 11.6748 -0.146019 11.0689 0.46386L0.456468 11.1471C-0.155029 11.7627 -0.151722 12.7574 0.463855 13.3689C1.07943 13.9804 2.07417 13.9771 2.68567 13.3616L12.2053 3.77837L22.1313 13.3834Z" transform="translate(0.1875 70.4599)"/><path fill="#fff" d="M22.1313 13.3834C22.734 13.9666 23.6886 13.9736 24.2997 13.3992L34.5363 3.77896L43.7448 13.344C44.3414 13.9637 45.3256 13.9883 45.9525 13.3992L57.3202 2.71592C57.9525 2.12171 57.9833 1.12744 57.3891 0.495159C56.7949 -0.13712 55.8006 -0.167981 55.1684 0.426231L44.9318 10.0465L35.7233 0.481454C35.1267 -0.138311 34.1425 -0.162928 33.5156 0.426231L23.2397 10.0835L13.276 0.442055C12.6583 -0.155736 11.6748 -0.146019 11.0689 0.46386L0.456468 11.1471C-0.155029 11.7627 -0.151722 12.7574 0.463855 13.3689C1.07943 13.9804 2.07417 13.9771 2.68567 13.3616L12.2053 3.77837L22.1313 13.3834Z" transform="translate(1055.36 267.863)"/><path fill="#fff" d="M22.1313 13.3834C22.734 13.9666 23.6886 13.9736 24.2997 13.3992L34.5363 3.77896L43.7448 13.344C44.3414 13.9637 45.3256 13.9883 45.9525 13.3992L57.3202 2.71592C57.9525 2.12171 57.9833 1.12744 57.3891 0.495159C56.7949 -0.13712 55.8006 -0.167981 55.1684 0.426231L44.9318 10.0465L35.7233 0.481454C35.1267 -0.138311 34.1425 -0.162928 33.5156 0.426231L23.2397 10.0835L13.276 0.442055C12.6583 -0.155736 11.6748 -0.146019 11.0689 0.46386L0.456468 11.1471C-0.155029 11.7627 -0.151722 12.7574 0.463855 13.3689C1.07943 13.9804 2.07417 13.9771 2.68567 13.3616L12.2053 3.77837L22.1313 13.3834Z" transform="translate(902.357 181.175)"/><path fill="#fff" d="M2.72493 11.1524L8.19205 5.23607C10.4298 2.8145 14.2069 2.66545 16.6284 4.90316C16.7699 5.03388 16.9049 5.17137 17.0331 5.31514L19.9368 8.5724C23.2856 12.329 29.0456 12.6595 32.8022 9.31075C33.0293 9.10835 33.246 8.89472 33.4517 8.67065L36.3692 5.49216C38.5988 3.06312 42.3753 2.90142 44.8044 5.13102C45.0026 5.31294 45.1883 5.50806 45.3602 5.71503L47.2959 8.04589C50.5111 11.9174 56.256 12.4495 60.1275 9.23431C60.4657 8.95349 60.7831 8.64856 61.0772 8.32193L66.2097 2.6224C66.7904 1.97763 66.7384 0.984245 66.0936 0.403615C65.4488 -0.177014 64.4554 -0.125014 63.8748 0.51976L58.7423 6.21928C58.5496 6.43329 58.3416 6.63306 58.1201 6.81705C55.5836 8.92356 51.8196 8.57496 49.7131 6.03843L47.7774 3.70757C47.5151 3.39167 47.2317 3.09386 46.9291 2.81618C43.2217 -0.586878 37.4574 -0.340086 34.0543 3.36741L31.1369 6.5459C31.0021 6.6927 30.8601 6.83267 30.7113 6.96527C28.2501 9.15931 24.4763 8.94273 22.2823 6.48153L19.3786 3.22426C19.183 3.00482 18.9768 2.79497 18.7609 2.59546C15.0648 -0.819997 9.2998 -0.592508 5.88435 3.10357L0.417224 9.01988C-0.171648 9.65714 -0.132425 10.6511 0.50483 11.24C1.14208 11.8289 2.13606 11.7896 2.72493 11.1524Z" transform="translate(1365.75 91.6583) rotate(90)"/><path fill="#fff" d="M22.1313 13.3834C22.734 13.9666 23.6886 13.9736 24.2997 13.3992L34.5363 3.77896L43.7448 13.344C44.3414 13.9637 45.3256 13.9883 45.9525 13.3992L57.3202 2.71592C57.9525 2.12171 57.9833 1.12744 57.3891 0.495159C56.7949 -0.13712 55.8006 -0.167981 55.1684 0.426231L44.9318 10.0465L35.7233 0.481454C35.1267 -0.138311 34.1425 -0.162928 33.5156 0.426231L23.2397 10.0835L13.276 0.442055C12.6583 -0.155736 11.6748 -0.146019 11.0689 0.46386L0.456468 11.1471C-0.155029 11.7627 -0.151722 12.7574 0.463855 13.3689C1.07943 13.9804 2.07417 13.9771 2.68567 13.3616L12.2053 3.77837L22.1313 13.3834Z" transform="translate(581.217 199.856) rotate(90)"/><path fill="#fff" fill-rule="evenodd" d="M10.4066 14.4475H1.93741C0.867406 14.4475 0 13.5801 0 12.5101C0 11.4401 0.867406 10.5727 1.93741 10.5727H10.4066V2.07579C10.4066 0.929364 11.336 0 12.4824 0C13.6289 0 14.5582 0.929364 14.5582 2.07579V10.5727H23.1935C24.2635 10.5727 25.1309 11.4401 25.1309 12.5101C25.1309 13.5801 24.2635 14.4475 23.1935 14.4475H14.5582V23.0551C14.5582 24.2016 13.6289 25.1309 12.4824 25.1309C11.336 25.1309 10.4066 24.2016 10.4066 23.0551V14.4475Z" clip-rule="evenodd" transform="translate(882.035 293.918) rotate(45)"/><path fill="#fff" fill-rule="evenodd" d="M10.4066 14.4475H1.93741C0.867406 14.4475 0 13.5801 0 12.5101C0 11.4401 0.867406 10.5727 1.93741 10.5727H10.4066V2.07579C10.4066 0.929364 11.336 0 12.4824 0C13.6289 0 14.5582 0.929364 14.5582 2.07579V10.5727H23.1935C24.2635 10.5727 25.1309 11.4401 25.1309 12.5101C25.1309 13.5801 24.2635 14.4475 23.1935 14.4475H14.5582V23.0551C14.5582 24.2016 13.6289 25.1309 12.4824 25.1309C11.336 25.1309 10.4066 24.2016 10.4066 23.0551V14.4475Z" clip-rule="evenodd" transform="translate(1269.04 37.3727) rotate(45)"/><path fill="#fff" fill-rule="evenodd" d="M0.459961 27.4825L27.4824 0.460155C28.0957 -0.153385 29.0908 -0.153385 29.7041 0.460155C30.3184 1.0737 30.3184 2.06844 29.7041 2.68198L2.68164 29.7044C2.06836 30.3179 1.07324 30.3179 0.459961 29.7044C-0.15332 29.0908 -0.15332 28.0961 0.459961 27.4825ZM18.0391 22.4718L28.4082 11.7886C29.0127 11.1659 30.0078 11.1511 30.6299 11.7554C31.2529 12.3597 31.2676 13.3543 30.6631 13.977L20.2939 24.6602C19.6895 25.2829 18.6953 25.2977 18.0723 24.6934C17.4502 24.0891 17.4355 23.0945 18.0391 22.4718Z" clip-rule="evenodd" transform="translate(58.0029 278.835)"/><path fill="#fff" fill-rule="evenodd" d="M0.459961 27.4825L27.4824 0.460155C28.0957 -0.153385 29.0908 -0.153385 29.7041 0.460155C30.3184 1.0737 30.3184 2.06844 29.7041 2.68198L2.68164 29.7044C2.06836 30.3179 1.07324 30.3179 0.459961 29.7044C-0.15332 29.0908 -0.15332 28.0961 0.459961 27.4825ZM18.0391 22.4718L28.4082 11.7886C29.0127 11.1659 30.0078 11.1511 30.6299 11.7554C31.2529 12.3597 31.2676 13.3543 30.6631 13.977L20.2939 24.6602C19.6895 25.2829 18.6953 25.2977 18.0723 24.6934C17.4502 24.0891 17.4355 23.0945 18.0391 22.4718Z" clip-rule="evenodd" transform="translate(1277.58 278.835)"/><path fill="#fff" fill-rule="evenodd" d="M0.459961 27.4825L27.4824 0.460159C28.0957 -0.153381 29.0908 -0.153381 29.7041 0.460159C30.3184 1.0737 30.3184 2.06844 29.7041 2.68198L2.68164 29.7044C2.06836 30.3179 1.07324 30.3179 0.459961 29.7044C-0.15332 29.0908 -0.15332 28.0961 0.459961 27.4825ZM18.0391 22.4718L28.4082 11.7885C29.0127 11.1659 30.0078 11.1511 30.6299 11.7554C31.2529 12.3597 31.2676 13.3543 30.6631 13.977L20.2939 24.6602C19.6895 25.2829 18.6953 25.2977 18.0723 24.6934C17.4502 24.0891 17.4355 23.0945 18.0391 22.4718Z" clip-rule="evenodd" transform="translate(963.711 9.85562)"/><path fill="#fff" fill-rule="evenodd" d="M22.8983 20.6665C24.5069 19.6387 24.9782 17.5011 23.95 15.8929L14.6301 1.30556C14.4088 0.960004 14.1152 0.666398 13.7697 0.445135C12.4536 -0.395827 10.7051 -0.0106493 9.86405 1.30557L0.543634 15.8928C0.188904 16.4482 -0.000345267 17.0945 2.15792e-05 17.7537C0.000151054 19.6624 1.54761 21.2099 3.45637 21.21L21.0375 21.2101C21.6973 21.2098 22.3429 21.0212 22.8983 20.6665ZM3.14206 17.7538C3.14246 17.6934 3.15967 17.6346 3.19198 17.5841L12.2475 3.41139L21.3024 17.5845C21.3959 17.7306 21.3529 17.9251 21.2071 18.0182C21.1565 18.0505 21.0978 18.0677 21.0381 18.0674L3.45627 18.068C3.28319 18.0675 3.14251 17.9268 3.14206 17.7538Z" clip-rule="evenodd" transform="translate(654.263 28.1421) rotate(45)"/><path fill="#fff" fill-rule="evenodd" d="M22.8984 20.6663C24.5068 19.6385 24.9775 17.5013 23.9502 15.8927L14.6299 1.30567C14.4092 0.959824 14.1152 0.666222 13.7695 0.445248C12.4531 -0.395664 10.7051 -0.0104408 9.86426 1.30567L0.543945 15.8927C0.188477 16.4484 0 17.0942 0 17.7537C0 19.6626 1.54785 21.21 3.45605 21.21H21.0371C21.6973 21.21 22.3428 21.0213 22.8984 20.6663ZM3.14258 17.7537C3.14258 17.6937 3.16016 17.635 3.19238 17.5845L12.2471 3.41187L21.3027 17.5845C21.3965 17.7307 21.3535 17.925 21.207 18.0184C21.1562 18.0507 21.0977 18.0679 21.0381 18.0679H3.45703C3.2832 18.0679 3.14258 17.9272 3.14258 17.7537Z" clip-rule="evenodd" transform="translate(689.265 195)"/><path fill="#fff" fill-rule="evenodd" d="M22.8984 20.6663C24.5068 19.6385 24.9775 17.5013 23.9502 15.8927L14.6299 1.30567C14.4092 0.959824 14.1152 0.666222 13.7695 0.445244C12.4531 -0.395668 10.7051 -0.010437 9.86426 1.30567L0.543945 15.8927C0.188477 16.4484 0 17.0942 0 17.7537C0 19.6626 1.54785 21.21 3.45605 21.21H21.0371C21.6973 21.21 22.3428 21.0213 22.8984 20.6663ZM3.14258 17.7537C3.14258 17.6937 3.16016 17.635 3.19238 17.5845L12.2471 3.41187L21.3027 17.5845C21.3965 17.7307 21.3535 17.925 21.207 18.0184C21.1562 18.0507 21.0977 18.0679 21.0381 18.0679H3.45703C3.2832 18.0679 3.14258 17.9272 3.14258 17.7537Z" clip-rule="evenodd" transform="translate(135.018 130.537)"/><path fill="#fff" fill-rule="evenodd" d="M11.5998 16.9872H2.60111C1.16456 16.9872 0 15.8226 0 14.386C0 12.9495 1.16456 11.7849 2.60111 11.7849H11.5998V2.75536C11.5998 1.23362 12.8334 0 14.3552 0C15.8769 0 17.1106 1.23362 17.1106 2.75536V11.7849H26.2944C27.7309 11.7849 28.8955 12.9495 28.8955 14.386C28.8955 15.8226 27.7309 16.9872 26.2944 16.9872H17.1106V26.1401C17.1106 27.6619 15.8769 28.8955 14.3552 28.8955C12.8334 28.8955 11.5998 27.6619 11.5998 26.1401V16.9872Z" clip-rule="evenodd" transform="translate(503.712 39.8533) rotate(90)"/><path fill="#fff" fill-rule="evenodd" d="M7.32478 10.7266H1.64249C0.735366 10.7266 0 9.99127 0 9.08415C0 8.17703 0.735366 7.44167 1.64249 7.44167H7.32478V1.73989C7.32478 0.778976 8.10376 0 9.06467 0C10.0256 0 10.8046 0.778976 10.8046 1.73989V7.44167H16.6037C17.5109 7.44167 18.2462 8.17703 18.2462 9.08415C18.2462 9.99127 17.5109 10.7266 16.6037 10.7266H10.8046V16.5063C10.8046 17.4673 10.0256 18.2462 9.06467 18.2462C8.10376 18.2462 7.32478 17.4673 7.32478 16.5063V10.7266Z" clip-rule="evenodd" transform="translate(161.712 0.504883) rotate(90)"/></g></svg>