<svg width="88" height="88" viewBox="0 0 88 88" fill="none" xmlns="http://www.w3.org/2000/svg">
<path fill-rule="evenodd" clip-rule="evenodd" d="M42.3224 84.6447C65.6964 84.6447 84.6447 65.6964 84.6447 42.3224C84.6447 18.9484 65.6964 0 42.3224 0C18.9484 0 0 18.9484 0 42.3224C0 65.6964 18.9484 84.6447 42.3224 84.6447Z" transform="translate(1.8252 1.36504)" fill="white"/>
<path d="M42.3224 84.6447C65.6964 84.6447 84.6447 65.6964 84.6447 42.3224C84.6447 18.9484 65.6964 0 42.3224 0C18.9484 0 0 18.9484 0 42.3224C0 65.6964 18.9484 84.6447 42.3224 84.6447Z" transform="translate(1.8252 1.36504)" stroke="#F11F60" stroke-width="2"/>
<mask id="path-3-inside-1" fill="white">
<path d="M38.6988 10.7469C38.1329 4.51914 33.7249 0.000745486 28.2083 0.000745486C24.533 0.000745486 21.1679 1.97852 19.2744 5.14833C17.398 1.93752 14.1708 0 10.5544 0C5.03856 0 0.629759 4.51839 0.0646808 10.7462C0.0199517 11.0213 -0.163438 12.469 0.394186 14.83C1.19782 18.2353 3.05408 21.3328 5.76094 23.7855L19.2654 36.0405L33.0017 23.7862C35.7086 21.3328 37.5649 18.2361 38.3685 14.83C38.9261 12.4697 38.7427 11.022 38.6988 10.7469Z"/>
</mask>
<path d="M38.6988 10.7469C38.1329 4.51914 33.7249 0.000745486 28.2083 0.000745486C24.533 0.000745486 21.1679 1.97852 19.2744 5.14833C17.398 1.93752 14.1708 0 10.5544 0C5.03856 0 0.629759 4.51839 0.0646808 10.7462C0.0199517 11.0213 -0.163438 12.469 0.394186 14.83C1.19782 18.2353 3.05408 21.3328 5.76094 23.7855L19.2654 36.0405L33.0017 23.7862C35.7086 21.3328 37.5649 18.2361 38.3685 14.83C38.9261 12.4697 38.7427 11.022 38.6988 10.7469Z" transform="translate(24.3877 25.3963)" fill="white" stroke="#F11F60" stroke-width="2" mask="url(#path-3-inside-1)"/>
<path fill-rule="evenodd" clip-rule="evenodd" d="M6.99537 5.51618C6.99537 7.26246 6.70519 8.61838 6.1248 9.58397C5.54442 10.5496 4.679 11.0324 3.5285 11.0324C2.36774 11.0324 1.48434 10.5393 0.878274 9.55315C0.292755 8.55675 0 7.2111 0 5.51618C0 3.83153 0.287619 2.49102 0.862866 1.49461C1.44838 0.498197 2.32665 0 3.49769 0C4.679 0 5.55213 0.498197 6.1171 1.49461C6.70262 2.48074 6.99537 3.82125 6.99537 5.51618ZM3.52837 9.87673C4.27824 9.87673 4.82523 9.51721 5.16935 8.79815C5.51347 8.07909 5.68553 6.98511 5.68553 5.51618C5.68553 4.05752 5.50834 2.9661 5.15394 2.24191C4.79955 1.51772 4.24743 1.15562 3.49755 1.15562C2.03889 1.15562 1.30957 2.60913 1.30957 5.51618C1.30957 8.42323 2.04916 9.87673 3.52837 9.87673Z" transform="translate(40.667 41.5431)" fill="#F11F60"/>
</svg>
