<svg width="185" height="53" fill="none" xmlns="http://www.w3.org/2000/svg"><path fill-rule="evenodd" clip-rule="evenodd" d="M10.498.31s-2.156.108-5.64 3.525C1.374 7.252.052 12.081 0 14.181a8.363 8.363 0 0 0 .728 3.24c.886 2.107 3.345 3.857 4.894 4.002a.585.585 0 0 0 .62-.638 1.112 1.112 0 0 0-.356-.867S4.315 18.05 4.383 14.43c.136-2.416.644-7.397 4.761-10.938.425-.155.338.338.338.338L9.38 30.78s.086 4.624-.967 7.294c0 0-.36 1.02-.31 1.41.05.39.273.424.561.424.118 0 1.072-.12 2.258-1.087 2.091-1.871 3.832-4.56 3.618-11.56V2.249s-.065-.883-1.713-1.462C11.18.207 10.498.31 10.498.31zm168.841 35.335s4.873.14 4.873-7.915h-.003c0-.579-.697-.74-.697-.74a.928.928 0 0 0-.796.644c-.081.258-.185.68-.296 1.137l-.001.001c-.153.626-.322 1.315-.468 1.725-.254.709-.858 2.187-2.008 2.09-1.149-.096-3.097-1.124-2.168-16.854 0 0 .424-1.834-2.673-2.896 0 0-2.581-1.19-3.473.483-.892 1.673-3.116 8.107-3.612 12.031 0 0 .01.09-.037.134-.046.043-.139.012-.139-.084 0 0-.527-6.1-.415-9.823-.047-2.267-2.506-2.918-2.506-2.918s-2.271-.784-2.962.41c-.814 1.384-1.672 3.48-3.466 8.982v-8.094s.335-.917-2.075-1.28l-1.72-.262a.967.967 0 0 0-.861.867l-.046 14.333v.73c-.75 1.965-1.958 4.403-3.392 4.443-1.487.127-1.992-1.605-2.274-4.52-.22-5.015.167-13.502.167-13.502.056-.66-.662-1.487-2.769-1.819-2.106-.331-1.995.992-1.995.992l-.056 1.102a5.351 5.351 0 0 0-4.646-2.92c-5.006 0-7.184 5.708-7.701 10.58a22.513 22.513 0 0 0 .387 6.89s-.663 2.754-2.602 3.197c-1.939.443-2.608-3.305-2.828-5.787-.22-2.48 1.165-8.599 1.165-8.599a3.146 3.146 0 0 0 .331-1.762c-.179-2.757-2.565-2.478-4.336-2.039-1.772.44-3.823.716-3.823.716.378-1.487.282-3.637-2.168-3.637-2.451 0-3.271 1.983-3.38 3.637-.108 1.654 1.441 2.81 1.441 2.81-1.109 5.79-5.542 11.74-5.542 11.74s.167-14.528.167-15.355-.279-1.047-1.165-1.379a8.714 8.714 0 0 0-1.716-.44c-1.995-.387-1.83.992-1.83.992l-.056 1.047c-1.716-3.141-5.483-2.866-5.483-2.866s-8.5 1.887-6.641 17.437c-.555 1.5-1.469 3.259-2.754 3.445-1.496.12-1.998-1.617-2.283-4.554-.223-5.052.167-13.605.167-13.605.05-.666-.672-1.496-2.788-1.83-2.116-.335-2.004.997-2.004.997l-.056 1.112a5.365 5.365 0 0 0-4.683-2.965c-5.04 0-7.227 5.753-7.745 10.663-.119 1.12-.16 2.25-.124 3.376l-.03.05s-1.605 6.108-4.337 5.975c-1.952.034-2.054-4.897-2.054-6.988l.437-13.472 6.27-.133s.737-.3.907-1.55c.17-1.247-.084-1.449-.809-1.517-.724-.068-6.3-.338-6.3-.338l.27-6.111s-.02-.505-2.256-1.078c-2.236-.573-2.998-.403-3.165.811-.035.843-.205 6.078-.205 6.078l-5.052-.068s-.98.774-.98 2.633c.069.979.475 1.013.475 1.013l5.288.068-.066 11.613s-.269 3.485-3.84 6.582a5.045 5.045 0 0 0 .133-2.168c-.366-2.77-2.723-4.659-7.745-8.24 0 0 2.596-2.834 2.528-5.163.068-2.128-2.46-1.992-2.46-1.992a6.218 6.218 0 0 0-2.93 1.08c-1.942 1.438-3.29 4.734-.811 7.435 0 0-5.626 10.873-7.209 10.501-.62-.102-1.031-1.214-.929-4.051.102-2.838.338-10.87.338-10.87s.313-1.595-1.946-2.723l-.156-.078c-2.272-1.144-5.953-2.997-10.79 11.273l.064-10.668s.05-.639-1.858-1.146c-1.909-.509-2.494-.251-2.528.368l-.133 18.4s-.155 3.848 1.874 3.916c1.297.043 1.489.073 1.59.089.058.009.086.013.268.013.505 0 1.01-.266 1.01-.505 0-.238 1.685-12.592 7.348-18.602 0 0 .372-.204.372.202 0 .084-.017.478-.044 1.092-.102 2.364-.346 7.977-.294 11.568.065 4.523 1.515 6.078 3.033 6.279 1.109.146 3.95-.585 6.815-5.232.601-1.07 1.32-2.225 2.16-3.577.809-1.3 1.73-2.783 2.771-4.548 0 0 1.134 1.013 2.63 2.363 1.496 1.351 2.562 2.971 2.425 4.492-.136 1.521-.532 3.002-2.391 3.07-1.45 0-2.732-1.24-2.732-1.24s-.833-.709-1.314-.709c-.48 0-1.047.406-1.719 1.385-.596.869-.583 1.227-.572 1.514v.001l.002.105c0 .31.697 2.447 6.592 2.481 5.895.034 9.064-4.897 10.68-8.744 0 0 .236 8.673 5.83 8.673 3.042-.046 5.028-3.621 5.83-5.672a8.03 8.03 0 0 0 .158-.455c.197.877.495 1.728.886 2.537 0 0 1.422 3.661 4.957 3.717 5.2.056 7.093-4.86 7.093-4.86.056.666.806 4.442 4.591 4.86 2.692.282 4.34-2.252 5.065-3.745 2.462 4.358 5.393 3.764 5.393 3.764s3.794.232 6.272-3.872l.155 2.323s-1.548 1.403-5.421 5.043c-3.872 3.64-4.8 6.35-4.646 7.821 0 0-.375 5.006 6.13 5.446 7.506-.607 8.2-8.041 8.2-13.586 0-2.94-.056-5.576-.056-5.576 7.146-8.432 8.838-15.21 8.838-15.21s2.992-.083 3.463-.055c.471.028.192.551.192.551s-.793 2.577-1.013 7.76c-.22 5.182 2.633 9.175 6.096 9.314 3.463.14 4.876-3.664 4.876-3.664s1.412 3.637 4.931 3.692c5.18.056 7.063-4.823 7.063-4.823.056.663.79 4.579 4.572 4.823 2.5.174 4.123-1.933 4.997-3.543l.114 2.075s-.093 1.224 2.423 1.416c0 0 2.961.539 2.961-1.19 0-1.728.031-10.284 3.504-16.108 0 0 .446-.421.446.127 0 .549.443 11.003 1.208 12.741.573 1.834 2.199 3.472 4.714 2.317a.778.778 0 0 0 .31-.71c.048-1.476.185-2.948.412-4.407.517-3.306 1.574-7.574 3.123-10.39.127-.192.157 0 .157 0s-.219 4.17 0 7.915c.292 4.98 1.469 9.878 6.115 9.714zM79.87 15.69c-1.087.04-3.63.75-4.092 7.83-.461 7.082 1.422 8.913 3.005 9.12 1.583.208 4.383-2.332 4.544-9.872.161-7.54-3.457-7.078-3.457-7.078zm17.706 7.893c.62-6.856 3.408-7.819 4.492-7.862 0 0 3.342-.533 3.175 7.103-.167 7.635-3.005 10.21-4.615 9.999-1.611-.21-3.516-2.066-3.052-9.24zm8.209 14.131c-6.272 5.421-6.815 9.293-6.815 9.293s-.62 3.175 2.401 3.33c3.631.369 4.238-4.027 4.337-7.899.046-1.821.077-4.724.077-4.724zm30.292-13.943c.459-7.08 3.005-7.79 4.092-7.83h.01s3.621-.456 3.454 7.08c-.168 7.537-2.965 10.078-4.551 9.87-1.586-.208-3.463-2.038-3.005-9.12z" fill="#F11F60"/></svg>