<svg width="1440" height="696" fill="none" xmlns="http://www.w3.org/2000/svg"><g opacity=".374"><path fill-rule="evenodd" clip-rule="evenodd" d="M0 0h1440v695.59H0V0z" fill="#F9F9F9"/><path d="M64.87 114.22a1.57 1.57 0 0 0 2.168.015l10.237-9.62 9.208 9.565c.597.62 1.58.644 2.208.055l11.367-10.683a1.571 1.571 0 0 0-2.151-2.29l-10.237 9.62-9.209-9.565a1.571 1.571 0 0 0-2.207-.055l-10.276 9.658-9.964-9.642a1.571 1.571 0 0 0-2.207.022l-10.612 10.683a1.571 1.571 0 0 0 2.229 2.215l9.52-9.584 9.926 9.605zm1235.261 488.386c.603.584 1.558.59 2.169.016l10.236-9.62 9.209 9.565c.596.62 1.58.644 2.208.055l11.367-10.683a1.571 1.571 0 0 0-2.152-2.29l-10.236 9.62-9.209-9.565a1.571 1.571 0 0 0-2.207-.055l-10.276 9.657-9.964-9.64a1.571 1.571 0 0 0-2.207.02l-10.613 10.684a1.571 1.571 0 0 0 2.23 2.215l9.52-9.584 9.925 9.605zm59.197-559.223l5.916 5.467a5.97 5.97 0 0 1-.08 8.841l-3.256 2.904a9.112 9.112 0 0 0-.099 13.515l3.179 2.917a5.97 5.97 0 0 1-.223 8.991l-2.33 1.936a9.112 9.112 0 0 0-.277 13.781l5.7 5.133a1.571 1.571 0 1 0 2.102-2.335l-5.7-5.132a5.97 5.97 0 0 1 .18-9.03l2.332-1.935a9.112 9.112 0 0 0 .34-13.723l-3.178-2.918a5.971 5.971 0 0 1 .064-8.854l3.258-2.904a9.112 9.112 0 0 0 .12-13.494l-5.916-5.468a1.571 1.571 0 0 0-2.132 2.308zM161.135 660.131a1.571 1.571 0 0 0-.016 2.169l9.62 10.236-9.565 9.209a1.571 1.571 0 0 0-.055 2.207l10.683 11.368a1.571 1.571 0 0 0 2.29-2.152l-9.62-10.236 9.565-9.209a1.57 1.57 0 0 0 .055-2.207l-9.658-10.276 9.642-9.964a1.571 1.571 0 0 0-.022-2.207l-10.683-10.613a1.571 1.571 0 0 0-2.215 2.23l9.584 9.52-9.605 9.925z" fill="#F11F60"/><path fill-rule="evenodd" clip-rule="evenodd" d="M1011.033 651.529l-5.989-5.99a1.937 1.937 0 1 1 2.74-2.739l5.989 5.989 6.008-6.009a2.076 2.076 0 0 1 2.935 2.936l-6.008 6.008 6.106 6.106a1.937 1.937 0 1 1-2.74 2.74l-6.106-6.106-6.086 6.087a2.076 2.076 0 1 1-2.936-2.936l6.087-6.086zM43.014 467.875l27.022-27.023a1.57 1.57 0 1 1 2.222 2.222l-27.022 27.022a1.571 1.571 0 0 1-2.222-2.221zm17.58-5.011l10.368-10.684a1.571 1.571 0 1 1 2.255 2.189l-10.369 10.683a1.571 1.571 0 1 1-2.255-2.188zM1342.78 345.318l27.022-27.023a1.571 1.571 0 1 1 2.222 2.222l-27.022 27.022a1.571 1.571 0 0 1-2.222-2.221zm17.58-5.011l10.369-10.684a1.571 1.571 0 1 1 2.254 2.189l-10.369 10.683a1.571 1.571 0 1 1-2.254-2.188z" fill="#FFEE19"/><path fill-rule="evenodd" clip-rule="evenodd" d="M1123.978 88.568a3.456 3.456 0 0 0 4.12-2.632l3.724-16.905a2.827 2.827 0 0 0-3.37-3.37l-16.905 3.725a3.457 3.457 0 0 0-1.7 5.819l12.431 12.432c.466.466 1.056.79 1.7.931zm-11.91-16.03a.314.314 0 0 1 .155-.084l16.424-3.618-3.618 16.424a.314.314 0 0 1-.53.155l-12.43-12.432a.314.314 0 0 1 0-.444zM405.025 602.63a3.456 3.456 0 0 0 1.051-4.773l-9.32-14.587a2.829 2.829 0 0 0-4.766 0l-9.32 14.587a3.456 3.456 0 0 0 2.912 5.317h17.582a3.45 3.45 0 0 0 1.86-.544zm-19.757-2.912c0-.06.017-.119.05-.17l9.055-14.172 9.055 14.172a.314.314 0 0 1-.264.484h-17.582a.314.314 0 0 1-.314-.314z" fill="#4FBAD9"/><path fill-rule="evenodd" clip-rule="evenodd" d="M314.199 61.876v-9a2.601 2.601 0 0 1 5.202 0v9h9.03a2.755 2.755 0 1 1 0 5.51h-9.03v9.184a2.601 2.601 0 0 1-5.202 0v-9.184h-9.153a2.755 2.755 0 0 1 0-5.51h9.153z" fill="#098DB2"/></g></svg>