<svg width="1440" height="599" fill="none" xmlns="http://www.w3.org/2000/svg"><path d="M1378.689 54.389a1.571 1.571 0 0 1-2.169.016l-10.236-9.62-9.209 9.564c-.596.62-1.58.645-2.208.056L1343.5 43.72a1.571 1.571 0 0 1 2.152-2.29l10.236 9.621 9.209-9.565a1.571 1.571 0 0 1 2.207-.055l10.276 9.657 9.964-9.641a1.571 1.571 0 0 1 2.207.021l10.613 10.684a1.571 1.571 0 0 1-2.23 2.214l-9.52-9.583-9.925 9.605z" fill="#FFEE19" opacity=".588"/><path d="M509.869 430.29a1.571 1.571 0 0 1-2.169.015l-10.236-9.62-9.209 9.565c-.596.62-1.58.644-2.208.055l-11.367-10.683a1.571 1.571 0 0 1 2.152-2.29l10.236 9.62 9.209-9.565a1.571 1.571 0 0 1 2.207-.055l10.276 9.657 9.964-9.64a1.571 1.571 0 0 1 2.207.02l10.613 10.684a1.571 1.571 0 0 1-2.23 2.215l-9.52-9.584-9.925 9.605z" fill="#F11F60" opacity=".505"/><path d="M445.988 96.447a1.57 1.57 0 0 1 .016 2.168l-9.62 10.237 9.565 9.208c.62.597.644 1.58.055 2.208l-10.683 11.367a1.571 1.571 0 0 1-2.29-2.151l9.62-10.237-9.565-9.208a1.571 1.571 0 0 1-.055-2.208l9.657-10.276-9.64-9.964a1.571 1.571 0 0 1 .02-2.207l10.684-10.612A1.571 1.571 0 0 1 445.967 77l-9.584 9.52 9.605 9.926z" fill="#F11F60" opacity=".151"/><path fill-rule="evenodd" clip-rule="evenodd" d="M89.965 103.144l5.989-5.988a1.937 1.937 0 1 0-2.74-2.74l-5.989 5.988-6.008-6.008a2.076 2.076 0 0 0-2.936 2.936l6.009 6.008-6.106 6.106a1.937 1.937 0 1 0 2.74 2.74l6.106-6.106 6.086 6.086a2.076 2.076 0 1 0 2.936-2.935l-6.087-6.087z" fill="#FFEE19"/><path fill-rule="evenodd" clip-rule="evenodd" d="M1337.65 359.619l-27.023-27.023a1.571 1.571 0 0 0-2.221 2.222l27.022 27.022a1.571 1.571 0 0 0 2.222-2.221zm-17.58-5.011l-10.369-10.683a1.571 1.571 0 1 0-2.255 2.188l10.37 10.683a1.571 1.571 0 1 0 2.254-2.188z" fill="#BDE3EE"/><path fill-rule="evenodd" clip-rule="evenodd" d="M1387.033 488.13l-5.989-5.99a1.937 1.937 0 1 1 2.74-2.739l5.989 5.989 6.008-6.009a2.076 2.076 0 0 1 2.935 2.936l-6.008 6.008 6.106 6.106a1.937 1.937 0 1 1-2.74 2.74l-6.106-6.106-6.086 6.087a2.076 2.076 0 1 1-2.936-2.936l6.087-6.086z" fill="#F4799F"/><path fill-rule="evenodd" clip-rule="evenodd" d="M331.255 51.018a3.456 3.456 0 0 1-4.12-2.632l-3.724-16.905a2.83 2.83 0 0 1 3.37-3.37l16.905 3.724a3.456 3.456 0 0 1 1.7 5.82l-12.431 12.431a3.458 3.458 0 0 1-1.7.932zm11.91-16.03a.314.314 0 0 0-.155-.085l-16.424-3.618 3.618 16.425a.314.314 0 0 0 .53.154l12.43-12.431a.314.314 0 0 0 0-.445z" fill="#4FBAD9" opacity=".358"/><path fill-rule="evenodd" clip-rule="evenodd" d="M183.975 527.313a3.456 3.456 0 0 1-1.051-4.773l9.32-14.587a2.827 2.827 0 0 1 4.766 0l9.32 14.587a3.456 3.456 0 0 1-2.912 5.317h-17.582a3.45 3.45 0 0 1-1.86-.544zm19.757-2.912a.314.314 0 0 0-.05-.17l-9.055-14.172-9.055 14.172a.314.314 0 0 0 .264.484h17.582c.173 0 .314-.14.314-.314z" fill="#4FBAD9" opacity=".691"/><path fill-rule="evenodd" clip-rule="evenodd" d="M973.633 90.482v-8.998a2.601 2.601 0 0 0-5.202 0v8.998h-9.03a2.755 2.755 0 1 0 0 5.511h9.03v9.184a2.601 2.601 0 0 0 5.202 0v-9.184h9.153a2.755 2.755 0 0 0 0-5.51h-9.153zM44.011 329.318v-8.999a2.601 2.601 0 0 0-5.202 0v8.999h-9.03a2.755 2.755 0 1 0 0 5.51h9.03v9.184a2.601 2.601 0 0 0 5.202 0v-9.183h9.153a2.755 2.755 0 0 0 0-5.511h-9.153z" fill="#098DB2" opacity=".401"/></svg>