<svg xmlns="http://www.w3.org/2000/svg" xmlns:xlink="http://www.w3.org/1999/xlink" width="100%" height="100%" class="ldi-a7634f" preserveAspectRatio="xMidYMid" viewBox="0 0 100 100"><svg xmlns="http://www.w3.org/2000/svg" xmlns:xlink="http://www.w3.org/1999/xlink" style="transform-origin:50px 50px 0" id="圖層_1" x="0" y="0" version="1.1" viewBox="0 0 100 100" xml:space="preserve"><g style="transform-origin:50px 50px 0"><g style="transform-origin:50px 50px 0" fill="#F11F60"><g style="transform-origin:50px 50px 0"><g fill="#F11F60" transform="scale(0.85)"><style style="transform-origin:50px 50px 0px;animation-duration:1.3s;animation-delay:-1.3s;animation-direction:normal" class="ld ld-breath" type="text/css">.st22{fill:#ed1e79}</style><g style="transform-origin:50px 50px 0;animation-duration:1.3s;animation-delay:-1.18182s;animation-direction:normal" class="ld ld-breath"><path fill="#F11F60" d="M90,34.613c0-1.501-0.157-2.964-0.451-4.378c-2.021-9.724-10.635-17.032-20.959-17.032 c-4.43,0-8.545,1.346-11.96,3.65c-2.727,1.84-4.993,4.3-6.63,7.166c-1.637-2.866-3.903-5.326-6.63-7.166 c-3.415-2.304-7.53-3.65-11.96-3.65c-10.324,0-18.938,7.308-20.959,17.032C10.157,31.649,10,33.112,10,34.613 c0,0.328,0.022,0.651,0.037,0.975c-0.002,0.159-0.012,0.315-0.012,0.474C10.025,58.179,50,86.797,50,86.797 s39.975-28.618,39.975-50.734c0-0.159-0.01-0.316-0.012-0.474C89.978,35.264,90,34.941,90,34.613z" class="st22"/></g><metadata xmlns:d="https://loading.io/stock/" style="transform-origin:50px 50px 0;animation-duration:1.3s;animation-delay:-1.06364s;animation-direction:normal" class="ld ld-breath"><d:name style="transform-origin:50px 50px 0;animation-duration:1.3s;animation-delay:-.945455s;animation-direction:normal" class="ld ld-breath">heart</d:name><d:tags style="transform-origin:50px 50px 0;animation-duration:1.3s;animation-delay:-.827273s;animation-direction:normal" class="ld ld-breath">love,like,favorite,heart,people</d:tags><d:license style="transform-origin:50px 50px 0;animation-duration:1.3s;animation-delay:-.709091s;animation-direction:normal" class="ld ld-breath">cc-by</d:license><d:slug style="transform-origin:50px 50px 0;animation-duration:1.3s;animation-delay:-.590909s;animation-direction:normal" class="ld ld-breath">a7634f</d:slug></metadata></g></g></g></g><style style="transform-origin:50px 50px 0px;animation-duration:1.3s;animation-delay:-0.472727s;animation-direction:normal" class="ld ld-breath" type="text/css">@keyframes ld-breath{0%{-webkit-transform:scale(.86);transform:scale(.86)}50%{-webkit-transform:scale(1.06);transform:scale(1.06)}}@-webkit-keyframes ld-breath{0%{-webkit-transform:scale(.86);transform:scale(.86)}50%{-webkit-transform:scale(1.06);transform:scale(1.06)}}path{stroke-width:0}.ld.ld-breath{-webkit-animation:ld-breath 1s infinite;animation:ld-breath 1s infinite}</style></svg></svg>