<svg width="54" height="57" fill="none" xmlns="http://www.w3.org/2000/svg"><path fill-rule="evenodd" clip-rule="evenodd" d="M27.456 16.363h.023c3.285.104 5.843 2.809 5.843 6.15 0 3.351-2.629 6.068-5.866 6.068h-2.933v1.491h5.563c.478 0 .876.393.876.867a.878.878 0 0 1-.876.867h-5.563v4.508a.878.878 0 0 1-.877.867.878.878 0 0 1-.876-.867v-4.508h-1.215a.878.878 0 0 1-.876-.867c0-.474.397-.867.876-.867h1.215v-1.491h-1.215a.878.878 0 0 1-.876-.867c0-.474.397-.867.876-.867h1.215V17.23c0-.474.398-.867.876-.867h3.81zm-2.934 10.485h2.933c2.268 0 4.113-1.942 4.113-4.335s-1.81-4.335-4.125-4.416h-2.92v8.75z" fill="#F11F60" stroke="#F11F60" stroke-width=".7"/><path fill-rule="evenodd" clip-rule="evenodd" d="M27.047 1C20.094 1 13.55 3.682 8.63 8.548 3.71 13.415 1 19.888 1 26.766v3.595c0 9.12 4.978 17.617 12.97 22.16A26.23 26.23 0 0 0 27 56a26.26 26.26 0 0 0 13.018-3.468c3.962-2.23 7.256-5.456 9.523-9.351A25.396 25.396 0 0 0 53 30.36v-3.595C53 12.56 41.361 1 27.047 1zm12.095 50.018A24.41 24.41 0 0 1 27 54.243a24.448 24.448 0 0 1-12.152-3.225A23.996 23.996 0 0 1 5.09 40.58a26.117 26.117 0 0 0 21.945 11.86c9.185 0 17.272-4.74 21.887-11.883a23.663 23.663 0 0 1-9.78 10.46zm-36.39-24.24c0 13.201 10.903 23.94 24.295 23.94 13.345 0 24.201-10.739 24.201-23.94 0-13.247-10.856-24.032-24.201-24.032-13.392 0-24.294 10.774-24.294 24.032z" fill="#F11F60" stroke="#F11F60" stroke-width=".7"/><path fill-rule="evenodd" clip-rule="evenodd" d="M7.076 26.766C7.076 15.9 16.016 7.057 27 7.057s19.924 8.843 19.924 19.71c0 10.865-8.94 19.708-19.924 19.708S7.076 37.632 7.076 26.766zm1.753 0c0 9.907 8.156 17.976 18.171 17.976 10.015 0 18.17-8.069 18.17-17.975 0-9.907-8.155-17.975-18.17-17.975-10.015 0-18.17 8.068-18.17 17.975z" fill="#F11F60" stroke="#F11F60" stroke-width=".7"/></svg>