<svg width="57" height="57" fill="none" xmlns="http://www.w3.org/2000/svg"><path fill-rule="evenodd" clip-rule="evenodd" d="M56 4.747a3.702 3.702 0 0 0-1.09-2.655A3.71 3.71 0 0 0 52.253 1 3.754 3.754 0 0 0 49.6 2.108c-.301.301-.848.951-1.148 1.312a.891.891 0 0 0 1.371 1.138c.469-.565.857-1.01 1.036-1.19a1.985 1.985 0 0 1 1.403-.585h.008a1.94 1.94 0 0 1 1.948 1.956 1.981 1.981 0 0 1-.586 1.402c-.336.337-1.492 1.254-3.149 2.41a5.645 5.645 0 0 0-4.874-2.803H32.561a6.553 6.553 0 0 0-4.663 1.931L1.818 33.761A2.773 2.773 0 0 0 1 35.735c0 .746.29 1.447.817 1.975l17.475 17.474a2.782 2.782 0 0 0 1.975.816 2.78 2.78 0 0 0 1.973-.816l26.081-26.082a6.548 6.548 0 0 0 1.932-4.662V11.392a5.7 5.7 0 0 0-.113-1.125c1.885-1.298 3.27-2.383 3.753-2.866A3.754 3.754 0 0 0 56 4.747zm-6.53 19.692c0 1.285-.5 2.493-1.408 3.402L21.98 53.923a1.012 1.012 0 0 1-1.43 0L3.079 36.45a1.005 1.005 0 0 1-.296-.714c0-.27.106-.524.296-.715L29.16 8.94a4.78 4.78 0 0 1 3.402-1.41H45.61c1.466 0 2.743.82 3.397 2.026a72.02 72.02 0 0 1-3.482 2.167 3.747 3.747 0 0 0-5.413-.126 3.747 3.747 0 0 0 0 5.293 3.733 3.733 0 0 0 2.647 1.094 3.73 3.73 0 0 0 2.646-1.094 3.742 3.742 0 0 0 .971-3.6 74.577 74.577 0 0 0 3.096-1.907V24.44zm-6.711-9.306a.89.89 0 0 1-.402-1.687c.517-.26 1.029-.528 1.533-.802a1.956 1.956 0 0 0-2.518.212 1.962 1.962 0 0 0 0 2.772 1.963 1.963 0 0 0 2.773 0c.387-.387.577-.897.572-1.406-.516.28-1.036.553-1.558.816a.891.891 0 0 1-.4.095z" fill="#F11F60" stroke="#F11F60" stroke-width=".7"/><path d="M27.55 19.15a.891.891 0 0 0-.89.89v18.82a.891.891 0 0 0 1.781 0V20.04a.891.891 0 0 0-.89-.89z" fill="#F11F60"/><path d="M27.55 19.15a.891.891 0 0 0-.89.89v18.82a.891.891 0 0 0 1.781 0V20.04a.891.891 0 0 0-.89-.89z" stroke="#F11F60" stroke-width=".7"/><path fill-rule="evenodd" clip-rule="evenodd" d="M18.183 26.804a3.746 3.746 0 0 1 5.292 0 3.717 3.717 0 0 1 1.097 2.646c0 1-.39 1.94-1.097 2.646a3.73 3.73 0 0 1-2.646 1.095 3.729 3.729 0 0 1-2.646-1.095 3.746 3.746 0 0 1 0-5.292zm1.26 1.26a1.962 1.962 0 0 0 0 2.772 1.963 1.963 0 0 0 3.346-1.386 1.955 1.955 0 0 0-1.96-1.96c-.503 0-1.005.191-1.386.574zm12.183-1.26a3.746 3.746 0 0 1 5.292 0 3.747 3.747 0 0 1 0 5.292 3.73 3.73 0 0 1-2.645 1.095 3.73 3.73 0 0 1-2.647-1.095 3.745 3.745 0 0 1 0-5.292zm1.26 1.26a1.962 1.962 0 0 0 0 2.772 1.963 1.963 0 0 0 2.772 0 1.962 1.962 0 0 0 0-2.772 1.955 1.955 0 0 0-1.386-.574 1.95 1.95 0 0 0-1.386.574z" fill="#F11F60" stroke="#F11F60" stroke-width=".7"/></svg>