<svg width="41" height="57" fill="none" xmlns="http://www.w3.org/2000/svg"><path d="M32.466 47.897c.264 0 .477-.22.477-.49v-2.342c0-.27-.213-.49-.477-.49a.483.483 0 0 0-.477.49v2.342c0 .27.214.49.477.49z" fill="#F11F60"/><path d="M32.466 47.897c.264 0 .477-.22.477-.49v-2.342c0-.27-.213-.49-.477-.49a.483.483 0 0 0-.477.49v2.342c0 .27.214.49.477.49z" stroke="#F11F60" stroke-width=".5"/><path d="M35.66 47.897c.264 0 .478-.22.478-.49v-2.342c0-.27-.214-.49-.477-.49a.483.483 0 0 0-.477.49v2.342c0 .27.213.49.477.49z" fill="#F11F60"/><path d="M35.66 47.897c.264 0 .478-.22.478-.49v-2.342c0-.27-.214-.49-.477-.49a.483.483 0 0 0-.477.49v2.342c0 .27.213.49.477.49z" stroke="#F11F60" stroke-width=".5"/><path fill-rule="evenodd" clip-rule="evenodd" d="M39.067 49.703h.456c.263 0 .477.22.477.49v5.318c0 .27-.214.489-.477.489H1.477A.484.484 0 0 1 1 55.51v-5.317c0-.27.214-.49.477-.49h1.728v-5.698a.483.483 0 0 1-.467-.489c0-.27.214-.489.478-.489h.528v-7.123c-.798-.73-1.286-1.7-1.286-2.765 0-1.301 1.097-2.543 2.258-3.857.833-.942 1.691-1.917 2.165-2.926v-4.341c0-.27.214-.49.477-.49.264 0 .477.22.477.49v4.35c.427.994 1.308 1.986 2.161 2.946 1.163 1.308 2.262 2.543 2.262 3.828 0 1.065-.487 2.035-1.285 2.765v7.123h.528c.264 0 .478.22.478.49a.483.483 0 0 1-.466.488v5.698h2.537V35.147c0-.27.214-.49.477-.49h.67l.877-9.563h-.976a.483.483 0 0 1-.477-.49c0-.27.213-.489.477-.489h.194l3.438-10.103v-2.953a2.476 2.476 0 0 1-.622-1.64c0-.774.51-1.483 1.051-2.234.36-.5.729-1.015.934-1.537V1.49c0-.27.214-.49.477-.49s.477.22.477.49v4.164c.185.513.563 1.038.931 1.546.542.748 1.054 1.454 1.054 2.22 0 .701-.294 1.335-.762 1.786v2.806l3.439 10.103h.193c.264 0 .478.22.478.49s-.214.49-.478.49h-.976l.879 9.563h.669c.263 0 .476.219.476.49v14.555h2.109v-7.585h-.292a.472.472 0 0 1-.384-.199.497.497 0 0 1-.072-.435l1.08-3.592a.48.48 0 0 1 .456-.345H31V32.58a3.918 3.918 0 0 1-.844-2.432c0-1.22.849-2.4 1.748-3.65.648-.9 1.316-1.829 1.683-2.794v-4.098c0-.27.213-.49.476-.49.264 0 .478.22.478.49v4.105c.33.952 1.015 1.898 1.679 2.814.9 1.244 1.75 2.418 1.75 3.623a3.91 3.91 0 0 1-.862 2.457v4.94h1.154a.48.48 0 0 1 .456.346l1.08 3.592a.503.503 0 0 1-.071.435.473.473 0 0 1-.384.199h-.276v7.585zm-.372-8.564l-.786-2.613h-1.886v2.613h2.672zm-4.632-6.091a.484.484 0 0 0-.477.49v2.009h-1.633V33.45a3.872 3.872 0 0 0 4.2.012v4.084H34.54v-2.01c0-.27-.214-.49-.477-.49zm1.007 3.478h-2.013v2.613h2.013v-2.613zm3.042 3.592v7.585h-8.1v-7.585h8.1zm-4.049-9.022a2.954 2.954 0 0 0 2.955-2.947 1.8 1.8 0 0 0-.028-.294l-4.665 2.674a2.942 2.942 0 0 0 1.738.567zm-1.391-6.015c.487-.677.985-1.37 1.38-2.104.335.633.758 1.24 1.185 1.835l-3.873 2.33c.29-.644.788-1.34 1.308-2.061zm3.98 1.847c-.22-.423-.518-.867-.843-1.325l-4.686 2.819c.047.51.226.985.502 1.387l5.026-2.881zm-6.454 9.598h1.904v2.613h-2.69l.786-2.613zm-5.797-14.41h.297l-.762-2.242-.93 2.241H24.4zm-.434.978l.205 2.235a3.892 3.892 0 0 0-1.492.604 3.934 3.934 0 0 0-2.181-.666c-.773 0-1.535.234-2.18.666a3.9 3.9 0 0 0-1.493-.604l.205-2.235h6.936zm-3.467-4.12l-1.303 3.141h2.605l-1.302-3.14zm-2.477 7.945a.47.47 0 0 0 .593 0 2.998 2.998 0 0 1 1.885-.673 3 3 0 0 1 1.885.673.467.467 0 0 0 .591 0c.38-.308.818-.515 1.287-.611l.27 2.932c-.66.057-1.299.28-1.852.65a3.938 3.938 0 0 0-2.181-.665c-.774 0-1.535.234-2.18.665a3.92 3.92 0 0 0-1.852-.648l.27-2.934c.467.096.906.303 1.284.611zm2.54-22.085c-.197.322-.418.63-.636.933-.445.617-.864 1.2-.864 1.652 0 .826.676 1.499 1.507 1.499.831 0 1.508-.673 1.508-1.499 0-.441-.44-1.048-.865-1.635a14.347 14.347 0 0 1-.65-.95zm.752 5.063v1.676h-1.632v-1.676h1.632zm.128 2.655h-1.887L17.53 20.5l1.064 2.566 1.466-3.534a.478.478 0 0 1 .438-.298.48.48 0 0 1 .44.298l1.464 3.534 1.065-2.565-2.025-5.95zm-4.379 7.322l.93 2.241h-1.692l.762-2.241zm.96 11.002a2.987 2.987 0 0 0-1.645-.659l-.225 2.44h8.692l-.225-2.443c-.597.05-1.173.28-1.644.662a.467.467 0 0 1-.591 0 3.006 3.006 0 0 0-1.886-.672c-.68 0-1.35.238-1.885.672a.467.467 0 0 1-.592 0zm-3.02 2.76h10.992v4.696H24.12v-1.89c0-.27-.214-.49-.476-.49a.484.484 0 0 0-.478.49v1.89h-2.188v-1.89c0-.27-.213-.49-.477-.49a.483.483 0 0 0-.477.49v1.89h-2.188v-1.89c0-.27-.213-.49-.477-.49a.484.484 0 0 0-.477.49v1.89h-1.877v-4.695zm10.992 10.006v-4.33H15.004v4.33h1.877v-1.89c0-.27.214-.489.477-.489.264 0 .477.22.477.49v1.89h2.188v-1.89c0-.27.213-.49.477-.49s.477.22.477.49v1.89h2.188v-1.89c0-.27.214-.49.478-.49.262 0 .476.22.476.49v1.89h1.877zm0 .98v3.081H15.004v-3.082h10.992zM11.304 33.14c0-.906-.978-2.005-2.012-3.169l-.281-.317c.362 1.8.755 4.37.493 6.102 1.083-.557 1.8-1.521 1.8-2.616zM4.159 46.09v-2.083h6.4v2.083h-6.4zm6.4 3.613V47.07h-6.4v2.634h6.4zm-3.2-10.08a.483.483 0 0 0-.477.49v2.914H4.698V36.58c.767.417 1.68.66 2.66.66.98 0 1.894-.243 2.66-.66v6.448H7.837v-2.915c0-.27-.214-.49-.478-.49zm-.013-12.118a9.89 9.89 0 0 1-.297.447c-.195.76-1.483 6.026-.803 8.18a4.908 4.908 0 0 0 2.196.007c.681-2.14-.593-7.373-.797-8.175a8.765 8.765 0 0 1-.3-.459zM3.413 33.14c0-.924.977-2.03 2.01-3.2l.262-.297c-.363 1.795-.756 4.364-.498 6.1-1.068-.56-1.774-1.517-1.774-2.603zm33.745 21.88h1.887v-4.339H1.953v4.34H3.84V53.23c0-.27.214-.49.477-.49s.477.22.477.49v1.791h1.988v-1.79c0-.271.214-.49.477-.49s.477.219.477.49v1.79h1.989v-1.79c0-.271.213-.49.476-.49.264 0 .478.219.478.49v1.79h1.988v-1.79c0-.271.213-.49.477-.49.263 0 .476.219.476.49v1.79h1.988v-1.79c0-.271.214-.49.478-.49s.477.219.477.49v1.79h1.988v-1.79c0-.271.214-.49.477-.49s.477.219.477.49v1.79h1.988v-1.79c0-.271.214-.49.477-.49s.477.219.477.49v1.79h1.989v-1.79c0-.271.213-.49.476-.49.264 0 .478.219.478.49v1.79h1.988v-1.79c0-.271.214-.49.477-.49s.477.219.477.49v1.79h1.988v-1.79c0-.271.213-.49.477-.49s.477.219.477.49v1.79h1.989v-1.79c0-.271.213-.49.476-.49.264 0 .477.219.477.49v1.79h1.988v-1.79c0-.271.214-.49.478-.49.263 0 .476.219.476.49v1.79z" fill="#F11F60" stroke="#F11F60" stroke-width=".5"/></svg>