<svg width="1366" height="322" fill="none" xmlns="http://www.w3.org/2000/svg"><g opacity=".432" fill="#fff"><path d="M22.319 83.843c.603.583 1.557.59 2.168.016l10.237-9.62 9.208 9.565c.597.62 1.581.644 2.208.055l11.368-10.683a1.571 1.571 0 0 0-2.152-2.29l-10.237 9.62-9.208-9.565a1.571 1.571 0 0 0-2.208-.055l-10.276 9.657-9.963-9.641a1.571 1.571 0 0 0-2.208.022L.644 81.607a1.571 1.571 0 0 0 2.23 2.215l9.519-9.584 9.926 9.605zm1055.172 197.403c.603.584 1.558.59 2.169.016l10.236-9.62 9.209 9.565a1.57 1.57 0 0 0 2.207.055l11.368-10.683a1.571 1.571 0 0 0-2.152-2.29l-10.236 9.62-9.209-9.565a1.571 1.571 0 0 0-2.207-.055l-10.276 9.657-9.964-9.64a1.571 1.571 0 0 0-2.207.02l-10.613 10.684a1.571 1.571 0 0 0 2.23 2.215l9.52-9.584 9.925 9.605zm-153.003-86.688c.603.584 1.558.59 2.169.016l10.236-9.62 9.209 9.565a1.57 1.57 0 0 0 2.207.055l11.368-10.683a1.571 1.571 0 0 0-2.152-2.29l-10.236 9.62-9.209-9.565a1.571 1.571 0 0 0-2.207-.055l-10.276 9.658-9.964-9.642a1.571 1.571 0 0 0-2.207.022l-10.613 10.683a1.571 1.571 0 0 0 2.23 2.215l9.52-9.584 9.925 9.605zm430.11-100.175l5.916 5.467a5.97 5.97 0 0 1-.08 8.841l-3.256 2.904a9.112 9.112 0 0 0-.099 13.515l3.179 2.917a5.97 5.97 0 0 1-.223 8.992l-2.33 1.935a9.112 9.112 0 0 0-.277 13.781l5.7 5.133a1.571 1.571 0 1 0 2.102-2.335l-5.7-5.132a5.97 5.97 0 0 1 .18-9.03l2.332-1.935a9.112 9.112 0 0 0 .34-13.723l-3.178-2.918a5.971 5.971 0 0 1 .064-8.854l3.258-2.904a9.112 9.112 0 0 0 .12-13.494l-5.916-5.467a1.571 1.571 0 0 0-2.132 2.307zM567.834 221.987a1.571 1.571 0 0 0-.016 2.169l9.62 10.236-9.565 9.209a1.571 1.571 0 0 0-.055 2.207l10.683 11.368a1.571 1.571 0 0 0 2.29-2.152l-9.62-10.236 9.565-9.209a1.57 1.57 0 0 0 .055-2.207l-9.658-10.276 9.642-9.964a1.571 1.571 0 0 0-.022-2.207l-10.683-10.613a1.571 1.571 0 0 0-2.215 2.23l9.584 9.52-9.605 9.925z"/><path fill-rule="evenodd" clip-rule="evenodd" d="M879.178 311.493l-5.989-5.99a1.937 1.937 0 1 1 2.74-2.739l5.989 5.989 6.008-6.009a2.076 2.076 0 0 1 2.935 2.936l-6.008 6.008 6.106 6.106a1.937 1.937 0 1 1-2.74 2.74l-6.106-6.106-6.086 6.087a2.076 2.076 0 1 1-2.936-2.936l6.087-6.086zm387.005-256.546l-5.989-5.988a1.937 1.937 0 1 1 2.74-2.74l5.989 5.988 6.008-6.008a2.076 2.076 0 0 1 2.935 2.936l-6.008 6.008 6.106 6.106a1.937 1.937 0 1 1-2.74 2.74l-6.106-6.106-6.086 6.086a2.076 2.076 0 1 1-2.936-2.935l6.087-6.087zM58.463 306.317l27.022-27.022a1.57 1.57 0 1 1 2.222 2.222l-27.022 27.022a1.571 1.571 0 1 1-2.222-2.221zm17.579-5.01l10.37-10.683a1.571 1.571 0 0 1 2.254 2.188l-10.37 10.683a1.571 1.571 0 1 1-2.254-2.188zm1201.998 5.01l27.022-27.022a1.57 1.57 0 1 1 2.222 2.222l-27.022 27.022a1.571 1.571 0 1 1-2.222-2.221zm17.58-5.01l10.368-10.683a1.571 1.571 0 0 1 2.255 2.188l-10.37 10.683a1.571 1.571 0 1 1-2.254-2.188zM964.171 37.338l27.022-27.022a1.57 1.57 0 1 1 2.222 2.222L966.393 39.56a1.571 1.571 0 1 1-2.222-2.222zm17.58-5.01l10.368-10.684a1.571 1.571 0 0 1 2.255 2.189l-10.37 10.683a1.571 1.571 0 1 1-2.254-2.189zm-325.91 26.619a3.456 3.456 0 0 0 4.12-2.632l3.724-16.905a2.828 2.828 0 0 0-3.37-3.37l-16.905 3.724a3.456 3.456 0 0 0-1.7 5.82l12.431 12.432a3.46 3.46 0 0 0 1.7.931zm-11.91-16.03a.318.318 0 0 1 .155-.084l16.425-3.618-3.619 16.424a.314.314 0 0 1-.528.155L643.93 43.362a.315.315 0 0 1 0-.444zm68.232 172.749a3.457 3.457 0 0 0 1.052-4.773l-9.32-14.587a2.826 2.826 0 0 0-4.766 0l-9.32 14.587a3.456 3.456 0 0 0 2.912 5.317h17.581c.66 0 1.306-.189 1.861-.544zm-19.755-2.912c0-.06.017-.119.05-.17l9.054-14.172 9.056 14.173a.314.314 0 0 1-.265.483h-17.581a.314.314 0 0 1-.314-.314zm-534.492-61.551a3.457 3.457 0 0 0 1.052-4.773l-9.32-14.587a2.826 2.826 0 0 0-4.766 0l-9.32 14.587a3.456 3.456 0 0 0 2.912 5.317h17.581c.66 0 1.306-.189 1.861-.544zm-19.755-2.912c0-.06.017-.119.05-.17l9.054-14.172 9.056 14.173a.314.314 0 0 1-.265.483h-17.581a.314.314 0 0 1-.314-.314zm348.564-96.838v-8.999a2.601 2.601 0 0 1 5.202 0v9h9.03a2.755 2.755 0 1 1 0 5.51h-9.03v9.184a2.601 2.601 0 0 1-5.202 0v-9.184h-9.153a2.755 2.755 0 0 1 0-5.51h9.153zM150.985 7.83V2.147a1.642 1.642 0 1 1 3.285 0V7.83h5.702a1.74 1.74 0 0 1 0 3.48h-5.702v5.799a1.642 1.642 0 1 1-3.285 0v-5.8h-5.78a1.74 1.74 0 1 1 0-3.48h5.78z"/></g></svg>