<svg width="57" height="55" fill="none" xmlns="http://www.w3.org/2000/svg"><path d="M52.388 40.185a1.135 1.135 0 0 0-1.459-.673l-11.808 4.36a1.137 1.137 0 0 0 .786 2.133l11.809-4.36c.588-.218.889-.872.672-1.46zm-15.055 5.56a1.135 1.135 0 0 0-1.458-.673l-.5.185a1.137 1.137 0 0 0 .786 2.132l.5-.185c.588-.217.89-.87.672-1.46zm15.055-10.192a1.135 1.135 0 0 0-1.459-.672l-9.332 3.446a1.137 1.137 0 0 0 .786 2.133l9.332-3.447c.589-.217.89-.87.673-1.46zm0-4.583a1.135 1.135 0 0 0-1.459-.672l-9.332 3.446a1.137 1.137 0 0 0 .786 2.133l9.332-3.447c.589-.217.89-.87.673-1.46z" fill="#F11F60"/><path fill-rule="evenodd" clip-rule="evenodd" d="M28.893.07l27.364 10.106c.446.165.743.59.743 1.066v32.516c0 .476-.297.901-.743 1.066L28.893 54.93a1.148 1.148 0 0 1-.787 0L.742 44.824A1.136 1.136 0 0 1 0 43.758V11.242a1.137 1.137 0 0 1 .742-1.066L28.106.07c.254-.093.533-.093.787 0zM2.27 42.966l25.093 9.267V22.14l-5.45-2.013v12.931a1.137 1.137 0 0 1-1.53 1.067l-12.262-4.53a1.136 1.136 0 0 1-.742-1.066V14.76l-5.11-1.887v30.093zm17.373-23.677v12.14L9.65 27.737v-12.14l9.993 3.691zm1.134-8.648l-8.982 3.318 8.982 3.318 8.984-3.318-8.984-3.317zm7.722 9.496l-4.453-1.645 9.388-3.467a1.137 1.137 0 0 0 0-2.132l-12.263-4.53a1.136 1.136 0 0 0-.786 0l-11.882 4.39-4.088-1.51L28.5 2.347l24.084 8.895L28.5 20.137zm1.136 32.096l25.094-9.267V12.873l-25.094 9.268v30.092z" fill="#F11F60"/></svg>