<svg width="26" height="26" xmlns="http://www.w3.org/2000/svg"><g clip-rule="evenodd" fill="none"><path fill-rule="evenodd" d="M24.787 8.478l-.001-.016c-.339-3.728-2.95-6.33-6.125-6.33-2.137 0-4.102 1.15-5.21 3.006l-.434.727-.427-.73C11.49 3.25 9.61 2.131 7.517 2.131c-3.174 0-5.786 2.602-6.124 6.329l-.002.018-.003.017c-.019.115-.134.962.201 2.383.483 2.047 1.6 3.914 3.237 5.398l8.193 7.434 8.333-7.434.001-.001c1.637-1.484 2.753-3.35 3.236-5.397.335-1.42.22-2.268.201-2.384l-.003-.017z" fill="#fff"/><path d="M24.787 8.478l-.001-.016c-.339-3.728-2.95-6.33-6.125-6.33-2.137 0-4.102 1.15-5.21 3.006l-.434.727-.427-.73C11.49 3.25 9.61 2.131 7.517 2.131c-3.174 0-5.786 2.602-6.124 6.329l-.002.018-.003.017c-.019.115-.134.962.201 2.383.483 2.047 1.6 3.914 3.237 5.398l8.193 7.434 8.333-7.434.001-.001c1.637-1.484 2.753-3.35 3.236-5.397.335-1.42.22-2.268.201-2.384l-.003-.017z" stroke-miterlimit="8" stroke="#000"/></g></svg>