<svg xmlns="http://www.w3.org/2000/svg" viewBox="0 0 512 512"><path d="M462.964 462.936l-24.546-272.01C436.296 167.594 417.03 150 393.603 150H361v-45C361 47.103 313.897 0 256 0S151 47.103 151 105v45h-32.604c-23.427 0-42.693 17.594-44.816 40.936l-24.544 271.99C46.641 489.255 67.416 512 93.85 512h324.299c26.422 0 47.21-22.74 44.815-49.064zM346 240c8.271 0 15 6.729 15 15s-6.729 15-15 15-15-6.729-15-15 6.728-15 15-15zM181 105c0-41.355 33.645-75 75-75s75 33.645 75 75v45H181v-45zm-15 135c8.271 0 15 6.729 15 15s-6.729 15-15 15-15-6.729-15-15 6.728-15 15-15zm-62.542-46.358A14.928 14.928 0 0 1 118.396 180H151v32.58c-17.459 6.192-30 22.865-30 42.42 0 24.813 20.187 45 45 45s45-20.187 45-45c0-19.555-12.541-36.228-30-42.42V180h150v32.58c-17.459 6.192-30 22.865-30 42.42 0 24.813 20.187 45 45 45s45-20.187 45-45c0-19.555-12.541-36.228-30-42.42V180h32.604c7.809 0 14.231 5.865 14.938 13.632L429.148 422H82.851l20.607-228.358zM418.149 482H93.85c-8.815 0-15.74-7.537-14.937-16.368L80.144 452h351.712l1.231 13.642c.801 8.804-6.11 16.358-14.938 16.358z"/></svg>