<svg width="22" height="24" xmlns="http://www.w3.org/2000/svg"><path fill-rule="evenodd" clip-rule="evenodd" d="M21.118 23.12L19.385 6.972a.529.529 0 0 0-.52-.462h-3.207v-.982A5.03 5.03 0 0 0 10.632.5a5.03 5.03 0 0 0-5.027 5.027v.982H2.31a.529.529 0 0 0-.52.462L.058 23.121a.517.517 0 0 0 .115.404.466.466 0 0 0 .376.174h20.078a.466.466 0 0 0 .376-.174.517.517 0 0 0 .115-.404zm-5.98-13.693c.26 0 .463.202.463.462s-.203.462-.463.462a.456.456 0 0 1-.462-.462c0-.26.202-.462.462-.462zM10.632 1.54a3.995 3.995 0 0 0-3.987 3.987v.982h7.973v-.982a3.995 3.995 0 0 0-3.986-3.987zM6.125 9.427c.26 0 .462.202.462.462s-.202.462-.462.462a.456.456 0 0 1-.463-.462c0-.26.203-.462.463-.462zM2.773 7.52L1.156 22.63h18.951L18.49 7.52h-2.946v.954c.577.202.982.75.982 1.386a1.48 1.48 0 0 1-1.474 1.474 1.48 1.48 0 0 1-1.473-1.474c0-.635.405-1.184.982-1.386V7.52H6.587v.954c.578.202.982.75.982 1.386a1.48 1.48 0 0 1-1.473 1.474A1.48 1.48 0 0 1 4.622 9.86c0-.635.405-1.184.982-1.386V7.52h-2.83z" fill="#000"/></svg>