<svg xmlns="http://www.w3.org/2000/svg" xmlns:xlink="http://www.w3.org/1999/xlink" width="76" height="89"><defs><clipPath id="clip_0"><rect width="1440" height="4803" x="-972" y="-440" clip-rule="evenodd"/></clipPath></defs><g clip-path="url(#clip_0)"><path fill="#606060" fill-rule="evenodd" stroke="none" d="M56.9285 7.3023C56.8938 7.12521 56.7774 6.97496 56.6146 6.89712L42.3477 0.0490275C42.1601 -0.0342234 41.9422 -0.0102519 41.7771 0.111802C40.2134 1.34446 36.1788 1.40723 34.7578 1.32734L34.6722 1.32734C33.2455 1.40723 29.2165 1.32734 27.6472 0.111802C27.4821 -0.0102519 27.2642 -0.0342234 27.0765 0.0490275L12.8096 6.89712C12.6468 6.97496 12.5305 7.12521 12.4958 7.3023L0.00941662 73.9742C-0.0447653 74.2701 0.139995 74.5572 0.431716 74.6305L8.74644 76.7077C9.02669 76.7791 9.316 76.6295 9.41984 76.3596L12.2732 68.9408L13.2091 77.7235C13.2413 78.014 13.4876 78.2332 13.7798 78.2314L55.6102 78.2314C55.9024 78.2332 56.1488 78.014 56.1809 77.7235L57.1168 68.9408L59.9702 76.3596C60.0737 76.6268 60.3595 76.7758 60.6379 76.7077L68.9526 74.6305C69.2443 74.5572 69.4291 74.2701 69.3749 73.9742L56.9285 7.3023ZM34.7007 2.48581C34.7302 2.48581 34.7832 2.4871 34.8569 2.48891C35.7234 2.51014 39.4589 2.60168 41.7257 1.48142C41.6744 2.37167 41.3833 5.01389 39.6142 6.80011C38.4272 8.00994 36.7608 8.62056 34.7007 8.62056C31.7446 8.62056 29.6502 7.39361 28.4747 4.96253C27.9535 3.8503 27.6457 2.65013 27.5673 1.42435C29.9755 2.69696 34.3127 2.50863 34.7007 2.48581ZM57.3736 66.3956L60.8718 75.4808L68.1422 73.6546L55.8214 7.79879L42.8328 1.57843C42.7758 2.6513 42.4334 5.53892 40.4075 7.59905C39.0207 9.03144 37.0918 9.76191 34.7007 9.76191C32.5659 9.86135 30.484 9.07935 28.9426 7.59905C26.9167 5.56745 26.5172 2.72549 26.4373 1.62409L13.5572 7.79879L1.23066 73.6546L8.53529 75.4808L12.0164 66.3956L12.5871 29.2276C12.5871 28.9124 12.8426 28.6569 13.1578 28.6569C13.4729 28.6569 13.7284 28.9124 13.7284 29.2276L13.1578 66.4641L14.2991 77.0501L55.0909 77.0501L56.2323 66.4641L55.6616 29.2276C55.6616 28.9124 55.9171 28.6569 56.2323 28.6569C56.5474 28.6569 56.8029 28.9124 56.8029 29.2276L57.3736 66.3956Z" transform="translate(6.56299 9.38818)"/></g><defs><clipPath id="clip_1"><rect width="1440" height="4803" x="-972" y="-440" clip-rule="evenodd"/></clipPath></defs><g clip-path="url(#clip_1)"><path fill="#FFEE18" stroke="none" d="M43.0859 1.71202L0.856012 1.71202C0.383249 1.71202 0 1.32877 0 0.856012C0 0.383249 0.383249 0 0.856012 0L43.0859 0C43.5587 -1.01372e-15 43.9419 0.383249 43.9419 0.856012C43.9419 1.32877 43.5587 1.71202 43.0859 1.71202L43.0859 1.71202Z" transform="translate(19.2642 16.3309)"/></g><defs><clipPath id="clip_2"><rect width="1440" height="4803" x="-972" y="-440" clip-rule="evenodd"/></clipPath></defs><g clip-path="url(#clip_2)"><path fill="#13A3CC" stroke="none" d="M0.856012 78.7702C0.383249 78.7702 0 78.3869 0 77.9142L0 0.856012C0 0.383249 0.383249 6.33576e-17 0.856012 0C1.32877 -9.50364e-17 1.71202 0.383249 1.71202 0.856012L1.71202 77.8971C1.71662 78.127 1.62847 78.3492 1.46744 78.5135C1.3064 78.6777 1.08604 78.7702 0.856012 78.7702Z" transform="translate(33.2742 9.6825)"/></g><defs><clipPath id="clip_3"><rect width="1440" height="4803" x="-972" y="-440" clip-rule="evenodd"/></clipPath></defs><g clip-path="url(#clip_3)"><path fill="#F11F5F" stroke="none" d="M0.872304 68.6759C0.819181 68.6813 0.765638 68.6813 0.712515 68.6759C0.484755 68.6371 0.28232 68.508 0.151207 68.3178C0.0200947 68.1276 -0.0285623 67.8924 0.0162924 67.6658L12.6225 0.697144C12.7107 0.232261 13.1591 -0.0730607 13.624 0.0151882C14.0889 0.103437 14.3942 0.551839 14.306 1.01672L1.72832 67.9797C1.65273 68.3905 1.28992 68.6856 0.872304 68.6759Z" transform="translate(3.55444 14.7207)"/></g><defs><clipPath id="clip_4"><rect width="1440" height="4803" x="-972" y="-440" clip-rule="evenodd"/></clipPath></defs><g clip-path="url(#clip_4)"><text x="0" y="10.001" fill="#343434" stroke="none" font-family="Segoe UI" font-size="10" transform="translate(52.9939 1.07654)">Б</text></g><defs><clipPath id="clip_5"><rect width="1440" height="4803" x="-972" y="-440" clip-rule="evenodd"/></clipPath></defs><g clip-path="url(#clip_5)"><text x="0" y="10.001" fill="#343434" stroke="none" font-family="Segoe UI" font-size="10" transform="translate(37 42.0765)">В</text></g><defs><clipPath id="clip_6"><rect width="1440" height="4803" x="-972" y="-440" clip-rule="evenodd"/></clipPath></defs><g clip-path="url(#clip_6)"><text x="0" y="10.001" fill="#343434" stroke="none" font-family="Segoe UI" font-size="10" transform="translate(0 42.0765)">A</text></g></svg>