<svg width="16" height="13" viewBox="0 0 16 13" fill="none" xmlns="http://www.w3.org/2000/svg">
<path fill-rule="evenodd" clip-rule="evenodd" d="M13.1394 10.4134L9.48654 12.6487C8.43248 11.4856 7.90546 9.99538 7.90546 8.17803C7.90546 4.47064 9.45018 1.74466 12.5397 0L14.5569 1.96273C12.8486 3.12583 11.9945 4.87046 11.9945 7.19667C11.9945 8.57786 12.3761 9.65008 13.1394 10.4134ZM5.23394 10.4134L1.58109 12.6487C0.527024 11.4856 0 9.99538 0 8.17803C0 4.47064 1.54472 1.74466 4.63422 0L6.65147 1.96273C4.94316 3.12583 4.08902 4.87046 4.08902 7.19667C4.08902 8.57786 4.47065 9.65008 5.23394 10.4134Z" transform="translate(0.603088 0.300995)" fill="#CCCBCB"/>
</svg>
