<svg width="57" height="57" viewBox="0 0 57 57" fill="none" xmlns="http://www.w3.org/2000/svg">
<path fill-rule="evenodd" clip-rule="evenodd" d="M55 3.74633C55.0049 2.74203 54.6172 1.79916 53.9092 1.09124C53.2012 0.383296 52.2568 -0.00363635 51.2539 2.57584e-05C50.2529 0.00420667 49.3096 0.3977 48.5996 1.108C48.2988 1.40878 47.752 2.0585 47.4521 2.41912C47.1377 2.79779 47.1904 3.35961 47.5684 3.67382C47.9473 3.98815 48.5088 3.93615 48.8232 3.55749C49.292 2.99285 49.6797 2.54824 49.8594 2.36819C50.2354 1.99252 50.7334 1.78433 51.2617 1.78207H51.2695C51.792 1.78207 52.2822 1.98403 52.6494 2.35131C53.0186 2.72055 53.2207 3.21328 53.2178 3.73883C53.2158 4.26702 53.0078 4.76483 52.6318 5.14071C52.2959 5.47705 51.1396 6.39413 49.4834 7.5512C48.5039 5.87603 46.6865 4.74752 44.6094 4.74752H31.5615C29.7998 4.74752 28.1445 5.43344 26.8984 6.6788L0.817383 32.7607C0.290039 33.288 0 33.9892 0 34.7349C0 35.4807 0.290039 36.1819 0.817383 36.7092L18.292 54.1836C18.8359 54.7279 19.5508 55 20.2666 55C20.9814 55 21.6963 54.7278 22.2402 54.1836L48.3213 28.1019C49.5674 26.8564 50.2529 25.2006 50.2529 23.4391V10.3911C50.2529 10.0059 50.2139 9.62997 50.1396 9.26632C52.0254 7.96896 53.4092 6.88366 53.8926 6.4009C54.6025 5.69061 54.9961 4.74786 55 3.74633ZM48.4707 23.4383C48.4707 24.7236 47.9707 25.932 47.0615 26.8407L20.9805 52.9226C20.5869 53.3163 19.9463 53.3163 19.5518 52.9226L2.07812 35.4482C1.8877 35.2575 1.78223 35.0039 1.78223 34.7341C1.78223 34.4642 1.8877 34.2107 2.07812 34.02L28.1592 7.93835C29.0684 7.02954 30.2764 6.52905 31.5615 6.52905H44.6094C46.0752 6.52905 47.3516 7.34945 48.0059 8.55496C46.9531 9.25192 45.7754 9.99307 44.5244 10.7218C44.4854 10.6791 44.4463 10.6367 44.4043 10.5954C42.9453 9.13613 40.5713 9.13613 39.1113 10.5954C37.6523 12.0546 37.6523 14.4289 39.1113 15.8882C39.8418 16.6178 40.7998 16.9825 41.7578 16.9825C42.7168 16.9825 43.6748 16.6178 44.4043 15.8882C45.3789 14.9141 45.7012 13.5328 45.375 12.2876C46.4629 11.6546 47.5068 11.0076 48.4707 10.3816V10.3903V23.4383ZM41.7588 14.1329C41.4326 14.1329 41.1182 13.9533 40.9619 13.6421C40.7412 13.2025 40.918 12.6668 41.3574 12.4458C41.874 12.1862 42.3857 11.9177 42.8896 11.6436C42.5518 11.4041 42.1553 11.2823 41.7578 11.2823C41.2559 11.2823 40.7539 11.4733 40.3721 11.8555C39.6074 12.62 39.6074 13.8635 40.3721 14.6279C41.1367 15.3923 42.3799 15.3923 43.1445 14.6279C43.5322 14.2406 43.7217 13.7303 43.7168 13.2216C43.2012 13.5016 42.6807 13.7749 42.1592 14.0377C42.0303 14.1023 41.8936 14.1329 41.7588 14.1329Z" transform="translate(1 1.00049)" fill="#F11F60" stroke="#F11F60" stroke-width="0.7"/>
<path d="M0.89107 0C0.398967 0 0 0.398867 0 0.891085V19.7096C0 20.2017 0.398967 20.6007 0.89107 20.6007C1.38317 20.6007 1.78214 20.2017 1.78214 19.7096V0.891085C1.78214 0.398867 1.38317 0 0.89107 0Z" transform="translate(26.6592 19.1496)" fill="#F11F60"/>
<path d="M0.89107 0C0.398967 0 0 0.398867 0 0.891085V19.7096C0 20.2017 0.398967 20.6007 0.89107 20.6007C1.38317 20.6007 1.78214 20.2017 1.78214 19.7096V0.891085C1.78214 0.398867 1.38317 0 0.89107 0Z" transform="translate(26.6592 19.1496)" stroke="#F11F60" stroke-width="0.7"/>
<path fill-rule="evenodd" clip-rule="evenodd" d="M1.09497 1.09445C2.55396 -0.364777 4.92798 -0.364899 6.38696 1.09457C7.09399 1.80133 7.48364 2.74118 7.48364 3.74088C7.48364 4.74057 7.09399 5.6803 6.38696 6.38727C5.65747 7.11667 4.69946 7.4816 3.74146 7.4816C2.78247 7.48169 1.82446 7.117 1.09497 6.38727C-0.36499 4.92801 -0.36499 2.55371 1.09497 1.09445ZM2.35474 2.35452C1.59009 3.11896 1.59009 4.36249 2.35474 5.12692C3.11938 5.89127 4.36255 5.89136 5.1272 5.12692C5.49731 4.75665 5.70142 4.26443 5.70142 3.74072C5.70142 3.21704 5.49731 2.72482 5.1272 2.35452C4.74536 1.97232 4.24243 1.78131 3.74048 1.78131C3.23853 1.78131 2.73657 1.97232 2.35474 2.35452Z" transform="translate(17.0879 25.7091)" fill="#F11F60" stroke="#F11F60" stroke-width="0.7"/>
<path fill-rule="evenodd" clip-rule="evenodd" d="M1.09497 1.09448C2.55396 -0.36478 4.92798 -0.364872 6.38696 1.09448C7.84595 2.55374 7.84595 4.92801 6.38696 6.38726C5.65747 7.11691 4.69946 7.48159 3.74146 7.48159C2.78247 7.48159 1.82446 7.11691 1.09497 6.38726C-0.36499 4.92801 -0.36499 2.55374 1.09497 1.09448ZM2.35474 2.35458C1.59009 3.11901 1.59009 4.36255 2.35474 5.12698C3.11938 5.89132 4.36255 5.89141 5.1272 5.12698C5.89185 4.36255 5.89185 3.11901 5.1272 2.35458C4.74536 1.97238 4.24243 1.78137 3.74048 1.78137C3.23853 1.78137 2.73657 1.97238 2.35474 2.35458Z" transform="translate(30.5312 25.7091)" fill="#F11F60" stroke="#F11F60" stroke-width="0.7"/>
</svg>
