<svg width="1440" height="599" viewBox="0 0 1440 599" fill="none" xmlns="http://www.w3.org/2000/svg">
<g opacity="0.588372">
<path d="M22.1313 13.3834C22.734 13.9666 23.6886 13.9736 24.2997 13.3992L34.5363 3.77896L43.7448 13.344C44.3414 13.9637 45.3256 13.9883 45.9525 13.3992L57.3202 2.71592C57.9525 2.12171 57.9833 1.12744 57.3891 0.495159C56.7949 -0.13712 55.8006 -0.167981 55.1684 0.426231L44.9318 10.0465L35.7233 0.481454C35.1267 -0.138311 34.1425 -0.162928 33.5156 0.426231L23.2397 10.0835L13.276 0.442055C12.6583 -0.155736 11.6748 -0.146019 11.0689 0.46386L0.456468 11.1471C-0.155029 11.7627 -0.151722 12.7574 0.463855 13.3689C1.07943 13.9804 2.07417 13.9771 2.68567 13.3616L12.2053 3.77837L22.1313 13.3834Z" transform="translate(1400.82 41.0055) scale(-1 1)" fill="#FFEE19"/>
</g>
<g opacity="0.504925">
<path d="M22.1313 13.3834C22.734 13.9666 23.6886 13.9736 24.2997 13.3992L34.5363 3.77896L43.7448 13.344C44.3414 13.9637 45.3256 13.9883 45.9525 13.3992L57.3202 2.71592C57.9525 2.12171 57.9833 1.12744 57.3891 0.495159C56.7949 -0.13712 55.8006 -0.167981 55.1684 0.426231L44.9318 10.0465L35.7233 0.481454C35.1267 -0.138311 34.1425 -0.162928 33.5156 0.426231L23.2397 10.0835L13.276 0.442055C12.6583 -0.155736 11.6748 -0.146019 11.0689 0.46386L0.456468 11.1471C-0.155029 11.7627 -0.151722 12.7574 0.463855 13.3689C1.07943 13.9804 2.07417 13.9771 2.68567 13.3616L12.2053 3.77837L22.1313 13.3834Z" transform="translate(532 416.906) scale(-1 1)" fill="#F11F60"/>
</g>
<g opacity="0.151268">
<path d="M22.1313 13.3834C22.734 13.9666 23.6886 13.9736 24.2997 13.3992L34.5363 3.77896L43.7448 13.344C44.3414 13.9637 45.3256 13.9883 45.9525 13.3992L57.3202 2.71592C57.9525 2.12171 57.9833 1.12744 57.3891 0.495159C56.7949 -0.13712 55.8006 -0.167981 55.1684 0.426231L44.9318 10.0465L35.7233 0.481454C35.1267 -0.138311 34.1425 -0.162928 33.5156 0.426231L23.2397 10.0835L13.276 0.442055C12.6583 -0.155736 11.6748 -0.146019 11.0689 0.46386L0.456468 11.1471C-0.155029 11.7627 -0.151722 12.7574 0.463855 13.3689C1.07943 13.9804 2.07417 13.9771 2.68567 13.3616L12.2053 3.77837L22.1313 13.3834Z" transform="translate(432.605 74.3153) scale(1 -1) rotate(-90)" fill="#F11F60"/>
</g>
<path fill-rule="evenodd" clip-rule="evenodd" d="M10.4066 14.4475H1.93741C0.867406 14.4475 0 13.5801 0 12.5101C0 11.4401 0.867406 10.5727 1.93741 10.5727H10.4066V2.07579C10.4066 0.929364 11.336 0 12.4824 0C13.6289 0 14.5582 0.929364 14.5582 2.07579V10.5727H23.1935C24.2635 10.5727 25.1309 11.4401 25.1309 12.5101C25.1309 13.5801 24.2635 14.4475 23.1935 14.4475H14.5582V23.0551C14.5582 24.2016 13.6289 25.1309 12.4824 25.1309C11.336 25.1309 10.4066 24.2016 10.4066 23.0551V14.4475Z" transform="translate(87.1078 85.5697) scale(-1 1) rotate(45)" fill="#FFEE19"/>
<path fill-rule="evenodd" clip-rule="evenodd" d="M0.460144 27.4825L27.4825 0.460144C28.0961 -0.153381 29.0908 -0.153381 29.7044 0.460144C30.3179 1.0737 30.3179 2.06845 29.7044 2.68198L2.68198 29.7044C2.06845 30.3179 1.0737 30.3179 0.460144 29.7044C-0.153381 29.0908 -0.153381 28.0961 0.460144 27.4825ZM18.0397 22.4718L28.4087 11.7886C29.0131 11.1659 30.0077 11.1511 30.6303 11.7554C31.2529 12.3597 31.2678 13.3544 30.6635 13.977L20.2944 24.6602C19.6901 25.2829 18.6955 25.2977 18.0728 24.6934C17.4502 24.0891 17.4354 23.0945 18.0397 22.4718Z" transform="translate(1338.11 332.136) scale(-1 1)" fill="#BDE3EE"/>
<path fill-rule="evenodd" clip-rule="evenodd" d="M10.4066 14.4475H1.93741C0.867406 14.4475 0 13.5801 0 12.5101C0 11.4401 0.867406 10.5727 1.93741 10.5727H10.4066V2.07579C10.4066 0.929364 11.336 0 12.4824 0C13.6289 0 14.5582 0.929364 14.5582 2.07579V10.5727H23.1935C24.2635 10.5727 25.1309 11.4401 25.1309 12.5101C25.1309 13.5801 24.2635 14.4475 23.1935 14.4475H14.5582V23.0551C14.5582 24.2016 13.6289 25.1309 12.4824 25.1309C11.336 25.1309 10.4066 24.2016 10.4066 23.0551V14.4475Z" transform="translate(1389.89 470.555) rotate(45)" fill="#F4799F"/>
<g opacity="0.357507">
<path fill-rule="evenodd" clip-rule="evenodd" d="M22.8986 20.6663C24.5071 19.6384 24.978 17.5013 23.9502 15.8927L14.63 1.30567C14.409 0.959842 14.1154 0.666236 13.7696 0.445222C12.4534 -0.395676 10.7048 -0.0104443 9.86398 1.30567L0.543752 15.8927C0.188688 16.4484 0 17.0942 0 17.7536C0 19.6625 1.54749 21.21 3.45638 21.21L21.0376 21.2101C21.6971 21.21 22.3428 21.0213 22.8986 20.6663ZM3.14215 17.7537C3.14215 17.6938 3.15928 17.635 3.19156 17.5845L12.247 3.41189L21.3024 17.5845C21.3958 17.7308 21.353 17.9251 21.2068 18.0185C21.1563 18.0508 21.0975 18.0679 21.0376 18.0679H3.45638C3.2828 18.0679 3.14215 17.9273 3.14215 17.7537Z" transform="translate(332.833 20.2126) scale(-1 1) rotate(45)" fill="#4FBAD9"/>
</g>
<g opacity="0.691463">
<path fill-rule="evenodd" clip-rule="evenodd" d="M22.8986 20.6663C24.5071 19.6385 24.978 17.5013 23.9502 15.8927L14.63 1.30568C14.4091 0.959824 14.1154 0.666214 13.7696 0.445251C12.4535 -0.39566 10.7048 -0.010437 9.86395 1.30568L0.543762 15.8927C0.18866 16.4484 0 17.0942 0 17.7537C0 19.6626 1.54749 21.21 3.45636 21.21H21.0376C21.6971 21.21 22.3428 21.0213 22.8986 20.6663ZM3.14215 17.7537C3.14215 17.6937 3.1593 17.635 3.19159 17.5845L12.247 3.41187L21.3024 17.5845C21.3958 17.7307 21.353 17.925 21.2068 18.0184C21.1562 18.0507 21.0975 18.0679 21.0376 18.0679H3.45636C3.28284 18.0679 3.14215 17.9272 3.14215 17.7537Z" transform="translate(206.874 506.647) scale(-1 1)" fill="#4FBAD9"/>
</g>
<g opacity="0.400815">
<path fill-rule="evenodd" clip-rule="evenodd" d="M11.5998 16.9872H2.60111C1.16456 16.9872 0 15.8226 0 14.386C0 12.9495 1.16456 11.7849 2.60111 11.7849H11.5998V2.75536C11.5998 1.23362 12.8334 0 14.3552 0C15.8769 0 17.1106 1.23362 17.1106 2.75536V11.7849H26.2944C27.7309 11.7849 28.8955 12.9495 28.8955 14.386C28.8955 15.8226 27.7309 16.9872 26.2944 16.9872H17.1106V26.1401C17.1106 27.6619 15.8769 28.8955 14.3552 28.8955C12.8334 28.8955 11.5998 27.6619 11.5998 26.1401V16.9872Z" transform="translate(956.646 78.8825) scale(1 -1) rotate(-90)" fill="#098DB2"/>
</g>
<g opacity="0.400815">
<path fill-rule="evenodd" clip-rule="evenodd" d="M11.5998 16.9872H2.60111C1.16456 16.9872 0 15.8226 0 14.386C0 12.9495 1.16456 11.7849 2.60111 11.7849H11.5998V2.75536C11.5998 1.23362 12.8334 0 14.3552 0C15.8769 0 17.1106 1.23362 17.1106 2.75536V11.7849H26.2944C27.7309 11.7849 28.8955 12.9495 28.8955 14.386C28.8955 15.8226 27.7309 16.9872 26.2944 16.9872H17.1106V26.1401C17.1106 27.6619 15.8769 28.8955 14.3552 28.8955C12.8334 28.8955 11.5998 27.6619 11.5998 26.1401V16.9872Z" transform="translate(27.0241 317.718) scale(1 -1) rotate(-90)" fill="#098DB2"/>
</g>
</svg>
