<svg width="24" height="25" xmlns="http://www.w3.org/2000/svg"><path fill-rule="evenodd" clip-rule="evenodd" d="M18.937 13.647h4.108a.32.32 0 0 1 .32.32v5.628a.32.32 0 0 1-.32.32h-4.108v2.127a.32.32 0 0 1-.32.32h-.178v1.36a.32.32 0 0 1-.32.32H5.156a.32.32 0 0 1-.32-.32v-1.354h-.102a.32.32 0 0 1-.32-.32v-2.14H.32a.32.32 0 0 1-.319-.32V13.96a.32.32 0 0 1 .32-.32h4.088v-2.312L1.054 9.456a.306.306 0 0 1-.16-.275V7.418a.363.363 0 0 1 0-.115L3.01 2.127a.351.351 0 0 1 .186-.172L6.562.639h1.744c.135.01.248.105.28.236l.006.016c.071.239.938 3.14 3.074 3.14 2.217 0 3.073-3.156 3.073-3.156a.307.307 0 0 1 .307-.236h1.604a.37.37 0 0 1 .115 0l3.38 1.322a.352.352 0 0 1 .185.173l2.121 5.175a.383.383 0 0 1 0 .115v1.763a.307.307 0 0 1-.16.275l-3.354 1.872v2.313zm1.208-10.242L18.912 6.39l.019 2.249 2.798-1.4-1.584-3.833zm1.667 5.578l-2.875 1.61V9.379l2.875-1.438v1.042zm-6.53-7.705c-.261.837-1.284 3.392-3.616 3.392s-3.36-2.58-3.648-3.392h-.99c.096.67.645 4.287 4.632 4.287 3.987 0 4.473-3.648 4.524-4.287h-.901zM4.397 8.67l-2.799-1.4 1.597-3.852 1.22 2.971-.018 2.28zm-.007.709L1.514 7.941v1.055l2.875 1.61V9.379zm.64 1.757V6.344a.276.276 0 0 0 0-.121L3.526 2.556l.032-.084 2.868-1.098c.115.888.87 4.804 5.233 4.804 4.364 0 5.067-4.006 5.156-4.843l2.952 1.137.038.084-1.501 3.641a.277.277 0 0 0 0 .122v7.315H5.028v-2.498zm.446 12.26h12.331l-.006-1.034H5.475v1.035zm12.823-1.673H5.054v-1.808h13.244v1.808zm-17.66-2.46h22.088v-4.977H20.08v1.118a.326.326 0 0 1-.32.32.32.32 0 0 1-.32-.32v-1.118h-1.386v2.083a.32.32 0 1 1-.639 0v-2.083H16.03v1.118a.32.32 0 0 1-.32.32.325.325 0 0 1-.319-.32v-1.118h-1.38v1.118a.326.326 0 0 1-.32.32.32.32 0 0 1-.319-.32v-1.118h-1.386v2.083a.32.32 0 1 1-.64 0v-2.083H9.96v1.118a.32.32 0 0 1-.319.32.326.326 0 0 1-.32-.32v-1.118h-1.38v1.118a.326.326 0 0 1-.319.32.32.32 0 0 1-.32-.32v-1.118H5.905v2.083a.32.32 0 0 1-.64 0v-2.083H3.866v1.118a.326.326 0 0 1-.32.32.32.32 0 0 1-.318-.32v-1.118H.639v4.977z" fill="#14A3CC"/></svg>