<svg width="30" height="30" xmlns="http://www.w3.org/2000/svg"><g fill="none"><path fill="#fff" d="M0 0h30v30H0z"/><path fill="#fff" d="M0 0h30v30H0z"/><g fill-rule="evenodd" clip-rule="evenodd" fill="#999"><path d="M28.069 28.99L25.924 9.006a.655.655 0 0 0-.644-.572h-3.968V7.22A6.224 6.224 0 0 0 15.092 1a6.224 6.224 0 0 0-6.22 6.22v1.215H4.799a.655.655 0 0 0-.644.572L2.01 28.99c-.035.178.036.357.143.5a.576.576 0 0 0 .465.214h24.844a.576.576 0 0 0 .464-.214c.108-.143.18-.322.143-.5zm-7.4-16.944c.322 0 .572.25.572.572 0 .321-.25.572-.572.572a.565.565 0 0 1-.572-.572c0-.322.25-.572.572-.572zm-5.577-9.76A4.943 4.943 0 0 0 10.16 7.22v1.215h9.866V7.22a4.943 4.943 0 0 0-4.933-4.933zm-5.576 9.76c.322 0 .572.25.572.572 0 .321-.25.572-.572.572a.565.565 0 0 1-.572-.572c0-.322.25-.572.572-.572zM5.37 9.686L3.368 28.382h23.45L24.815 9.686H21.17v1.18c.714.25 1.215.93 1.215 1.716 0 1-.822 1.823-1.823 1.823a1.83 1.83 0 0 1-1.823-1.823c0-.787.5-1.466 1.215-1.716v-1.18h-9.866v1.18c.715.25 1.215.93 1.215 1.716 0 1-.822 1.823-1.823 1.823a1.83 1.83 0 0 1-1.823-1.823c0-.787.5-1.466 1.216-1.716v-1.18H5.37z"/><path d="M14.736 20.647h-3.384v-1.26h3.384v-3.438h1.35v3.438h3.438v1.26h-3.438v3.474h-1.35v-3.474z"/></g></g></svg>