<svg xmlns="http://www.w3.org/2000/svg" viewBox="0 0 26 26" width="50" height="50"><path d="M21.27 0H5.465C2.66 0 0 2.2 0 5v15.813C0 23.613 2.66 26 5.465 26h15.808C24.074 26 26 23.613 26 20.812V5c0-2.8-1.926-5-4.73-5zm-.957 15.008c1.421 1.32 1.718 1.965 1.765 2.043.59.98-.652 1.054-.652 1.054l-2.375.036s-.512.101-1.184-.364c-.89-.605-1.726-2.191-2.383-1.988-.66.211-.64 1.64-.64 1.64s.004.25-.145.415c-.164.172-.484.156-.484.156h-1.067s-2.347.195-4.414-1.957C6.48 13.695 4.492 9.066 4.492 9.066s-.113-.293.008-.441c.14-.164.523-.172.523-.172l2.543-.012s.239.043.41.168c.141.102.223.297.223.297s.41 1.043.953 1.98c1.063 1.837 1.559 2.239 1.918 2.044.528-.29.367-2.594.367-2.594s.012-.84-.265-1.215c-.211-.285-.61-.371-.79-.394-.144-.02.095-.352.4-.5.456-.223 1.265-.239 2.218-.227.742.008.957.055 1.246.125.879.21.582 1.027.582 2.988 0 .63-.113 1.512.34 1.805.195.125.672.02 1.86-2.004.566-.96.988-2.086.988-2.086s.093-.203.238-.289c.148-.086.348-.059.348-.059l2.675-.02s.801-.093.934.27c.137.38-.3 1.27-1.395 2.727-1.796 2.39-1.996 2.168-.503 3.55z" fill-rule="evenodd" fill="#f11f60"/></svg>