<svg width="24" height="25" xmlns="http://www.w3.org/2000/svg"><g fill="none"><g transform="translate(0 .081)"><mask id="a" fill="#fff"><path fill-rule="evenodd" clip-rule="evenodd" d="M0 12C0 5.373 5.373 0 12 0s12 5.373 12 12-5.373 12-12 12S0 18.627 0 12z"/></mask><path fill-rule="evenodd" clip-rule="evenodd" d="M0 12C0 5.373 5.373 0 12 0s12 5.373 12 12-5.373 12-12 12S0 18.627 0 12z" fill="#fff"/><g mask="url(#a)"><path d="M12 23C5.925 23 1 18.075 1 12h-2c0 7.18 5.82 13 13 13v-2zm11-11c0 6.075-4.925 11-11 11v2c7.18 0 13-5.82 13-13h-2zM12 1c6.075 0 11 4.925 11 11h2c0-7.18-5.82-13-13-13v2zm0-2C4.82-1-1 4.82-1 12h2C1 5.925 5.925 1 12 1v-2z" fill="#F11F60"/></g></g><path fill-rule="evenodd" clip-rule="evenodd" d="M2.323 12.024c0-5.344 4.333-9.677 9.677-9.677 5.344 0 9.677 4.333 9.677 9.677A9.676 9.676 0 0 1 12 21.7c-5.344 0-9.677-4.332-9.677-9.676z" fill="#F11F60"/><path d="M8.274 12.593h7.913" stroke-width="2" stroke-linecap="round" stroke-linejoin="round" stroke="#fff"/></g></svg>