<?xml version="1.0" encoding="utf-8" ?>
<svg xmlns="http://www.w3.org/2000/svg" xmlns:xlink="http://www.w3.org/1999/xlink" width="47" height="50">
	<defs>
		<clipPath id="clip_0">
			<rect x="-355" y="-779" width="1440" height="4080" clip-rule="evenodd"/>
		</clipPath>
	</defs>
	<g clip-path="url(#clip_0)">
		<path fill="rgb(0,0,0)" stroke="none" transform="translate(20.8677 2.66687)" d="M0.775366 1.55073L4.77544 1.55073C5.20379 1.55073 5.55081 1.20352 5.55081 0.775366C5.55081 0.347111 5.20379 0 4.77544 0L0.775366 0C0.347015 0 0 0.347207 0 0.775366C-2.72603e-15 1.20352 0.347015 1.55073 0.775366 1.55073Z"/>
	</g>
	<defs>
		<clipPath id="clip_1">
			<rect x="-355" y="-779" width="1440" height="4080" clip-rule="evenodd"/>
		</clipPath>
	</defs>
	<g clip-path="url(#clip_1)">
		<path fill="rgb(0,0,0)" stroke="none" transform="translate(0.505493 0)" d="M43.5293 7.48961L46.1973 18.482C46.2884 18.8575 46.0891 19.2428 45.7303 19.3853L38.1081 22.4133L38.1081 27.8322C38.1081 28.2606 37.761 28.6076 37.3327 28.6076C36.9044 28.6076 36.5573 28.2606 36.5573 27.8322L36.5573 12.5536C36.5573 12.4122 36.596 12.2734 36.6692 12.1523L40.5795 5.68547C40.3269 5.48261 40.0344 5.29951 39.6961 5.15574C38.1352 4.4924 33.5074 2.72577 31.3766 1.91626C30.8615 6.47992 27.3108 10.1436 23.1654 10.1436C19.0076 10.1436 15.4486 6.45825 14.9499 1.87578C12.8713 2.66515 8.11108 4.48118 6.52361 5.15584C6.18533 5.29961 5.89269 5.48271 5.64025 5.68557L9.55065 12.1525C9.62383 12.2736 9.66248 12.4123 9.66248 12.5537L9.66248 44.4047L14.9161 44.4047C15.3444 44.4047 15.6914 44.7518 15.6914 45.1801C15.6914 45.6083 15.3444 45.9555 14.9161 45.9555L9.66248 45.9555L9.66248 47.5569L36.557 47.5569L36.557 45.9555L17.5006 45.9555C17.0723 45.9555 16.7253 45.6084 16.7253 45.1801C16.7253 44.7518 17.0723 44.4047 17.5006 44.4047L36.5569 44.4047L36.5569 30.4169C36.5569 29.9887 36.904 29.6415 37.3323 29.6415C37.7607 29.6415 38.1077 29.9886 38.1077 30.4169L38.1077 48.3324C38.1077 48.7607 37.7607 49.1078 37.3323 49.1078L8.88692 49.1078C8.45867 49.1078 8.11156 48.7607 8.11156 48.3324L8.11156 22.4136L0.489304 19.3856C0.130107 19.2429 -0.0692012 18.8576 0.0220127 18.4821L0.794117 15.3012L0.794117 15.3011L2.69014 7.48941C2.69062 7.4875 2.69158 7.48347 2.69292 7.47838C2.69397 7.47464 2.69503 7.47052 2.69637 7.46524L2.69647 7.46496C2.76984 7.18393 3.46387 4.77113 5.91677 3.72855C7.98888 2.84787 15.0896 0.16382 15.3907 0.049971C15.3972 0.0475731 15.4037 0.0459426 15.4101 0.0436407C15.4228 0.0393246 15.4352 0.0350085 15.4481 0.0312678C15.4591 0.0281986 15.4702 0.025513 15.4813 0.0228274C15.4936 0.0198541 15.506 0.016689 15.5186 0.0142911C15.5321 0.0117015 15.5456 0.0098791 15.5592 0.00805674C15.5697 0.00661804 15.5802 0.00479568 15.5908 0.00374063C15.6156 0.00134279 15.6402 0 15.665 0L30.6655 0C30.8504 0 31.0199 0.0649335 31.1532 0.172836C32.6155 0.726546 38.4558 2.94378 40.3026 3.72855C42.8539 4.81285 43.5028 7.38084 43.5293 7.48961ZM16.4729 1.55073C16.8314 5.79548 20.1006 8.5928 23.1653 8.5928C26.23 8.5928 29.4991 5.79558 29.8579 1.55073L16.4729 1.55073ZM38.1079 12.7698L41.6305 6.94415C41.817 7.27533 41.9269 7.56097 41.9806 7.72018L41.9811 7.72162C41.9861 7.73668 41.9905 7.75039 41.9947 7.76306C41.9954 7.76545 41.9962 7.76795 41.997 7.77025C42.0001 7.78032 42.003 7.78934 42.0055 7.79768C42.0066 7.80085 42.0076 7.80439 42.0085 7.80737C42.0106 7.81418 42.0123 7.82022 42.0139 7.82559C42.0146 7.82808 42.0154 7.83106 42.0161 7.83326C42.0173 7.83758 42.0183 7.84094 42.019 7.84401C42.0195 7.84583 42.0203 7.84832 42.0207 7.84976L42.0221 7.85532L43.7623 15.0247L38.1078 17.3961L38.1078 12.7698L38.1079 12.7698ZM8.11175 12.7698L8.11175 17.396L2.45726 15.0246L4.19656 7.85878C4.19876 7.85005 4.30436 7.45019 4.58923 6.94434L8.11175 12.7698ZM8.11165 20.7447L8.11165 19.0777L2.08674 16.5509L1.68813 18.1929L8.11165 20.7447ZM8.11165 20.7447L8.11175 20.7448L8.11165 20.7448L8.11165 20.7447ZM38.1079 19.0777L38.1079 20.7448L44.5313 18.193L44.1328 16.5509L38.1079 19.0777Z" fill-rule="evenodd"/>
	</g>
</svg>
