<svg width="133" height="36" xmlns="http://www.w3.org/2000/svg"><path fill-rule="evenodd" clip-rule="evenodd" d="M35.171 15.152v9.417c0 6.076-4.95 11.026-11.026 11.026H11.187C5.07 35.595.121 30.645.121 24.569v-9.417h7.726v9.417a5.204 5.204 0 0 0 5.191 5.19h9.216a5.204 5.204 0 0 0 5.19-5.19v-9.417h7.727zm-20.04-2.938h5.07c.805 0 1.49.644 1.49 1.49v8.732c0 .805-.645 1.489-1.49 1.489h-5.07a1.486 1.486 0 0 1-1.49-1.49v-8.732c0-.804.685-1.489 1.49-1.489zM27.485 1.067c3.743 1.208 6.64 4.346 7.485 8.25h-7.485v-8.25zM11.187.544H21.69V6.38h-8.652c-2.052 0-3.823 1.207-4.668 2.938H.362C1.408 4.327 5.875.544 11.187.544zM126.6 11.973c3.743 0 5.795 1.247 5.795 5.956 0 4.789-2.012 6.197-5.795 6.197-3.782 0-5.794-1.409-5.794-6.197 0-4.709 2.012-5.956 5.795-5.956zm-39.557.282v11.63h5.272c3.742 0 5.593-1.369 5.593-5.916 0-4.547-1.81-5.755-5.593-5.755h-5.272v.04zm18.712 8.813c-1.77 0-2.374-.162-2.535-1.771v-.04h4.789V16.52h-4.749c.202-1.368.845-1.489 2.495-1.489h3.461v-2.817h-3.863c-3.783 0-5.594 1.208-5.594 5.755s1.851 5.916 5.594 5.916h3.863v-2.817h-3.46zm5.473-8.813v5.754c0 4.507 1.811 5.875 5.594 5.875h2.575v-2.816h-2.173c-2.133 0-2.575-.282-2.575-3.018v-5.795h-3.42zm-19.276 8.813c2.133 0 2.576-.282 2.576-3.019 0-2.776-.483-2.977-2.576-2.977h-1.65v5.996h1.65zm37.023-3.14c0 2.979-.242 3.26-2.374 3.26-2.173 0-2.415-.281-2.375-3.26 0-2.776.202-3.017 2.375-3.017 2.132 0 2.374.241 2.374 3.018zm-61.973 1.369c.162 1.61.765 1.77 2.536 1.77h3.46v2.818h-3.863c-3.742 0-5.593-1.369-5.593-5.916 0-4.547 1.81-5.755 5.593-5.755H73v2.817h-3.461c-1.65 0-2.294.121-2.495 1.49h4.748v2.736h-4.788v.04zm-14.688 4.588c-3.742 0-5.593-1.369-5.593-5.916v-5.714h3.42v5.795c0 2.696.443 3.018 2.495 3.018v-8.813h3.18v8.813c2.092 0 2.535-.322 2.535-3.018v-5.795h3.42v5.754c0 4.548-1.81 5.916-5.593 5.916-1.248-.04-2.536-.04-3.864-.04zm28.612-8.934H78.19v1.65h2.736c.282 0 .483-.08.483-.805 0-.684-.201-.845-.483-.845zm-2.736 6.197v-1.972h2.736c.403 0 .684.201.684 1.006 0 .765-.241.966-.603.966H78.19zm6.68-6.076c0 1.65-.443 2.575-2.535 2.736 2.213.12 2.696 1.087 2.736 2.978 0 2.374-1.247 3.099-3.139 3.099h-6.921v-11.63h6.921c2.334 0 2.938.845 2.938 2.817zm4.105 12.958c.563 0 1.126.08 1.448.2l-.281.966-.16-.024a6.444 6.444 0 0 0-1.048-.096c-.603 0-.684.12-.684.281 0 .242.08.282.805.362.966.121 1.408.524 1.408 1.328 0 1.127-.523 1.45-1.931 1.45-.564 0-1.087-.081-1.449-.202l.242-1.006.141.021h.004c.277.043.655.1 1.062.1.603 0 .684-.08.684-.282 0-.201-.08-.282-.885-.362-.886-.121-1.288-.403-1.288-1.207 0-1.087.563-1.53 1.932-1.53zm6.116 1.126v3.26h-1.167v-3.26h-1.408V28.11H96.5v1.046h-1.41zm6.198-1.006h1.167v3.18c0 .925-.765 1.206-1.852 1.206-1.126 0-1.85-.241-1.85-1.207v-3.18h1.166v2.898c0 .242.161.362.684.362.524 0 .685-.12.685-.362V28.15zm3.662 4.266V28.15h1.931c1.368 0 2.052.443 2.052 2.092 0 1.69-.684 2.174-2.052 2.174h-1.931zm2.736-2.133c0 1.006-.161 1.126-.966 1.126h-.603v-2.253h.603c.805 0 .966.08.966 1.127zm3.582 2.133h1.167V28.15h-1.167v4.266zm5.996-4.387c1.368 0 2.132.443 2.132 2.173 0 1.77-.724 2.294-2.132 2.294-1.369 0-2.133-.523-2.133-2.294 0-1.73.724-2.173 2.133-2.173zm.885 2.173c0 1.087-.08 1.208-.885 1.208s-.886-.08-.886-1.208c0-1.046.08-1.126.886-1.126.804 0 .885.12.885 1.126z" fill="#fff" opacity=".334"/></svg>