<svg xmlns="http://www.w3.org/2000/svg" width="88" height="88" fill="none" viewBox="0 0 88 88"><path fill="#fff" fill-rule="evenodd" d="M42.3224 84.6447C65.6964 84.6447 84.6447 65.6964 84.6447 42.3224C84.6447 18.9484 65.6964 0 42.3224 0C18.9484 0 0 18.9484 0 42.3224C0 65.6964 18.9484 84.6447 42.3224 84.6447Z" clip-rule="evenodd" transform="translate(1.82544 1.41504)"/><path stroke="#F11F60" stroke-width="2" d="M42.3224 84.6447C65.6964 84.6447 84.6447 65.6964 84.6447 42.3224C84.6447 18.9484 65.6964 0 42.3224 0C18.9484 0 0 18.9484 0 42.3224C0 65.6964 18.9484 84.6447 42.3224 84.6447Z" transform="translate(1.82544 1.41504)"/><path fill="#F11F60" fill-rule="evenodd" d="M29.1182 31.2639L26.7224 8.94396C26.6826 8.5846 26.363 8.30511 26.0037 8.30511H21.5718V6.94754C21.5718 3.11441 18.4573 0 14.6243 0C10.791 0 7.67676 3.11441 7.67676 6.94754V8.30511H3.12476C2.76538 8.30511 2.44604 8.5846 2.40601 8.94396L0.010498 31.2639C-0.029541 31.4636 0.050293 31.6632 0.170166 31.8229C0.289795 31.9826 0.489502 32.0625 0.689209 32.0625H28.4395C28.6392 32.0625 28.8386 31.9826 28.9585 31.8229C29.0784 31.6632 29.1582 31.4636 29.1182 31.2639ZM20.853 12.3379C21.2124 12.3379 21.4917 12.6174 21.4917 12.9767C21.4917 13.3361 21.2124 13.6156 20.853 13.6156C20.4937 13.6156 20.2141 13.3361 20.2141 12.9767C20.2141 12.6174 20.4937 12.3379 20.853 12.3379ZM14.624 1.43742C11.5896 1.43742 9.11401 3.91298 9.11401 6.94754V8.30511H20.1343V6.94754C20.1343 3.91298 17.6587 1.43742 14.624 1.43742ZM8.39551 12.3379C8.75488 12.3379 9.03418 12.6174 9.03418 12.9767C9.03418 13.3361 8.75488 13.6156 8.39551 13.6156C8.03613 13.6156 7.75659 13.3361 7.75659 12.9767C7.75659 12.6174 8.03613 12.3379 8.39551 12.3379ZM3.76367 9.7026L1.52759 30.5851H27.7207L25.4846 9.7026H21.4119V11.0202C22.2104 11.2997 22.7695 12.0584 22.7695 12.9368C22.7695 14.0548 21.8511 14.9731 20.7332 14.9731C19.6152 14.9731 18.6968 14.0548 18.6968 12.9368C18.6968 12.0584 19.2559 11.2997 20.0544 11.0202V9.7026H9.03418V11.0202C9.83276 11.2997 10.3916 12.0584 10.3916 12.9368C10.3916 14.0548 9.47339 14.9731 8.35522 14.9731C7.2373 14.9731 6.31909 14.0548 6.31909 12.9368C6.31909 12.0584 6.87793 11.2997 7.67651 11.0202V9.7026H3.76367Z" clip-rule="evenodd" transform="translate(29.5674 27.4596)"/><path fill="#F11F60" fill-rule="evenodd" d="M6.99537 5.51618C6.99537 7.26246 6.70519 8.61838 6.1248 9.58397C5.54442 10.5496 4.679 11.0324 3.5285 11.0324C2.36774 11.0324 1.48434 10.5393 0.878274 9.55315C0.292755 8.55675 0 7.2111 0 5.51618C0 3.83153 0.287619 2.49102 0.862866 1.49461C1.44838 0.498197 2.32665 0 3.49769 0C4.679 0 5.55213 0.498197 6.1171 1.49461C6.70262 2.48074 6.99537 3.82125 6.99537 5.51618ZM3.52861 9.87673C4.27849 9.87673 4.82548 9.51721 5.1696 8.79815C5.51372 8.07909 5.68578 6.98511 5.68578 5.51618C5.68578 4.05752 5.50858 2.9661 5.15419 2.24191C4.7998 1.51772 4.24767 1.15562 3.4978 1.15562C2.03913 1.15562 1.30981 2.60913 1.30981 5.51618C1.30981 8.42323 2.04941 9.87673 3.52861 9.87673Z" clip-rule="evenodd" transform="translate(40.6665 44.5931)"/></svg>