<svg xmlns="http://www.w3.org/2000/svg" xmlns:xlink="http://www.w3.org/1999/xlink" width="24" height="25" version="1.1" viewBox="0 0 24 25"><g id="Canvas" fill="none"><g id="plus"><g id="plus__outside-circle" transform="translate(0 0.0814209)"><mask id="path-1-inside-1" fill="#fff"><path fill-rule="evenodd" d="M 0 12C 0 5.37258 5.37258 0 12 0C 18.6274 0 24 5.37258 24 12C 24 18.6274 18.6274 24 12 24C 5.37258 24 0 18.6274 0 12Z" clip-rule="evenodd"/></mask><path fill="#fff" fill-rule="evenodd" d="M 0 12C 0 5.37258 5.37258 0 12 0C 18.6274 0 24 5.37258 24 12C 24 18.6274 18.6274 24 12 24C 5.37258 24 0 18.6274 0 12Z" clip-rule="evenodd"/><g mask="url(#path-1-inside-1)"><path fill="#F11F60" d="M 12 23C 5.92487 23 1 18.0751 1 12L -1 12C -1 19.1797 4.8203 25 12 25L 12 23ZM 23 12C 23 18.0751 18.0751 23 12 23L 12 25C 19.1797 25 25 19.1797 25 12L 23 12ZM 12 1C 18.0751 1 23 5.92487 23 12L 25 12C 25 4.8203 19.1797 -1 12 -1L 12 1ZM 12 -1C 4.8203 -1 -1 4.8203 -1 12L 1 12C 1 5.92487 5.92487 1 12 1L 12 -1Z"/></g></g><path id="plus__inside-circle" fill="#F11F60" fill-rule="evenodd" d="M 0 9.67656C 0 4.33234 4.33234 0 9.67656 0C 15.0208 0 19.3531 4.33234 19.3531 9.67656C 19.3531 15.0208 15.0208 19.3531 9.67656 19.3531C 4.33234 19.3531 0 15.0208 0 9.67656Z" clip-rule="evenodd" transform="translate(2.32349 2.34729)"/><g id="plus__plus"><path id="plus__horizontal-line" stroke="#fff" stroke-linecap="round" stroke-linejoin="round" stroke-width="2" d="M 0.359719 1.07916L 8.27354 1.07916" transform="translate(7.91382 11.5138)"/></g></g></g></svg>