<svg xmlns="http://www.w3.org/2000/svg" xmlns:xlink="http://www.w3.org/1999/xlink" width="24" height="25" version="1.1" viewBox="0 0 24 25"><g id="Canvas" fill="none"><g id="Asset 1"><g id="Shape"><path fill="#14A3CC" fill-rule="evenodd" d="M 18.9373 13.0127L 23.0454 13.0127C 23.2217 13.0127 23.3647 13.1557 23.3647 13.3321L 23.3647 18.9609C 23.3647 19.1373 23.2217 19.2804 23.0454 19.2804L 18.9373 19.2804L 18.9373 21.4078C 18.9373 21.5843 18.7942 21.7273 18.6177 21.7273L 18.4387 21.7273L 18.4387 23.0882C 18.4387 23.2646 18.2959 23.4077 18.1194 23.4077L 5.15601 23.4077C 4.97949 23.4077 4.83643 23.2646 4.83643 23.0882L 4.83643 21.7337L 4.73438 21.7337C 4.55786 21.7337 4.41479 21.5907 4.41479 21.4143L 4.41479 19.2739L 0.319336 19.2739C 0.143066 19.2739 0 19.131 0 18.9544L 0 13.3257C 0 13.1493 0.143066 13.0063 0.319336 13.0063L 4.40845 13.0063L 4.40845 10.6935L 1.0542 8.82138C 0.953857 8.76669 0.892334 8.66086 0.894531 8.54672L 0.894531 6.78329C 0.888428 6.74521 0.888428 6.70639 0.894531 6.6683L 3.00928 1.49313C 3.04736 1.41464 3.11353 1.35312 3.19458 1.32065L 6.56152 0.00448608L 6.67651 0.00448608L 8.30566 0.00448608C 8.44067 0.0142517 8.5542 0.109711 8.58691 0.240936L 8.59155 0.256317C 8.66309 0.495453 9.52979 3.39706 11.6665 3.39706C 13.8833 3.39706 14.7395 0.240936 14.7395 0.240936C 14.7727 0.0994568 14.9009 0.000701904 15.0461 0.00448608L 16.6499 0.00448608C 16.688 -0.00149536 16.7268 -0.00149536 16.7649 0.00448608L 20.1448 1.32712C 20.2258 1.35959 20.2917 1.42111 20.3301 1.4996L 22.4512 6.67465C 22.457 6.71286 22.457 6.75156 22.4512 6.78976L 22.4512 8.55307C 22.4531 8.66721 22.3916 8.77316 22.2915 8.82785L 18.9373 10.6998L 18.9373 13.0127ZM 20.1448 2.77097L 18.9116 5.75461L 18.9309 8.00363L 21.7292 6.60434L 20.1448 2.77097ZM 21.8123 8.3486L 18.9373 9.95871L 18.9373 8.74472L 21.8123 7.30722L 21.8123 8.3486ZM 15.2827 0.643402C 15.0208 1.48032 13.9985 4.03598 11.6665 4.03598C 9.33447 4.03598 8.30591 1.4548 8.01831 0.643402L 7.02808 0.643402C 7.12402 1.3143 7.67334 4.93051 11.6602 4.93051C 15.647 4.93051 16.1326 1.28232 16.1836 0.643402L 15.2827 0.643402ZM 4.39551 8.03561L 1.59717 6.63632L 3.19434 2.78378L 4.41479 5.75473L 4.39551 8.03561ZM 4.38916 8.74472L 1.51416 7.30722L 1.51416 8.36142L 4.38916 9.97141L 4.38916 8.74472ZM 5.02832 10.5017L 5.02832 8.55307L 5.02832 5.70993C 5.03735 5.67001 5.03735 5.62851 5.02832 5.58847L 3.52686 1.92123L 3.55884 1.8381L 6.42749 0.739227C 6.54248 1.62729 7.29639 5.54379 11.6602 5.54379C 16.0239 5.54379 16.7266 1.53781 16.8162 0.700897L 19.7678 1.8381L 19.8062 1.92123L 18.3047 5.56296C 18.2957 5.60287 18.2957 5.64438 18.3047 5.68442L 18.3047 8.52744L 18.3047 12.9998L 5.02832 12.9998L 5.02832 10.5017ZM 5.47534 22.7623L 17.8062 22.7623L 17.7998 21.7273L 5.47534 21.7273L 5.47534 22.7623ZM 18.2981 21.0885L 5.05371 21.0885L 5.05371 19.2804L 18.2981 19.2804L 18.2981 21.0885ZM 0.638916 18.6286L 22.7258 18.6286L 22.7258 13.6516L 20.0808 13.6516L 20.0808 14.7696C 20.0774 14.9447 19.9363 15.0857 19.7612 15.0891C 19.585 15.0891 19.4419 14.9461 19.4419 14.7696L 19.4419 13.6516L 18.0554 13.6516L 18.0554 15.7345C 18.0554 15.9109 17.9124 16.0539 17.7361 16.0539C 17.5596 16.0539 17.4165 15.9109 17.4165 15.7345L 17.4165 13.6516L 16.03 13.6516L 16.03 14.7696C 16.03 14.9461 15.8872 15.0891 15.7107 15.0891C 15.5356 15.0857 15.3945 14.9447 15.3914 14.7696L 15.3914 13.6516L 14.0112 13.6516L 14.0112 14.7696C 14.0078 14.9447 13.8667 15.0857 13.6917 15.0891C 13.5154 15.0891 13.3723 14.9461 13.3723 14.7696L 13.3723 13.6516L 11.9858 13.6516L 11.9858 15.7345C 11.9858 15.9109 11.8428 16.0539 11.6665 16.0539C 11.49 16.0539 11.3469 15.9109 11.3469 15.7345L 11.3469 13.6516L 9.96045 13.6516L 9.96045 14.7696C 9.96045 14.9461 9.81763 15.0891 9.64111 15.0891C 9.46606 15.0857 9.32495 14.9447 9.32153 14.7696L 9.32153 13.6516L 7.94165 13.6516L 7.94165 14.7696C 7.93823 14.9447 7.79712 15.0857 7.62207 15.0891C 7.4458 15.0891 7.30273 14.9461 7.30273 14.7696L 7.30273 13.6516L 5.90356 13.6516L 5.90356 15.7345C 5.90356 15.9109 5.7605 16.0539 5.58398 16.0539C 5.40771 16.0539 5.26465 15.9109 5.26465 15.7345L 5.26465 13.6516L 3.86548 13.6516L 3.86548 14.7696C 3.86206 14.9447 3.72095 15.0857 3.5459 15.0891C 3.36938 15.0891 3.22656 14.9461 3.22656 14.7696L 3.22656 13.6516L 0.638916 13.6516L 0.638916 18.6286Z" clip-rule="evenodd" transform="translate(0 0.634277)"/></g></g></g></svg>