<svg xmlns="http://www.w3.org/2000/svg" xmlns:xlink="http://www.w3.org/1999/xlink" width="30" height="30" version="1.1" viewBox="0 0 30 30"><g id="Canvas" fill="none"><g id="shopping-bag"><rect width="30" height="30" fill="#fff"/><rect id="shopping-bag__bg" width="30" height="30" fill="#fff"/><g id="shopping-bag__icon"><path id="Shape" fill="#999" fill-rule="evenodd" d="M 26.0685 27.9895L 23.9237 8.0072C 23.888 7.68549 23.602 7.43526 23.2803 7.43526L 19.3124 7.43526L 19.3124 6.21988C 19.3124 2.78822 16.5242 0 13.0926 0C 9.66092 0 6.87259 2.78822 6.87259 6.21988L 6.87259 7.43526L 2.79751 7.43526C 2.47586 7.43526 2.18985 7.68549 2.15408 8.0072L 0.00930395 27.9895C -0.0264627 28.1682 0.0450706 28.3469 0.15237 28.4899C 0.259548 28.6329 0.438259 28.7044 0.61697 28.7044L 25.4608 28.7044C 25.6396 28.7044 25.8183 28.6329 25.9254 28.4899C 26.0327 28.3469 26.1043 28.1682 26.0685 27.9895ZM 18.669 11.0456C 18.9907 11.0456 19.241 11.2959 19.241 11.6176C 19.241 11.9393 18.9907 12.1895 18.669 12.1895C 18.3473 12.1895 18.0971 11.9393 18.0971 11.6176C 18.0971 11.2959 18.3473 11.0456 18.669 11.0456ZM 13.0924 1.28687C 10.3758 1.28687 8.15945 3.50315 8.15945 6.21988L 8.15945 7.43526L 18.0254 7.43526L 18.0254 6.21988C 18.0254 3.50315 15.8092 1.28687 13.0924 1.28687ZM 7.51602 11.0456C 7.8378 11.0456 8.08804 11.2959 8.08804 11.6176C 8.08804 11.9393 7.8378 12.1895 7.51602 12.1895C 7.19436 12.1895 6.94412 11.9393 6.94412 11.6176C 6.94412 11.2959 7.19436 11.0456 7.51602 11.0456ZM 3.36953 8.68639L 1.3677 27.3818L 24.8174 27.3818L 22.8156 8.68639L 19.1695 8.68639L 19.1695 9.86602C 19.8843 10.1162 20.3848 10.7954 20.3848 11.5818C 20.3848 12.5827 19.5626 13.4049 18.5618 13.4049C 17.5608 13.4049 16.7387 12.5827 16.7387 11.5818C 16.7387 10.7954 17.2392 10.1162 17.954 9.86602L 17.954 8.68639L 8.08804 8.68639L 8.08804 9.86602C 8.80301 10.1162 9.30337 10.7954 9.30337 11.5818C 9.30337 12.5827 8.48123 13.4049 7.48037 13.4049C 6.4794 13.4049 5.65725 12.5827 5.65725 11.5818C 5.65725 10.7954 6.15774 10.1162 6.87271 9.86602L 6.87271 8.68639L 3.36953 8.68639Z" clip-rule="evenodd" transform="translate(2 1)"/><path id="+" fill="#999" fill-rule="evenodd" d="M 3.384 4.698L 0 4.698L 0 3.438L 3.384 3.438L 3.384 0L 4.734 0L 4.734 3.438L 8.172 3.438L 8.172 4.698L 4.734 4.698L 4.734 8.172L 3.384 8.172L 3.384 4.698Z" clip-rule="evenodd" transform="translate(11.3518 15.9489)"/></g></g></g></svg>