<svg xmlns="http://www.w3.org/2000/svg" width="57" height="55" fill="none" viewBox="0 0 57 55"><path fill="#F11F60" d="M14.0098 0.743379C13.7926 0.154487 13.1398 -0.146701 12.5514 0.0705822L0.742713 4.43173C0.154348 4.64901 -0.146569 5.30253 0.0705189 5.89143C0.239848 6.35051 0.673913 6.63476 1.13592 6.63476C1.2664 6.63476 1.39921 6.61203 1.52891 6.56422L13.3376 2.20308C13.926 1.98579 14.2269 1.33227 14.0098 0.743379Z" transform="translate(38.3779 39.4412)"/><path fill="#F11F60" d="M2.70117 0.74349C2.48419 0.154486 1.83115 -0.146702 1.24278 0.070581L0.7427 0.255216C0.154447 0.472499 -0.146582 1.12602 0.0705063 1.7148C0.239724 2.17388 0.6739 2.45824 1.13591 2.45824C1.26638 2.45824 1.3992 2.43551 1.52889 2.38771L2.02898 2.20307C2.61723 1.98579 2.91826 1.33238 2.70117 0.74349Z" transform="translate(34.6318 45.0014)"/><path fill="#F11F60" d="M11.5331 0.74329C11.3159 0.154397 10.6631 -0.146567 10.0747 0.0704927L0.742713 3.51693C0.154348 3.73422 -0.146569 4.38774 0.0705189 4.97663C0.239848 5.43571 0.673913 5.71996 1.13592 5.71996C1.2664 5.71996 1.39921 5.69723 1.52891 5.64943L10.8609 2.20299C11.4493 1.9857 11.7502 1.33218 11.5331 0.74329Z" transform="translate(40.8545 34.8102)"/><path fill="#F11F60" d="M11.5331 0.74329C11.3159 0.154397 10.6631 -0.146567 10.0747 0.0704927L0.742713 3.51693C0.154348 3.73422 -0.146569 4.38774 0.0705189 4.97663C0.239848 5.43571 0.673913 5.71996 1.13592 5.71996C1.2664 5.71996 1.39921 5.69723 1.52891 5.64943L10.8609 2.20299C11.4493 1.9857 11.7502 1.33218 11.5331 0.74329Z" transform="translate(40.8545 30.2274)"/><path fill="#F11F60" fill-rule="evenodd" d="M28.8926 0.0701981L56.2568 10.1762C56.7031 10.341 57 10.7664 57 11.2424V43.7576C57 44.2336 56.7031 44.659 56.2568 44.8238L28.8926 54.9298C28.7666 54.9757 28.6338 55 28.5 55C28.3672 55 28.2344 54.9769 28.1064 54.9298L0.742188 44.8238C0.295898 44.659 0 44.2335 0 43.7576V11.2424C0 10.8708 0.181641 10.5226 0.486328 10.31C0.566406 10.2542 0.652344 10.2103 0.742188 10.1762L28.1064 0.0701981C28.3604 -0.0233994 28.6387 -0.0233994 28.8926 0.0701981ZM2.27051 42.9656L27.3643 52.2329V22.1406L21.9141 20.1278V33.0592C21.9141 33.4309 21.7324 33.7791 21.4277 33.9916C21.2344 34.1263 21.0068 34.1957 20.7783 34.1957C20.6455 34.1957 20.5127 34.1726 20.3848 34.1255L8.12207 29.5965C7.67578 29.4317 7.37988 29.0062 7.37988 28.5303V14.7603L2.27051 12.8732V42.9656ZM19.6436 19.289V31.4283L9.65137 27.738V15.5988L19.6436 19.289ZM20.7783 10.6415L11.7959 13.9591L20.7783 17.2766L29.7617 13.9591L20.7783 10.6415ZM28.5 20.1371L24.0469 18.4924L33.4355 15.0252C33.8809 14.8604 34.1777 14.4349 34.1777 13.9589C34.1777 13.4829 33.8809 13.0575 33.4355 12.8927L21.1719 8.36384C20.9189 8.27024 20.6396 8.27024 20.3857 8.36384L8.50391 12.7523L4.41602 11.2424L28.5 2.34788L52.584 11.2426L28.5 20.1371ZM29.6357 52.2329L54.7295 42.9656V12.8732L29.6357 22.1406V52.2329Z" clip-rule="evenodd"/></svg>