<svg width="54" height="57" viewBox="0 0 54 57" fill="none" xmlns="http://www.w3.org/2000/svg">
<path fill-rule="evenodd" clip-rule="evenodd" d="M6.77734 0H6.80078C10.085 0.104034 12.6436 2.80896 12.6436 6.14963C12.6436 9.50189 10.0146 12.2184 6.77734 12.2184H3.84473V13.7095H9.40723C9.88574 13.7095 10.2832 14.1026 10.2832 14.5765C10.2832 15.0504 9.88574 15.4435 9.40723 15.4435H3.84473V19.9517C3.84473 20.4256 3.44727 20.8186 2.96777 20.8186C2.48926 20.8186 2.0918 20.4256 2.0918 19.9517V15.4435H0.875977C0.397461 15.4435 0 15.0504 0 14.5765C0 14.1026 0.397461 13.7095 0.875977 13.7095H2.0918V12.2184H0.875977C0.397461 12.2184 0 11.8253 0 11.3514C0 10.8775 0.397461 10.4844 0.875977 10.4844H2.0918V0.866974C2.0918 0.393036 2.48926 0 2.96777 0H6.77734ZM3.84375 10.4852H6.77637C9.04395 10.4852 10.8896 8.54318 10.8896 6.15036C10.8896 3.75757 9.0791 1.81555 6.76465 1.73465H3.84375V10.4852Z" transform="translate(20.6787 16.3626)" fill="#F11F60" stroke="#F11F60" stroke-width="0.7"/>
<path fill-rule="evenodd" clip-rule="evenodd" d="M26.0469 0C19.0938 0 12.5498 2.68179 7.63086 7.54834C2.71094 12.4149 0 18.8882 0 25.7661V25.9857V26.0435V29.3611C0 38.4815 4.97754 46.9777 12.9707 51.5206C16.9443 53.7978 21.4424 55 26 55C30.5576 55 35.0566 53.7978 39.0176 51.5322C42.9795 49.3012 46.2744 46.0761 48.541 42.1805C50.8086 38.3081 52 33.8693 52 29.3611V26.0435V25.9857V25.7661C52 11.5595 40.3613 0 26.0469 0ZM38.1416 50.0179C34.3906 52.1679 30.1953 53.243 26 53.243C21.8047 53.243 17.5986 52.1679 13.8477 50.0179C9.53516 47.5673 6.16992 43.8914 4.08984 39.5797C8.71777 46.7119 16.8271 51.4397 26.0352 51.4397C35.2197 51.4397 43.3066 46.7003 47.9219 39.5565C45.8535 43.9029 42.4766 47.5788 38.1416 50.0179ZM1.75293 25.7784C1.75293 38.9793 12.6553 49.7181 26.0469 49.7181C39.3916 49.7181 50.248 38.9793 50.248 25.7784C50.248 12.5312 39.3916 1.74625 26.0469 1.74625C12.6553 1.74625 1.75293 12.5197 1.75293 25.7784Z" transform="translate(1 1)" fill="#F11F60" stroke="#F11F60" stroke-width="0.7"/>
<path fill-rule="evenodd" clip-rule="evenodd" d="M0 19.7089C0 8.84299 8.93945 0 19.9238 0C30.9082 0 39.8477 8.84299 39.8477 19.7089C39.8477 30.5748 30.9082 39.4178 19.9238 39.4178C8.93945 39.4178 0 30.5748 0 19.7089ZM1.75293 19.7096C1.75293 29.6161 9.90918 37.6846 19.9238 37.6846C29.9385 37.6846 38.0947 29.6161 38.0947 19.7096C38.0947 9.80316 29.9385 1.73465 19.9238 1.73465C9.90918 1.73465 1.75293 9.80316 1.75293 19.7096Z" transform="translate(7.07617 7.05716)" fill="#F11F60" stroke="#F11F60" stroke-width="0.7"/>
</svg>
