<svg xmlns="http://www.w3.org/2000/svg" width="41" height="57" fill="none" viewBox="0 0 41 57"><path fill="#F11F60" d="M0.476994 3.3217C0.740415 3.3217 0.953989 3.10252 0.953989 2.83217V0.48953C0.953989 0.219187 0.740415 0 0.476994 0C0.213574 0 0 0.219187 0 0.48953V2.83217C0 3.10252 0.213574 3.3217 0.476994 3.3217Z" transform="translate(31.9893 44.5752)"/><path stroke="#F11F60" stroke-width=".5" d="M0.476994 3.3217C0.740415 3.3217 0.953989 3.10252 0.953989 2.83217V0.48953C0.953989 0.219187 0.740415 0 0.476994 0C0.213574 0 0 0.219187 0 0.48953V2.83217C0 3.10252 0.213574 3.3217 0.476994 3.3217Z" transform="translate(31.9893 44.5752)"/><path fill="#F11F60" d="M0.476994 3.3217C0.740415 3.3217 0.953989 3.10252 0.953989 2.83217V0.48953C0.953989 0.219187 0.740415 0 0.476994 0C0.213574 0 0 0.219187 0 0.48953V2.83217C0 3.10252 0.213574 3.3217 0.476994 3.3217Z" transform="translate(35.1836 44.5752)"/><path stroke="#F11F60" stroke-width=".5" d="M0.476994 3.3217C0.740415 3.3217 0.953989 3.10252 0.953989 2.83217V0.48953C0.953989 0.219187 0.740415 0 0.476994 0C0.213574 0 0 0.219187 0 0.48953V2.83217C0 3.10252 0.213574 3.3217 0.476994 3.3217Z" transform="translate(35.1836 44.5752)"/><path fill="#F11F60" fill-rule="evenodd" stroke="#F11F60" stroke-width=".5" d="M38.0674 48.7031H38.5234C38.7861 48.7031 39 48.9222 39 49.1925V54.5105C39 54.7808 38.7861 55 38.5234 55H0.476562C0.213867 55 0 54.7808 0 54.5105V49.1925C0 48.9221 0.213867 48.7029 0.476562 48.7029H2.20508V43.0049C1.94629 42.9991 1.73828 42.7832 1.73828 42.5165C1.73828 42.2462 1.95215 42.027 2.21582 42.027H2.74414V34.9041C1.94629 34.1746 1.45801 33.2038 1.45801 32.1395C1.45801 30.8379 2.55469 29.5965 3.71582 28.2822C4.54883 27.3395 5.40723 26.3653 5.88086 25.3558V21.0146C5.88086 20.7443 6.09473 20.5251 6.3584 20.5251C6.62207 20.5251 6.83496 20.7443 6.83496 21.0146V25.3641C7.26172 26.359 8.14258 27.3508 8.99609 28.3109C10.1592 29.6187 11.2578 30.8541 11.2578 32.1395C11.2578 33.2036 10.7705 34.1741 9.97266 34.9036V42.027H10.501C10.7646 42.027 10.9785 42.2462 10.9785 42.5165C10.9785 42.7828 10.7705 42.9984 10.5127 43.0048V48.7029H13.0498V34.1473C13.0498 33.8769 13.2637 33.6577 13.5273 33.6577H14.1963L15.0742 24.0941H14.6299H14.0977C13.834 24.0941 13.6211 23.8748 13.6211 23.6045C13.6211 23.3342 13.834 23.115 14.0977 23.115H14.292L17.7295 13.0119V10.0591C17.3447 9.6217 17.1084 9.04834 17.1084 8.41919C17.1084 7.64523 17.6182 6.93591 18.1592 6.18497C18.5186 5.68552 18.8877 5.16992 19.0928 4.64771V0.489532C19.0928 0.219177 19.3066 0 19.5703 0C19.833 0 20.0469 0.219177 20.0469 0.489532V4.65433C20.2324 5.16711 20.6104 5.69189 20.9785 6.20013C21.5205 6.94778 22.0322 7.65369 22.0322 8.41919C22.0322 9.12128 21.7383 9.75473 21.2705 10.206V13.0124L24.709 23.1151H24.9023C25.166 23.1151 25.3799 23.3343 25.3799 23.6046C25.3799 23.875 25.166 24.0942 24.9023 24.0942H24.3701H23.9258L24.8047 33.6579H25.4736C25.7373 33.6579 25.9502 33.877 25.9502 34.1474V48.7032H28.0586V41.1182H27.7666C27.6143 41.1182 27.4727 41.0444 27.3828 40.9193C27.292 40.7941 27.2656 40.6327 27.3105 40.4842L28.3906 36.8919C28.4531 36.6868 28.6377 36.5468 28.8467 36.5468H30V31.581C29.4727 30.9117 29.1562 30.067 29.1562 29.149C29.1562 27.9286 30.0049 26.7486 30.9043 25.4994C31.5518 24.5997 32.2197 23.6703 32.5869 22.705V18.6067C32.5869 18.3363 32.7998 18.1171 33.0635 18.1171C33.3271 18.1171 33.541 18.3363 33.541 18.6067V22.7121C33.8711 23.6639 34.5557 24.6104 35.2197 25.5263C36.1201 26.7697 36.9707 27.9439 36.9707 29.149C36.9707 30.0783 36.6475 30.9325 36.1084 31.6056V36.5467H37.2617C37.4707 36.5467 37.6562 36.6866 37.7178 36.8918L38.7988 40.4841C38.8428 40.6326 38.8164 40.7941 38.7266 40.9192C38.6367 41.0443 38.4941 41.118 38.3428 41.118H38.0674V48.7031ZM37.6953 40.1391L36.9092 37.5259H35.0234V40.1391H37.6953ZM33.0635 34.0479C32.7998 34.0479 32.5859 34.2671 32.5859 34.5374V36.5468H30.9531V32.4506C31.5625 32.8448 32.2861 33.0747 33.0635 33.0747C33.832 33.0747 34.5488 32.8496 35.1533 32.463V36.5468H33.54V34.5374C33.54 34.2671 33.3262 34.0479 33.0635 34.0479ZM34.0703 37.5259H32.0566V40.1391H34.0703V37.5259ZM37.1123 41.1185V48.703H29.0117V41.1185H37.1123ZM33.0635 32.0957C34.6924 32.0957 36.0176 30.7738 36.0176 29.1492C36.0176 29.0533 36.0068 28.9551 35.9902 28.8553L31.3252 31.5289C31.8135 31.8848 32.4141 32.0957 33.0635 32.0957ZM31.6719 26.0809C32.1592 25.4041 32.6572 24.7112 33.0527 23.9767C33.3867 24.6096 33.8096 25.2176 34.2373 25.8119L30.3643 28.1418C30.6533 27.4976 31.1523 26.8023 31.6719 26.0809ZM35.6514 27.9276C35.4326 27.5051 35.1338 27.0611 34.8086 26.6035L30.123 29.4218C30.1699 29.9329 30.3486 30.4065 30.625 30.8088L35.6514 27.9276ZM29.1982 37.5259H31.1025V40.1391H28.4121L29.1982 37.5259ZM23.4014 23.1151H23.6982L22.9355 20.874L22.0059 23.1151H23.4014ZM22.9668 24.0941L23.1719 26.3295C22.6387 26.4247 22.1328 26.6282 21.6797 26.933C21.0342 26.5014 20.2725 26.2669 19.499 26.2669C18.7256 26.2669 17.9639 26.5014 17.3184 26.933C16.8643 26.6283 16.3594 26.4247 15.8262 26.3295L16.0312 24.0941H22.9668ZM19.5 19.9743L18.1973 23.1151H20.8018L19.5 19.9743ZM17.0234 27.9194C17.1104 27.9899 17.2148 28.0251 17.3203 28.0251C17.4248 28.0251 17.5293 27.9899 17.6162 27.9193C18.1504 27.485 18.8193 27.2458 19.501 27.2458C20.1826 27.2458 20.8516 27.485 21.3857 27.9193C21.5586 28.0604 21.8037 28.0605 21.9775 27.9194C22.3574 27.611 22.7949 27.4041 23.2637 27.308L23.5332 30.2401C22.874 30.2969 22.2354 30.5205 21.6816 30.8899C21.0361 30.4589 20.2744 30.2246 19.501 30.2246C18.7275 30.2246 17.9658 30.4587 17.3203 30.8898C16.7646 30.5182 16.1289 30.2978 15.4688 30.2419L15.7383 27.3081C16.2061 27.4039 16.6445 27.611 17.0234 27.9194ZM19.5635 5.83398C19.3662 6.15598 19.1445 6.4639 18.9268 6.76654C18.4824 7.38422 18.0625 7.96759 18.0625 8.41919C18.0625 9.24539 18.7393 9.91763 19.5703 9.91763C20.4014 9.91763 21.0781 9.24539 21.0781 8.41919C21.0781 7.97787 20.6387 7.37122 20.2129 6.78439C19.9893 6.4754 19.7617 6.16098 19.5635 5.83398ZM20.3154 10.8967V12.5727H18.6826V10.8967H20.3154ZM20.4434 13.5518H18.5557L16.5312 19.5005L17.5947 22.0662L19.0605 18.5321C19.1357 18.3515 19.3086 18.2342 19.499 18.2342C19.6904 18.2342 19.8633 18.3516 19.9385 18.5321L21.4033 22.0663L22.4678 19.5006L20.4434 13.5518ZM16.0645 20.874L16.9941 23.1151H15.5986H15.3018L16.0645 20.874ZM17.0234 31.8757C16.5498 31.4911 15.9766 31.2657 15.3789 31.2173L15.1543 33.6575H23.8457L23.6211 31.2141C23.0244 31.2634 22.4482 31.4936 21.9766 31.8758C21.8906 31.9462 21.7852 31.9813 21.6807 31.9813C21.5762 31.9813 21.4717 31.9462 21.3857 31.8758C20.8506 31.4424 20.1816 31.2036 19.5 31.2036C18.8193 31.2036 18.1494 31.4424 17.6152 31.8758C17.4414 32.0167 17.1973 32.0163 17.0234 31.8757ZM14.0039 34.6369H24.9961V39.332H23.1191V37.4422C23.1191 37.1718 22.9053 36.9527 22.6426 36.9527C22.3789 36.9527 22.165 37.1718 22.165 37.4422V39.332H19.9775V37.4422C19.9775 37.1718 19.7637 36.9527 19.5 36.9527C19.2363 36.9527 19.0234 37.1718 19.0234 37.4422V39.332H16.835V37.4422C16.835 37.1718 16.6221 36.9527 16.3584 36.9527C16.0947 36.9527 15.8809 37.1718 15.8809 37.4422V39.332H14.0039V34.6369ZM24.9961 44.6424V40.3112H14.0039V44.6424H15.8809V42.7526C15.8809 42.4822 16.0947 42.263 16.3584 42.263C16.6221 42.263 16.835 42.4822 16.835 42.7526V44.6424H19.0234V42.7526C19.0234 42.4822 19.2363 42.263 19.5 42.263C19.7637 42.263 19.9775 42.4822 19.9775 42.7526V44.6424H22.165V42.7526C22.165 42.4822 22.3789 42.263 22.6426 42.263C22.9053 42.263 23.1191 42.4822 23.1191 42.7526V44.6424H24.9961ZM24.9961 45.6214V48.7031H14.0039V45.6214H24.9961ZM10.3037 32.1397C10.3037 31.2339 9.32617 30.1349 8.29199 28.9711L8.01074 28.6545C8.37305 30.4534 8.76562 33.0239 8.50391 34.7559C9.58691 34.1989 10.3037 33.2347 10.3037 32.1397ZM3.15918 45.0896V43.0069H9.55859V45.0896H3.15918ZM9.55859 48.7031V46.0687H3.15918V48.7031H9.55859ZM6.3584 38.6228C6.09473 38.6228 5.88184 38.842 5.88184 39.1123V42.0271H3.69824V35.5793C4.46484 35.9956 5.37793 36.2387 6.3584 36.2387C7.33887 36.2387 8.25195 35.9956 9.01855 35.579V42.0271H6.83594V39.1123C6.83594 38.842 6.62207 38.6228 6.3584 38.6228ZM6.3457 26.5053C6.25195 26.656 6.15234 26.8043 6.04883 26.9518C5.85449 27.7117 4.56641 32.9781 5.24609 35.1329C5.59863 35.2149 5.97168 35.2597 6.35742 35.2597C6.7334 35.2597 7.09766 35.2169 7.44238 35.1387C8.12305 32.9986 6.84863 27.7661 6.64453 26.9638C6.54004 26.8122 6.43848 26.6598 6.3457 26.5053ZM2.41309 32.1396C2.41309 31.2157 3.38965 30.1104 4.42285 28.9399L4.68457 28.6432C4.32227 30.4379 3.92871 33.007 4.18652 34.7423C3.11914 34.1834 2.41309 33.2257 2.41309 32.1396ZM36.1582 54.0211H38.0449V49.6821H0.953125V54.0211H2.83984V52.2303C2.83984 51.96 3.05371 51.7408 3.31738 51.7408C3.58008 51.7408 3.79395 51.96 3.79395 52.2303V54.0211H5.78223V52.2303C5.78223 51.96 5.99609 51.7408 6.25879 51.7408C6.52246 51.7408 6.73633 51.96 6.73633 52.2303V54.0211H8.72461V52.2303C8.72461 51.96 8.9375 51.7408 9.20117 51.7408C9.46484 51.7408 9.67871 51.96 9.67871 52.2303V54.0211H11.667V52.2303C11.667 51.96 11.8799 51.7408 12.1436 51.7408C12.4072 51.7408 12.6201 51.96 12.6201 52.2303V54.0211H14.6084V52.2303C14.6084 51.96 14.8223 51.7408 15.0859 51.7408C15.3496 51.7408 15.5625 51.96 15.5625 52.2303V54.0211H17.5508V52.2303C17.5508 51.96 17.7646 51.7408 18.0283 51.7408C18.291 51.7408 18.5049 51.96 18.5049 52.2303V54.0211H20.4932V52.2303C20.4932 51.96 20.707 51.7408 20.9697 51.7408C21.2334 51.7408 21.4473 51.96 21.4473 52.2303V54.0211H23.4355V52.2303C23.4355 51.96 23.6494 51.7408 23.9121 51.7408C24.1758 51.7408 24.3896 51.96 24.3896 52.2303V54.0211H26.3779V52.2303C26.3779 51.96 26.5918 51.7408 26.8545 51.7408C27.1182 51.7408 27.332 51.96 27.332 52.2303V54.0211H29.3203V52.2303C29.3203 51.96 29.5332 51.7408 29.7969 51.7408C30.0605 51.7408 30.2744 51.96 30.2744 52.2303V54.0211H32.2627V52.2303C32.2627 51.96 32.4756 51.7408 32.7393 51.7408C33.0029 51.7408 33.2158 51.96 33.2158 52.2303V54.0211H35.2041V52.2303C35.2041 51.96 35.418 51.7408 35.6816 51.7408C35.9453 51.7408 36.1582 51.96 36.1582 52.2303V54.0211Z" clip-rule="evenodd" transform="translate(1 1)"/></svg>