<svg width="170" height="48" xmlns="http://www.w3.org/2000/svg"><path fill-rule="evenodd" clip-rule="evenodd" d="M108.097 4.143a3.172 3.172 0 0 1-1.175 2.612 4.08 4.08 0 0 1-2.645.977 4.824 4.824 0 0 1-.867-2.765 5.788 5.788 0 0 1 .505-2.48 6.234 6.234 0 0 1 .889-1.45 1.25 1.25 0 0 1 .955-.46c.56 0 1.098.438 1.602 1.371.414.664.666 1.416.736 2.195zm-46.712 9.604l7.233.154c.417 0 .636.252.691.746a3.119 3.119 0 0 1-.197.834c-.132.395-.253.801-.363 1.23-.241.866-.658 1.294-1.339 1.294l-6.003-.274h-.516a3.656 3.656 0 0 0-.56 0 48.817 48.817 0 0 0-2.052 11.93c0 1.559-1.515 2.327-4.544 2.327a1.098 1.098 0 0 1-1.164-.999 15.912 15.912 0 0 1-.175-2.667c.16-3.35.731-6.667 1.701-9.878a29.408 29.408 0 0 1-3.797.319c-.34 0-.516-.132-.516-.395a2.7 2.7 0 0 1 1.196-1.921 11.237 11.237 0 0 1 4.05-1.756 64.606 64.606 0 0 1 2.875-8.254 9.769 9.769 0 0 0-6.475 2.601c-.417.429-.768.758-1.032.988-.178.202-.424.33-.691.362-.198 0-.384-.164-.57-.482a2.447 2.447 0 0 1-.275-1.263c.029-2.026 1.397-3.673 4.105-4.939a23.455 23.455 0 0 1 9.976-1.887l11.854.197c.746 0 1.097.275 1.097.834-.052.3-.16.586-.318.845a8.6 8.6 0 0 0-.549 1.328 2.118 2.118 0 0 1-2.195 1.416h-9.548a53.7 53.7 0 0 1-1.9 7.31zM37.337 23.01c.45-.516.79-.768 1.032-.768.362 0 .549.362.549 1.109a6.2 6.2 0 0 1-.593 2.47 8.219 8.219 0 0 1-1.975 2.622c-2.261 2.107-5.378 3.205-9.33 3.205-3.106 0-5.3-1.13-6.398-3.402a1.305 1.305 0 0 1-.08-.19v-.003c-.02-.053-.04-.107-.063-.159-.645.54-1.464.83-2.305.812a5.048 5.048 0 0 1-3.007-.812 6.016 6.016 0 0 1-2.283 2.766 8.177 8.177 0 0 1-4.61 1.098A8.483 8.483 0 0 1 3.16 30.21a6.585 6.585 0 0 1-2.57-5.718 28.363 28.363 0 0 1 2.722-11.59c-1.942-.834-2.92-1.658-2.92-2.448 0-.45.176-.647.517-.625.554.015 1.1.13 1.613.34.609.219 1.232.395 1.866.527 2.151-4.083 4.61-6.75 7.386-8.012a7.112 7.112 0 0 1 2.766-.68 5.98 5.98 0 0 1 4.17 1.327 4.182 4.182 0 0 1 1.439 3.216c0 2.272-1.262 4.017-3.71 5.224a21.953 21.953 0 0 1-8.188 1.855 26.184 26.184 0 0 0-1.855 9.878c0 2.601.582 4.116 1.822 4.511.6.288 1.299.288 1.9 0 .414-.278.754-.655.987-1.097a4.83 4.83 0 0 0 .373-1.998 3.38 3.38 0 0 0-.757-2.272 41.89 41.89 0 0 0-1.482-1.712 6.245 6.245 0 0 1 1.032-2.195c.867-1.13 1.591-1.701 2.195-1.701a1.898 1.898 0 0 1 1.46.614c.409.462.726.999.932 1.58.254.7.449 1.42.582 2.152.143.735.307 1.416.494 2.052.152.558.385 1.09.692 1.58.228.392.645.633 1.097.637a1.767 1.767 0 0 0 1.24-.537c.37-.352.702-.742.988-1.164l.143-.22c.134-1.16.403-2.303.801-3.402a13.796 13.796 0 0 1 2.404-4.17 10.558 10.558 0 0 1 3.292-2.7 8.78 8.78 0 0 1 4.05-.977 4.754 4.754 0 0 1 3.293 1.097 3.578 3.578 0 0 1 1.163 2.766 4.39 4.39 0 0 1-.856 2.777 6.87 6.87 0 0 1-2.195 1.822c-.96.51-1.958.947-2.985 1.306a44.275 44.275 0 0 0-3.227 1.284v.988a2.195 2.195 0 0 0 1.185 2.008c.81.41 1.705.628 2.613.637a9.165 9.165 0 0 0 5.97-2.448 17.186 17.186 0 0 0 1.734-1.712zm92.81-8.407c.488-.395.76-.997.735-1.624a2.993 2.993 0 0 0-.461-1.383c-.307-.56-.647-.834-1.021-.834a.744.744 0 0 0-.592.296 3.385 3.385 0 0 0-.55.889 3.495 3.495 0 0 0-.295 1.525c.004.616.19 1.215.537 1.724a2.526 2.526 0 0 0 1.647-.593zm-10.888-3.72a2.86 2.86 0 0 0 1.097-2.36 4.38 4.38 0 0 0-.658-2.009c-.45-.801-.933-1.196-1.482-1.196a1.098 1.098 0 0 0-.867.417c-.323.392-.59.828-.79 1.295a5.093 5.093 0 0 0-.417 2.195c0 .89.273 1.76.779 2.492a3.667 3.667 0 0 0 2.338-.835zm40.827 3.88c1.216-1.307 2.988-3.21 5.61-3.036 4.819.571 4.533 6.07 4.412 6.64-.74 5.34-3.73 8.958-6.777 12.646-1.927 2.33-3.876 4.689-5.296 7.528-1.305 2.611-1.411 4.806-1.488 6.408-.081 1.684-.13 2.714-1.508 2.888-1.668.198-.582-6.926.988-10.778.545-1.338 2.13-3.645 3.908-6.232 3.339-4.86 7.359-10.709 6.442-12.986-1.098-2.722-4.028-.011-4.994 1.284-.966 1.295-3.337 3.907-6.98-1.328-.9-1.284-3.172-.812-2.986 1.47a8.9 8.9 0 0 0 6.586 7.826c1.262.34.812 2.009 0 3.227-2.58-.318-5.807-3.512-6.07-4.105l-.034.045h-.001c-.334.435-2.904 3.779-4.673 4.576a7.797 7.797 0 0 1-3.161.746c-3.743.033-6.311-1.383-7.683-4.225a4.068 4.068 0 0 1-.176-.44 10.565 10.565 0 0 1-1.745 2.053 8.364 8.364 0 0 1-5.95 2.59c-2.095 0-3.346-1.591-3.763-4.72a11.323 11.323 0 0 1-1.778 2.119 8.628 8.628 0 0 1-5.95 2.601c-1.894 0-2.842-1.723-2.842-5.17.038-1.21.18-2.414.428-3.6.243-1.104.39-2.228.439-3.358 0-.867-.504-1.306-1.503-1.306-.681 0-1.45.67-2.294 1.998a13.854 13.854 0 0 0-1.778 4.291v.077c.003.937.144 1.87.417 2.766.214.64.35 1.303.406 1.975 0 .89-1.164 1.778-3.36 2.645a2.558 2.558 0 0 1-.91.198 1.373 1.373 0 0 1-1.361-1.032 8.288 8.288 0 0 1-.395-2.81c0-1.097.033-2.25.099-3.292.066-1.043.132-2.009.198-2.887l.047-.674v-.004c.04-.606.078-1.157.15-1.648.099-.67.099-1.219.099-1.636 0-.9-.417-1.35-1.23-1.35-.811 0-1.744.955-2.842 2.865a10.186 10.186 0 0 0-1.614 4.544c-.033 1.05.082 2.099.34 3.117.222.638.363 1.302.418 1.975 0 .89-1.164 1.778-3.359 2.645a2.58 2.58 0 0 1-.91.198 1.372 1.372 0 0 1-1.362-1.032 9.767 9.767 0 0 1-.373-3.16v-.78c-.462.658-1 1.258-1.602 1.79a12.075 12.075 0 0 1-2.942 1.92 7.546 7.546 0 0 1-3.16.746c-1.395 0-2.327-1.218-2.8-3.677a8.594 8.594 0 0 1-2.688 2.788 8.024 8.024 0 0 1-4.39 1.098 6.015 6.015 0 0 1-4.49-1.734 5.718 5.718 0 0 1-1.657-4.226 13.302 13.302 0 0 1 4.49-10.701 10.473 10.473 0 0 1 3.533-2.14 11.558 11.558 0 0 1 3.457-.505 6.18 6.18 0 0 1 2.964.625c.373-.713.79-1.097 1.262-1.097a3.743 3.743 0 0 1 2.634 1.207 3.36 3.36 0 0 1 1.24 2.272 28.227 28.227 0 0 1-1.624 3.117 31.892 31.892 0 0 0-.307 5.093c0 2.195.274 3.292.823 3.292.688-.007 2.349-1.375 4.983-4.105a4.4 4.4 0 0 1 .505-.504c.048-.88.143-1.755.285-2.623.395-2.448.944-4.544 4.62-7.244 5.826-3.904 8.652-.77 9.66.35l.004.003.013.014.016.017.016.019.093.102a9.892 9.892 0 0 1 1.537 3.424v.439a7.275 7.275 0 0 1 5.883-3.007 4.39 4.39 0 0 1 3.292 1.097 3.698 3.698 0 0 1 1.098 2.722c.008.982-.07 1.962-.231 2.93-.164.868-.34 1.68-.538 2.448l-.526 2.03c-.14.45-.221.914-.242 1.383a.702.702 0 0 0 .538.79c2.413.6 3.872-1.814 4.592-3.004.164-.271.29-.48.38-.573.154-2.678 2.074-6.443 3.293-6.443.58 0 1.075.57 1.503 1.603.347.774.398 1.649.143 2.458-.068.314-.202.76-.36 1.278v.003c-.735 2.434-1.948 6.451 1.073 5.81a6.584 6.584 0 0 0 2.02-1.022c1.27-.989 2.167-2.475 2.762-3.46v-.002c.263-.435.467-.773.618-.928a33.57 33.57 0 0 1 .373-4.27 30.53 30.53 0 0 1 3.04-9.482 18.414 18.414 0 0 1 2.569-3.787 9.086 9.086 0 0 1 6.958-3.446 3.718 3.718 0 0 1 2.667.933 3.5 3.5 0 0 1 .966 2.667 6.842 6.842 0 0 1-1.031 3.501 25.676 25.676 0 0 1-2.624 3.633 112.242 112.242 0 0 1-3.534 3.93 57.804 57.804 0 0 0-3.797 4.467v1.591a4.64 4.64 0 0 0 .955 3.238 2.918 2.918 0 0 0 2.195 1.031 7.506 7.506 0 0 0 6.003-3.358l.066-.077c.023-.05-.09-.301-.265-.696-.907-2.035-3.513-7.882 1.9-9.665 2.122-.687 3.804.76 5.016 1.802.606.522 1.094.942 1.46.942.37 0 .848-.512 1.469-1.18zM28.93 15.997c.812 0 1.218.33 1.218.988a2.568 2.568 0 0 1-1.218 1.975 18.92 18.92 0 0 1-1.284.823c-.494.297-1.01.626-1.559.988.55-3.183 1.497-4.774 2.843-4.774zM14.76 5.877a4.324 4.324 0 0 0-2.513 1.46 16.355 16.355 0 0 0-2.963 4.072c2.875-.45 4.785-1.383 5.883-2.645a2.57 2.57 0 0 0 .592-1.504c-.021-.922-.362-1.383-.998-1.383zM144.306 8.72c1.098-1.888 2.14-2.843 3.062-2.843.417 0 .626.297.626.89a3.424 3.424 0 0 1-.472 1.723 14.047 14.047 0 0 1-1.306 1.854l-1.954 2.415c-.746.922-1.57 2.063-2.47 3.435a22.55 22.55 0 0 1 2.514-7.474zM82.249 24.964c.404-.663.71-1.38.911-2.13a31.723 31.723 0 0 1 .845-7.594 10.439 10.439 0 0 0-5.575 3.084 8.517 8.517 0 0 0-2.37 6.168c0 2.03.701 3.04 2.194 3.04a4.709 4.709 0 0 0 3.995-2.568z" fill="#F11F60"/></svg>