<svg width="64" height="44" viewBox="0 0 64 44" fill="none" xmlns="http://www.w3.org/2000/svg">
<path d="M0.611901 1.22529H3.76867C4.10671 1.22529 4.38057 0.950946 4.38057 0.612645C4.38057 0.274265 4.10671 0 3.76867 0H0.611901C0.273856 0 0 0.274341 0 0.612645C0 0.950946 0.273856 1.22529 0.611901 1.22529Z" transform="matrix(0.920259 -0.391311 0.390152 0.920751 11.6102 5.92517)" fill="black"/>
<path fill-rule="evenodd" clip-rule="evenodd" d="M34.3523 5.91782L36.4578 14.6033C36.5297 14.9 36.3724 15.2044 36.0893 15.317L30.074 17.7096V21.9913C30.074 22.3297 29.8001 22.6039 29.4621 22.6039C29.1241 22.6039 28.8502 22.3297 28.8502 21.9913V9.91906C28.8502 9.80734 28.8807 9.69767 28.9385 9.60198L32.0244 4.4923C31.8251 4.33201 31.5942 4.18734 31.3272 4.07374C30.0954 3.54961 26.4433 2.15373 24.7617 1.51411C24.3552 5.12002 21.553 8.01483 18.2816 8.01483C15.0004 8.01483 12.1917 5.1029 11.7981 1.48212C10.1577 2.10583 6.40108 3.54075 5.14828 4.07382C4.88132 4.18742 4.65037 4.33209 4.45115 4.49238L7.53715 9.60214C7.5949 9.69783 7.62541 9.80742 7.62541 9.91914V35.0858H11.7714C12.1094 35.0858 12.3833 35.3601 12.3833 35.6985C12.3833 36.0368 12.1094 36.3111 11.7714 36.3111H7.62541V37.5765H28.8499V36.3111H13.8111C13.4731 36.3111 13.1992 36.0369 13.1992 35.6985C13.1992 35.3601 13.4731 35.0858 13.8111 35.0858H28.8499V24.0335C28.8499 23.6952 29.1238 23.4208 29.4618 23.4208C29.7999 23.4208 30.0737 23.6951 30.0737 24.0335V38.1892C30.0737 38.5276 29.7999 38.8019 29.4618 38.8019H7.01335C6.67539 38.8019 6.40145 38.5276 6.40145 38.1892V17.7098L0.386147 15.3173C0.102677 15.2045 -0.054612 14.9001 0.0173719 14.6034L0.626699 12.09V12.09L2.123 5.91766C2.12337 5.91615 2.12413 5.91297 2.12519 5.90895C2.12602 5.90599 2.12686 5.90273 2.12791 5.89856L2.12799 5.89834C2.18589 5.67629 2.73361 3.76985 4.66938 2.94607C6.30464 2.25021 11.9084 0.12944 12.146 0.0394839C12.1511 0.0375893 12.1562 0.0363009 12.1613 0.0344821C12.1713 0.0310718 12.1811 0.0276615 12.1913 0.0247058C12.2 0.0222808 12.2087 0.0201588 12.2175 0.0180368C12.2272 0.0156875 12.237 0.0131866 12.2469 0.0112919C12.2576 0.00924579 12.2682 0.00780584 12.279 0.00636593C12.2872 0.00522916 12.2955 0.00378924 12.3039 0.00295561C12.3235 0.00106099 12.3429 0 12.3625 0H24.2005C24.3464 0 24.4802 0.0513064 24.5854 0.136564C25.7394 0.574071 30.3484 2.32599 31.8059 2.94607C33.8193 3.80281 34.3314 5.83188 34.3523 5.91782ZM13 1.22529C13.283 4.57922 15.8629 6.78949 18.2815 6.78949C20.7001 6.78949 23.28 4.5793 23.5632 1.22529H13ZM30.0739 10.0899L32.8538 5.48683C33.001 5.74851 33.0877 5.9742 33.1301 6.1L33.1305 6.10114C33.1345 6.11304 33.1379 6.12387 33.1412 6.13388C33.1418 6.13577 33.1424 6.13774 33.1431 6.13956C33.1455 6.14752 33.1478 6.15465 33.1498 6.16124C33.1506 6.16374 33.1514 6.16654 33.1521 6.16889C33.1538 6.17427 33.1551 6.17905 33.1564 6.18329C33.1569 6.18526 33.1576 6.18761 33.1581 6.18935C33.1591 6.19276 33.1599 6.19542 33.1604 6.19784C33.1608 6.19928 33.1614 6.20125 33.1618 6.20239L33.1629 6.20678L34.5362 11.8716L30.0738 13.7453V10.0899H30.0739ZM6.4016 10.0899V13.7452L1.93921 11.8715L3.31183 6.20951C3.31356 6.20262 3.3969 5.88667 3.62171 5.48698L6.4016 10.0899ZM6.40153 16.3912V15.074L1.64681 13.0775L1.33223 14.3749L6.40153 16.3912ZM6.40153 16.3912L6.4016 16.3912H6.40153V16.3912ZM30.0739 15.074V16.3912L35.1431 14.375L34.8286 13.0775L30.0739 15.074Z" transform="matrix(0.920259 -0.391311 0.390152 0.920751 -4 10.2731)" fill="black"/>
<path d="M12.7236 34.6876L0 27.1508L7.85492 0L13.3336 6.29136L7.85492 11.4705L17.008 30.8919L12.7236 34.6876Z" transform="translate(23.2829 3.28174)" fill="white"/>
<path d="M0.50103 0H0.495684C0.22049 0 0 0.22344 0 0.499113C0 0.774787 0.225775 0.998227 0.50103 0.998227C0.776286 0.998227 0.99939 0.774787 0.99939 0.499113C0.99939 0.22344 0.776224 0 0.50103 0Z" transform="matrix(0.965813 0.259242 -0.258397 0.966039 43.2953 22.1234)" fill="black"/>
<path d="M0.50103 0H0.495684C0.22049 0 0 0.22344 0 0.499113C0 0.774725 0.225775 0.998227 0.50103 0.998227C0.776224 0.998227 0.99939 0.774787 0.99939 0.499113C0.99939 0.22344 0.776286 0 0.50103 0Z" transform="matrix(0.965813 0.259242 -0.258397 0.966039 41.3746 29.3248)" fill="black"/>
<path d="M0.50103 0H0.495684C0.22049 0 0 0.22344 0 0.499113C0 0.774787 0.225775 0.998227 0.50103 0.998227C0.776286 0.998227 0.99939 0.774787 0.99939 0.499113C0.99939 0.22344 0.776224 0 0.50103 0Z" transform="matrix(0.965813 0.259242 -0.258397 0.966039 44.2582 18.5233)" fill="black"/>
<path d="M0.501031 0H0.495684C0.22049 0 0 0.22344 0 0.499113C0 0.774787 0.225775 0.998227 0.500968 0.998227C0.776162 0.998227 0.999326 0.774787 0.999326 0.499113C0.999326 0.22344 0.776224 0 0.501031 0Z" transform="matrix(0.965813 0.259242 -0.258397 0.966039 42.3324 25.7234)" fill="black"/>
<path fill-rule="evenodd" clip-rule="evenodd" d="M27.0916 6.93081L27.5539 24.0626C27.5656 24.4918 27.3099 24.8818 26.9153 25.0441L27.0099 26.7C27.0357 27.1509 26.7697 27.5619 26.3484 27.7227L23.3108 28.882C23.2915 29.33 22.9838 29.7182 22.548 29.8346L14.9688 31.8588C14.8304 31.8957 14.6828 31.8712 14.5636 31.7916C14.4445 31.7118 14.3654 31.5847 14.3464 31.4424L13.7774 27.1673L13.2082 31.4424C13.1893 31.5847 13.1101 31.7118 12.991 31.7916C12.9083 31.8468 12.8118 31.8756 12.7142 31.8756C12.6712 31.8756 12.6282 31.8701 12.5858 31.8588L5.00695 29.8346C4.57112 29.7183 4.26349 29.3302 4.24428 28.8823L1.20608 27.7227C0.784681 27.5618 0.518812 27.1509 0.54461 26.6999L0.639097 25.044C0.244489 24.8817 -0.0111858 24.4918 0.000376499 24.0626L0.462679 6.93081C0.503458 5.41884 1.48644 4.0612 2.90865 3.55244L8.13866 1.68174L9.11015 0.222257C9.18969 0.102724 9.31688 0.0232841 9.45915 0.00435798C9.48109 0.00143191 9.50294 0.000498055 9.52472 0.000498055V0H18.0297V0.000498055C18.0516 0.000498055 18.0735 0.00143191 18.0953 0.00435798C18.2377 0.0232841 18.3648 0.102661 18.4444 0.222257L19.4159 1.68181L24.6456 3.55238C26.0678 4.06114 27.0509 5.41884 27.0916 6.93081ZM10.8511 0.998164L13.7773 3.56246L16.7035 0.998164H10.8511ZM9.62422 1.24937L13.0009 4.20844L11.2745 5.59173V5.59178C11.2712 5.59436 11.2629 5.60111 11.2482 5.59851C11.2335 5.59596 11.2278 5.58687 11.2256 5.58332L9.05476 2.10491L9.62422 1.24937ZM16.3289 5.58338L18.4997 2.10491L17.9303 1.24943L14.5536 4.20851L16.2801 5.59179L16.2802 5.59184C16.2833 5.59442 16.2917 5.60117 16.3064 5.59857C16.321 5.59602 16.3267 5.58687 16.3289 5.58338ZM13.2789 23.3583L12.2951 30.7479L5.26381 28.8701C5.24926 28.8662 5.23906 28.8529 5.23906 28.8379V9.54937C5.23906 9.27373 5.01596 9.05024 4.74071 9.05024C4.46552 9.05024 4.24235 9.27365 4.24235 9.54937V25.333L1.01816 24.1216C1.00486 24.1166 0.996218 24.1038 0.99666 24.0896L1.45896 6.95776C1.48873 5.85445 2.20609 4.8637 3.2439 4.49246L8.25158 2.70127L10.3804 6.11251C10.5359 6.3619 10.7912 6.5333 11.0807 6.58267C11.1382 6.59244 11.1959 6.5973 11.2534 6.5973C11.4857 6.5973 11.7133 6.51855 11.897 6.37131L13.2789 5.26413V23.3583ZM23.316 25.3315L26.5361 24.1217C26.5494 24.1166 26.558 24.1038 26.5577 24.0895L26.0954 6.9577C26.0657 5.85439 25.3483 4.86364 24.3105 4.4924L19.303 2.70127L17.1742 6.11251C17.0186 6.3619 16.7633 6.53324 16.4738 6.58261C16.4164 6.59238 16.3587 6.59723 16.3012 6.59723C16.0689 6.59723 15.8413 6.51848 15.6575 6.37124L14.2756 5.26407V23.3573L15.2595 30.7479L22.2913 28.8699C22.3057 28.8661 22.3159 28.8529 22.3159 28.8379L22.3347 9.54889C22.335 9.27341 22.5581 9.05032 22.8331 9.05032H22.8335C23.1087 9.05056 23.3316 9.2742 23.3313 9.54984L23.316 25.3315ZM25.9933 26.7899L23.3135 27.8126L23.3149 26.3979L25.9379 25.4125L26.0147 26.7569C26.0156 26.7715 26.0069 26.7847 25.9933 26.7899ZM1.56097 26.79L4.24235 27.8133V26.3991L1.61629 25.4126L1.53965 26.7569C1.53877 26.7715 1.54735 26.7848 1.56097 26.79Z" transform="matrix(0.965813 0.259242 -0.258397 0.966039 32.5412 2.70044)" fill="black"/>
<path fill-rule="evenodd" clip-rule="evenodd" d="M4.75084 0H0.498357C0.223164 0 0 0.22344 0 0.499113V4.22569C0 5.088 0.700448 5.78951 1.56146 5.78951H3.68773C4.54875 5.78951 5.24919 5.088 5.24919 4.22569V0.499113C5.24919 0.22344 5.02603 0 4.75084 0ZM3.68767 2.12949C3.9991 2.12949 4.25248 1.87573 4.25248 1.56383V0.998164H0.996652V1.56383C0.996652 1.87573 1.25003 2.12949 1.56146 2.12949H3.68767ZM4.25248 4.22562C4.25248 4.53753 3.9991 4.79129 3.68767 4.79129H1.56146C1.25003 4.79129 0.996652 4.53753 0.996652 4.22562V3.02127C1.17195 3.08969 1.36229 3.1276 1.56146 3.1276H3.68773C3.88684 3.1276 4.07725 3.08969 4.25254 3.02127V4.22562H4.25248Z" transform="matrix(0.965813 0.259242 -0.258397 0.966039 36.3535 13.0942)" fill="black"/>
<path d="M0.498357 0.998227C0.773593 0.998227 0.996715 0.774766 0.996715 0.499113C0.996715 0.223461 0.773593 0 0.498357 0C0.223122 0 0 0.223461 0 0.499113C0 0.774766 0.223122 0.998227 0.498357 0.998227Z" transform="matrix(0.965813 0.259242 -0.258397 0.966039 45.2184 14.9225)" fill="black"/>
<path fill-rule="evenodd" clip-rule="evenodd" d="M4.82006 0C7.35896 0 9.43942 1.96643 9.62641 4.46185C12.6628 5.3988 14.8696 8.23163 14.8696 11.5808C14.8696 12.6437 14.6473 13.6547 14.2467 14.5695C14.2217 18.6398 11.7422 20.5306 7.65682 20.5306C3.5507 20.5306 1.79341 19.2813 0.708451 14.7601C0.261415 12.8972 0.615663 11.8351 1.47401 11.2301C1.44096 10.8401 1.42456 10.452 1.42456 10.0702C1.42456 9.4558 1.46703 8.89244 1.553 8.37864C0.598111 7.49638 0 6.23241 0 4.8285C0 2.16179 2.15801 0 4.82006 0Z" transform="translate(48.9352 18.6273)" fill="white"/>
<path fill-rule="evenodd" clip-rule="evenodd" d="M1.45794 0H11.2932C12.0971 0 12.7511 0.649243 12.7512 1.44717V3.65908C12.7513 4.45715 12.0972 5.10642 11.2933 5.10642H1.45794C0.654018 5.10642 0 4.45715 0 3.65915V1.44721C0 0.649209 0.654052 0 1.45794 0ZM11.2932 4.64224C11.8415 4.64224 12.2874 4.20122 12.2874 3.65919V1.44724C12.2874 0.9052 11.8415 0.464245 11.2932 0.464245H1.45794C0.909712 0.464245 0.463701 0.9052 0.463701 1.44724V3.65915C0.463701 4.20122 0.909712 4.64224 1.45794 4.64224H11.2932Z" transform="matrix(0.91328 -0.407331 0.406143 0.913809 50.2807 31.994)" fill="black"/>
<path d="M1.45794 0H11.2932C12.0971 0 12.7511 0.649243 12.7512 1.44717V3.65908C12.7513 4.45715 12.0972 5.10642 11.2933 5.10642H1.45794C0.654018 5.10642 0 4.45715 0 3.65915V1.44721C0 0.649209 0.654052 0 1.45794 0ZM11.2932 4.64224C11.8415 4.64224 12.2874 4.20122 12.2874 3.65919V1.44724C12.2874 0.9052 11.8415 0.464245 11.2932 0.464245H1.45794C0.909712 0.464245 0.463701 0.9052 0.463701 1.44724V3.65915C0.463701 4.20122 0.909712 4.64224 1.45794 4.64224H11.2932Z" transform="matrix(0.91328 -0.407331 0.406143 0.913809 50.2807 31.994)" stroke="black" stroke-width="0.5"/>
<path d="M12.2875 0H0.231851C0.103819 0 0 0.10394 0 0.232123C0 0.360305 0.103819 0.464245 0.231851 0.464245H12.2875C12.4155 0.464245 12.5194 0.360305 12.5194 0.232123C12.5194 0.10394 12.4155 0 12.2875 0Z" transform="matrix(0.91328 -0.407331 0.406143 0.913809 50.8463 33.2667)" fill="black"/>
<path d="M12.2875 0H0.231851C0.103819 0 0 0.10394 0 0.232123C0 0.360305 0.103819 0.464245 0.231851 0.464245H12.2875C12.4155 0.464245 12.5194 0.360305 12.5194 0.232123C12.5194 0.10394 12.4155 0 12.2875 0Z" transform="matrix(0.91328 -0.407331 0.406143 0.913809 50.8463 33.2667)" stroke="black" stroke-width="0.5"/>
<path d="M2.37872 0C0.884237 1.64138 0.0839853 3.48691 0 5.48513L0.46326 5.50467C0.542491 3.61825 1.30223 1.87137 2.72139 0.312704L2.37872 0Z" transform="matrix(0.91328 -0.407331 0.406143 0.913809 49.3829 26.5489)" fill="black"/>
<path d="M2.37872 0C0.884237 1.64138 0.0839853 3.48691 0 5.48513L0.46326 5.50467C0.542491 3.61825 1.30223 1.87137 2.72139 0.312704L2.37872 0Z" transform="matrix(0.91328 -0.407331 0.406143 0.913809 49.3829 26.5489)" stroke="black" stroke-width="0.5"/>
<path d="M0.342665 0L0 0.312772C1.41909 1.87133 2.17882 3.61815 2.25806 5.50471L2.72139 5.48522C2.6374 3.48677 1.83711 1.64132 0.342665 0Z" transform="matrix(0.91328 -0.407331 0.406143 0.913809 55.9467 23.6215)" fill="black"/>
<path d="M0.342665 0L0 0.312772C1.41909 1.87133 2.17882 3.61815 2.25806 5.50471L2.72139 5.48522C2.6374 3.48677 1.83711 1.64132 0.342665 0Z" transform="matrix(0.91328 -0.407331 0.406143 0.913809 55.9467 23.6215)" stroke="black" stroke-width="0.5"/>
<path fill-rule="evenodd" clip-rule="evenodd" d="M0 3.01749C0 1.3536 1.35205 0 3.01393 0C4.6758 0 6.02781 1.3536 6.02785 3.01749C6.02785 4.68128 4.67583 6.03488 3.01393 6.03488C1.35202 6.03488 0 4.68128 0 3.01749ZM0.463701 3.01749C0.463701 4.42532 1.60771 5.57067 3.01393 5.57067C4.42007 5.57067 5.56414 4.42532 5.56414 3.01749C5.56414 1.60962 4.42014 0.464211 3.01393 0.464211C1.60771 0.464211 0.463701 1.60962 0.463701 3.01749Z" transform="matrix(0.91328 -0.407331 0.406143 0.913809 49.3799 21.9755)" fill="black"/>
<path d="M0 3.01749C0 1.3536 1.35205 0 3.01393 0C4.6758 0 6.02781 1.3536 6.02785 3.01749C6.02785 4.68128 4.67583 6.03488 3.01393 6.03488C1.35202 6.03488 0 4.68128 0 3.01749ZM0.463701 3.01749C0.463701 4.42532 1.60771 5.57067 3.01393 5.57067C4.42007 5.57067 5.56414 4.42532 5.56414 3.01749C5.56414 1.60962 4.42014 0.464211 3.01393 0.464211C1.60771 0.464211 0.463701 1.60962 0.463701 3.01749Z" transform="matrix(0.91328 -0.407331 0.406143 0.913809 49.3799 21.9755)" stroke="black" stroke-width="0.5"/>
<path d="M8.57807 0H0.231851C0.103819 0 0 0.10394 0 0.232123C0 0.360305 0.103819 0.464245 0.231851 0.464245H8.57807C8.70608 0.464245 8.80994 0.360305 8.80994 0.232123C8.80994 0.10394 8.70608 0 8.57807 0Z" transform="matrix(0.91328 -0.407331 0.406143 0.913809 51.0319 29.1175)" fill="black"/>
<path d="M8.57807 0H0.231851C0.103819 0 0 0.10394 0 0.232123C0 0.360305 0.103819 0.464245 0.231851 0.464245H8.57807C8.70608 0.464245 8.80994 0.360305 8.80994 0.232123C8.80994 0.10394 8.70608 0 8.57807 0Z" transform="matrix(0.91328 -0.407331 0.406143 0.913809 51.0319 29.1175)" stroke="black" stroke-width="0.5"/>
<path d="M0.463668 0.928422C0.719745 0.928422 0.927335 0.720588 0.927335 0.464211C0.927335 0.207835 0.719745 0 0.463668 0C0.207591 0 0 0.207835 0 0.464211C0 0.720588 0.207591 0.928422 0.463668 0.928422Z" transform="matrix(0.91328 -0.407331 0.406143 0.913809 52.4676 29.4937)" fill="black"/>
<path d="M0.463668 0.928422C0.719745 0.928422 0.927335 0.720588 0.927335 0.464211C0.927335 0.207835 0.719745 0 0.463668 0C0.207591 0 0 0.207835 0 0.464211C0 0.720588 0.207591 0.928422 0.463668 0.928422Z" transform="matrix(0.91328 -0.407331 0.406143 0.913809 52.4676 29.4937)" stroke="black" stroke-width="0.5"/>
<path d="M0.463668 0.928422C0.719745 0.928422 0.927335 0.720588 0.927335 0.464211C0.927335 0.207835 0.719745 0 0.463668 0C0.207591 0 0 0.207835 0 0.464211C0 0.720588 0.207591 0.928422 0.463668 0.928422Z" transform="matrix(0.91328 -0.407331 0.406143 0.913809 54.1615 28.7382)" fill="black"/>
<path d="M0.463668 0.928422C0.719745 0.928422 0.927335 0.720588 0.927335 0.464211C0.927335 0.207835 0.719745 0 0.463668 0C0.207591 0 0 0.207835 0 0.464211C0 0.720588 0.207591 0.928422 0.463668 0.928422Z" transform="matrix(0.91328 -0.407331 0.406143 0.913809 54.1615 28.7382)" stroke="black" stroke-width="0.5"/>
<path d="M0.463668 0.928422C0.719745 0.928422 0.927335 0.720588 0.927335 0.464211C0.927335 0.207835 0.719745 0 0.463668 0C0.207591 0 0 0.207835 0 0.464211C0 0.720588 0.207591 0.928422 0.463668 0.928422Z" transform="matrix(0.91328 -0.407331 0.406143 0.913809 56.0671 27.8883)" fill="black"/>
<path d="M0.463668 0.928422C0.719745 0.928422 0.927335 0.720588 0.927335 0.464211C0.927335 0.207835 0.719745 0 0.463668 0C0.207591 0 0 0.207835 0 0.464211C0 0.720588 0.207591 0.928422 0.463668 0.928422Z" transform="matrix(0.91328 -0.407331 0.406143 0.913809 56.0671 27.8883)" stroke="black" stroke-width="0.5"/>
<path d="M0.463668 0.928422C0.719745 0.928422 0.927335 0.720588 0.927335 0.464211C0.927335 0.207835 0.719745 0 0.463668 0C0.207591 0 0 0.207835 0 0.464211C0 0.720588 0.207591 0.928422 0.463668 0.928422Z" transform="matrix(0.91328 -0.407331 0.406143 0.913809 57.7609 27.1328)" fill="black"/>
<path d="M0.463668 0.928422C0.719745 0.928422 0.927335 0.720588 0.927335 0.464211C0.927335 0.207835 0.719745 0 0.463668 0C0.207591 0 0 0.207835 0 0.464211C0 0.720588 0.207591 0.928422 0.463668 0.928422Z" transform="matrix(0.91328 -0.407331 0.406143 0.913809 57.7609 27.1328)" stroke="black" stroke-width="0.5"/>
<path d="M1.09831 0.0751195C1.01168 -0.0193004 0.864965 -0.0255565 0.770727 0.0611452C0.440933 0.364329 0.194038 0.795729 0.0756162 1.27572C0.00538516 1.56064 -0.0160781 1.84231 0.0118717 2.11288C0.0242335 2.23229 0.124893 2.32113 0.242194 2.32113C0.250175 2.32113 0.258258 2.32073 0.266374 2.31985C0.393728 2.30668 0.486339 2.19258 0.473128 2.06511C0.450714 1.84792 0.468441 1.61974 0.525802 1.387C0.62259 0.994666 0.820991 0.645242 1.08435 0.40309C1.17863 0.316422 1.18491 0.169539 1.09831 0.0751195Z" transform="matrix(0.91328 -0.407331 0.406143 0.913809 50.7922 22.8705)" fill="black"/>
<path d="M1.09831 0.0751195C1.01168 -0.0193004 0.864965 -0.0255565 0.770727 0.0611452C0.440933 0.364329 0.194038 0.795729 0.0756162 1.27572C0.00538516 1.56064 -0.0160781 1.84231 0.0118717 2.11288C0.0242335 2.23229 0.124893 2.32113 0.242194 2.32113C0.250175 2.32113 0.258258 2.32073 0.266374 2.31985C0.393728 2.30668 0.486339 2.19258 0.473128 2.06511C0.450714 1.84792 0.468441 1.61974 0.525802 1.387C0.62259 0.994666 0.820991 0.645242 1.08435 0.40309C1.17863 0.316422 1.18491 0.169539 1.09831 0.0751195Z" transform="matrix(0.91328 -0.407331 0.406143 0.913809 50.7922 22.8705)" stroke="black" stroke-width="0.5"/>
<path d="M6.72337 0H0.231851C0.103819 0 0 0.10394 0 0.232123C0 0.360305 0.103819 0.464245 0.231851 0.464245H6.72337C6.8514 0.464245 6.95522 0.360305 6.95522 0.232123C6.95522 0.10394 6.8514 0 6.72337 0Z" transform="matrix(0.91328 -0.407331 0.406143 0.913809 51.5062 34.7514)" fill="black"/>
<path d="M6.72337 0H0.231851C0.103819 0 0 0.10394 0 0.232123C0 0.360305 0.103819 0.464245 0.231851 0.464245H6.72337C6.8514 0.464245 6.95522 0.360305 6.95522 0.232123C6.95522 0.10394 6.8514 0 6.72337 0Z" transform="matrix(0.91328 -0.407331 0.406143 0.913809 51.5062 34.7514)" stroke="black" stroke-width="0.5"/>
</svg>
