<svg xmlns="http://www.w3.org/2000/svg" xmlns:xlink="http://www.w3.org/1999/xlink" width="42" height="50"><defs><clipPath id="clip_0"><rect width="1440" height="4080" x="-1057" y="-779" clip-rule="evenodd"/></clipPath></defs><g clip-path="url(#clip_0)"><path fill="#000" fill-rule="evenodd" stroke="none" d="M27.0844 0L31.25 0C37.0041 0 41.6672 4.66387 41.6672 10.4172L41.6672 41.6672L35.4172 41.6672L35.4172 50L6.25 50L6.25 41.6672L0 41.6672L0 10.4172C0 4.66387 4.66465 0 10.4172 0L14.5844 0C14.5844 3.44619 17.3874 6.25 20.8344 6.25C24.2798 6.25 27.0844 3.44619 27.0844 0ZM35.4173 35.4172L39.5845 35.4172L39.5845 10.4172C39.5845 8.19092 38.7178 6.09814 37.1431 4.52422C35.5698 2.95029 33.4764 2.08359 31.2501 2.08359L28.9048 2.08359C27.9801 5.67783 24.7178 8.33359 20.8344 8.33359C16.951 8.33359 13.6887 5.67783 12.764 2.08359L10.4172 2.08359C8.19092 2.08359 6.09893 2.95029 4.52422 4.52422C2.95107 6.09814 2.08437 8.19092 2.08437 10.4172L2.08437 35.4172L6.2501 35.4172L6.2501 12.5L8.33447 12.5L8.33447 14.5836L33.3345 14.5836L33.3345 12.5L35.4173 12.5L35.4173 35.4172ZM8.33438 25L33.3344 25L33.3344 16.6672L8.33438 16.6672L8.33438 25ZM33.3344 47.9172L32.2922 47.9172C32.2922 47.3419 31.8253 46.875 31.25 46.875C30.6747 46.875 30.2094 47.3419 30.2094 47.9172L28.125 47.9172C28.125 47.3419 27.6596 46.875 27.0844 46.875C26.5092 46.875 26.0422 47.3419 26.0422 47.9172L23.9594 47.9172C23.9594 47.3419 23.4925 46.875 22.9172 46.875C22.3419 46.875 21.875 47.3419 21.875 47.9172L19.7922 47.9172C19.7922 47.3419 19.3253 46.875 18.75 46.875C18.1747 46.875 17.7094 47.3419 17.7094 47.9172L15.625 47.9172C15.625 47.3419 15.1596 46.875 14.5844 46.875C14.0092 46.875 13.5422 47.3419 13.5422 47.9172L11.4594 47.9172C11.4594 47.3419 10.9925 46.875 10.4172 46.875C9.8419 46.875 9.375 47.3419 9.375 47.9172L8.33438 47.9172L8.33438 27.0844L33.3344 27.0844L33.3344 47.9172ZM5.20938 38.5422C5.78457 38.5422 6.25 39.0076 6.25 39.5844L6.25 37.5L2.08437 37.5L2.08437 39.5844C2.08437 39.0076 2.54971 38.5422 3.125 38.5422C3.70029 38.5422 4.16719 39.0076 4.16719 39.5844C4.16719 39.0076 4.63408 38.5422 5.20938 38.5422ZM39.5844 39.5844C39.5844 39.0076 39.1175 38.5422 38.5422 38.5422C37.9669 38.5422 37.5 39.0076 37.5 39.5844C37.5 39.0076 37.0346 38.5422 36.4594 38.5422C35.8842 38.5422 35.4172 39.0076 35.4172 39.5844L35.4172 37.5L39.5844 37.5L39.5844 39.5844Z" transform="translate(0.166405 0)"/></g></svg>