<svg xmlns="http://www.w3.org/2000/svg" xmlns:xlink="http://www.w3.org/1999/xlink" width="43" height="50"><defs><clipPath id="clip_0"><rect width="1440" height="4080" x="-708" y="-779" clip-rule="evenodd"/></clipPath></defs><g clip-path="url(#clip_0)"><path fill="#000" stroke="none" d="M0.773064 0L0.764815 0C0.340206 0 0 0.344234 0 0.768939C0 1.19364 0.348358 1.53788 0.773064 1.53788C1.19777 1.53788 1.542 1.19364 1.542 0.768939C1.542 0.344234 1.19767 0 0.773064 0Z" transform="translate(23.8982 24.6051)"/></g><defs><clipPath id="clip_1"><rect width="1440" height="4080" x="-708" y="-779" clip-rule="evenodd"/></clipPath></defs><g clip-path="url(#clip_1)"><path fill="#000" stroke="none" d="M0.773064 0L0.764815 0C0.340206 0 0 0.344234 0 0.768939C0 1.19355 0.348358 1.53788 0.773064 1.53788C1.19767 1.53788 1.542 1.19364 1.542 0.768939C1.542 0.344234 1.19777 0 0.773064 0Z" transform="translate(23.9063 36.0876)"/></g><defs><clipPath id="clip_2"><rect width="1440" height="4080" x="-708" y="-779" clip-rule="evenodd"/></clipPath></defs><g clip-path="url(#clip_2)"><path fill="#000" stroke="none" d="M0.773064 0L0.764815 0C0.340206 0 0 0.344234 0 0.768939C0 1.19364 0.348358 1.53788 0.773064 1.53788C1.19777 1.53788 1.542 1.19364 1.542 0.768939C1.542 0.344234 1.19767 0 0.773064 0Z" transform="translate(23.8982 18.8639)"/></g><defs><clipPath id="clip_3"><rect width="1440" height="4080" x="-708" y="-779" clip-rule="evenodd"/></clipPath></defs><g clip-path="url(#clip_3)"><path fill="#000" stroke="none" d="M0.773064 0L0.764815 0C0.340206 0 0 0.344234 0 0.768939C0 1.19364 0.348358 1.53788 0.772968 1.53788C1.19758 1.53788 1.54191 1.19364 1.54191 0.768939C1.54191 0.344234 1.19767 0 0.773064 0Z" transform="translate(23.8982 30.3464)"/></g><defs><clipPath id="clip_4"><rect width="1440" height="4080" x="-708" y="-779" clip-rule="evenodd"/></clipPath></defs><g clip-path="url(#clip_4)"><path fill="#000" fill-rule="evenodd" stroke="none" d="M41.801 10.6777L42.5143 37.0711C42.5322 37.7324 42.1376 38.3332 41.529 38.5833L41.6748 41.1344C41.7146 41.829 41.3043 42.4622 40.6541 42.7099L35.9672 44.496C35.9376 45.1861 35.4628 45.7842 34.7905 45.9634L23.0961 49.082C22.8825 49.1388 22.6548 49.1011 22.4709 48.9784C22.2872 48.8556 22.1651 48.6597 22.1358 48.4406L21.2577 41.8543L20.3795 48.4406C20.3504 48.6597 20.2283 48.8555 20.0444 48.9784C19.9168 49.0636 19.7679 49.1079 19.6173 49.1079C19.5511 49.1079 19.4846 49.0993 19.4192 49.082L7.72546 45.9635C7.05301 45.7843 6.57834 45.1863 6.5487 44.4962L1.86092 42.7099C1.21072 42.462 0.8005 41.8289 0.840305 41.1342L0.986093 38.5831C0.377234 38.3331 -0.017259 37.7323 0.000580915 37.0711L0.71389 10.6777C0.77681 8.34832 2.29349 6.25673 4.4879 5.47293L12.5575 2.59091L14.0564 0.342412C14.1792 0.158257 14.3754 0.0358717 14.595 0.00671395C14.6288 0.00220601 14.6625 0.000767309 14.6962 0.000767309L14.6962 0L27.819 0L27.819 0.000767309C27.8527 0.000767309 27.8864 0.00220601 27.9202 0.00671395C28.1397 0.0358717 28.3359 0.158162 28.4587 0.342412L29.9577 2.59101L38.0269 5.47283C40.2213 6.25664 41.7381 8.34832 41.801 10.6777ZM16.7427 1.53778L21.2576 5.48837L25.7726 1.53778L16.7427 1.53778ZM14.8497 1.92479L20.0598 6.48357L17.396 8.61467L17.3959 8.61475C17.3909 8.61874 17.378 8.62913 17.3554 8.62513C17.3327 8.62119 17.3239 8.60719 17.3206 8.60172L13.9711 3.24284L14.8497 1.92479ZM25.1946 8.60182L28.5441 3.24284L27.6655 1.92489L22.4555 6.48366L25.1193 8.61477L25.1194 8.61484C25.1244 8.61883 25.1373 8.62923 25.1599 8.62522C25.1824 8.62129 25.1913 8.60719 25.1946 8.60182ZM20.4887 35.986L18.9707 47.3706L8.12178 44.4775C8.09933 44.4716 8.0836 44.4512 8.0836 44.428L8.0836 14.7118C8.0836 14.2872 7.73937 13.9429 7.31466 13.9429C6.89006 13.9429 6.54573 14.2871 6.54573 14.7118L6.54573 39.0282L1.57097 37.162C1.55045 37.1543 1.53712 37.1346 1.53779 37.1126L2.2511 10.7192C2.29704 9.01943 3.40388 7.49306 5.00516 6.92113L12.7318 4.1616L16.0163 9.41699C16.2564 9.80122 16.6503 10.0653 17.097 10.1413C17.1856 10.1564 17.2746 10.1639 17.3634 10.1639C17.7218 10.1639 18.073 10.0425 18.3565 9.8157L20.4887 8.10997L20.4887 35.986ZM35.9753 39.0259L40.9439 37.1621C40.9643 37.1543 40.9777 37.1346 40.9772 37.1125L40.2639 10.7191C40.2179 9.01933 39.1112 7.49296 37.5098 6.92103L29.7835 4.1616L26.4989 9.41699C26.2589 9.80122 25.8649 10.0652 25.4183 10.1412C25.3295 10.1563 25.2405 10.1638 25.1518 10.1638C24.7936 10.1638 24.4423 10.0424 24.1587 9.81561L22.0266 8.10988L22.0266 35.9846L23.5446 47.3706L34.3942 44.4773C34.4166 44.4715 34.4323 44.4512 34.4323 44.428L34.4613 14.7111C34.4618 14.2867 34.8059 13.943 35.2302 13.943L35.2309 13.943C35.6555 13.9433 35.9995 14.288 35.9991 14.7126L35.9753 39.0259ZM40.1064 41.2728L35.9715 42.8484L35.9736 40.6689L40.0209 39.1507L40.1393 41.2219C40.1406 41.2444 40.1273 41.2648 40.1064 41.2728ZM2.40849 41.2729L6.54573 42.8494L6.54573 40.6707L2.49385 39.1509L2.37559 41.222C2.37425 41.2445 2.38749 41.2649 2.40849 41.2729Z" transform="translate(0.124725 0)"/></g><defs><clipPath id="clip_5"><rect width="1440" height="4080" x="-708" y="-779" clip-rule="evenodd"/></clipPath></defs><g clip-path="url(#clip_5)"><path fill="#000" fill-rule="evenodd" stroke="none" d="M7.33029 0L0.768939 0C0.34433 0 0 0.344234 0 0.768939L0 6.51014C0 7.83864 1.08075 8.91939 2.40925 8.91939L5.68998 8.91939C7.01848 8.91939 8.09923 7.83864 8.09923 6.51014L8.09923 0.768939C8.09923 0.344234 7.7549 0 7.33029 0ZM5.68988 3.28073C6.17041 3.28073 6.56135 2.88978 6.56135 2.40925L6.56135 1.53778L1.53778 1.53778L1.53778 2.40925C1.53778 2.88978 1.92873 3.28073 2.40925 3.28073L5.68988 3.28073ZM6.56135 6.51004C6.56135 6.99057 6.17041 7.38151 5.68988 7.38151L2.40925 7.38151C1.92873 7.38151 1.53778 6.99057 1.53778 6.51004L1.53778 4.65459C1.80826 4.76 2.10195 4.81841 2.40925 4.81841L5.68998 4.81841C5.99719 4.81841 6.29097 4.76 6.56145 4.65459L6.56145 6.51004L6.56135 6.51004Z" transform="translate(9.95117 13.9429)"/></g><defs><clipPath id="clip_6"><rect width="1440" height="4080" x="-708" y="-779" clip-rule="evenodd"/></clipPath></defs><g clip-path="url(#clip_6)"><path fill="#000" stroke="none" d="M0.768939 1.53788C1.19361 1.53788 1.53788 1.19361 1.53788 0.768939C1.53788 0.344266 1.19361 0 0.768939 0C0.344266 0 0 0.344266 0 0.768939C0 1.19361 0.344266 1.53788 0.768939 1.53788Z" transform="translate(23.8938 13.1227)"/></g></svg>