<?xml version="1.0" encoding="utf-8" ?>
<svg xmlns="http://www.w3.org/2000/svg" xmlns:xlink="http://www.w3.org/1999/xlink" width="44" height="51">
	<defs>
		<clipPath id="clip_0">
			<rect x="-1207" y="-779" width="1440" height="4080" clip-rule="evenodd"/>
		</clipPath>
	</defs>
	<g clip-path="url(#clip_0)">
		<path fill="rgb(0,0,0)" stroke="none" transform="translate(0.535828 32.8698)" d="M5.01046 0L38.811 0C41.5737 0 43.8214 2.22862 43.8215 4.96762L43.8215 12.5603C43.8217 15.2998 41.5741 17.5285 38.8113 17.5285L5.01046 17.5285C2.24764 17.5285 0 15.2998 0 12.5606L0 4.96774C0 2.2285 2.24776 0 5.01046 0ZM38.811 15.9352C40.6951 15.9352 42.2279 14.4213 42.2279 12.5607L42.2279 4.96786C42.2279 3.10723 40.6951 1.59359 38.811 1.59359L5.01046 1.59359C3.12637 1.59359 1.59359 3.10723 1.59359 4.96786L1.59359 12.5606C1.59359 14.4213 3.12637 15.9352 5.01046 15.9352L38.811 15.9352Z" fill-rule="evenodd"/>
	</g>
	<defs>
		<clipPath id="clip_1">
			<rect x="-1207" y="-779" width="1440" height="4080" clip-rule="evenodd"/>
		</clipPath>
	</defs>
	<g clip-path="url(#clip_1)">
		<path fill="none" stroke="rgb(0,0,0)" stroke-width="0.5" stroke-miterlimit="4" transform="translate(0.535828 32.8698)" d="M5.01046 0L38.811 0C41.5737 0 43.8214 2.22862 43.8215 4.96762L43.8215 12.5603C43.8217 15.2998 41.5741 17.5285 38.8113 17.5285L5.01046 17.5285C2.24764 17.5285 0 15.2998 0 12.5606L0 4.96774C0 2.2285 2.24776 0 5.01046 0ZM38.811 15.9352C40.6951 15.9352 42.2279 14.4213 42.2279 12.5607L42.2279 4.96786C42.2279 3.10723 40.6951 1.59359 38.811 1.59359L5.01046 1.59359C3.12637 1.59359 1.59359 3.10723 1.59359 4.96786L1.59359 12.5606C1.59359 14.4213 3.12637 15.9352 5.01046 15.9352L38.811 15.9352Z" fill-rule="evenodd"/>
	</g>
	<defs>
		<clipPath id="clip_2">
			<rect x="-1207" y="-779" width="1440" height="4080" clip-rule="evenodd"/>
		</clipPath>
	</defs>
	<g clip-path="url(#clip_2)">
		<path fill="rgb(0,0,0)" stroke="none" transform="translate(0.535828 37.6503)" d="M42.2281 0L0.796794 0C0.356789 0 0 0.356789 0 0.796794C0 1.2368 0.356789 1.59359 0.796794 1.59359L42.2281 1.59359C42.6681 1.59359 43.0249 1.2368 43.0249 0.796794C43.0249 0.356789 42.6681 0 42.2281 0Z"/>
	</g>
	<defs>
		<clipPath id="clip_3">
			<rect x="-1207" y="-779" width="1440" height="4080" clip-rule="evenodd"/>
		</clipPath>
	</defs>
	<g clip-path="url(#clip_3)">
		<path fill="none" stroke="rgb(0,0,0)" stroke-width="0.5" stroke-miterlimit="4" transform="translate(0.535828 37.6503)" d="M42.2281 0L0.796794 0C0.356789 0 0 0.356789 0 0.796794C0 1.2368 0.356789 1.59359 0.796794 1.59359L42.2281 1.59359C42.6681 1.59359 43.0249 1.2368 43.0249 0.796794C43.0249 0.356789 42.6681 0 42.2281 0Z"/>
	</g>
	<defs>
		<clipPath id="clip_4">
			<rect x="-1207" y="-779" width="1440" height="4080" clip-rule="evenodd"/>
		</clipPath>
	</defs>
	<g clip-path="url(#clip_4)">
		<path fill="rgb(0,0,0)" stroke="none" transform="translate(5.31648 14.5445)" d="M8.17488 0C3.03884 5.63428 0.288629 11.9693 0 18.8285L1.59207 18.8956C1.86436 12.4202 4.47533 6.42372 9.3525 1.0734L8.17488 0Z"/>
	</g>
	<defs>
		<clipPath id="clip_5">
			<rect x="-1207" y="-779" width="1440" height="4080" clip-rule="evenodd"/>
		</clipPath>
	</defs>
	<g clip-path="url(#clip_5)">
		<path fill="none" stroke="rgb(0,0,0)" stroke-width="0.5" stroke-miterlimit="4" transform="translate(5.31648 14.5445)" d="M8.17488 0C3.03884 5.63428 0.288629 11.9693 0 18.8285L1.59207 18.8956C1.86436 12.4202 4.47533 6.42372 9.3525 1.0734L8.17488 0Z"/>
	</g>
	<defs>
		<clipPath id="clip_6">
			<rect x="-1207" y="-779" width="1440" height="4080" clip-rule="evenodd"/>
		</clipPath>
	</defs>
	<g clip-path="url(#clip_6)">
		<path fill="rgb(0,0,0)" stroke="none" transform="translate(30.0158 14.5445)" d="M1.17763 0L0 1.07364C4.87694 6.42361 7.48791 12.4198 7.7602 18.8957L9.3525 18.8288C9.06387 11.9688 6.31355 5.63405 1.17763 0Z"/>
	</g>
	<defs>
		<clipPath id="clip_7">
			<rect x="-1207" y="-779" width="1440" height="4080" clip-rule="evenodd"/>
		</clipPath>
	</defs>
	<g clip-path="url(#clip_7)">
		<path fill="none" stroke="rgb(0,0,0)" stroke-width="0.5" stroke-miterlimit="4" transform="translate(30.0158 14.5445)" d="M1.17763 0L0 1.07364C4.87694 6.42361 7.48791 12.4198 7.7602 18.8957L9.3525 18.8288C9.06387 11.9688 6.31355 5.63405 1.17763 0Z"/>
	</g>
	<defs>
		<clipPath id="clip_8">
			<rect x="-1207" y="-779" width="1440" height="4080" clip-rule="evenodd"/>
		</clipPath>
	</defs>
	<g clip-path="url(#clip_8)">
		<path fill="rgb(0,0,0)" stroke="none" transform="translate(11.6905 0.202881)" d="M0 10.358C0 4.64643 4.64655 0 10.3579 0C16.0692 0 20.7156 4.64643 20.7157 10.358C20.7157 16.0692 16.0693 20.7156 10.3579 20.7156C4.64643 20.7156 0 16.0692 0 10.358ZM1.59359 10.358C1.59359 15.1906 5.52516 19.1221 10.3579 19.1221C15.1903 19.1221 19.1221 15.1906 19.1221 10.358C19.1221 5.52527 15.1906 1.59347 10.3579 1.59347C5.52516 1.59347 1.59359 5.52527 1.59359 10.358Z" fill-rule="evenodd"/>
	</g>
	<defs>
		<clipPath id="clip_9">
			<rect x="-1207" y="-779" width="1440" height="4080" clip-rule="evenodd"/>
		</clipPath>
	</defs>
	<g clip-path="url(#clip_9)">
		<path fill="none" stroke="rgb(0,0,0)" stroke-width="0.5" stroke-miterlimit="4" transform="translate(11.6905 0.202881)" d="M0 10.358C0 4.64643 4.64655 0 10.3579 0C16.0692 0 20.7156 4.64643 20.7157 10.358C20.7157 16.0692 16.0693 20.7156 10.3579 20.7156C4.64643 20.7156 0 16.0692 0 10.358ZM1.59359 10.358C1.59359 15.1906 5.52516 19.1221 10.3579 19.1221C15.1903 19.1221 19.1221 15.1906 19.1221 10.358C19.1221 5.52527 15.1906 1.59347 10.3579 1.59347C5.52516 1.59347 1.59359 5.52527 1.59359 10.358Z" fill-rule="evenodd"/>
	</g>
	<defs>
		<clipPath id="clip_10">
			<rect x="-1207" y="-779" width="1440" height="4080" clip-rule="evenodd"/>
		</clipPath>
	</defs>
	<g clip-path="url(#clip_10)">
		<path fill="rgb(0,0,0)" stroke="none" transform="translate(6.90996 24.9023)" d="M29.48 0L0.796794 0C0.356789 0 0 0.356789 0 0.796794C0 1.2368 0.356789 1.59359 0.796794 1.59359L29.48 1.59359C29.92 1.59359 30.2768 1.2368 30.2768 0.796794C30.2768 0.356789 29.92 0 29.48 0Z"/>
	</g>
	<defs>
		<clipPath id="clip_11">
			<rect x="-1207" y="-779" width="1440" height="4080" clip-rule="evenodd"/>
		</clipPath>
	</defs>
	<g clip-path="url(#clip_11)">
		<path fill="none" stroke="rgb(0,0,0)" stroke-width="0.5" stroke-miterlimit="4" transform="translate(6.90996 24.9023)" d="M29.48 0L0.796794 0C0.356789 0 0 0.356789 0 0.796794C0 1.2368 0.356789 1.59359 0.796794 1.59359L29.48 1.59359C29.92 1.59359 30.2768 1.2368 30.2768 0.796794C30.2768 0.356789 29.92 0 29.48 0Z"/>
	</g>
	<defs>
		<clipPath id="clip_12">
			<rect x="-1207" y="-779" width="1440" height="4080" clip-rule="evenodd"/>
		</clipPath>
	</defs>
	<g clip-path="url(#clip_12)">
		<path fill="rgb(0,0,0)" stroke="none" transform="translate(10.8938 28.0894)" d="M1.59347 3.18694C2.47352 3.18694 3.18694 2.47352 3.18694 1.59347C3.18694 0.713422 2.47352 0 1.59347 0C0.713422 0 0 0.713422 0 1.59347C0 2.47352 0.713422 3.18694 1.59347 3.18694Z"/>
	</g>
	<defs>
		<clipPath id="clip_13">
			<rect x="-1207" y="-779" width="1440" height="4080" clip-rule="evenodd"/>
		</clipPath>
	</defs>
	<g clip-path="url(#clip_13)">
		<path fill="none" stroke="rgb(0,0,0)" stroke-width="0.5" stroke-miterlimit="4" transform="translate(10.8938 28.0894)" d="M1.59347 3.18694C2.47352 3.18694 3.18694 2.47352 3.18694 1.59347C3.18694 0.713422 2.47352 0 1.59347 0C0.713422 0 0 0.713422 0 1.59347C0 2.47352 0.713422 3.18694 1.59347 3.18694Z"/>
	</g>
	<defs>
		<clipPath id="clip_14">
			<rect x="-1207" y="-779" width="1440" height="4080" clip-rule="evenodd"/>
		</clipPath>
	</defs>
	<g clip-path="url(#clip_14)">
		<path fill="rgb(0,0,0)" stroke="none" transform="translate(17.2678 28.0894)" d="M1.59347 3.18694C2.47352 3.18694 3.18694 2.47352 3.18694 1.59347C3.18694 0.713422 2.47352 0 1.59347 0C0.713422 0 0 0.713422 0 1.59347C0 2.47352 0.713422 3.18694 1.59347 3.18694Z"/>
	</g>
	<defs>
		<clipPath id="clip_15">
			<rect x="-1207" y="-779" width="1440" height="4080" clip-rule="evenodd"/>
		</clipPath>
	</defs>
	<g clip-path="url(#clip_15)">
		<path fill="none" stroke="rgb(0,0,0)" stroke-width="0.5" stroke-miterlimit="4" transform="translate(17.2678 28.0894)" d="M1.59347 3.18694C2.47352 3.18694 3.18694 2.47352 3.18694 1.59347C3.18694 0.713422 2.47352 0 1.59347 0C0.713422 0 0 0.713422 0 1.59347C0 2.47352 0.713422 3.18694 1.59347 3.18694Z"/>
	</g>
	<defs>
		<clipPath id="clip_16">
			<rect x="-1207" y="-779" width="1440" height="4080" clip-rule="evenodd"/>
		</clipPath>
	</defs>
	<g clip-path="url(#clip_16)">
		<path fill="rgb(0,0,0)" stroke="none" transform="translate(24.4386 28.0894)" d="M1.59347 3.18694C2.47352 3.18694 3.18694 2.47352 3.18694 1.59347C3.18694 0.713422 2.47352 0 1.59347 0C0.713422 0 0 0.713422 0 1.59347C0 2.47352 0.713422 3.18694 1.59347 3.18694Z"/>
	</g>
	<defs>
		<clipPath id="clip_17">
			<rect x="-1207" y="-779" width="1440" height="4080" clip-rule="evenodd"/>
		</clipPath>
	</defs>
	<g clip-path="url(#clip_17)">
		<path fill="none" stroke="rgb(0,0,0)" stroke-width="0.5" stroke-miterlimit="4" transform="translate(24.4386 28.0894)" d="M1.59347 3.18694C2.47352 3.18694 3.18694 2.47352 3.18694 1.59347C3.18694 0.713422 2.47352 0 1.59347 0C0.713422 0 0 0.713422 0 1.59347C0 2.47352 0.713422 3.18694 1.59347 3.18694Z"/>
	</g>
	<defs>
		<clipPath id="clip_18">
			<rect x="-1207" y="-779" width="1440" height="4080" clip-rule="evenodd"/>
		</clipPath>
	</defs>
	<g clip-path="url(#clip_18)">
		<path fill="rgb(0,0,0)" stroke="none" transform="translate(30.8126 28.0894)" d="M1.59347 3.18694C2.47352 3.18694 3.18694 2.47352 3.18694 1.59347C3.18694 0.713422 2.47352 0 1.59347 0C0.713422 0 0 0.713422 0 1.59347C0 2.47352 0.713422 3.18694 1.59347 3.18694Z"/>
	</g>
	<defs>
		<clipPath id="clip_19">
			<rect x="-1207" y="-779" width="1440" height="4080" clip-rule="evenodd"/>
		</clipPath>
	</defs>
	<g clip-path="url(#clip_19)">
		<path fill="none" stroke="rgb(0,0,0)" stroke-width="0.5" stroke-miterlimit="4" transform="translate(30.8126 28.0894)" d="M1.59347 3.18694C2.47352 3.18694 3.18694 2.47352 3.18694 1.59347C3.18694 0.713422 2.47352 0 1.59347 0C0.713422 0 0 0.713422 0 1.59347C0 2.47352 0.713422 3.18694 1.59347 3.18694Z"/>
	</g>
	<defs>
		<clipPath id="clip_20">
			<rect x="-1207" y="-779" width="1440" height="4080" clip-rule="evenodd"/>
		</clipPath>
	</defs>
	<g clip-path="url(#clip_20)">
		<path fill="rgb(0,0,0)" stroke="none" transform="translate(14.877 4.98328)" d="M3.77454 0.257858C3.47681 -0.0662514 2.97261 -0.0877265 2.64873 0.20989C1.51534 1.25061 0.666843 2.73146 0.259868 4.37908C0.018507 5.35713 -0.0552551 6.32398 0.0407991 7.25277C0.0832823 7.66267 0.429217 7.96764 0.832341 7.96764C0.859769 7.96764 0.887546 7.96623 0.915441 7.9632C1.35311 7.91803 1.67139 7.52635 1.62598 7.08879C1.54895 6.34323 1.60988 5.55998 1.80701 4.76108C2.13964 3.41434 2.82147 2.21489 3.72657 1.38366C4.05056 1.08617 4.07216 0.581968 3.77454 0.257858Z"/>
	</g>
	<defs>
		<clipPath id="clip_21">
			<rect x="-1207" y="-779" width="1440" height="4080" clip-rule="evenodd"/>
		</clipPath>
	</defs>
	<g clip-path="url(#clip_21)">
		<path fill="none" stroke="rgb(0,0,0)" stroke-width="0.5" stroke-miterlimit="4" transform="translate(14.877 4.98328)" d="M3.77454 0.257858C3.47681 -0.0662514 2.97261 -0.0877265 2.64873 0.20989C1.51534 1.25061 0.666843 2.73146 0.259868 4.37908C0.018507 5.35713 -0.0552551 6.32398 0.0407991 7.25277C0.0832823 7.66267 0.429217 7.96764 0.832341 7.96764C0.859769 7.96764 0.887546 7.96623 0.915441 7.9632C1.35311 7.91803 1.67139 7.52635 1.62598 7.08879C1.54895 6.34323 1.60988 5.55998 1.80701 4.76108C2.13964 3.41434 2.82147 2.21489 3.72657 1.38366C4.05056 1.08617 4.07216 0.581968 3.77454 0.257858Z"/>
	</g>
	<defs>
		<clipPath id="clip_22">
			<rect x="-1207" y="-779" width="1440" height="4080" clip-rule="evenodd"/>
		</clipPath>
	</defs>
	<g clip-path="url(#clip_22)">
		<path fill="rgb(0,0,0)" stroke="none" transform="translate(0.535828 43.2277)" d="M23.106 0L0.796794 0C0.356789 0 0 0.356789 0 0.796794C0 1.2368 0.356789 1.59359 0.796794 1.59359L23.106 1.59359C23.546 1.59359 23.9028 1.2368 23.9028 0.796794C23.9028 0.356789 23.546 0 23.106 0Z"/>
	</g>
	<defs>
		<clipPath id="clip_23">
			<rect x="-1207" y="-779" width="1440" height="4080" clip-rule="evenodd"/>
		</clipPath>
	</defs>
	<g clip-path="url(#clip_23)">
		<path fill="none" stroke="rgb(0,0,0)" stroke-width="0.5" stroke-miterlimit="4" transform="translate(0.535828 43.2277)" d="M23.106 0L0.796794 0C0.356789 0 0 0.356789 0 0.796794C0 1.2368 0.356789 1.59359 0.796794 1.59359L23.106 1.59359C23.546 1.59359 23.9028 1.2368 23.9028 0.796794C23.9028 0.356789 23.546 0 23.106 0Z"/>
	</g>
</svg>
