<?xml version="1.0" encoding="utf-8" ?>
<svg xmlns="http://www.w3.org/2000/svg" xmlns:xlink="http://www.w3.org/1999/xlink" width="44" height="50">
	<defs>
		<clipPath id="clip_0">
			<rect x="-531" y="-779" width="1440" height="4080" clip-rule="evenodd"/>
		</clipPath>
	</defs>
	<g clip-path="url(#clip_0)">
		<path fill="rgb(0,0,0)" stroke="none" transform="translate(0.987946 0)" d="M33.2155 19.1246L33.2155 22.459L43.1971 44.9672L42.615 45.464C42.4243 45.6268 37.7566 49.4521 21.5977 49.4521C5.43972 49.4521 0.77272 45.6267 0.581977 45.4639L0 44.9671L9.98924 22.4403L9.98924 19.1249C9.50617 17.9653 8.39916 14.821 8.5737 10.6995C8.68656 8.03953 7.10675 2.68251 7.09074 2.62875L6.77995 1.58156L13.6579 0L13.8956 0.98737C13.9526 1.2168 15.3842 6.69089 21.6023 6.69089C24.2346 6.69089 26.3293 5.7303 27.8279 3.83569C28.9401 2.42969 29.3057 1.00143 29.309 0.98737L29.5467 0L36.4246 1.58135L36.114 2.62854C36.0981 2.68241 34.5184 8.04271 34.631 10.6993C34.8055 14.8206 33.6986 17.9646 33.2155 19.1246ZM12.2247 2.43523C12.5036 3.13336 12.987 4.12227 13.7673 5.10882C15.0787 6.76671 17.5026 8.74299 21.6023 8.74299C25.702 8.74299 28.1258 6.76671 29.4373 5.10882C30.2177 4.12227 30.7009 3.13336 30.9798 2.43523L33.8526 3.09581C33.372 4.8874 32.4854 8.54086 32.5807 10.7863C32.7278 14.2581 31.8466 16.9896 31.4043 18.1232L11.7982 18.1232C11.3555 16.9958 10.476 14.2794 10.6241 10.7863C10.7193 8.54086 9.83256 4.88729 9.35206 3.0957L12.2247 2.43523ZM12.0413 20.1753L12.0413 21.6314L31.1634 21.6314L31.1634 20.1753L12.0413 20.1753ZM21.5982 47.3998C25.9862 47.3998 32.2589 47.0952 37.2225 45.6443C38.9477 45.1401 40.0406 44.6325 40.6543 44.295L31.5139 23.6835L27.6195 23.6835L29.634 32.6281L27.632 33.079L25.516 23.6837L17.5931 23.6837L15.4772 33.079L13.4751 32.6281L15.4896 23.6835L11.6828 23.6835L2.54297 44.295C3.15665 44.6325 4.2494 45.1399 5.9745 45.6443C10.9377 47.0952 17.2102 47.3998 21.5982 47.3998Z" fill-rule="evenodd"/>
	</g>
</svg>
