<?xml version="1.0" encoding="utf-8" ?>
<svg xmlns="http://www.w3.org/2000/svg" xmlns:xlink="http://www.w3.org/1999/xlink" width="43" height="50">
	<defs>
		<clipPath id="clip_0">
			<rect x="-882" y="-779" width="1440" height="4080" clip-rule="evenodd"/>
		</clipPath>
	</defs>
	<g clip-path="url(#clip_0)">
		<path fill="rgb(0,0,0)" stroke="none" transform="translate(0.355011 0)" d="M41.8395 9.34697C41.756 5.83634 39.4447 2.7836 36.0882 1.751L31.4511 0.324188C30.7521 0.108958 30.0269 0 29.2955 0L13.2249 0C12.4936 0 11.7683 0.108958 11.0692 0.324188L6.43195 1.751C3.07565 2.7837 0.764416 5.83634 0.680875 9.34697L0.000464233 37.9236C-0.013731 38.5178 0.298564 39.0575 0.807194 39.3439L0.807194 42.0907C0.807194 42.6965 1.14375 43.2411 1.68557 43.5121L7.36855 46.3534L7.36855 47.5186C7.36855 48.3948 8.08138 49.1077 8.95764 49.1077L33.5627 49.1077C34.439 49.1077 35.1518 48.3948 35.1518 47.5186L35.1518 46.3534L40.8348 43.512C41.3766 43.241 41.7132 42.6964 41.7132 42.0906L41.7132 39.3438C42.2218 39.0575 42.5341 38.5178 42.5199 37.9237L41.8395 9.34697ZM14.797 1.53778L13.2248 1.53778C13.1646 1.53778 13.1043 1.53932 13.044 1.54124C13.2259 3.50459 14.0969 5.32464 15.5282 6.70666C17.0744 8.19956 19.1101 9.02192 21.2602 9.02192C25.5588 9.02192 29.0884 5.76949 29.4771 1.54114C29.4166 1.53932 29.356 1.53778 29.2953 1.53778L27.7232 1.53778C27.3415 4.76614 24.5895 7.27898 21.2601 7.27898C17.9307 7.27898 15.1788 4.76614 14.797 1.53778ZM26.1728 1.53778C25.8021 3.91567 23.7405 5.7412 21.2602 5.7412C18.7799 5.7412 16.7183 3.91567 16.3476 1.53778L26.1728 1.53778ZM36.6587 39.8483L40.9515 38.0085C40.9708 38.0004 40.9831 37.9813 40.9823 37.9602L40.3019 9.38352C40.2341 6.53527 38.3589 4.05868 35.6358 3.22078L30.9987 1.79387C30.9975 1.79349 30.9966 1.7932 30.9954 1.79291C30.7573 4.08669 29.7259 6.20973 28.0483 7.82425C26.2153 9.5881 23.8046 10.5596 21.26 10.5596C18.7093 10.5596 16.2943 9.58407 14.4598 7.81274C12.7884 6.19899 11.7623 4.08103 11.5248 1.79282C11.5237 1.7933 11.5225 1.79358 11.5213 1.79387L6.88418 3.22078C4.1612 4.05868 2.28599 6.53527 2.21818 9.38352L1.53786 37.9602C1.53738 37.9813 1.54956 38.0003 1.56894 38.0086L5.86155 39.8483L6.54868 13.0516C6.55961 12.6272 6.9119 12.2918 7.33709 12.3027C7.76151 12.3136 8.09682 12.6666 8.08598 13.0912L7.85301 22.1756L9.5712 22.8994L13.167 21.3847C13.358 21.3043 13.5732 21.3043 13.764 21.3847L17.3598 22.8993L20.9545 21.3847C21.1455 21.3042 21.3608 21.3042 21.5516 21.3847L25.1469 22.8994L28.7456 21.3846C28.9362 21.3043 29.1513 21.3043 29.342 21.3846L32.9436 22.8995L34.6673 22.1745L34.4343 13.0912C34.4234 12.6666 34.7587 12.3136 35.1832 12.3027C35.6068 12.2925 35.9608 12.6271 35.9716 13.0516L36.6587 39.8483ZM7.76985 25.4213L7.8108 23.8265L9.27272 24.4423C9.46359 24.5227 9.67882 24.5227 9.86969 24.4423L13.4654 22.9277L17.0612 24.4423C17.252 24.5227 17.4673 24.5227 17.6582 24.4423L21.2529 22.9278L24.8481 24.4423C25.0389 24.5228 25.2542 24.5228 25.4449 24.4424L29.0438 22.9276L32.6453 24.4424C32.7407 24.4826 32.842 24.5026 32.9434 24.5026C33.0449 24.5026 33.1462 24.4826 33.2415 24.4424L34.7094 23.825L34.7504 25.4202L32.9435 26.1802L29.3419 24.6653C29.1512 24.5851 28.9361 24.5851 28.7455 24.6653L25.1468 26.1801L21.5515 24.6654C21.3607 24.585 21.1454 24.585 20.9544 24.6654L17.3597 26.18L13.7639 24.6654C13.5731 24.5851 13.3579 24.5851 13.1669 24.6654L9.5712 26.1801L7.76985 25.4213ZM9.86978 27.7232C9.67891 27.8035 9.46368 27.8035 9.27282 27.7232L7.72765 27.0722L7.52038 35.1583L9.57139 36.0223L13.1671 34.5076C13.358 34.4272 13.5732 34.4272 13.7641 34.5076L17.3598 36.0222L20.9545 34.5076C21.1455 34.4271 21.3608 34.4271 21.5516 34.5076L25.1469 36.0223L28.7456 34.5075C28.9362 34.4272 29.1513 34.4272 29.342 34.5075L32.9436 36.0224L35.0002 35.1573L34.7929 27.0708L33.2418 27.7233C33.0512 27.8034 32.8362 27.8034 32.6456 27.7233L29.0441 26.2084L25.4452 27.7233C25.2545 27.8036 25.0393 27.8036 24.8484 27.7232L21.2532 26.2086L17.6584 27.7232C17.5629 27.7633 17.4615 27.7835 17.3599 27.7835C17.2582 27.7835 17.1567 27.7633 17.0613 27.7232L13.4655 26.2085L9.86978 27.7232ZM9.86978 37.565C9.67891 37.6454 9.46368 37.6454 9.27282 37.565L7.47779 36.809L7.43703 38.4039L9.5713 39.3029L13.167 37.7882C13.358 37.7079 13.5732 37.7079 13.764 37.7882L17.3598 39.3028L20.9545 37.7882C21.1455 37.7078 21.3608 37.7078 21.5516 37.7882L25.1469 39.3029L28.7456 37.7881C28.9362 37.7079 29.1513 37.7079 29.342 37.7881L32.9436 39.303L35.0835 38.4029L35.0425 36.8077L33.2417 37.5651C33.1464 37.6053 33.045 37.6253 32.9436 37.6253C32.8422 37.6253 32.7409 37.6053 32.6455 37.5651L29.044 36.0503L25.4451 37.5651C25.2544 37.6455 25.0391 37.6455 24.8483 37.565L21.2531 36.0505L17.6583 37.565C17.4674 37.6454 17.2522 37.6454 17.0613 37.565L13.4655 36.0504L9.86978 37.565ZM34.9644 44.0262C34.7991 44.1958 34.5774 44.2894 34.3404 44.2894L8.18007 44.2894L8.18007 44.2893C7.94307 44.2893 7.72141 44.1957 7.55606 44.0261C7.39061 43.8564 7.30285 43.6323 7.30898 43.3955L7.39464 40.0547L9.27272 40.8459C9.46359 40.9262 9.67882 40.9262 9.86969 40.8459L13.4654 39.3312L17.0612 40.8459C17.2521 40.9262 17.4673 40.9262 17.6583 40.8459L21.253 39.3313L24.8482 40.8459C25.0391 40.9263 25.2543 40.9263 25.445 40.846L29.0439 39.3311L32.6454 40.846C32.7408 40.8861 32.842 40.9061 32.9435 40.9061C33.0449 40.9061 33.1463 40.8861 33.2416 40.846L35.1257 40.0536L35.2114 43.3957C35.2176 43.6326 35.1299 43.8565 34.9644 44.0262ZM5.81024 43.8551L2.37337 42.1366C2.35581 42.1278 2.34498 42.1102 2.34498 42.0907L2.34498 40.0144L5.81916 41.5034L5.77168 43.3561C5.76737 43.5255 5.7807 43.6925 5.81024 43.8551ZM40.1754 42.0908C40.1754 42.1103 40.1646 42.1279 40.1471 42.1367L36.7101 43.8552C36.7398 43.6926 36.7531 43.5257 36.7487 43.3562L36.7012 41.5034L40.1754 40.0145L40.1754 42.0908ZM33.5628 47.5699C33.5911 47.5699 33.6141 47.5469 33.6141 47.5187L33.6141 45.827L8.90643 45.827L8.90643 47.5187C8.90643 47.5468 8.92935 47.5699 8.95764 47.5699L33.5628 47.5699Z" fill-rule="evenodd"/>
	</g>
</svg>
