<svg width="133" height="36" viewBox="0 0 133 36" version="1.1" xmlns="http://www.w3.org/2000/svg" xmlns:xlink="http://www.w3.org/1999/xlink">
<g id="Canvas" fill="none">
<g id="WEBDELO-STUDIO__logo" opacity="0.333786">
<g id="Shape">
<path fill-rule="evenodd" clip-rule="evenodd" d="M 35.0506 2.93774L 35.0506 12.3543C 35.0506 18.4308 30.1008 23.3806 24.0243 23.3806L 11.0665 23.3806C 4.94974 23.3806 0 18.4308 0 12.3543L 0 2.93774L 7.72642 2.93774L 7.72642 12.3543C 7.72642 15.2115 10.0604 17.5455 12.9176 17.5455L 22.133 17.5455C 24.9901 17.5455 27.3242 15.2115 27.3242 12.3543L 27.3242 2.93774L 35.0506 2.93774ZM 15.0102 0L 20.0806 0C 20.8855 0 21.5696 0.643868 21.5696 1.48895L 21.5696 10.2214C 21.5696 11.0262 20.9257 11.7104 20.0806 11.7104C 18.3905 11.7104 16.7003 11.7104 15.0102 11.7104C 14.2053 11.7104 13.5212 11.0665 13.5212 10.2214C 13.5212 7.324 13.5212 4.38635 13.5212 1.48895C 13.5212 0.68411 14.2053 0 15.0102 0Z" transform="translate(0.120728 12.2144)" fill="white"/>
</g>
<g id="Shape_2">
<path fill-rule="evenodd" clip-rule="evenodd" d="M 27.123 0.523193C 30.8654 1.73045 33.7628 4.8693 34.6079 8.77275L 27.123 8.77275L 27.123 0.523193ZM 10.825 0L 21.3281 0L 21.3281 5.83506L 12.6762 5.83506C 10.6238 5.83506 8.85319 7.04231 8.00811 8.7727L 0 8.7727C 1.04629 3.78273 5.51312 0 10.825 0Z" transform="translate(0.362183 0.544189)" fill="white"/>
</g>
<g id="Shape_3">
<path fill-rule="evenodd" clip-rule="evenodd" d="M 39.5576 0C 43.3001 0 45.3525 1.24756 45.3525 5.95581C 45.3525 10.7446 43.3404 12.1531 39.5576 12.1531C 35.7749 12.1531 33.7628 10.7446 33.7628 5.95581C 33.7628 1.24756 35.7749 0 39.5576 0ZM 0 0.281738L 0 11.9116L 5.27167 11.9116C 9.01416 11.9116 10.8653 10.5435 10.8653 5.99609C 10.8653 1.44873 9.05438 0.241455 5.27167 0.241455L 0 0.241455L 0 0.281738ZM 18.7124 9.09473C 16.9418 9.09473 16.3382 8.93359 16.1772 7.32397L 16.1772 7.28369L 20.966 7.28369L 20.966 4.54736L 16.2174 4.54736C 16.4186 3.1792 17.0625 3.05835 18.7124 3.05835L 22.1732 3.05835L 22.1732 0.241455L 18.31 0.241455C 14.5273 0.241455 12.7164 1.44873 12.7164 5.99609C 12.7164 10.5435 14.5675 11.9116 18.31 11.9116L 22.1732 11.9116L 22.1732 9.09473L 18.7124 9.09473ZM 24.1853 0.281738L 24.1853 6.03638C 24.1853 10.5435 25.9962 11.9116 29.7789 11.9116L 32.3544 11.9116L 32.3544 9.09473L 30.1813 9.09473C 28.0485 9.09473 27.6059 8.81299 27.6059 6.07666L 27.6059 0.281738L 24.1853 0.281738ZM 4.90948 9.09473C 7.0423 9.09473 7.48495 8.81299 7.48495 6.07642C 7.48495 3.2998 7.00208 3.09863 4.90948 3.09863L 3.25958 3.09863L 3.25958 9.09473L 4.90948 9.09473ZM 41.9319 5.95581C 41.9319 8.93384 41.6905 9.21558 39.5576 9.21558C 37.3846 9.21558 37.1431 8.93384 37.1834 5.95581C 37.1834 3.1792 37.3846 2.93774 39.5576 2.93774C 41.6905 2.93774 41.9319 3.1792 41.9319 5.95581Z" transform="translate(87.0429 11.9729)" fill="white"/>
</g>
<g id="Shape_4">
<path fill-rule="evenodd" clip-rule="evenodd" d="M 20.2818 7.08252C 20.4428 8.69214 21.0464 8.85327 22.8171 8.85327L 26.2779 8.85327L 26.2779 11.6702L 22.4146 11.6702C 18.6722 11.6702 16.821 10.302 16.821 5.75464C 16.821 1.20728 18.6319 0 22.4146 0L 26.2779 0L 26.2779 2.81689L 22.8171 2.81689C 21.1671 2.81689 20.5233 2.93774 20.3221 4.30591L 25.0706 4.30591L 25.0706 7.04224L 20.2818 7.04224L 20.2818 7.08252ZM 5.5936 11.6702C 1.85114 11.6702 0 10.302 0 5.75464L 0 0.0402832L 3.42056 0.0402832L 3.42056 5.83521C 3.42056 8.53125 3.86322 8.85327 5.91553 8.85327L 5.91553 0.0402832L 9.09464 0.0402832L 9.09464 8.85327C 11.1872 8.85327 11.6299 8.53125 11.6299 5.83521L 11.6299 0.0402832L 15.0504 0.0402832L 15.0504 5.79492C 15.0504 10.3423 13.2395 11.7104 9.45682 11.7104C 8.20932 11.6702 6.92157 11.6702 5.5936 11.6702ZM 34.2055 2.73633L 31.4691 2.73633L 31.4691 4.38623L 34.2055 4.38623C 34.4872 4.38623 34.6884 4.30566 34.6884 3.5813C 34.6884 2.89722 34.4872 2.73633 34.2055 2.73633ZM 31.4691 8.93384L 31.4691 6.96191L 34.2055 6.96191C 34.6079 6.96191 34.8896 7.16309 34.8896 7.96802C 34.8896 8.73267 34.6482 8.93384 34.286 8.93384L 31.4691 8.93384ZM 38.1492 2.85718C 38.1492 4.50708 37.7065 5.43262 35.614 5.59375C 37.8272 5.71436 38.3102 6.68018 38.3504 8.57153C 38.3504 10.9458 37.1029 11.6702 35.2115 11.6702L 28.2899 11.6702L 28.2899 0.0402832L 35.2115 0.0402832C 37.5456 0.0402832 38.1492 0.885254 38.1492 2.85718Z" transform="translate(46.7207 12.2144)" fill="white"/>
</g>
<g id="Shape_5">
<path fill-rule="evenodd" clip-rule="evenodd" d="M 1.93161 0C 2.495 0 3.05838 0.0805664 3.38031 0.201172L 3.0986 1.16699C 3.04904 1.15991 2.99576 1.15161 2.93872 1.14258C 2.6716 1.10083 2.32248 1.04639 1.89136 1.04639C 1.28775 1.04639 1.20724 1.16699 1.20724 1.32788C 1.20724 1.56934 1.28775 1.60962 2.01208 1.69019C 2.97791 1.81079 3.42056 2.21338 3.42056 3.01807C 3.42056 4.14502 2.8974 4.4668 1.48895 4.4668C 0.925568 4.4668 0.402405 4.38623 0.0402527 4.26562L 0.281677 3.25952L 0.423553 3.28076L 0.427002 3.28125C 0.704468 3.32324 1.08243 3.38037 1.48895 3.38037C 2.09256 3.38037 2.17307 3.2998 2.17307 3.09863C 2.17307 2.89746 2.09256 2.81689 1.28775 2.73633C 0.402405 2.61572 0 2.33398 0 1.5293C 0 0.442627 0.563385 0 1.93161 0ZM 8.04834 1.12695L 8.04834 4.38647L 6.88132 4.38647L 6.88132 1.12695L 5.47287 1.12695L 5.47287 0.0805664L 9.45682 0.0805664L 9.45682 1.12695L 8.04834 1.12695ZM 14.2456 0.120605L 15.4126 0.120605L 15.4126 3.2998C 15.4126 4.22534 14.648 4.50684 13.5615 4.50684C 12.4347 4.50684 11.7104 4.26562 11.7104 3.2998L 11.7104 0.120605L 12.8774 0.120605L 12.8774 3.01807C 12.8774 3.25952 13.0383 3.38013 13.5615 3.38013C 14.0846 3.38013 14.2456 3.25952 14.2456 3.01807L 14.2456 0.120605ZM 17.9076 4.38623L 17.9076 0.120605L 19.8392 0.120605C 21.2074 0.120605 21.8915 0.563232 21.8915 2.21313C 21.8915 3.90332 21.2074 4.38623 19.8392 4.38623L 17.9076 4.38623ZM 20.644 2.25342C 20.644 3.25952 20.483 3.38013 19.6782 3.38013L 19.0746 3.38013L 19.0746 1.12671L 19.6782 1.12671C 20.483 1.12671 20.644 1.20728 20.644 2.25342ZM 24.2256 4.38623L 25.3926 4.38623L 25.3926 0.120605L 24.2256 0.120605L 24.2256 4.38623ZM 30.2216 0C 31.5898 0 32.3544 0.442627 32.3544 2.1731C 32.3544 3.9436 31.63 4.4668 30.2216 4.4668C 28.8533 4.4668 28.0887 3.9436 28.0887 2.1731C 28.0887 0.442627 28.8131 0 30.2216 0ZM 31.1069 2.1731C 31.1069 3.25977 31.0264 3.38037 30.2216 3.38037C 29.4167 3.38037 29.3362 3.2998 29.3362 2.1731C 29.3362 1.12695 29.4167 1.04639 30.2216 1.04639C 31.0264 1.04639 31.1069 1.16699 31.1069 2.1731Z" transform="translate(87.0429 28.0293)" fill="white"/>
</g>
</g>
</g>
</svg>