<svg width="170" height="48" xmlns="http://www.w3.org/2000/svg"><path fill-rule="evenodd" clip-rule="evenodd" d="M107.703 3.567a3.172 3.172 0 0 1-1.175 2.612 4.081 4.081 0 0 1-2.645.977 4.823 4.823 0 0 1-.867-2.766c-.017-.854.156-1.7.505-2.48a6.236 6.236 0 0 1 .889-1.45c.234-.287.584-.455.955-.46.56 0 1.098.439 1.603 1.372.414.664.666 1.416.735 2.195zm-46.712 9.604l7.233.153c.417 0 .637.253.691.747a3.117 3.117 0 0 1-.197.834c-.132.395-.253.8-.362 1.229-.242.867-.659 1.295-1.34 1.295l-6.003-.274h-.516a3.632 3.632 0 0 0-.56 0 48.816 48.816 0 0 0-2.052 11.93c0 1.559-1.515 2.327-4.544 2.327a1.098 1.098 0 0 1-1.163-.999 15.933 15.933 0 0 1-.176-2.667c.16-3.35.732-6.667 1.701-9.878a29.392 29.392 0 0 1-3.797.318c-.34 0-.516-.131-.516-.395a2.7 2.7 0 0 1 1.196-1.92 11.236 11.236 0 0 1 4.05-1.757 64.623 64.623 0 0 1 2.876-8.253 9.768 9.768 0 0 0-6.476 2.601 18.42 18.42 0 0 1-1.031.988c-.179.201-.425.33-.692.362-.198 0-.384-.165-.57-.483a2.448 2.448 0 0 1-.275-1.262c.03-2.027 1.397-3.673 4.105-4.94A23.453 23.453 0 0 1 62.55 1.24l11.853.198c.746 0 1.098.274 1.098.834-.052.299-.16.586-.319.845-.22.426-.403.87-.548 1.328a2.118 2.118 0 0 1-2.195 1.416H62.89a53.757 53.757 0 0 1-1.899 7.31zm-24.047 9.263c.45-.516.79-.768 1.031-.768.362 0 .55.362.55 1.108a6.205 6.205 0 0 1-.594 2.47 8.219 8.219 0 0 1-1.975 2.623c-2.261 2.107-5.378 3.204-9.33 3.204-3.106 0-5.3-1.13-6.398-3.402-.031-.056-.055-.122-.08-.19a2.037 2.037 0 0 0-.063-.161 3.48 3.48 0 0 1-2.305.812 5.049 5.049 0 0 1-3.007-.812 6.013 6.013 0 0 1-2.283 2.766 8.175 8.175 0 0 1-4.61 1.097 8.484 8.484 0 0 1-5.114-1.547 6.586 6.586 0 0 1-2.568-5.718 28.363 28.363 0 0 1 2.721-11.59C.977 11.49 0 10.667 0 9.877c0-.45.176-.648.516-.626.554.015 1.1.13 1.613.34.609.22 1.233.396 1.866.527 2.151-4.083 4.61-6.75 7.387-8.012a7.116 7.116 0 0 1 2.766-.68 5.981 5.981 0 0 1 4.17 1.328 4.18 4.18 0 0 1 1.438 3.216c0 2.271-1.262 4.017-3.71 5.224a21.947 21.947 0 0 1-8.188 1.855 26.185 26.185 0 0 0-1.854 9.878c0 2.601.581 4.116 1.821 4.51.6.289 1.299.289 1.9 0a3.01 3.01 0 0 0 .987-1.097 4.829 4.829 0 0 0 .373-1.998 3.379 3.379 0 0 0-.757-2.271 41.572 41.572 0 0 0-1.482-1.712 6.25 6.25 0 0 1 1.032-2.196c.867-1.13 1.591-1.7 2.195-1.7a1.899 1.899 0 0 1 1.46.614c.41.462.726.999.933 1.58.254.7.448 1.42.581 2.152.143.735.308 1.415.494 2.052a5.89 5.89 0 0 0 .692 1.58c.228.391.645.633 1.097.637a1.768 1.768 0 0 0 1.24-.538c.37-.351.702-.741.988-1.163l.143-.22c.134-1.161.403-2.303.801-3.402a13.798 13.798 0 0 1 2.404-4.17 10.555 10.555 0 0 1 3.293-2.7 8.778 8.778 0 0 1 4.05-.978 4.752 4.752 0 0 1 3.292 1.098 3.579 3.579 0 0 1 1.164 2.766 4.39 4.39 0 0 1-.856 2.777 6.871 6.871 0 0 1-2.196 1.821c-.96.511-1.958.948-2.985 1.306a44.31 44.31 0 0 0-3.227 1.285v.988a2.196 2.196 0 0 0 1.186 2.008c.81.41 1.704.628 2.612.636a9.164 9.164 0 0 0 5.97-2.447 17.165 17.165 0 0 0 1.735-1.712zm92.809-8.407a1.99 1.99 0 0 0 .735-1.625 3.004 3.004 0 0 0-.461-1.382c-.307-.56-.648-.835-1.021-.835a.744.744 0 0 0-.592.297 3.389 3.389 0 0 0-.549.889 3.51 3.51 0 0 0-.297 1.525c.005.615.192 1.215.538 1.723a2.527 2.527 0 0 0 1.647-.592zm-10.888-3.72a2.865 2.865 0 0 0 1.098-2.36 4.393 4.393 0 0 0-.659-2.01c-.45-.8-.933-1.196-1.482-1.196a1.1 1.1 0 0 0-.867.417 5.385 5.385 0 0 0-.79 1.296 5.093 5.093 0 0 0-.417 2.195c.001.89.273 1.759.779 2.491a3.664 3.664 0 0 0 2.338-.834zm40.827 3.88c1.216-1.307 2.987-3.21 5.61-3.036 4.819.57 4.533 6.07 4.412 6.64-.739 5.34-3.729 8.958-6.778 12.646l-.001.002c-1.926 2.33-3.874 4.687-5.294 7.525-1.306 2.612-1.411 4.806-1.488 6.409-.081 1.683-.13 2.713-1.508 2.888-1.668.197-.582-6.926.988-10.778.545-1.338 2.13-3.645 3.908-6.232 3.339-4.86 7.359-10.709 6.442-12.986-1.098-2.722-4.028-.011-4.994 1.284-.966 1.295-3.337 3.907-6.98-1.328-.901-1.284-3.173-.813-2.986 1.47a8.901 8.901 0 0 0 6.585 7.826c1.263.34.813 2.008 0 3.227-2.579-.319-5.806-3.513-6.069-4.105l-.034.044c-.328.427-2.902 3.779-4.675 4.576a7.789 7.789 0 0 1-3.161.747c-3.742.033-6.31-1.383-7.682-4.226a4.068 4.068 0 0 1-.176-.439 10.569 10.569 0 0 1-1.745 2.053 8.364 8.364 0 0 1-5.949 2.59c-2.096 0-3.347-1.591-3.764-4.72a11.333 11.333 0 0 1-1.779 2.119 8.623 8.623 0 0 1-5.948 2.6c-1.895 0-2.843-1.722-2.843-5.169.038-1.21.181-2.414.428-3.6.243-1.104.39-2.228.439-3.358 0-.867-.505-1.306-1.504-1.306-.68 0-1.448.67-2.293 1.997a13.833 13.833 0 0 0-1.778 4.292v.077c.003.937.144 1.869.417 2.766.214.64.351 1.303.406 1.975 0 .89-1.164 1.778-3.359 2.645a2.58 2.58 0 0 1-.911.198 1.373 1.373 0 0 1-1.361-1.032 8.287 8.287 0 0 1-.395-2.81c0-1.097.033-2.25.099-3.292.066-1.043.132-2.009.197-2.887.018-.232.033-.457.048-.675.04-.607.077-1.159.15-1.652.099-.67.099-1.218.099-1.635 0-.9-.417-1.35-1.229-1.35s-1.746.955-2.843 2.864a10.189 10.189 0 0 0-1.614 4.544c-.033 1.05.082 2.1.34 3.118.223.638.363 1.302.418 1.975 0 .89-1.163 1.778-3.359 2.645-.289.12-.597.188-.91.198a1.372 1.372 0 0 1-1.362-1.032 9.772 9.772 0 0 1-.373-3.16v-.78c-.462.657-1 1.258-1.602 1.789a12.072 12.072 0 0 1-2.941 1.92 7.553 7.553 0 0 1-3.162.747c-1.393 0-2.326-1.218-2.798-3.677a8.598 8.598 0 0 1-2.69 2.788 8.024 8.024 0 0 1-4.39 1.097 6.014 6.014 0 0 1-4.489-1.734 5.718 5.718 0 0 1-1.657-4.225 13.302 13.302 0 0 1 4.49-10.701 10.471 10.471 0 0 1 3.533-2.14 11.557 11.557 0 0 1 3.458-.505 6.177 6.177 0 0 1 2.963.625c.373-.713.79-1.098 1.262-1.098a3.743 3.743 0 0 1 2.634 1.208c.7.561 1.147 1.38 1.24 2.272a28.275 28.275 0 0 1-1.624 3.117 31.895 31.895 0 0 0-.307 5.093c0 2.195.274 3.292.823 3.292.688-.007 2.349-1.375 4.983-4.105a4.4 4.4 0 0 1 .505-.505c.049-.878.144-1.754.285-2.623.395-2.447.944-4.544 4.62-7.244 5.826-3.904 8.653-.768 9.661.35.052.058.098.11.141.155a9.892 9.892 0 0 1 1.537 3.425v.439a7.274 7.274 0 0 1 5.882-3.008 4.39 4.39 0 0 1 3.293 1.098 3.698 3.698 0 0 1 1.098 2.722c.008.982-.069 1.962-.231 2.93-.165.867-.34 1.68-.538 2.448l-.526 2.03c-.14.449-.221.914-.242 1.383a.702.702 0 0 0 .538.79c2.412.6 3.872-1.814 4.592-3.004l.005-.009.002-.002c.161-.266.284-.47.373-.563.153-2.678 2.074-6.442 3.292-6.442.582 0 1.076.57 1.504 1.602.347.775.398 1.65.143 2.459-.068.314-.203.761-.36 1.28-.735 2.434-1.948 6.452 1.073 5.81a6.593 6.593 0 0 0 2.02-1.02c1.271-.99 2.168-2.477 2.763-3.463.262-.436.466-.773.617-.928.033-1.43.158-2.856.373-4.27a30.501 30.501 0 0 1 3.04-9.482 18.447 18.447 0 0 1 2.569-3.787 9.087 9.087 0 0 1 6.958-3.446 3.72 3.72 0 0 1 2.667.933 3.5 3.5 0 0 1 .966 2.667 6.833 6.833 0 0 1-1.032 3.501 25.67 25.67 0 0 1-2.623 3.633 112.152 112.152 0 0 1-3.534 3.93 57.84 57.84 0 0 0-3.797 4.466v1.592c-.1 1.16.241 2.316.955 3.238a2.918 2.918 0 0 0 2.195 1.031 7.507 7.507 0 0 0 6.003-3.358l.066-.077c.023-.05-.087-.296-.258-.683l-.002-.003-.001-.002-.003-.007-.001-.002c-.907-2.035-3.513-7.881 1.901-9.664 2.121-.688 3.803.76 5.014 1.802l.003.003c.605.52 1.092.939 1.458.939.371 0 .848-.512 1.469-1.18zM28.536 15.42c.812 0 1.219.329 1.219.987a2.57 2.57 0 0 1-1.219 1.976c-.373.264-.8.538-1.284.823-.494.297-1.01.626-1.558.988.548-3.183 1.496-4.774 2.842-4.774zM14.366 5.3a4.325 4.325 0 0 0-2.512 1.46 16.36 16.36 0 0 0-2.964 4.072c2.876-.45 4.785-1.383 5.883-2.645.354-.425.562-.952.593-1.504-.022-.922-.363-1.383-1-1.383zm129.545 2.843c1.098-1.888 2.14-2.843 3.062-2.843.417 0 .626.297.626.89a3.423 3.423 0 0 1-.472 1.722 14.134 14.134 0 0 1-1.306 1.855l-1.954 2.415c-.746.922-1.569 2.063-2.469 3.435a22.549 22.549 0 0 1 2.513-7.474zM81.856 24.388c.403-.663.71-1.38.91-2.13a31.722 31.722 0 0 1 .846-7.595 10.437 10.437 0 0 0-5.576 3.085 8.517 8.517 0 0 0-2.37 6.168c0 2.03.702 3.04 2.194 3.04a4.708 4.708 0 0 0 3.996-2.568z" fill="#fff"/></svg>