<svg width="88" height="88" fill="none" xmlns="http://www.w3.org/2000/svg"><path fill-rule="evenodd" clip-rule="evenodd" d="M44.148 86.06c23.374 0 42.322-18.949 42.322-42.323S67.522 1.415 44.148 1.415c-23.374 0-42.323 18.948-42.323 42.322 0 23.374 18.949 42.323 42.323 42.323z" fill="#fff"/><path d="M44.148 86.06c23.374 0 42.322-18.949 42.322-42.323S67.522 1.415 44.148 1.415c-23.374 0-42.323 18.948-42.323 42.322 0 23.374 18.949 42.323 42.323 42.323z" stroke="#F11F60" stroke-width="2"/><path fill-rule="evenodd" clip-rule="evenodd" d="M58.686 58.724l-2.396-22.32a.731.731 0 0 0-.719-.64H51.14v-1.357a6.953 6.953 0 0 0-6.947-6.947 6.952 6.952 0 0 0-6.948 6.947v1.358h-4.552c-.36 0-.679.28-.719.639l-2.395 22.32c-.04.2.04.399.16.559.12.16.319.24.519.24h27.75c.2 0 .399-.08.519-.24.12-.16.2-.36.16-.56zM50.42 39.797c.36 0 .64.279.64.638a.63.63 0 0 1-.64.64.63.63 0 0 1-.639-.64c0-.359.28-.638.64-.638zm-6.229-10.901a5.521 5.521 0 0 0-5.51 5.51v1.358h11.02v-1.358a5.521 5.521 0 0 0-5.51-5.51zm-6.228 10.9c.36 0 .639.28.639.64a.63.63 0 0 1-.64.638.63.63 0 0 1-.638-.639c0-.359.28-.638.639-.638zm-4.632-2.635l-2.236 20.883h26.193l-2.236-20.883h-4.073v1.318a2.03 2.03 0 0 1 1.358 1.916 2.045 2.045 0 0 1-2.036 2.037 2.045 2.045 0 0 1-2.037-2.037c0-.878.56-1.637 1.358-1.916v-1.318h-11.02v1.318a2.03 2.03 0 0 1 1.357 1.916 2.045 2.045 0 0 1-2.036 2.037 2.045 2.045 0 0 1-2.037-2.037 2.03 2.03 0 0 1 1.358-1.916v-1.318H33.33z" fill="#F11F60"/><path fill-rule="evenodd" clip-rule="evenodd" d="M47.662 50.11c0 1.746-.29 3.101-.87 4.067-.581.966-1.447 1.449-2.597 1.449-1.16 0-2.044-.494-2.65-1.48-.586-.996-.878-2.342-.878-4.037 0-1.684.287-3.025.862-4.021.586-.997 1.464-1.495 2.635-1.495 1.182 0 2.055.498 2.62 1.495.585.986.878 2.326.878 4.021zm-3.467 4.36c.75 0 1.297-.36 1.641-1.079.344-.719.516-1.813.516-3.282 0-1.458-.177-2.55-.531-3.274-.355-.724-.907-1.086-1.657-1.086-1.458 0-2.188 1.453-2.188 4.36s.74 4.36 2.22 4.36z" fill="#F11F60"/></svg>