<svg width="39" height="50" fill="none" xmlns="http://www.w3.org/2000/svg"><path d="M38.027 40.964a.975.975 0 0 0-.972.976v.077c0 .539.435.976.972.976a.975.975 0 0 0 .972-.976v-.077a.975.975 0 0 0-.972-.976z" fill="#F11F60"/><path fill-rule="evenodd" clip-rule="evenodd" d="M37.055 45.8c0-.538.435-.976.972-.976.538 0 .973.438.973.977v3.222c0 .54-.435.977-.973.977H.973A.975.975 0 0 1 0 49.023V41.94c0-1.996.624-3.901 1.804-5.508a9.182 9.182 0 0 1 4.706-3.36l.018-.005 5.894-1.831a2.65 2.65 0 0 0 1.49-1.168l.012-.025.005-.008C8.657 29.56 4.51 25.097 4.51 19.681v-4.97C4.51 6.598 11.082 0 19.158 0h.684c8.076 0 14.646 6.6 14.646 14.71v4.97c0 5.418-4.145 9.88-9.419 10.355a2.65 2.65 0 0 0 1.51 1.2l5.91 1.838a9.228 9.228 0 0 1 5.28 4.239.979.979 0 0 1-.842 1.464.97.97 0 0 1-.843-.49 7.293 7.293 0 0 0-3.37-3.045l-3.477 5.286 1.786 2.68a.98.98 0 0 1-.163 1.274l-4.004 3.566h10.199V45.8zM6.456 14.71v4.97c0 4.464 3.467 8.13 7.838 8.425v-.397a10.68 10.68 0 0 1-5.412-9.204l-.001-.022v-5.288c0-.54.435-.977.973-.977.537 0 .972.438.972.977v.347h1.675c4.756 0 9.228-1.86 12.59-5.238a.97.97 0 0 1 1.376 0c.379.382.379 1 0 1.382a19.826 19.826 0 0 1-2.861 2.378 7.402 7.402 0 0 0 4.345 1.398h.224v-.267c0-.54.435-.977.971-.977.538 0 .973.438.973.977v5.278a10.68 10.68 0 0 1-5.413 9.236v.397c4.371-.295 7.838-3.96 7.838-8.424v-4.97c0-7.035-5.698-12.758-12.702-12.758h-.684c-7.004 0-12.702 5.723-12.702 12.757zm9.562 15.398c.143-.45.22-.928.22-1.422v-.12c1.029.334 2.124.515 3.262.515s2.233-.181 3.262-.515v.12c0 .443.061.874.177 1.284l-3.457 2.102-3.464-1.964zm.358 5.37l1.636-1.997-2.717-1.54 1.081 3.536zm7.485-3.786l.058.066-1.18 3.86-1.774-2.164 2.896-1.762zM10.888 19.46c.514 4.314 4.18 7.669 8.612 7.669 4.44 0 8.11-3.368 8.614-7.693h-.352a2.677 2.677 0 0 1-2.668 2.648h-2.877a2.677 2.677 0 0 1-2.668-2.68v-1.25a2.677 2.677 0 0 1 2.668-2.68h2.877c1.241 0 2.286.855 2.584 2.009h.496v-2.068h-.223a9.331 9.331 0 0 1-6.124-2.27 19.92 19.92 0 0 1-1.768.84 19.577 19.577 0 0 1-7.558 1.51h-1.676v2.012h.565a2.675 2.675 0 0 1 2.588-2.033h2.878a2.677 2.677 0 0 1 2.668 2.68v1.25a2.677 2.677 0 0 1-2.668 2.68h-2.878a2.676 2.676 0 0 1-2.665-2.624h-.425zm2.367-.056v-1.25c0-.401.324-.727.723-.727h2.877c.4 0 .724.326.724.727v1.25c0 .4-.324.726-.724.726h-2.877a.726.726 0 0 1-.723-.726zm12.563 0v-1.25a.726.726 0 0 0-.723-.727h-2.877c-.4 0-.724.326-.724.727v1.25c0 .4.324.726.724.726h2.877c.4 0 .723-.326.723-.726zM1.944 48.047V41.94a7.29 7.29 0 0 1 4.464-6.754l3.513 5.34-1.786 2.68a.979.979 0 0 0 .163 1.274l4.004 3.566H1.944zm8.28-4.462l5.008 4.462h2.953l-3.14-10.27-1.494-4.888a4.691 4.691 0 0 1-.555.212l-4.673 1.453 3.577 5.439a.98.98 0 0 1-.004 1.081l-1.672 2.511zm6.837-5.87L19.5 34.74l2.556 3.117-2.477 8.099-2.518-8.24zm8.529-4.765l-4.615 15.097h2.95l5.01-4.462-1.673-2.51a.98.98 0 0 1-.003-1.082l3.55-5.398-4.805-1.493a4.648 4.648 0 0 1-.414-.152z" fill="#F11F60"/><path d="M19.158 3.188h-.041a.975.975 0 0 0-.972.977c0 .54.435.977.972.977h.041a.975.975 0 0 0 .973-.977.975.975 0 0 0-.973-.977zM16.614 4.43a.971.971 0 0 0-1.238-.6 11.41 11.41 0 0 0-3.332 1.84.98.98 0 0 0-.16 1.373.97.97 0 0 0 1.367.16 9.469 9.469 0 0 1 2.765-1.53.978.978 0 0 0 .598-1.243z" fill="#F11F60"/></svg>