<svg width="28" height="50" fill="none" xmlns="http://www.w3.org/2000/svg"><path fill-rule="evenodd" clip-rule="evenodd" d="M3.628 0h20.745C26.373 0 28 1.648 28 3.67v42.66c0 2.023-1.628 3.67-3.628 3.67H3.628C1.628 50 0 48.352 0 46.328V3.671C0 1.648 1.628 0 3.628 0zm22.726 6.667H1.646v31.666h24.707V6.667zm-22.726-5h20.744c1.093 0 1.982.899 1.982 2.004V5H1.646V3.67c0-1.104.89-2.003 1.98-2.003zm0 46.666h20.745c1.092 0 1.98-.899 1.98-2.004V40H1.648v6.33c0 1.104.89 2.003 1.98 2.003z" fill="#F11F60"/><path fill-rule="evenodd" clip-rule="evenodd" d="M10.706 44.167c0-1.839 1.478-3.334 3.294-3.334 1.817 0 3.294 1.495 3.294 3.334 0 1.838-1.477 3.333-3.294 3.333-1.816 0-3.294-1.495-3.294-3.333zm1.648 0c0 .919.738 1.666 1.647 1.666.908 0 1.647-.747 1.647-1.666 0-.92-.739-1.667-1.647-1.667-.91 0-1.647.747-1.647 1.667z" fill="#F11F60"/><path d="M10.706 4.167H14a.828.828 0 0 0 .824-.834A.828.828 0 0 0 14 2.5h-3.294a.828.828 0 0 0-.823.833c0 .461.368.834.823.834zm5.765 0h.824a.828.828 0 0 0 .823-.834.828.828 0 0 0-.823-.833h-.824a.828.828 0 0 0-.823.833c0 .461.368.834.823.834z" fill="#F11F60"/><path fill-rule="evenodd" clip-rule="evenodd" d="M6.965 26.477l-.037.035.804.59.08.055a10.815 10.815 0 0 0 .795.518 8.542 8.542 0 0 0 .849.453l.023.01.019.01.117.056.02.01c.092.044.183.087.278.127.275.116.557.22.84.312.062.02.125.037.187.054l.115.032a9.88 9.88 0 0 0 1.652.34l.092.012.214.025c.327.03.656.05.988.05.332 0 .66-.02.987-.05l.214-.025.092-.012a10.097 10.097 0 0 0 1.658-.341l.112-.032a4.4 4.4 0 0 0 .181-.052c.285-.092.567-.196.844-.312.092-.039.182-.082.271-.125l.128-.061.02-.01c.14-.065.277-.13.412-.201.156-.082.309-.17.46-.26a10.497 10.497 0 0 0 .795-.516l.087-.059.833-.61-.041-.036a10.86 10.86 0 0 0 3.653-8.13c0-5.974-4.803-10.834-10.706-10.834S3.295 12.36 3.295 18.333c0 3.247 1.427 6.158 3.67 8.145zm4.829.736a8.784 8.784 0 0 1-.964-.304l-.112-.041a8.734 8.734 0 0 1-.954-.44l2-1.103c.614-.34.995-.99.995-1.697V22.22l-.192-.232a5.22 5.22 0 0 1-.909-1.912l-.11-.389-.282-.184.027-1.259.271-.248V15.88l-.006-.11c-.001-.005-.06-.62.352-1.095.385-.443 1.115-.678 2.113-.678.987 0 1.713.23 2.101.666.425.476.366 1.094.364 1.109l-.007 1.856.028.42.271.249v1.208c0 .035-.033.058-.053.065l-.41.128-.132.414a5.815 5.815 0 0 1-.776 1.581 3.28 3.28 0 0 1-.213.278l-.206.237v1.447c0 .737.405 1.4 1.055 1.728l2.128 1.077-.036.018c-.29.152-.59.285-.893.403l-.156.057a9.074 9.074 0 0 1-.942.29l-.025.006a9.128 9.128 0 0 1-4.31-.017l-.017-.004zm11.266-8.88c0-5.054-4.065-9.166-9.06-9.166-4.994 0-9.059 4.112-9.059 9.166a9.195 9.195 0 0 0 3.284 7.055l.04-.027.047-.03 2.663-1.47a.267.267 0 0 0 .137-.233v-.826a6.98 6.98 0 0 1-.987-2.069 1.74 1.74 0 0 1-.505-1.228v-1.208c0-.348.107-.687.299-.973v-1.4c-.026-.301-.059-1.407.754-2.347.717-.826 1.845-1.246 3.351-1.246 1.507 0 2.635.42 3.351 1.246.814.94.781 2.046.755 2.347v1.4c.192.286.299.625.299.973v1.208c0 .605-.306 1.148-.793 1.46a7.376 7.376 0 0 1-.881 1.69l-.117.163v.838c0 .1.057.193.146.238l2.85 1.442a.812.812 0 0 1 .068.04l.053.031a9.193 9.193 0 0 0 3.305-7.074zm-14.001 12.5H2.47V37.5h23.06v-6.667H9.06zm-4.94 5V32.5h3.293v3.333H4.118zm4.94 0h14.823V32.5H9.059v3.333z" fill="#F11F60"/></svg>