<svg width="52" height="52" fill="none" xmlns="http://www.w3.org/2000/svg"><path fill-rule="evenodd" clip-rule="evenodd" d="M1 26C1 12.215 12.215 1 26 1s25 11.215 25 25-11.215 25-25 25S1 39.785 1 26zm1.666 0c0 12.866 10.468 23.333 23.333 23.333 12.866 0 23.334-10.467 23.334-23.333 0-12.866-10.468-23.333-23.334-23.333C13.134 2.667 2.666 13.134 2.666 26z" fill="#F11F60" stroke="#F11F60"/><path fill-rule="evenodd" clip-rule="evenodd" d="M26.833 14.233v8.451a3.33 3.33 0 0 1 2.5 3.215A3.337 3.337 0 0 1 26 29.232a3.33 3.33 0 0 1-3.215-2.5h-5.952a.833.833 0 1 1 0-1.666h5.952a3.328 3.328 0 0 1 2.382-2.382v-8.451a.833.833 0 1 1 1.666 0zm-2.499 11.666c0 .92.747 1.667 1.667 1.667a1.668 1.668 0 0 0 0-3.333c-.92 0-1.667.747-1.667 1.666z" fill="#F11F60" stroke="#F11F60"/><path d="M26 9.233c.46 0 .833-.373.833-.834v-.833a.833.833 0 1 0-1.667 0v.833c0 .461.373.834.833.834zm0 33.333a.833.833 0 0 0-.834.833v.834a.833.833 0 1 0 1.667 0v-.834a.833.833 0 0 0-.834-.833zm18.333-17.5h-.834a.833.833 0 1 0 0 1.667h.834a.833.833 0 1 0 0-1.667zm-35.833 0h-.834a.833.833 0 1 0 0 1.667H8.5a.833.833 0 1 0 0-1.667zm29.875-12.72l-.59.589a.832.832 0 1 0 1.179 1.178l.589-.589a.832.832 0 1 0-1.178-1.178zM13.037 37.684l-.59.59a.832.832 0 1 0 1.179 1.178l.589-.59a.832.832 0 1 0-1.178-1.178zm25.927 0a.832.832 0 1 0-1.179 1.179l.59.589a.831.831 0 0 0 1.178 0 .832.832 0 0 0 0-1.179l-.59-.589zM13.626 12.346a.832.832 0 1 0-1.179 1.178l.59.59a.831.831 0 0 0 1.178 0 .832.832 0 0 0 0-1.18l-.59-.588z" fill="#F11F60" stroke="#F11F60"/></svg>