<svg width="74" height="48" fill="none" xmlns="http://www.w3.org/2000/svg"><path d="M29.058 42.462a.912.912 0 1 0-1.29 1.29.912.912 0 1 0 1.29-1.29z" fill="#F11F60"/><path fill-rule="evenodd" clip-rule="evenodd" d="M37.39 20.579l.004-.016 1.045-5.772a.912.912 0 0 0-.392-.922 11.364 11.364 0 0 1-5.07-9.474V1.849a.913.913 0 0 0-.913-.913h-3.651a.951.951 0 0 0-.339.066c-8.283 3.313-15.217.863-17.302.126-.333-.118-.543-.192-.615-.192H6.506a.913.913 0 0 0-.913.913v2.546c0 3.815-1.896 7.357-5.07 9.474a.913.913 0 0 0-.392.922l1.045 5.772.003.016c1.694 8.473 1.33 17.68-1.028 25.929a.91.91 0 0 0 .878 1.163h36.512a.913.913 0 0 0 .877-1.163c-2.356-8.248-2.722-17.457-1.027-25.93zM19.286 4.529c2.746 0 5.493-.45 8.143-1.345-.536 4.908-3.984 8.706-8.143 8.706-4.16 0-7.607-3.799-8.142-8.706a25.406 25.406 0 0 0 8.142 1.345zm-16.314 15.7c1.669 8.354 1.4 17.4-.746 25.617h34.12c-2.147-8.216-2.415-17.263-.746-25.617l.94-5.188a13.182 13.182 0 0 1-5.39-10.646V2.762h-1.855c-.396 6.118-4.734 10.954-10.01 10.954-5.278 0-9.617-4.836-10.013-10.954H7.418v1.633A13.18 13.18 0 0 1 2.031 15.04l.94 5.19z" fill="#F11F60"/><path d="M24.762 42.194H10.157a.913.913 0 0 0 0 1.826h14.605a.913.913 0 0 0 0-1.826zm42.736-15.658a.562.562 0 1 0-.796.794.562.562 0 0 0 .796-.794z" fill="#F11F60"/><path fill-rule="evenodd" clip-rule="evenodd" d="M72.635 13.045l.002-.01.644-3.558a.563.563 0 0 0-.242-.568 7.006 7.006 0 0 1-3.125-5.84v-1.57a.563.563 0 0 0-.564-.563h-2.249a.586.586 0 0 0-.21.04c-5.105 2.043-9.378.533-10.665.079-.207-.073-.336-.119-.38-.119h-2.25a.563.563 0 0 0-.564.563v1.57a7.005 7.005 0 0 1-3.125 5.84.563.563 0 0 0-.242.568l.645 3.558.001.01c1.044 5.224.82 10.9-.633 15.985a.564.564 0 0 0 .54.717h22.51a.562.562 0 0 0 .54-.717c-1.453-5.085-1.677-10.762-.633-15.985zM61.473 3.151a15.66 15.66 0 0 0 5.02-.83c-.33 3.026-2.456 5.368-5.02 5.368-2.565 0-4.69-2.342-5.02-5.367 1.634.552 3.326.829 5.02.829zM51.416 12.83c1.03 5.15.863 10.727-.46 15.792H71.99c-1.323-5.065-1.49-10.642-.46-15.792l.58-3.199a8.126 8.126 0 0 1-3.322-6.562V2.062h-1.144c-.244 3.772-2.919 6.752-6.171 6.752-3.252 0-5.927-2.98-6.171-6.752h-1.144v1.007a8.126 8.126 0 0 1-3.321 6.562l.579 3.199z" fill="#F11F60"/><path d="M64.85 26.37h-9.004a.563.563 0 0 0 0 1.126h9.003a.563.563 0 0 0 0-1.125z" fill="#F11F60"/></svg>