<svg xmlns="http://www.w3.org/2000/svg" viewBox="0 0 511.999 511.999" width="50" height="50"><path d="M503.087 463.03l-4.415-82.372c-2.01-31.612-22.583-58.851-52.412-69.393l-101.68-35.936c-4.676-1.653-9.967-.453-13.474 3.06l-3.259 3.264-22.138-11.113-.001-19.553c21.301-14.304 38.349-38.828 42.995-63.165.048-.25.09-.498.135-.748.149-.828.29-1.656.411-2.483a67.26 67.26 0 0 0 .306-2.33c.036-.327.065-.653.097-.979.08-.811.145-1.619.195-2.424.014-.223.029-.446.041-.669.011-.216.031-.433.039-.648h5.468c10.718 0 19.438-8.72 19.438-19.438v-23.797c0-1.111-.094-2.207-.279-3.285.178-.63.279-1.292.279-1.979a57.455 57.455 0 0 0-3.101-18.624V84.544C371.731 37.926 333.805 0 287.187 0H224.81c-46.618 0-84.544 37.926-84.544 84.544v25.874a57.437 57.437 0 0 0-3.101 18.624 7.3 7.3 0 0 0 .279 1.979 19.396 19.396 0 0 0-.279 3.285v23.797c0 10.718 8.72 19.438 19.438 19.438h5.461c.01.262.032.526.046.789.011.224.025.447.039.671.051.834.118 1.67.202 2.509.027.272.049.543.079.816.106.952.23 1.906.376 2.863.082.543.183 1.087.278 1.632.071.403.141.805.219 1.208.132.688.274 1.376.425 2.064l.09.394c5.298 23.498 21.907 46.873 42.47 60.693l-.002 19.36-22.132 11.116-3.262-3.267c-3.507-3.512-8.798-4.713-13.474-3.059L65.736 311.265c-29.829 10.542-50.401 37.781-52.416 69.465l-4.407 82.227a23.011 23.011 0 0 0 6.16 17.143 22.962 22.962 0 0 0 16.682 7.224h98.85v13.342c0 6.249 5.084 11.333 11.333 11.333h228.12c6.249 0 11.333-5.084 11.333-11.333v-13.342h98.85a22.963 22.963 0 0 0 16.682-7.224c4.315-4.598 6.56-10.846 6.164-17.07zm-142.83-304.927a4.87 4.87 0 0 1-4.863 4.863h-5.421V136.33h10.284v21.773zM224.81 14.575h62.378c38.581 0 69.969 31.388 69.969 69.969v2.979c-.113-.109-.233-.21-.347-.318a56.683 56.683 0 0 0-1.577-1.445l-.243-.211c-8.805-7.675-19.944-12.734-32.204-13.933-.079-.008-.16-.011-.239-.018a59.44 59.44 0 0 0-2.549-.19 57.063 57.063 0 0 0-2.871-.073H194.873a56.372 56.372 0 0 0-5.42.263c-.079.008-.16.01-.239.018-12.261 1.199-23.399 6.258-32.204 13.933-.081.07-.163.14-.243.211a58.28 58.28 0 0 0-1.577 1.445c-.114.108-.234.209-.347.318v-2.979h-.002c0-38.581 31.388-69.969 69.969-69.969zm-62.787 148.391h-5.421a4.868 4.868 0 0 1-4.863-4.863V136.33h10.284v26.636zm-9.668-41.211c1.513-8.855 5.736-16.796 11.781-22.941.168-.17.341-.336.512-.503.219-.215.437-.43.66-.64.288-.271.581-.536.876-.798.101-.09.201-.18.303-.269.371-.323.746-.642 1.127-.952l.028-.023a43.355 43.355 0 0 1 20.684-9.213 45.463 45.463 0 0 1 2.962-.352c.324-.027.65-.047.976-.067.261-.016.522-.035.784-.046a44.16 44.16 0 0 1 1.824-.041h122.251c.611 0 1.219.016 1.824.041.262.011.523.03.784.046.326.02.652.04.976.067a45.748 45.748 0 0 1 2.962.352l.24.038a43.345 43.345 0 0 1 20.444 9.175l.028.023c.381.31.756.629 1.127.952.102.089.202.179.303.269.295.262.588.528.876.798.223.21.442.425.66.64.171.167.344.333.512.503 6.044 6.145 10.267 14.086 11.781 22.941H152.355zm24.586 59.16l-.034-.309a50.657 50.657 0 0 1-.209-2.436l-.021-.31a48.338 48.338 0 0 1-.079-2.682V136.33h158.801v38.659c0 .887-.028 1.781-.079 2.679-.006.115-.016.232-.024.347a52.364 52.364 0 0 1-.247 2.764c-3.297 28.292-29.718 60.248-56.609 66.935l-.951.236c-19.556 4.864-24.506 4.852-44.138-.097-26.805-6.758-53.143-38.721-56.41-66.938zm35.745 102.72a12.507 12.507 0 0 0 8.174-11.777l.001-12.838c2.942 1.201 5.922 2.209 8.927 2.967 11.091 2.796 18.418 4.19 25.76 4.19 7.258 0 14.53-1.364 25.459-4.081l.95-.236c3.09-.768 6.152-1.797 9.175-3.031l.001 13.03a12.507 12.507 0 0 0 8.174 11.777l17.182 8.625-.294.236a95.556 95.556 0 0 1-2.923 2.266l-.072.052a95.084 95.084 0 0 1-2.971 2.107c-.159.109-.317.219-.476.327a94.446 94.446 0 0 1-3.554 2.28 93.624 93.624 0 0 1-3.04 1.786c-.157.088-.315.173-.472.26a95.5 95.5 0 0 1-3.112 1.654c-.068.034-.135.071-.203.105a96.077 96.077 0 0 1-3.256 1.556c-.196.089-.391.18-.587.268a93.219 93.219 0 0 1-3.847 1.622 93.297 93.297 0 0 1-3.319 1.25c-.136.048-.273.092-.408.14a94.125 94.125 0 0 1-3.298 1.084l-.377.119a94.246 94.246 0 0 1-3.44.97c-.219.058-.437.116-.657.172-1.134.29-2.274.56-3.421.809-.212.046-.425.089-.638.134a97.1 97.1 0 0 1-3.574.687c-.085.015-.171.026-.256.041-1.172.197-2.351.37-3.534.525-.168.022-.334.047-.502.068-1.19.149-2.385.273-3.585.378-.229.02-.457.04-.686.058a97.494 97.494 0 0 1-3.597.227c-.196.009-.393.014-.589.021-1.263.048-2.53.08-3.802.08-1.272 0-2.538-.031-3.802-.08-.195-.007-.39-.013-.584-.021a97.518 97.518 0 0 1-3.6-.227c-.226-.018-.452-.038-.679-.058a97.39 97.39 0 0 1-3.598-.38c-.155-.019-.309-.042-.464-.062a97.66 97.66 0 0 1-3.597-.534l-.202-.032a95.795 95.795 0 0 1-3.633-.698c-.186-.039-.373-.077-.559-.118a96.07 96.07 0 0 1-3.507-.83c-.177-.045-.353-.092-.53-.139a97.018 97.018 0 0 1-3.574-1.008c-.051-.015-.101-.032-.152-.048a94.432 94.432 0 0 1-3.641-1.197l-.15-.051a94.655 94.655 0 0 1-3.55-1.337l-.36-.143a96.493 96.493 0 0 1-3.473-1.48c-.079-.035-.157-.072-.236-.108a94.923 94.923 0 0 1-7.086-3.577l-.019-.01a94.148 94.148 0 0 1-3.411-2.004l-.168-.104a96.53 96.53 0 0 1-3.334-2.155l-.016-.011a96.171 96.171 0 0 1-6.488-4.808l-.077-.062 17.177-8.626zm273.609 186.488a8.223 8.223 0 0 1-6.053 2.623h-60.193v-86.309a7.288 7.288 0 0 0-14.576 0v86.309H381.39V351.654c0-6.249-5.084-11.333-11.333-11.333H141.938v.001c-6.249 0-11.333 5.084-11.333 11.333v48.689a7.288 7.288 0 0 0 14.576 0v-45.447h74.447v63.274a7.286 7.286 0 0 0 10.825 6.371l25.006-13.885 26.198 13.946a7.285 7.285 0 0 0 10.713-6.434v-63.274h74.447v142.528H145.18v-45.758a7.288 7.288 0 0 0-14.576 0v21.083h-24.083v-86.309a7.288 7.288 0 0 0-14.576 0v86.309h-60.19a8.223 8.223 0 0 1-6.053-2.623c-1.594-1.699-2.39-3.916-2.238-6.317l4.407-82.227c1.639-25.775 18.409-47.982 42.723-56.576l100.71-35.593 6.293 6.303.004.004c20.86 20.891 48.702 32.397 78.398 32.397 3.043 0 6.066-.128 9.065-.367 26.263-2.097 50.612-13.28 69.333-32.03l.037-.037.003-.003v-.001l6.257-6.267 100.71 35.593a64.198 64.198 0 0 1 42.718 56.503l4.415 82.372a8.267 8.267 0 0 1-2.242 6.244zM277.794 354.897v51.139L258.81 395.93a7.285 7.285 0 0 0-6.962.062l-17.645 9.797v-50.892h43.591z" fill="#f11f60"/></svg>