<svg xmlns="http://www.w3.org/2000/svg" xmlns:xlink="http://www.w3.org/1999/xlink" width="170" height="48" version="1.1" viewBox="0 0 170 48"><g id="Canvas" fill="none"><g id="logo"><g id="logo_2"><g id="Combined Shape"><path fill="#F11F60" fill-rule="evenodd" d="M 107.703 3.56702C 107.749 4.57495 107.313 5.5448 106.528 6.1792C 105.791 6.80859 104.853 7.15491 103.883 7.15601C 103.317 6.34497 103.015 5.37927 103.016 4.39026C 102.999 3.53625 103.172 2.68909 103.521 1.90979C 103.75 1.38831 104.049 0.900757 104.41 0.460938C 104.644 0.17334 104.994 0.0045166 105.365 0C 105.925 0 106.463 0.438965 106.967 1.37195C 107.381 2.03577 107.633 2.78772 107.703 3.56702ZM 60.991 13.1707L 68.2239 13.3243C 68.6409 13.3243 68.8605 13.5768 68.9153 14.0707C 68.8882 14.3564 68.8217 14.6372 68.7178 14.9048C 68.5861 15.2999 68.4653 15.7061 68.3556 16.134C 68.1141 17.0011 67.697 17.4292 67.0166 17.4292L 61.0129 17.1548L 60.4971 17.1548C 60.3108 17.1405 60.1237 17.1405 59.9374 17.1548C 58.7609 21.031 58.0714 25.0387 57.8849 29.0852C 57.8849 30.6437 56.3702 31.412 53.3411 31.412C 52.7465 31.4501 52.2301 31.0067 52.1776 30.4132C 52.0444 29.5306 51.9857 28.6385 52.0021 27.7462C 52.1621 24.3962 52.7335 21.0787 53.7032 17.8682C 52.4456 18.0563 51.1771 18.1626 49.9058 18.1865C 49.5654 18.1865 49.3899 18.0548 49.3899 17.7914C 49.4882 17.0068 49.9254 16.3048 50.5862 15.8706C 51.8068 15.0233 53.1833 14.4264 54.6361 14.1146C 55.4072 11.3016 56.368 8.54407 57.5117 5.86096C 55.1066 5.90112 52.8008 6.82739 51.0361 8.46216C 50.6191 8.89026 50.2679 9.21948 50.0045 9.44995C 49.8262 9.65137 49.5801 9.78027 49.313 9.81213C 49.1155 9.81213 48.9288 9.64758 48.7423 9.32922C 48.5394 8.94067 48.4447 8.50476 48.4679 8.06702C 48.4972 6.04028 49.8655 4.39392 52.5728 3.12805C 55.7206 1.77783 59.126 1.13354 62.5496 1.24023L 74.4031 1.43787C 75.1494 1.43787 75.5006 1.71228 75.5006 2.27197C 75.4486 2.57117 75.3406 2.85791 75.1824 3.11707C 74.9626 3.5437 74.7792 3.98792 74.6335 4.44519C 74.3146 5.36572 73.4087 5.95007 72.4385 5.86096L 71.1873 5.86096L 65.9299 5.86096L 62.8898 5.86096C 62.4292 8.33911 61.7947 10.7817 60.991 13.1707ZM 36.9436 22.434C 37.3936 21.9181 37.7339 21.6658 37.9753 21.6658C 38.3375 21.6658 38.524 22.028 38.524 22.7743C 38.499 23.6295 38.2972 24.4702 37.9314 25.2438C 37.4561 26.2421 36.7841 27.1343 35.9558 27.8669C 33.6948 29.9742 30.5778 31.0718 26.6266 31.0718C 23.5205 31.0718 21.3254 29.9413 20.2279 27.6693C 20.1971 27.614 20.1733 27.5485 20.1487 27.4802L 20.1478 27.4779L 20.1473 27.4766C 20.1283 27.424 20.1088 27.37 20.0852 27.3181C 19.4404 27.8586 18.6216 28.1472 17.7804 28.1302C 16.7174 28.1833 15.6648 27.899 14.7731 27.3181C 14.311 28.4508 13.5146 29.4156 12.4901 30.084C 11.0956 30.8967 9.4917 31.2787 7.88037 31.1815C 6.05334 31.23 4.25952 30.6873 2.76587 29.6339C 0.999268 28.2837 0.0333252 26.1332 0.19751 23.9156C 0.274658 19.9032 1.20239 15.9529 2.91943 12.3256C 0.976807 11.4915 0 10.6682 0 9.87805C 0 9.42798 0.175659 9.23047 0.515869 9.25244C 1.06982 9.26721 1.61646 9.38245 2.12927 9.59265C 2.73816 9.81152 3.36157 9.98767 3.99512 10.1195C 6.14624 6.03662 8.60486 3.36951 11.3816 2.1073C 12.2483 1.69629 13.1891 1.46484 14.1475 1.42688C 15.6555 1.32666 17.1456 1.80115 18.3181 2.75488C 19.2476 3.56287 19.7736 4.73938 19.756 5.9707C 19.756 8.24268 18.4938 9.98779 16.0463 11.1951C 13.4617 12.3344 10.6816 12.9641 7.85852 13.0499C 6.60815 16.1919 5.97827 19.5464 6.00366 22.9279C 6.00366 25.5291 6.58533 27.0437 7.82556 27.4388C 8.42578 27.7267 9.12415 27.7267 9.72437 27.4388C 10.1396 27.1608 10.4791 26.7836 10.7122 26.3413C 10.9768 25.7095 11.104 25.0286 11.0853 24.3438C 11.1185 23.5194 10.8492 22.7113 10.328 22.0718C 9.82312 21.4572 9.32922 20.8865 8.84631 20.3596C 9.04346 19.5675 9.39392 18.8218 9.87793 18.1646C 10.745 17.0341 11.4695 16.4633 12.0731 16.4633C 12.626 16.4458 13.1591 16.6702 13.5328 17.078C 13.9421 17.5402 14.2589 18.0767 14.4657 18.6584C 14.7196 19.3579 14.9142 20.0775 15.0475 20.8096C 15.1902 21.5449 15.3547 22.2255 15.5414 22.8621C 15.6931 23.4199 15.926 23.9525 16.2328 24.4425C 16.4609 24.8333 16.8779 25.0751 17.3303 25.0791C 17.7987 25.0713 18.2448 24.8778 18.5706 24.5413C 18.9407 24.1901 19.2719 23.8 19.5583 23.3779L 19.701 23.1583C 19.8352 21.9969 20.1041 20.8552 20.5023 19.756C 21.0529 18.2356 21.8665 16.8239 22.9059 15.5853C 23.8087 14.4709 24.9291 13.5524 26.1986 12.8853C 27.4507 12.2395 28.8397 11.9044 30.2485 11.9084C 31.4452 11.8461 32.6212 12.2382 33.5413 13.006C 34.3156 13.713 34.7408 14.724 34.7046 15.7719C 34.7427 16.7678 34.4408 17.7471 33.8485 18.5487C 33.2523 19.3029 32.5045 19.9236 31.6534 20.3706C 30.6929 20.8811 29.6949 21.3177 28.6681 21.6766C 27.5706 22.0645 26.4949 22.4926 25.4413 22.9608L 25.4413 23.9486C 25.4186 24.79 25.8792 25.5703 26.6266 25.9572C 27.4369 26.3671 28.3308 26.5848 29.2388 26.5938C 31.46 26.5287 33.5818 25.6589 35.2095 24.1462C 35.8273 23.6172 36.4069 23.045 36.9436 22.434ZM 129.753 14.0267C 130.241 13.6318 130.513 13.0295 130.488 12.4023C 130.451 11.9105 130.292 11.4354 130.027 11.0194C 129.72 10.4597 129.38 10.1853 129.006 10.1853C 128.773 10.1862 128.554 10.2958 128.414 10.4817C 128.186 10.7478 128.001 11.0477 127.865 11.3706C 127.653 11.8506 127.552 12.3719 127.569 12.8962C 127.573 13.5114 127.76 14.1112 128.106 14.6194C 128.708 14.6244 129.292 14.4143 129.753 14.0267ZM 118.865 10.306C 119.588 9.7406 119.996 8.86328 119.962 7.94629C 119.91 7.23315 119.684 6.5437 119.304 5.93774C 118.854 5.1366 118.371 4.74146 117.822 4.74146C 117.484 4.73962 117.165 4.89343 116.955 5.15857C 116.632 5.55054 116.365 5.98669 116.165 6.45361C 115.865 7.14551 115.723 7.89526 115.748 8.6488C 115.749 9.53906 116.021 10.408 116.527 11.1403C 117.38 11.1425 118.206 10.8475 118.865 10.306ZM 159.692 14.1865C 160.908 12.8799 162.68 10.9768 165.302 11.1511C 170.121 11.7219 169.835 17.2206 169.714 17.7914C 168.975 23.1315 165.985 26.7488 162.937 30.4365C 161.01 32.7668 159.061 35.1254 157.641 37.9644C 156.336 40.5762 156.23 42.7704 156.153 44.3727C 156.072 46.0563 156.023 47.0863 154.645 47.2606C 152.977 47.4583 154.063 40.3351 155.633 36.4827C 156.178 35.1443 157.763 32.8375 159.541 30.2505C 162.88 25.391 166.9 19.5422 165.983 17.2645C 164.885 14.5426 161.955 17.2535 160.989 18.5487C 160.023 19.8438 157.652 22.4559 154.009 17.2206C 153.109 15.9365 150.837 16.4084 151.023 18.6914C 151.351 22.4265 153.984 25.5558 157.609 26.5168C 158.871 26.8572 158.421 28.5254 157.609 29.7437C 155.029 29.4254 151.802 26.2316 151.539 25.6389L 151.505 25.6836L 151.504 25.6844C 151.17 26.1187 148.6 29.4626 146.831 30.2595C 145.841 30.7275 144.764 30.9819 143.67 31.0059C 139.927 31.0388 137.359 29.6229 135.987 26.7803C 135.92 26.6375 135.861 26.491 135.811 26.3413C 135.319 27.0972 134.733 27.7869 134.066 28.3937C 132.512 30.0225 130.368 30.9562 128.117 30.9839C 126.021 30.9839 124.77 29.3925 124.353 26.2645C 123.849 27.0406 123.252 27.752 122.575 28.3827C 121.006 29.9913 118.872 30.9246 116.626 30.9839C 114.731 30.9839 113.783 29.2607 113.783 25.8145C 113.821 24.6044 113.964 23.3998 114.211 22.2145C 114.454 21.1097 114.601 19.9861 114.65 18.856C 114.65 17.9889 114.146 17.5499 113.147 17.5499C 112.466 17.5499 111.698 18.2194 110.853 19.5475C 110.023 20.8677 109.422 22.3185 109.075 23.8389L 109.075 23.9156C 109.078 24.853 109.219 25.7849 109.492 26.6815C 109.706 27.3213 109.843 27.9846 109.898 28.6571C 109.898 29.5461 108.734 30.4352 106.539 31.3022C 106.25 31.4229 105.942 31.4899 105.628 31.4998C 104.99 31.5146 104.426 31.0868 104.267 30.4681C 103.975 29.5613 103.841 28.6107 103.872 27.6583C 103.872 26.5608 103.905 25.4083 103.971 24.3657C 104.037 23.323 104.103 22.3572 104.169 21.4791C 104.186 21.2476 104.201 21.0227 104.216 20.8051L 104.216 20.8007C 104.257 20.1949 104.294 19.6439 104.366 19.1523C 104.465 18.4828 104.465 17.9341 104.465 17.517C 104.465 16.6169 104.048 16.167 103.236 16.167C 102.424 16.167 101.491 17.1218 100.393 19.0316C 99.4994 20.3953 98.946 21.9535 98.7797 23.5754C 98.7463 24.6252 98.8608 25.6746 99.12 26.6925C 99.3417 27.3308 99.4818 27.9946 99.537 28.6681C 99.537 29.5571 98.3737 30.4462 96.1785 31.3132C 95.8894 31.4338 95.5807 31.5007 95.2676 31.5107C 94.629 31.5255 94.0648 31.0978 93.9066 30.4791C 93.6102 29.4529 93.4841 28.3851 93.5334 27.3181L 93.5334 26.5388C 93.0717 27.1963 92.5338 27.7968 91.931 28.3279C 91.0494 29.108 90.0585 29.7551 88.9895 30.2485C 88.0026 30.7238 86.924 30.9784 85.8286 30.9949C 84.4347 30.9949 83.5018 29.7766 83.0298 27.3181C 82.3573 28.4399 81.4376 29.3934 80.3408 30.106C 79.0131 30.8854 77.489 31.2665 75.9507 31.2035C 74.2782 31.2753 72.6515 30.6469 71.4617 29.4694C 70.3499 28.3497 69.7501 26.8206 69.8043 25.2438C 69.5839 21.1776 71.2379 17.2345 74.2933 14.5426C 75.3175 13.6016 76.5189 12.874 77.8274 12.4023C 78.9476 12.0598 80.1134 11.8896 81.2847 11.8975C 82.3091 11.8569 83.3275 12.072 84.2482 12.5231C 84.6213 11.8097 85.0383 11.4255 85.5103 11.4255C 86.5149 11.458 87.4641 11.8931 88.1444 12.6328C 88.8448 13.1941 89.2914 14.0122 89.3846 14.9048C 88.9084 15.9766 88.366 17.0176 87.7603 18.0219C 87.522 19.7085 87.4193 21.4115 87.453 23.1145C 87.453 25.3096 87.7274 26.4071 88.2761 26.4071C 88.964 26.3998 90.6249 25.0315 93.259 22.3022C 93.4133 22.1206 93.5822 21.9518 93.7639 21.7975C 93.8125 20.9186 93.9077 20.043 94.0493 19.1743C 94.4443 16.7267 94.9932 14.6304 98.6699 11.9304C 104.495 8.02637 107.321 11.1613 108.33 12.2799L 108.333 12.2833L 108.346 12.2977L 108.362 12.3152L 108.378 12.3336C 108.411 12.3702 108.442 12.4044 108.471 12.4353C 109.197 13.468 109.719 14.6305 110.008 15.8596L 110.008 16.2987C 111.374 14.4125 113.561 13.2946 115.891 13.2914C 117.092 13.1895 118.283 13.5864 119.183 14.3889C 119.909 15.1061 120.306 16.0911 120.281 17.1108C 120.289 18.0925 120.212 19.073 120.05 20.0414C 119.886 20.9084 119.71 21.7206 119.512 22.4889L 118.986 24.5194C 118.846 24.9681 118.765 25.4329 118.744 25.9022C 118.689 26.2659 118.923 26.6105 119.282 26.6925C 121.695 27.2913 123.154 24.8779 123.874 23.6879C 124.038 23.4163 124.164 23.2084 124.254 23.1145C 124.408 20.4365 126.328 16.6719 127.547 16.6719C 128.128 16.6719 128.622 17.2426 129.05 18.2743C 129.397 19.0487 129.448 19.9235 129.193 20.7328C 129.125 21.0468 128.991 21.4927 128.834 22.0107L 128.833 22.014C 128.098 24.4481 126.885 28.4652 129.906 27.823C 130.633 27.6018 131.317 27.2565 131.926 26.8022C 133.197 25.8127 134.093 24.327 134.688 23.3409L 134.689 23.3397C 134.951 22.9044 135.155 22.5667 135.306 22.4121C 135.339 20.9824 135.464 19.5563 135.679 18.1426C 136.167 14.8364 137.194 11.6328 138.72 8.65967C 139.415 7.29578 140.278 6.0238 141.288 4.87317C 142.975 2.74133 145.528 1.47693 148.246 1.42688C 149.224 1.375 150.182 1.71021 150.913 2.35974C 151.597 3.07275 151.948 4.04138 151.879 5.02686C 151.859 6.26587 151.502 7.47595 150.848 8.52808C 150.081 9.81299 149.203 11.0286 148.224 12.1609C 147.16 13.4121 145.974 14.7183 144.69 16.0902C 143.35 17.514 142.082 19.0049 140.893 20.5573L 140.893 22.1487C 140.794 23.3094 141.134 24.4652 141.848 25.3865C 142.395 26.0323 143.196 26.4088 144.043 26.4181C 146.469 26.3353 148.706 25.0841 150.046 23.0596L 150.112 22.9828C 150.135 22.9329 150.023 22.6814 149.847 22.2863C 148.94 20.2513 146.334 14.4049 151.748 12.6219C 153.869 11.9343 155.551 13.382 156.763 14.4242C 157.369 14.9457 157.857 15.3657 158.223 15.3657C 158.594 15.3657 159.071 14.8539 159.692 14.1865ZM 28.5364 15.4207C 29.3486 15.4207 29.7546 15.7499 29.7546 16.4084C 29.6863 17.2234 29.2339 17.957 28.5364 18.384C 28.1632 18.6475 27.7352 18.9219 27.2522 19.2072C 26.7583 19.5035 26.2426 19.8328 25.6937 20.1949C 26.2426 17.0121 27.1901 15.4207 28.5364 15.4207ZM 14.3669 5.30115C 13.3857 5.48315 12.4978 5.9989 11.8535 6.76086C 10.6614 7.95703 9.66174 9.33069 8.89014 10.8328C 11.7657 10.3828 13.6754 9.44995 14.7731 8.18774C 15.1272 7.76331 15.3351 7.23596 15.3657 6.68408C 15.3438 5.76208 15.0035 5.30115 14.3669 5.30115ZM 143.911 8.1438C 145.009 6.25598 146.051 5.30115 146.973 5.30115C 147.39 5.30115 147.599 5.59753 147.599 6.19019C 147.597 6.79614 147.434 7.39087 147.127 7.91333C 146.742 8.5658 146.306 9.18616 145.821 9.76819L 143.867 12.1829C 143.121 13.1047 142.298 14.2462 141.398 15.6182C 141.79 12.9984 142.641 10.4684 143.911 8.1438ZM 81.8555 24.3877C 82.2593 23.7251 82.566 23.0081 82.7664 22.2584C 82.741 19.7019 83.0248 17.1517 83.6115 14.6633C 81.4769 15.0851 79.5276 16.1635 78.0359 17.7474C 76.4478 19.4006 75.5931 21.6244 75.6653 23.9156C 75.6653 25.9462 76.3677 26.9559 77.8604 26.9559C 79.5579 26.8833 81.0847 25.9019 81.8555 24.3877Z" clip-rule="evenodd" transform="translate(0.393799 0.576294)"/></g></g></g></g></svg>