<svg width="52" height="52" viewBox="0 0 52 52" fill="none" xmlns="http://www.w3.org/2000/svg">
<path fill-rule="evenodd" clip-rule="evenodd" d="M34.5283 28.1381C36.4403 27.2524 38.344 26.6063 40.2141 26.2106C40.7535 26.0965 41.0982 25.5667 40.9841 25.0273C40.87 24.4879 40.3408 24.143 39.8007 24.2573C37.636 24.7153 35.4376 25.4813 33.2389 26.5399C32.0107 25.0751 30.6046 23.5435 29.0877 22.0265C27.4757 20.4146 25.8469 18.9269 24.2996 17.6461C25.6385 15.953 26.7314 14.0574 27.5582 11.9828C28.8474 8.74811 29.5011 5.05251 29.5011 0.998323C29.5011 0.446949 29.054 0 28.5027 0C27.9515 0 27.5044 0.446949 27.5044 0.998323C27.5044 7.24503 25.9027 12.4149 22.7396 16.4044C22.1427 15.9491 21.564 15.5306 21.0113 15.1579C18.0526 13.1624 16.2903 12.6947 15.3054 13.6443L15.2984 13.6507C15.2936 13.655 15.2889 13.6594 15.2843 13.6638L15.2813 13.6666L15.2796 13.6684C15.0274 13.9213 14.8716 14.2271 14.8126 14.592L0.0776825 49.7299C-0.0790558 50.1036 0.00579834 50.5352 0.292419 50.8218C0.483505 51.0128 0.738876 51.1142 0.998627 51.1142C1.12862 51.1142 1.2598 51.0889 1.38449 51.0366L1.38728 51.0354L36.5224 36.3013C36.8555 36.2474 37.1385 36.1112 37.3778 35.8959C37.3949 35.8817 37.4108 35.8667 37.4268 35.8516L37.4274 35.851L37.4277 35.8507C37.4308 35.8477 37.4339 35.845 37.437 35.8423L37.4374 35.8419L37.4375 35.8418L37.4377 35.8416C37.441 35.8388 37.4442 35.8359 37.4473 35.8328L37.45 35.8298C37.4547 35.8252 37.4592 35.8202 37.4637 35.8153L37.4699 35.8086C38.4194 34.8235 37.9517 33.0614 35.9561 30.1028C35.5343 29.4775 35.055 28.8192 34.5283 28.1381ZM7.91821 44.0021C7.70985 45.3012 7.24654 46.1552 7.02361 46.5066L2.8627 48.2515L7.0885 38.1746C7.91531 40.2472 8.20193 42.2327 7.91821 44.0021ZM12.2878 44.2991C12.5914 44.0248 13.659 42.9187 14.0615 40.6242C14.4643 38.3283 14.2314 34.4289 11.1273 28.5438L8.13554 35.6777C10.3956 40.0156 10.2419 43.3203 9.65709 45.4022L12.2878 44.2991ZM17.6226 42.0618L15.4708 42.9642C15.6759 42.4462 15.8567 41.8562 15.9877 41.1876C16.7867 37.1092 15.4823 32.0664 12.1127 26.1941L13.1929 23.6183C14.0478 24.6471 15.022 26.1032 15.4165 27.0212C15.5789 27.3993 15.9472 27.6257 16.3342 27.6257C16.4657 27.6257 16.5994 27.5994 16.7279 27.5443C17.2345 27.3266 17.4686 26.7396 17.2509 26.2329C16.6655 24.8708 15.1811 22.7514 14.0456 21.5848L15.6962 17.649C15.9853 18.1791 16.3434 18.7599 16.7728 19.3966C17.0685 19.8351 17.3925 20.2896 17.7409 20.7568C21.1559 25.9387 21.0786 31.2427 20.411 34.7817C19.7011 38.5459 18.181 41.3017 17.6226 42.0618ZM20.5755 40.8235L25.315 38.8361C25.7806 38.4274 27.9425 36.2796 28.0856 31.5662C26.6417 30.3518 25.1344 28.9662 23.6411 27.4731C23.142 26.974 22.6555 26.4733 22.1826 25.9738C23.0401 29.4632 22.8363 32.6946 22.3729 35.1519C21.958 37.3519 21.2599 39.3225 20.5755 40.8235ZM28.7562 37.393C29.2906 36.2873 29.7625 34.8624 29.973 33.0827C30.5756 33.5428 31.1599 33.9655 31.7175 34.3415C32.3546 34.7712 32.9353 35.1291 33.4656 35.4182L28.7562 37.393ZM25.053 26.061C27.535 28.543 30.0972 30.7566 32.2675 32.2944C34.3662 33.7813 35.4379 34.182 35.9023 34.2877C35.7968 33.8235 35.3962 32.7518 33.9091 30.653C33.5456 30.1399 33.1431 29.6043 32.7093 29.0534C32.432 29.2034 32.1547 29.3571 31.8776 29.5172C31.7204 29.608 31.5487 29.6512 31.3794 29.6512C31.0343 29.6512 30.6987 29.4721 30.5139 29.1518C30.2381 28.6744 30.4017 28.0639 30.8793 27.7881C31.0594 27.6841 31.2396 27.5823 31.4199 27.4821C30.2944 26.1611 29.0255 24.7882 27.6758 23.4385C26.1064 21.8691 24.5052 20.4075 22.9908 19.1557C22.8687 19.284 22.7452 19.4111 22.6198 19.5365C22.425 19.7314 22.1694 19.8289 21.9139 19.8289C21.6584 19.8289 21.403 19.7314 21.208 19.5365C20.8181 19.1465 20.8181 18.5144 21.208 18.1246C21.2576 18.075 21.3061 18.0246 21.3547 17.9743C21.3758 17.9523 21.397 17.9304 21.4182 17.9085C21.0924 17.6614 20.7725 17.4257 20.4612 17.2052C18.3625 15.7183 17.2908 15.3176 16.8266 15.2119C16.9321 15.6762 17.3328 16.7479 18.8198 18.8466C20.3574 21.017 22.5712 23.5792 25.053 26.061Z" transform="translate(0.499985 0.539823)" fill="#F11F60"/>
<path d="M1.909 0.588965C1.68268 0.0861091 1.09177 -0.138114 0.588915 0.0882056C0.101733 0.307437 -0.123888 0.869094 0.0683888 1.36117C0.219535 1.7568 0.5974 2.00309 1.00082 2.00309C1.11024 2.00309 1.22145 1.98492 1.33067 1.94678C1.85099 1.76469 2.12533 1.19515 1.94314 0.67472C1.93366 0.647666 1.92078 0.615121 1.909 0.588965Z" transform="translate(16.6491 28.7559)" fill="#F11F60"/>
<path d="M0.292384 5.45901C0.487356 5.65388 0.742827 5.75142 0.998298 5.75142C1.25387 5.75142 1.50924 5.65388 1.70421 5.45901C3.93477 3.22845 7.5486 2.20617 10.1871 1.99323C10.7366 1.9489 11.1462 1.46731 11.1018 0.917836C11.0574 0.368259 10.5769 -0.039656 10.0264 0.00307225C7.03416 0.244567 2.90579 1.43377 0.292384 4.04718C-0.0974613 4.43703 -0.0974613 5.06916 0.292384 5.45901Z" transform="translate(37.4883 10.5241)" fill="#F11F60"/>
<path d="M1.32582 0.0522242C1.29757 0.044637 1.26882 0.0371496 1.23976 0.0298618C0.704763 -0.103514 0.163073 0.222438 0.0297965 0.75744C-0.10338 1.29244 0.222373 1.83423 0.757374 1.96741L0.808389 1.98059C0.895043 2.00385 0.982097 2.01503 1.06775 2.01503C1.50841 2.01503 1.91174 1.72102 2.03133 1.27517C2.17419 0.742665 1.85843 0.195184 1.32582 0.0522242Z" transform="translate(49.5485 10.6669)" fill="#F11F60"/>
<path d="M0.998323 3.99329H1.99665V4.99162C1.99665 5.54289 2.4436 5.98994 2.99497 5.98994C3.54634 5.98994 3.99329 5.54289 3.99329 4.99162V3.99329H4.99162C5.54299 3.99329 5.98994 3.54624 5.98994 2.99497C5.98994 2.4437 5.54299 1.99665 4.99162 1.99665H3.99329V0.998323C3.99329 0.447049 3.54634 0 2.99497 0C2.4436 0 1.99665 0.447049 1.99665 0.998323V1.99665H0.998323C0.446949 1.99665 0 2.4437 0 2.99497C0 3.54634 0.446949 3.99329 0.998323 3.99329Z" transform="translate(6.83975 4.89471)" fill="#F11F60"/>
<path d="M0.998323 3.99339H1.99675V4.99162C1.99675 5.54299 2.4438 5.98994 2.99507 5.98994C3.54644 5.98994 3.99339 5.54299 3.99339 4.99162V3.99339H4.99162C5.54289 3.99339 5.98994 3.54634 5.98994 2.99507C5.98994 2.4438 5.54289 1.99675 4.99162 1.99675H3.99339V0.998323C3.99339 0.447049 3.54644 0 2.99507 0C2.4438 0 1.99675 0.447049 1.99675 0.998323V1.99675H0.998323C0.447049 1.99675 0 2.4438 0 2.99507C0 3.54644 0.447049 3.99339 0.998323 3.99339Z" transform="translate(30.2003 14.5782)" fill="#F11F60"/>
<path d="M4.99162 1.99665H3.99329V0.998323C3.99329 0.447049 3.54624 0 2.99497 0C2.4437 0 1.99665 0.447049 1.99665 0.998323V1.99665H0.998323C0.447049 1.99665 0 2.4437 0 2.99497C0 3.54624 0.447049 3.99329 0.998323 3.99329H1.99665V4.99162C1.99665 5.54289 2.4437 5.98994 2.99497 5.98994C3.54624 5.98994 3.99329 5.54289 3.99329 4.99162V3.99329H4.99162C5.54289 3.99329 5.98994 3.54624 5.98994 2.99497C5.98994 2.4437 5.54299 1.99665 4.99162 1.99665Z" transform="translate(40.0836 40.2351)" fill="#F11F60"/>
<path fill-rule="evenodd" clip-rule="evenodd" d="M5.98994 2.99497C5.98994 4.6464 4.64639 5.98994 2.99496 5.98994C1.34354 5.98994 0 4.6464 0 2.99497C0 1.34354 1.34354 0 2.99496 0C4.64639 0 5.98994 1.34354 5.98994 2.99497ZM3.99329 2.99497C3.99329 2.44449 3.54544 1.99665 2.99496 1.99665C2.44449 1.99665 1.99664 2.44449 1.99664 2.99497C1.99664 3.54545 2.44449 3.99329 2.99496 3.99329C3.54544 3.99329 3.99329 3.54545 3.99329 2.99497Z" transform="translate(36.4365 0.540022)" fill="#F11F60"/>
<path fill-rule="evenodd" clip-rule="evenodd" d="M0 2.99497C0 1.34354 1.34354 0 2.99496 0C4.6463 0 5.98994 1.34354 5.98994 2.99497C5.98994 4.6464 4.64639 5.98994 2.99496 5.98994C1.34354 5.98994 0 4.6464 0 2.99497ZM1.99664 2.99497C1.99664 3.54544 2.44449 3.99329 2.99496 3.99329C3.54544 3.99329 3.99329 3.54544 3.99329 2.99497C3.99329 2.44449 3.54544 1.99665 2.99496 1.99665C2.44449 1.99665 1.99664 2.44449 1.99664 2.99497Z" transform="translate(42.6793 17.8727)" fill="#F11F60"/>
<path fill-rule="evenodd" clip-rule="evenodd" d="M5.98994 2.99497C5.98994 4.6464 4.64639 5.98994 2.99496 5.98994C1.34354 5.98994 0 4.6464 0 2.99497C0 1.34354 1.34354 0 2.99496 0C4.64639 0 5.98994 1.34354 5.98994 2.99497ZM3.99329 2.99497C3.99329 2.44449 3.54544 1.99665 2.99496 1.99665C2.44449 1.99665 1.99664 2.4446 1.99664 2.99497C1.99664 3.54545 2.44449 3.99329 2.99496 3.99329C3.54544 3.99329 3.99329 3.54545 3.99329 2.99497Z" transform="translate(17.3221 4.09595)" fill="#F11F60"/>
<path d="M1.99665 0.998323C1.99665 0.448447 1.5482 0 0.998323 0C0.448447 0 0 0.448447 0 0.998323C0 1.5482 0.448447 1.99665 0.998323 1.99665C1.5482 1.99665 1.99665 1.5481 1.99665 0.998323Z" transform="translate(43.347 28.8981)" fill="#F11F60"/>
<path d="M0.998323 1.99665C1.5482 1.99665 1.99665 1.5482 1.99665 0.998323C1.99665 0.448447 1.5482 0 0.998323 0C0.448447 0 0 0.448447 0 0.998323C9.98323e-05 1.5481 0.448547 1.99665 0.998323 1.99665Z" transform="translate(32.9644 8.03334)" fill="#F11F60"/>
<path d="M0.998423 0C0.448547 0 0 0.448547 0 0.998423C0 1.5483 0.448547 1.99675 0.998423 1.99675C1.5482 1.99675 1.99675 1.5483 1.99675 0.998423C1.99675 0.448547 1.5482 0 0.998423 0Z" transform="translate(46.3418 36.3854)" fill="#F11F60"/>
<path d="M0.998323 1.99665C1.5482 1.99665 1.99665 1.5482 1.99665 0.998323C1.99665 0.448447 1.5482 0 0.998323 0C0.448447 0 0 0.448447 0 0.998323C0 1.5482 0.448447 1.99665 0.998323 1.99665Z" transform="translate(13.3975 1.53835)" fill="#F11F60"/>
</svg>
