<svg width="58" height="53" viewBox="0 0 58 53" fill="none" xmlns="http://www.w3.org/2000/svg">
<path fill-rule="evenodd" clip-rule="evenodd" d="M43.3987 7.34931L56.3537 21.1897C56.5103 21.357 56.5975 21.5777 56.5975 21.8068V38.9268C56.5975 39.7654 56.1038 40.489 55.3929 40.828V43.7436C55.3929 44.2424 54.9886 44.6468 54.4897 44.6468H48.8213C48.3224 44.6468 47.9182 44.2424 47.9182 43.7436V40.8278C47.2077 40.4886 46.7145 39.7651 46.7145 38.9268V26.9603L42.4079 22.4231V42.5393C42.4079 43.4923 41.7716 44.2986 40.9018 44.5581V50.9686C40.9018 51.4674 40.4976 51.8718 39.9987 51.8718H16.2965C15.7976 51.8718 15.3933 51.4674 15.3933 50.9686V44.4404C14.6826 44.1014 14.1891 43.3778 14.1891 42.5393V22.423L9.88304 26.9597V38.9267C9.88304 39.7652 9.38957 40.4887 8.67886 40.8278V43.7435C8.67886 44.2423 8.27461 44.6466 7.77571 44.6466H2.10733C1.60844 44.6466 1.20419 44.2423 1.20419 43.7435V40.8278C0.493484 40.4888 0 39.7652 0 38.9267V21.8068C0 21.5777 0.0871887 21.357 0.243729 21.1897L13.1984 7.34967C14.0067 6.48638 15.5523 5.65152 16.7171 5.44885L20.9703 4.70924L21.3164 0.823186C21.3402 0.555373 21.4797 0.324048 21.6857 0.173042C21.7071 0.157508 21.7293 0.142817 21.752 0.129089L21.7596 0.124841L21.7647 0.121984C21.7846 0.110424 21.8047 0.0995865 21.8254 0.089592C21.8307 0.0870123 21.8361 0.0846453 21.8416 0.0822735L21.8466 0.0800791C21.8646 0.072011 21.8827 0.0643034 21.9014 0.0573196C21.9095 0.0542355 21.9176 0.0515375 21.9258 0.0488548L21.9318 0.0468435C21.9477 0.0415449 21.9636 0.0363665 21.9799 0.0320311C21.993 0.0284185 22.0063 0.0254087 22.0196 0.022398C22.0332 0.0193872 22.0468 0.0164976 22.0607 0.0140886C22.0766 0.0113192 22.0926 0.00915146 22.1086 0.00722504C22.1204 0.00578022 22.1323 0.00445557 22.1444 0.00349236C22.1618 0.00204754 22.1794 0.00132465 22.197 0.000963211L22.2047 0.000517845C22.2084 0.000258446 22.2122 0 22.216 0H34.381C34.3851 0 34.389 0.000273705 34.3929 0.000546455C34.3964 0.000786781 34.3999 0.00102711 34.4034 0.00108337C34.4192 0.00156498 34.435 0.0021677 34.4506 0.00337219C34.4646 0.00445557 34.4782 0.00602055 34.4919 0.00770664C34.5065 0.0095129 34.521 0.0114403 34.5353 0.0139685C34.5504 0.0166178 34.5653 0.0197487 34.5802 0.0231209L34.5804 0.0231657C34.5927 0.0259199 34.6051 0.0286779 34.6173 0.0320311C34.6338 0.0364866 34.6499 0.0416651 34.666 0.0470839L34.6719 0.0490303C34.6804 0.0518513 34.6889 0.0546665 34.6974 0.0578012C34.7145 0.0641832 34.731 0.0712881 34.7475 0.0786333L34.7547 0.0817976C34.7616 0.084816 34.7686 0.0878544 34.7754 0.091157C34.7916 0.099225 34.8075 0.107896 34.8233 0.116807L34.8314 0.121288L34.8316 0.121375C34.8379 0.124848 34.8443 0.128328 34.8504 0.1321C34.8638 0.140356 34.8769 0.149317 34.8899 0.158246L34.8935 0.16076L34.904 0.167938C34.9099 0.171929 34.9158 0.17592 34.9215 0.180147C34.9328 0.188614 34.9437 0.197783 34.9546 0.206921L34.9577 0.20953L34.9655 0.215856C34.973 0.22196 34.9805 0.228035 34.9877 0.234576C34.9942 0.240469 35.0005 0.246752 35.0067 0.253045L35.0069 0.253288L35.0155 0.261911L35.023 0.269176L35.0232 0.269413C35.0317 0.277663 35.0402 0.28588 35.0483 0.294666C35.0502 0.296791 35.052 0.299055 35.0539 0.301327L35.0587 0.30719C35.0838 0.335608 35.1069 0.365954 35.1285 0.397745L35.1361 0.408863L35.1364 0.409194L35.1366 0.409476C35.1407 0.415384 35.1449 0.421328 35.1487 0.427488C35.1534 0.435171 35.1577 0.443151 35.162 0.451135L35.1676 0.461326L35.1717 0.468605C35.1783 0.480281 35.185 0.492013 35.1909 0.504075C35.1942 0.510503 35.197 0.517135 35.1999 0.523771L35.2046 0.534421C35.2122 0.5514 35.2196 0.568258 35.2261 0.585719C35.2286 0.592345 35.2309 0.599205 35.2331 0.606055L35.2332 0.606271L35.236 0.614981C35.2423 0.633405 35.2482 0.65195 35.2532 0.670976L35.2549 0.676517L35.2566 0.682055C35.2575 0.685766 35.2582 0.689477 35.2589 0.693205L35.2589 0.693686L35.259 0.693825C35.2596 0.697148 35.2601 0.700487 35.2609 0.703851C35.2649 0.72119 35.2685 0.738531 35.2714 0.756233C35.2737 0.770082 35.2755 0.783809 35.2771 0.797537C35.2774 0.800978 35.278 0.80438 35.2785 0.807782L35.2786 0.808625C35.2794 0.813396 35.2801 0.818173 35.2805 0.823066L35.6266 4.70912L39.8798 5.44873C41.0443 5.65127 42.59 6.48614 43.3987 7.34931ZM40.6016 37.4526H36.0859C35.587 37.4526 35.1828 37.0482 35.1828 36.5494C35.1828 36.0506 35.587 35.6463 36.0859 35.6463H40.6016V20.5103C39.3392 19.0818 38.7953 17.6244 38.7953 15.7042V7.09354L34.9488 6.42461L29.2017 9.62354V16.3178C29.2017 16.8165 28.7974 17.2209 28.2985 17.2209C27.7996 17.2209 27.3954 16.8165 27.3954 16.3178V9.62354L21.6483 6.42461L17.8017 7.09354V15.7042C17.8017 17.6243 17.2579 19.0816 15.9954 20.5103V35.6463H20.5111C21.01 35.6463 21.4143 36.0506 21.4143 36.5494C21.4143 37.0482 21.01 37.4526 20.5111 37.4526H15.9954V42.5394C15.9954 42.7026 16.1333 42.8405 16.2964 42.8405H27.3954V19.9305C27.3954 19.4317 27.7996 19.0273 28.2985 19.0273C28.7974 19.0273 29.2017 19.4317 29.2017 19.9305V42.8405H40.3006C40.4638 42.8405 40.6016 42.7026 40.6016 42.5394V37.4526ZM27.3954 46.453H17.1996V44.6468H27.3954V46.453ZM29.3466 7.47563L33.8371 4.9762L33.5862 2.16056C32.2294 2.78698 29.9408 4.29331 29.3466 7.47563ZM28.2985 4.89372C27.6278 3.4924 26.6855 2.49099 25.8318 1.80641H30.7651C29.9115 2.49099 28.9693 3.4924 28.2985 4.89372ZM22.76 4.9762L27.2504 7.47563C26.6562 4.29343 24.3676 2.78698 23.0107 2.16056L22.76 4.9762ZM3.01048 42.8405V41.0342H6.87257V42.8405H3.01048ZM8.07677 21.8068C8.07677 21.3081 8.481 20.9037 8.9799 20.9037C9.47881 20.9037 9.88304 21.3081 9.88316 21.807V24.3362L14.4373 19.5381C15.5731 18.3414 15.9954 17.3024 15.9954 15.7044V7.58027C15.4227 7.84977 14.8526 8.22572 14.5173 8.58409L1.80629 22.1636V38.9267C1.80629 39.0899 1.94417 39.2278 2.10733 39.2278H7.77571C7.93887 39.2278 8.07677 39.0899 8.07677 38.9267V21.8068ZM17.1996 48.2593H27.3954V50.0656H17.1996V48.2593ZM29.2017 44.6468V50.0656H39.0956V48.2593H31.9111C31.4122 48.2593 31.0079 47.855 31.0079 47.3562C31.0079 46.8574 31.4122 46.453 31.9111 46.453H39.0956V44.6468H29.2017ZM42.1597 19.5379C41.0238 18.3413 40.6016 17.3022 40.6016 15.7042V7.58015C41.1745 7.84965 41.7447 8.22572 42.0803 8.58396L54.7912 22.1636V38.9268C54.7912 39.09 54.6532 39.2279 54.4897 39.2279H48.8218C48.6586 39.2279 48.5208 39.09 48.5208 38.9268V21.8068C48.5208 21.3081 48.1165 20.9037 47.6176 20.9037C47.1187 20.9037 46.7145 21.3081 46.7145 21.8068V24.3366L42.1597 19.5379ZM49.7245 41.0342V42.8405H53.5866V41.0342H49.7245Z" transform="translate(0.917603 0.582625)" fill="#F11F60"/>
</svg>
