<svg width="47" height="52" viewBox="0 0 47 52" fill="none" xmlns="http://www.w3.org/2000/svg">
<path fill-rule="evenodd" clip-rule="evenodd" d="M38.4445 30.4362H45.4725C45.9414 30.4362 46.3215 30.8196 46.3213 31.2928V51.1431C46.3213 51.6164 45.9412 52 45.4723 52H0.848999C0.380096 52 0 51.6164 0 51.1431V45.4125V33.838V31.2931C0 30.8201 0.380096 30.4362 0.848999 30.4362H7.88049V18.1998C7.88049 17.7266 8.26059 17.343 8.72949 17.343H20.98L20.983 9.35608C20.5086 8.73712 20.166 7.78506 20.166 6.23942C20.166 3.58051 22.3432 0.487709 22.4358 0.357467C22.5952 0.133035 22.8521 0 23.1255 0C23.399 0 23.6556 0.133035 23.8156 0.357213C23.9084 0.487454 26.0863 3.58051 26.0863 6.23942C26.0863 7.72768 25.8029 8.615 25.3543 9.23701C25.3543 9.41981 25.345 17.343 25.345 17.343H37.5956C38.0642 17.343 38.4445 17.7266 38.4445 18.1998V30.4362ZM24.3883 6.23942C24.3883 4.97204 23.6878 3.47083 23.1258 2.47053C22.5643 3.47083 21.864 4.97204 21.864 6.23942C21.864 7.14756 22.021 8.67822 23.073 8.72722C23.0911 8.72823 23.1092 8.7295 23.1268 8.73153C23.1447 8.7295 23.1625 8.72798 23.1806 8.72722C24.2316 8.67797 24.3883 7.14731 24.3883 6.23942ZM23.6467 10.4399V17.343H22.6783V10.4399H23.6467ZM36.7465 22.7893V19.0567H9.57849L9.57898 22.818C10.1782 23.8736 12.0236 26.4657 15.674 26.4657C15.6844 26.4657 15.6948 26.466 15.7052 26.4662L15.7056 26.4663C15.7092 26.4665 15.7308 26.467 15.7663 26.467C16.5637 26.467 20.6309 26.2703 22.392 22.3912C22.5304 22.0865 22.832 21.8913 23.1638 21.8913H23.1721C23.5071 21.8946 23.8087 22.0964 23.9423 22.4067C24.0143 22.5699 25.7747 26.466 30.2559 26.466C30.2647 26.466 30.2737 26.4663 30.2828 26.4665L30.2864 26.4665C30.2925 26.4666 30.3055 26.4668 30.3241 26.4668C30.7859 26.4668 34.8312 26.3617 36.7465 22.7893ZM44.6235 50.2863H1.698V45.4125V43.0451C2.9968 44.217 4.92245 45.3026 7.59924 45.3066C7.62491 45.3074 7.66919 45.3084 7.73007 45.3084C8.60773 45.3084 12.9546 45.1127 15.4815 41.3659C16.5894 42.9448 18.909 45.3016 22.883 45.3069C23.279 45.3191 28.0613 45.3729 30.7638 41.3666C31.8669 42.941 34.1859 45.3031 38.1716 45.3069C38.4629 45.3135 41.9163 45.3264 44.623 42.9031L44.6235 45.7659V50.2863ZM44.6235 40.3239V40.0076V34.1914L44.6232 32.1497H39.4125H37.5948H34.1296C33.6609 32.1497 33.2806 31.7661 33.2806 31.2928C33.2806 30.8198 33.6609 30.436 34.1296 30.436H36.7458V25.6069C34.2154 28.0924 30.7887 28.1807 30.3235 28.1807C30.2898 28.1807 30.2647 28.1803 30.2487 28.18L30.2443 28.18C26.4652 28.1754 24.25 25.9585 23.1804 24.4502C20.7607 27.9842 16.6452 28.1812 15.7657 28.1812C15.7157 28.1812 15.6802 28.1805 15.6603 28.18C12.7924 28.1759 10.825 26.8923 9.57849 25.6188V30.4362H26.923C27.3917 30.4362 27.772 30.8201 27.772 31.2931C27.772 31.7663 27.3917 32.1499 26.923 32.1499H1.69824V33.838V40.3376V40.5093C2.75504 41.9643 4.6095 43.5929 7.61383 43.5929C7.62439 43.5929 7.63522 43.5932 7.64603 43.5937C7.84854 43.5995 12.6764 43.7077 14.682 39.3188C14.8119 39.0131 15.1125 38.7986 15.4626 38.7986C15.8218 38.7986 16.129 39.023 16.253 39.3409C16.4329 39.7354 18.3143 43.5929 22.8974 43.5929C22.9082 43.5929 22.9187 43.5932 22.9296 43.5937C23.1331 43.599 27.974 43.7077 29.9741 39.298C30.1125 38.9928 30.4144 38.7976 30.7462 38.7976H30.7545C31.0898 38.8006 31.3914 39.0025 31.525 39.3127C31.6002 39.4851 33.4549 43.5927 38.1809 43.5927C38.1887 43.5927 38.1962 43.5927 38.2036 43.5929L38.2117 43.5929C38.4206 43.5918 42.4316 43.5715 44.6235 40.3239Z" transform="translate(0.0855408)" fill="#F11F60"/>
</svg>
