<svg xmlns="http://www.w3.org/2000/svg" width="59" height="52" fill="none" viewBox="0 0 59 52"><path fill="#F11F60" fill-rule="evenodd" d="M0 5.58554C0 2.50568 2.50843 0 5.59142 0C8.67465 0 11.183 2.50568 11.183 5.58554C11.183 8.6654 8.67465 11.1711 5.59142 11.1711C2.50832 11.1711 0 8.66551 0 5.58554ZM1.7344 5.58554C1.7344 7.71019 3.46476 9.4385 5.59154 9.4385C7.71831 9.4385 9.44868 7.71007 9.44868 5.58554C9.44868 3.461 7.71843 1.73257 5.59154 1.73257C3.46465 1.73257 1.7344 3.46089 1.7344 5.58554Z" clip-rule="evenodd" transform="translate(4.27682 4.27247)"/><path fill="#F11F60" d="M0.867142 0C0.388111 0 0 0.387817 0 0.866229V2.60882C0 3.08723 0.388111 3.47505 0.867142 3.47505C1.34617 3.47505 1.73428 3.08723 1.73428 2.60882V0.866229C1.73428 0.387817 1.34617 0 0.867142 0Z" transform="translate(9.00122)"/><path fill="#F11F60" d="M2.71404 0.253696C2.37525 -0.0845077 1.82627 -0.0846228 1.48748 0.253696L0.254006 1.48587C-0.0846688 1.82419 -0.0846688 2.37271 0.254006 2.71091C0.423402 2.88013 0.645229 2.96462 0.867286 2.96462C1.08911 2.96462 1.31117 2.88013 1.48057 2.71102L2.71404 1.47885C3.05271 1.14053 3.05271 0.592014 2.71404 0.253696Z" transform="translate(14.1325 2.63361)"/><path fill="#F11F60" d="M2.61145 0H0.867142C0.388111 0 0 0.387817 0 0.866229C0 1.34464 0.388111 1.73246 0.867142 1.73246H2.61145C3.09048 1.73246 3.47859 1.34464 3.47859 0.866229C3.47859 0.387817 3.09048 0 2.61145 0Z" transform="translate(16.2581 8.99178)"/><path fill="#F11F60" d="M2.71404 1.4858L1.48057 0.253739C1.14166 -0.0845797 0.592682 -0.0845797 0.254006 0.253739C-0.0846688 0.592058 -0.0846688 1.14057 0.254006 1.47878L1.48748 2.71095C1.65688 2.88005 1.87882 2.96466 2.10076 2.96466C2.3227 2.96466 2.54464 2.88017 2.71404 2.71095C3.05271 2.37263 3.05271 1.82412 2.71404 1.4858Z" transform="translate(14.1325 14.1178)"/><path fill="#F11F60" d="M0.867142 0C0.388111 0 0 0.387817 0 0.866229V2.60882C0 3.08723 0.388111 3.47505 0.867142 3.47505C1.34617 3.47505 1.73428 3.08723 1.73428 2.60882V0.866229C1.73428 0.387817 1.34617 0 0.867142 0Z" transform="translate(9.00122 16.2411)"/><path fill="#F11F60" d="M2.71402 0.253739C2.37535 -0.0845797 1.82637 -0.0845797 1.48758 0.253739L0.254107 1.4858C-0.0846832 1.82412 -0.0846832 2.37263 0.253992 2.71095C0.423387 2.88005 0.645214 2.96466 0.867272 2.96466C1.0891 2.96466 1.31116 2.88017 1.48055 2.71095L2.71402 1.47878C3.05258 1.14046 3.05258 0.591942 2.71402 0.253739Z" transform="translate(2.63633 14.1178)"/><path fill="#F11F60" d="M2.61145 0H0.867142C0.388111 0 0 0.387817 0 0.866229C0 1.34464 0.388111 1.73246 0.867142 1.73246H2.61145C3.09048 1.73246 3.47859 1.34464 3.47859 0.866229C3.47859 0.387817 3.09048 0 2.61145 0Z" transform="translate(0 8.99178)"/><path fill="#F11F60" d="M2.71404 1.48591L1.48045 0.253739C1.14166 -0.0845797 0.592682 -0.0845797 0.254006 0.253739C-0.0846688 0.592058 -0.0846688 1.14057 0.254006 1.47889L1.48748 2.71107C1.65688 2.88017 1.87882 2.96466 2.10076 2.96466C2.32259 2.96466 2.54464 2.88017 2.71404 2.71095C3.0526 2.37263 3.0526 1.82412 2.71404 1.48591Z" transform="translate(2.63631 2.63357)"/><path fill="#F11F60" fill-rule="evenodd" d="M58.3761 43.1976C56.8647 42.1736 55.1122 41.7098 53.3819 41.8032C51.7846 39.6054 48.7716 37.7212 44.6203 36.3325C42.0436 35.4705 39.1679 34.8483 36.1104 34.4789L42.3232 18.9074C43.2607 19.5837 44.0788 20.387 44.7476 21.2957C44.9686 21.5961 45.3095 21.7661 45.6857 21.6746C47.7377 21.3029 49.9136 21.5411 51.9807 22.364C54.0634 23.1932 55.817 24.529 57.052 26.2269C57.2176 26.4545 57.48 26.5839 57.7534 26.5839C57.8228 26.5839 57.8928 26.5756 57.9622 26.5583C58.3049 26.4735 58.5619 26.1894 58.6119 25.8402C58.6446 25.611 59.3954 20.1582 57.6067 14.2178C57.4689 13.7596 56.9842 13.5001 56.5266 13.6377C56.068 13.7755 55.808 14.2587 55.9461 14.7167C56.9901 18.1844 57.1041 21.5373 57.04 23.5826C55.8024 22.3861 54.3044 21.424 52.6228 20.7545C50.7111 19.9934 48.7109 19.6698 46.7639 19.7991C46.7719 19.775 46.7794 19.7511 46.787 19.7273L46.787 19.7271C46.7935 19.7068 46.7999 19.6865 46.8066 19.666C47.4841 17.5981 47.9895 15.467 48.238 13.3037C48.4654 11.3241 48.4866 9.32443 48.2371 7.34585C48.0926 6.20001 47.8467 5.06672 47.4938 3.9667L47.4909 3.95746L47.4861 3.94229C50.5977 5.62629 52.9895 8.10768 54.6129 11.3423C54.8275 11.7699 55.3486 11.9427 55.7767 11.7283C56.2048 11.514 56.3777 10.9935 56.1632 10.5657C54.0113 6.27818 50.6349 3.19417 46.125 1.39829C39.9221 -1.07102 33.4662 -0.258774 27.4562 3.74729C22.9699 6.7376 20.3429 10.4053 20.2332 10.5599C20.0291 10.8477 20.0202 11.2304 20.2105 11.5274C20.4007 11.8243 20.7517 11.9766 21.0994 11.9121C23.1652 11.5284 25.3579 11.7638 27.4404 12.593C29.4928 13.4102 31.2258 14.7192 32.4579 16.3822C32.6976 16.7056 33.0472 16.9045 33.4575 16.7827C34.5588 16.5877 35.6952 16.5684 36.8309 16.7201L29.9027 34.0856C29.8429 34.0851 29.7833 34.0844 29.7236 34.0837C29.6087 34.0823 29.4937 34.081 29.3782 34.081C25.3814 34.081 21.5617 34.4787 18.0253 35.2631C17.5578 35.3668 17.2629 35.8294 17.3668 36.2966C17.4707 36.7636 17.933 37.0583 18.4013 36.9544C21.7664 36.208 25.5622 35.8135 29.3782 35.8135C31.1869 35.8135 32.9968 35.8994 34.7968 36.0781C34.8003 36.0784 34.8037 36.0785 34.8072 36.0786L34.8074 36.0786L34.8162 36.079C38.1634 36.4105 41.3004 37.0486 44.0694 37.975C47.375 39.0809 49.9271 40.5383 51.4249 42.1534C50.6692 42.3879 49.9383 42.7356 49.2565 43.1974C47.0779 44.6733 44.2626 44.6733 42.084 43.1974C39.3139 41.3207 35.7342 41.3208 32.9644 43.1974C30.7859 44.6733 27.9706 44.6733 25.792 43.1974C23.022 41.3207 19.4423 41.3208 16.6724 43.1974C14.4939 44.6733 11.6786 44.6733 9.49998 43.1974C8.81825 42.7356 8.08732 42.3878 7.33161 42.1534C8.82747 40.5406 11.375 39.0848 14.674 37.9795C15.1281 37.8275 15.3727 37.3364 15.2205 36.8827C15.0682 36.4292 14.5769 36.1847 14.1226 36.3369C9.97867 37.7251 6.97023 39.6078 5.37481 41.803C3.64433 41.7095 1.89195 42.1736 0.380529 43.1974C-0.0158787 43.4659 -0.119244 44.0046 0.149599 44.4006C0.418327 44.7965 0.957165 44.8999 1.35403 44.6314C2.64121 43.7594 4.15078 43.4029 5.61991 43.5614C5.67269 43.5728 5.72593 43.58 5.7794 43.5813C6.74138 43.7098 7.68192 44.0591 8.52671 44.6315C11.2965 46.5079 14.876 46.5082 17.6462 44.6315C19.8249 43.1555 22.6403 43.1556 24.8187 44.6315C27.5886 46.5079 31.1682 46.5082 33.9382 44.6315C36.1168 43.1555 38.9322 43.1556 41.1107 44.6315C42.4957 45.5698 44.0831 46.039 45.6706 46.039C47.2579 46.039 48.8453 45.5698 50.2304 44.6315C51.0733 44.0605 52.0115 43.7114 52.9713 43.5822C53.0281 43.5812 53.0847 43.5735 53.1409 43.561C54.6089 43.4036 56.117 43.7601 57.403 44.6314C57.7994 44.8999 58.3387 44.7967 58.6074 44.4006C58.8758 44.0049 58.7724 43.4662 58.3761 43.1976ZM34.6342 14.9054L34.6502 14.8719L34.6623 14.8469C35.4701 13.1577 36.4124 11.5249 37.5116 10.0075C37.7803 9.63661 37.7034 9.07682 37.3176 8.7979C36.9402 8.52496 36.3791 8.61556 36.1066 8.99186C35.224 10.2101 34.4398 11.4995 33.7361 12.8285L33.7203 12.8583C33.4712 13.3289 33.2191 13.8051 33.0056 14.2928L32.9939 14.317C31.6692 12.8849 29.995 11.7454 28.0826 10.9842C26.4006 10.3145 24.6499 9.9838 22.9276 10.0018C24.0854 8.70109 25.9872 6.80241 28.4629 5.15974C30.9176 3.53088 33.4514 2.46758 35.9935 1.99941C38.453 1.54655 40.9347 1.6528 43.3972 2.31367L43.3668 2.33048C42.0346 3.06087 40.7994 3.96209 39.6779 4.98534C39.2405 5.38444 38.8138 5.7947 38.4049 6.22281C38.0744 6.56907 38.0874 7.11747 38.4341 7.44762C38.7807 7.77776 39.3296 7.76475 39.6602 7.41849C40.7717 6.25377 42.0269 5.18863 43.397 4.32746C44.0285 3.93044 44.6876 3.57174 45.3759 3.28258C45.5567 3.69227 45.7919 4.2988 46.0128 5.0932C47.0585 8.85614 46.7759 12.9169 45.8593 16.6745C45.6622 17.4826 45.4344 18.2837 45.176 19.0743L45.1678 19.0992C43.9878 17.852 42.5387 16.8337 40.8981 16.1008L40.8307 16.0709C38.8904 15.2154 36.7551 14.7884 34.6342 14.9054ZM33.1034 34.2017C33.5105 34.228 33.9154 34.2577 34.3174 34.2924L40.8229 17.9876C40.8247 17.983 39.8311 17.5283 39.7666 17.5022C39.3699 17.3419 38.9647 17.2018 38.5531 17.084L31.7519 34.1299C32.2026 34.1482 32.6534 34.1709 33.1034 34.2017Z" clip-rule="evenodd" transform="translate(0.204172 5.96107)"/></svg>