<svg width="54" height="53" viewBox="0 0 54 53" fill="none" xmlns="http://www.w3.org/2000/svg">
<path d="M0.771146 0C0.345268 0 0 0.345046 0 0.77065V0.821615C0 1.24722 0.345268 1.59227 0.771146 1.59227C1.19702 1.59227 1.54229 1.24722 1.54229 0.821615V0.77065C1.54229 0.345046 1.19702 0 0.771146 0Z" transform="translate(6.83606 47.465)" fill="#F11F60"/>
<path d="M0.771146 0C0.345268 0 0 0.345046 0 0.77065V0.821615C0 1.24722 0.345268 1.59227 0.771146 1.59227C1.19702 1.59227 1.54229 1.24722 1.54229 0.821615V0.77065C1.54229 0.345046 1.19702 0 0.771146 0Z" transform="translate(6.83606 47.465)" stroke="#F11F60" stroke-width="0.2"/>
<path d="M0.771146 0C0.345268 0 0 0.345046 0 0.77065V0.821615C0 1.24722 0.345268 1.59227 0.771146 1.59227C1.19702 1.59227 1.54229 1.24722 1.54229 0.821615V0.77065C1.54229 0.345046 1.19702 0 0.771146 0Z" transform="translate(9.04315 47.465)" fill="#F11F60"/>
<path d="M0.771146 0C0.345268 0 0 0.345046 0 0.77065V0.821615C0 1.24722 0.345268 1.59227 0.771146 1.59227C1.19702 1.59227 1.54229 1.24722 1.54229 0.821615V0.77065C1.54229 0.345046 1.19702 0 0.771146 0Z" transform="translate(9.04315 47.465)" stroke="#F11F60" stroke-width="0.2"/>
<path fill-rule="evenodd" clip-rule="evenodd" d="M51.0499 16.8981H44.168C44.263 16.4038 44.312 15.8998 44.312 15.3921C44.312 13.9193 43.9045 12.4802 43.1337 11.2303C42.9102 10.8678 42.4352 10.7552 42.0726 10.9785C41.7101 11.2018 41.5973 11.6766 41.8207 12.0389C42.4415 13.0456 42.7697 14.2051 42.7697 15.3921C42.7697 15.9022 42.709 16.4074 42.5906 16.8981H32.2274V16.6866C32.5978 16.3289 34.1306 14.9927 36.7228 14.5879C37.1437 14.5222 37.4315 14.128 37.3657 13.7075C37.2999 13.2871 36.9056 12.9995 36.4847 13.0651C34.5169 13.3724 33.059 14.1451 32.142 14.7816C31.9327 13.8785 31.3497 13.1175 30.5648 12.6702C31.6116 10.4519 33.8867 8.99034 36.3639 8.99034C37.5073 8.99034 38.6307 9.29644 39.6127 9.87535C39.9796 10.0916 40.4524 9.96979 40.6688 9.60326C40.8853 9.23664 40.7633 8.76418 40.3965 8.54788C39.8715 8.23829 39.3137 7.99189 38.7355 7.81135C39.0275 3.77314 37.8959 0.860704 35.7333 0.158385C34.1473 -0.35682 32.3066 0.39441 30.5504 2.27305C28.9346 4.00136 27.5341 6.52395 26.6066 9.37628C26.5046 9.68988 26.4102 10.0043 26.322 10.3187C26.2338 10.0042 26.1394 9.68978 26.0374 9.37628C25.1099 6.52395 23.7092 4.00126 22.0936 2.27305C20.3373 0.39441 18.4966 -0.356615 16.9107 0.158385C14.7482 0.860704 13.6166 3.77273 13.9083 7.81042C10.6805 8.821 8.33179 11.8375 8.33179 15.3922C8.33179 15.8999 8.3808 16.4038 8.47583 16.8982H6.30695C5.88104 16.8982 5.53583 17.2433 5.53583 17.6689C5.53583 18.0945 5.88104 18.4395 6.30695 18.4395H51.0499C51.0782 18.4395 51.1013 18.4626 51.1013 18.4909V23.4975H1.5423V18.4908C1.5423 18.4624 1.56531 18.4394 1.59369 18.4394H2.84399C3.26984 18.4394 3.61511 18.0944 3.61511 17.6688C3.61511 17.2432 3.26984 16.8981 2.84399 16.8981H1.59369C0.714905 16.8981 0 17.6126 0 18.4908V26.6382C0 27.5165 0.714905 28.2309 1.59369 28.2309H2.33575V50.4073C2.33575 51.2856 3.05066 52 3.92944 52H48.7141C49.5928 52 50.3077 51.2856 50.3077 50.4073V37.3383C50.3077 36.9127 49.9625 36.5677 49.5366 36.5677C49.1107 36.5677 48.7654 36.9127 48.7654 37.3383V50.4073C48.7654 50.4357 48.7424 50.4587 48.7141 50.4587H3.92944C3.90106 50.4587 3.87805 50.4357 3.87805 50.4073V28.2309H18.795V42.4128C18.795 42.9913 19.1094 43.525 19.6156 43.8056C19.8563 43.939 20.1226 44.0054 20.3886 44.0054C20.6819 44.0054 20.9749 43.9246 21.2324 43.764L26.3218 40.5902L31.4111 43.764C31.9023 44.0703 32.5218 44.0862 33.028 43.8056C33.5342 43.525 33.8486 42.9913 33.8486 42.4128V28.2309H48.7656V33.8776C48.7656 34.3032 49.1108 34.6483 49.5367 34.6483C49.9626 34.6483 50.3079 34.3032 50.3079 33.8776V28.2309H51.0499C51.9287 28.2309 52.6436 27.5165 52.6436 26.6382V18.4908C52.6436 17.6127 51.9287 16.8981 51.0499 16.8981ZM28.0732 9.85354C28.9324 7.21134 30.2123 4.89322 31.6771 3.32624C32.9821 1.93033 34.2866 1.31011 35.2565 1.62516C36.6362 2.07326 37.3945 4.39641 37.211 7.49597C36.9304 7.46586 36.6476 7.45004 36.3638 7.45004C35.3964 7.45004 34.4543 7.63088 33.5762 7.96298C33.7747 7.03984 34.1141 5.97203 34.6425 5.42138C34.9373 5.11425 34.9271 4.62638 34.6197 4.33178C34.3124 4.03719 33.8242 4.04746 33.5294 4.35459C32.3719 5.56092 31.976 7.92157 31.8608 8.85961C30.6495 9.69283 29.666 10.8565 29.0649 12.2448L29.0515 12.2443C29.0157 12.243 28.98 12.2417 28.9438 12.2417H27.4412C27.6031 11.4498 27.8145 10.6494 28.0732 9.85354ZM20.9664 3.32624C19.6614 1.93023 18.357 1.31042 17.3871 1.62516C16.0073 2.07326 15.2491 4.39631 15.4328 7.49576C15.7112 7.46617 15.9937 7.45014 16.2799 7.45014C17.0293 7.45014 17.7634 7.55916 18.4647 7.7621L17.892 5.43155C17.7905 5.01817 18.0435 4.60089 18.457 4.49937C18.8705 4.39754 19.2882 4.65073 19.3898 5.064L20.2381 8.51661C21.6985 9.35827 22.8899 10.654 23.5788 12.2449L23.592 12.2444C23.6277 12.2431 23.6636 12.2418 23.6998 12.2418H25.2025C25.0406 11.4496 24.8292 10.6492 24.5705 9.85364C23.7112 7.21134 22.4313 4.89322 20.9664 3.32624ZM20.679 14.2367C19.778 13.7363 18.2791 13.1507 16.0997 13.0567C15.6741 13.0393 15.3144 13.3682 15.2961 13.7934C15.2778 14.2186 15.6078 14.5783 16.0333 14.5966C18.4933 14.7026 19.8981 15.5181 20.4163 15.8895V16.8981H10.0529C9.93457 16.4074 9.8739 15.9022 9.8739 15.3922C9.8739 11.8622 12.7476 8.99044 16.2798 8.99044C18.757 8.99044 21.0321 10.452 22.0789 12.6703C21.4576 13.0244 20.9623 13.5746 20.679 14.2367ZM21.9586 16.8981H30.6852V15.5222C30.6852 14.5628 29.9041 13.7821 28.9439 13.7821H23.6998C22.7397 13.7821 21.9586 14.5628 21.9586 15.5222V16.8981ZM32.3064 42.4128C32.3063 42.4257 32.3063 42.443 32.2799 42.4578C32.2535 42.4724 32.2385 42.4633 32.2278 42.4565L26.7301 39.0281C26.4802 38.8722 26.1635 38.8722 25.9136 39.0281L20.416 42.4565C20.4052 42.4633 20.3903 42.4724 20.3638 42.4578C20.3374 42.4431 20.3374 42.4257 20.3374 42.4128V28.2309H32.3064V42.4128ZM51.0499 26.6896C51.0782 26.6896 51.1013 26.6666 51.1013 26.6382V25.0387H1.5423V26.6382C1.5423 26.6666 1.56531 26.6896 1.59369 26.6896H51.0499Z" transform="translate(1 0.0993652)" fill="#F11F60" stroke="#F11F60" stroke-width="0.2"/>
</svg>
