<svg width="55" height="52" viewBox="0 0 55 52" fill="none" xmlns="http://www.w3.org/2000/svg">
<g transform="translate(0 4)">
    <path fill-rule="evenodd" clip-rule="evenodd" d="M39.9963 5.95132H48.9495C51.3931 5.95132 53.3809 7.93912 53.3809 10.3825V36.9682C53.3809 39.4118 51.3931 41.3996 48.9495 41.3996H37.6697C35.2472 42.4877 32.563 43.0938 29.7399 43.0938C26.9168 43.0938 24.2327 42.4877 21.8103 41.3996H4.43109C1.98767 41.3996 0 39.4118 0 36.9682V10.3825C0 8.2983 1.44678 6.54653 3.38855 6.07643V2.82438C3.38855 2.24876 3.85541 1.78179 4.43109 1.78179H9.409C9.98468 1.78179 10.4515 2.24876 10.4515 2.82438V5.95132H13.3843L17.171 0.451443C17.3655 0.168795 17.6865 0 18.0296 0H35.3513C35.6943 0 36.0154 0.168795 36.2099 0.451443L39.9963 5.95132ZM34.8033 2.08518H18.5778L15.9159 5.95132H21.8099C24.2324 4.86306 26.9166 4.2569 29.7399 4.2569C32.4496 4.2569 35.0311 4.81562 37.3763 5.82245L34.8033 2.08518ZM5.47369 3.86697H8.36646V5.95132H5.47369V3.86697ZM2.08521 36.9682C2.08521 38.2618 3.13757 39.3144 4.43115 39.3144H18.2433C13.4424 35.7758 10.3216 30.0835 10.3216 23.6754C10.3216 17.2673 13.4423 11.5752 18.243 8.0365H4.43115C3.13757 8.0365 2.08521 9.08889 2.08521 10.3825V36.9682ZM29.7399 41.0086C20.1824 41.0086 12.4067 33.233 12.4067 23.6754C12.4067 14.1177 20.1824 6.34208 29.7399 6.34208C39.2977 6.34208 47.0734 14.1177 47.0734 23.6754C47.0734 33.233 39.2977 41.0086 29.7399 41.0086ZM48.9495 39.3144C50.2432 39.3144 51.2957 38.2618 51.2958 36.9682V10.3825C51.2958 9.08889 50.2433 8.0365 48.9496 8.0365H41.2371C46.0378 11.5752 49.1586 17.2673 49.1586 23.6754C49.1586 30.0835 46.0377 35.7758 41.2368 39.3144H48.9495Z" transform="translate(0.816406 4.32943)" fill="#F11F60"/>
    <path d="M3.93328 5.82829H2.08518V1.04259C2.08518 0.466768 1.61831 0 1.04259 0C0.466872 0 0 0.466768 0 1.04259V6.87088C0 7.44671 0.466872 7.91347 1.04259 7.91347H3.93338C4.5091 7.91347 4.97597 7.44671 4.97597 6.87088C4.97587 6.29527 4.5091 5.82829 3.93328 5.82829Z" transform="translate(4.79297 33.8386)" fill="#F11F60"/>
    <path d="M1.04259 0C0.466872 0 0 0.466768 0 1.04259V1.09191C0 1.66762 0.466768 2.1345 1.04259 2.1345C1.61831 2.1345 2.08518 1.66752 2.08518 1.09191V1.04259C2.08518 0.466768 1.61831 0 1.04259 0Z" transform="translate(4.79297 30.9384)" fill="#F11F60"/>
    <path fill-rule="evenodd" clip-rule="evenodd" d="M0 15.2426C0 6.83773 6.83771 0 15.2424 0C23.6471 0 30.4849 6.83773 30.4849 15.2426C30.4849 23.6474 23.6471 30.4854 15.2424 30.4854C6.83771 30.4854 0 23.6474 0 15.2426ZM2.08521 15.2426C2.08521 22.4978 7.98755 28.4002 15.2424 28.4002C22.4974 28.4002 28.3997 22.4978 28.3997 15.2426C28.3997 7.9876 22.4974 2.08518 15.2424 2.08518C7.98755 2.08518 2.08521 7.9876 2.08521 15.2426Z" transform="translate(15.314 12.7622)" fill="#F11F60"/>
    <path d="M7.1416 4.16834C5.67979 2.20576 3.67926 0.781168 1.35647 0.0484352C0.807445 -0.124426 0.221717 0.18001 0.048543 0.729143C-0.124631 1.27828 0.180222 1.864 0.729251 2.03707C4.68098 3.28328 7.33605 6.90754 7.33605 11.0553C7.33605 11.6309 7.80292 12.0979 8.37864 12.0979C8.95436 12.0979 9.42123 11.6309 9.42123 11.0553C9.42133 8.55191 8.63303 6.17053 7.1416 4.16834Z" transform="translate(32.6744 16.9494)" fill="#F11F60"/>
    <path d="M1.15936 0.000417036L1.04259 0C0.466872 0 0 0.466768 0 1.04259C0 1.61821 0.466872 2.08518 1.04259 2.08518L1.14143 2.0856C1.14445 2.0856 1.14758 2.0856 1.1506 2.0856C1.72215 2.0856 2.18798 1.62477 2.19299 1.05197C2.19789 0.47636 1.73518 0.00552573 1.15936 0.000417036Z" transform="translate(29.5137 16.4654)" fill="#F11F60"/>
    <path fill-rule="evenodd" clip-rule="evenodd" d="M0 3.12798C0 1.40322 1.40314 0 3.12775 0C4.85254 0 6.25568 1.40322 6.25568 3.12798C6.25568 4.85253 4.85254 6.25554 3.12775 6.25554C1.40314 6.25554 0 4.85253 0 3.12798ZM2.08521 3.12798C2.08521 3.70287 2.55292 4.17036 3.12781 4.17036C3.70276 4.17036 4.17047 3.70276 4.17047 3.12798C4.17047 2.55289 3.70276 2.08518 3.12781 2.08518C2.55292 2.08518 2.08521 2.55289 2.08521 3.12798Z" transform="translate(6.64105 13.8659)" fill="#F11F60"/>
</g>
</svg>
