<svg width="53" height="55" fill="none" xmlns="http://www.w3.org/2000/svg"><path d="M42.215 38.94a.979.979 0 1 0 0-1.957.979.979 0 0 0 0 1.958zm-37.266 0a.979.979 0 1 0 0-1.957.979.979 0 0 0 0 1.958z" fill="#F11F60"/><path fill-rule="evenodd" clip-rule="evenodd" d="M51.933 52.851h-9.165L42.71 26.45a1.07 1.07 0 0 0-1.07-1.072 1.071 1.071 0 0 0-1.065 1.076l.057 26.397h-3.1l-.028-11.746a1.072 1.072 0 0 0-1.07-1.072 1.07 1.07 0 0 0-1.065 1.077l.028 11.741h-2.592V38.633c3.021-.27 5.396-2.768 5.396-5.803V22.42a11.72 11.72 0 0 0-1.017-4.778 8.81 8.81 0 0 1 5.58 2.473c1.652 1.605 2.565 3.74 2.57 6.012l.02 6.114a1.071 1.071 0 0 0 1.07 1.071 1.071 1.071 0 0 0 1.064-1.078l-.02-6.113c-.005-2.857-1.15-5.54-3.221-7.552a10.895 10.895 0 0 0-4.12-2.518 5.687 5.687 0 0 0 1.76-4.128c-.007-3.13-2.54-5.673-5.649-5.673h-.011a5.635 5.635 0 0 0-2.605.646 1.078 1.078 0 0 0-.45 1.45c.273.526.918.729 1.44.454a3.454 3.454 0 0 1 1.62-.4c1.939-.002 3.515 1.578 3.52 3.528.004 1.95-1.568 3.539-3.506 3.543-.046 0-.09.004-.135.01l-.17.008a12.15 12.15 0 0 0-6.173-4.448 6.307 6.307 0 0 0 2.137-4.737c0-3.476-2.81-6.303-6.262-6.303-3.454 0-6.262 2.827-6.262 6.303a6.31 6.31 0 0 0 2.332 4.902 12.148 12.148 0 0 0-5.689 4.276 11.272 11.272 0 0 0-.505-.012l-.239.003-.058-.003c-1.938 0-3.513-1.586-3.513-3.536s1.575-3.536 3.513-3.536c.585 0 1.164.148 1.675.427.517.284 1.166.09 1.447-.43a1.078 1.078 0 0 0-.428-1.458 5.627 5.627 0 0 0-2.694-.687c-3.115 0-5.649 2.55-5.649 5.684a5.69 5.69 0 0 0 1.94 4.283c-4.035 1.566-6.897 5.426-6.897 9.928v6.093a1.07 1.07 0 0 0 1.068 1.074 1.07 1.07 0 0 0 1.067-1.074v-6.093c0-4.456 3.534-8.122 8.02-8.493a11.718 11.718 0 0 0-1.012 4.768v10.41c0 3.095 2.47 5.633 5.577 5.816v14.205h-2.908V41.107a1.07 1.07 0 0 0-1.068-1.075 1.07 1.07 0 0 0-1.067 1.075V52.85H11.67V26.463c0-.593-.479-1.075-1.068-1.075a1.07 1.07 0 0 0-1.067 1.075v26.388H1.067A1.07 1.07 0 0 0 0 53.926 1.07 1.07 0 0 0 1.067 55h50.866A1.07 1.07 0 0 0 53 53.925a1.07 1.07 0 0 0-1.067-1.074zM21.517 6.303c0-2.29 1.851-4.154 4.127-4.154s4.127 1.863 4.127 4.154c0 2.29-1.852 4.154-4.127 4.154-2.276 0-4.127-1.863-4.127-4.154zm9.153 16.478c0-.594.478-1.075 1.068-1.075.59 0 1.068.481 1.068 1.075v13.69c1.84-.254 3.261-1.79 3.261-3.64V22.418c0-1.855-.535-3.66-1.545-5.223-1.862-2.874-5.055-4.59-8.541-4.59-3.48 0-6.67 1.712-8.533 4.579a9.586 9.586 0 0 0-1.553 5.234V32.83c0 1.911 1.513 3.486 3.442 3.662V22.781a1.07 1.07 0 0 1 1.067-1.075c.59 0 1.068.481 1.068 1.075v30.07h3.261V37.904c0-.594.479-1.075 1.068-1.075.59 0 1.067.481 1.067 1.075V52.85h3.802V22.78z" fill="#F11F60"/></svg>