<svg width="1358" height="323" fill="none" xmlns="http://www.w3.org/2000/svg"><g opacity=".432" fill="#fff"><path d="M-8.681 84.843c.603.583 1.557.59 2.168.016l10.237-9.62 9.208 9.565c.597.62 1.581.644 2.208.055l11.368-10.683a1.571 1.571 0 0 0-2.152-2.29l-10.237 9.62-9.208-9.565a1.571 1.571 0 0 0-2.208-.055l-10.276 9.657-9.963-9.641a1.571 1.571 0 0 0-2.208.022l-10.612 10.683a1.571 1.571 0 0 0 2.23 2.215l9.519-9.584 9.926 9.605zm1135.172 227.403c.603.584 1.558.59 2.169.016l10.236-9.62 9.209 9.565a1.57 1.57 0 0 0 2.207.055l11.368-10.683a1.571 1.571 0 0 0-2.152-2.29l-10.236 9.62-9.209-9.565a1.571 1.571 0 0 0-2.207-.055l-10.276 9.657-9.964-9.64a1.571 1.571 0 0 0-2.207.02l-10.613 10.684a1.571 1.571 0 0 0 2.23 2.215l9.52-9.584 9.925 9.605zM893.488 195.558c.603.584 1.558.59 2.169.016l10.236-9.62 9.209 9.565a1.57 1.57 0 0 0 2.207.055l11.368-10.683a1.571 1.571 0 0 0-2.152-2.29l-10.236 9.62-9.209-9.565a1.571 1.571 0 0 0-2.207-.055l-10.276 9.658-9.964-9.642a1.571 1.571 0 0 0-2.207.022l-10.613 10.683a1.571 1.571 0 0 0 2.23 2.215l9.52-9.584 9.925 9.605zm450.11-190.175l5.916 5.467a5.97 5.97 0 0 1-.08 8.841l-3.256 2.904a9.112 9.112 0 0 0-.099 13.515l3.179 2.917a5.97 5.97 0 0 1-.223 8.991l-2.33 1.936a9.112 9.112 0 0 0-.277 13.781l5.7 5.133a1.571 1.571 0 1 0 2.102-2.335l-5.7-5.132a5.97 5.97 0 0 1 .18-9.03l2.332-1.935a9.112 9.112 0 0 0 .34-13.723l-3.178-2.918a5.971 5.971 0 0 1 .064-8.854l3.258-2.904a9.112 9.112 0 0 0 .12-13.494l-5.916-5.468a1.571 1.571 0 0 0-2.132 2.308zm-666.764 7.604a1.571 1.571 0 0 0-.016 2.168l9.62 10.237-9.565 9.208a1.571 1.571 0 0 0-.055 2.208L687.5 48.176a1.571 1.571 0 0 0 2.29-2.152l-9.62-10.237 9.565-9.208c.62-.597.644-1.58.055-2.208l-9.658-10.276 9.642-9.963a1.571 1.571 0 0 0-.022-2.207L679.07-8.688a1.571 1.571 0 0 0-2.215 2.23l9.584 9.519-9.605 9.926z"/><path fill-rule="evenodd" clip-rule="evenodd" d="M848.178 312.493l-5.989-5.99a1.937 1.937 0 1 1 2.74-2.739l5.989 5.989 6.008-6.009a2.076 2.076 0 0 1 2.935 2.936l-6.008 6.008 6.106 6.106a1.937 1.937 0 1 1-2.74 2.74l-6.106-6.106-6.086 6.087a2.076 2.076 0 1 1-2.936-2.936l6.087-6.086zm367.005-216.546l-5.989-5.988a1.937 1.937 0 1 1 2.74-2.74l5.989 5.988 6.008-6.008a2.076 2.076 0 0 1 2.935 2.936l-6.008 6.008 6.106 6.106a1.937 1.937 0 1 1-2.74 2.74l-6.106-6.106-6.086 6.086a2.076 2.076 0 1 1-2.936-2.935l6.087-6.087zM27.463 307.317l27.022-27.022a1.57 1.57 0 1 1 2.222 2.222l-27.022 27.022a1.571 1.571 0 1 1-2.222-2.221zm17.579-5.01l10.37-10.683a1.571 1.571 0 0 1 2.254 2.188l-10.37 10.683a1.571 1.571 0 1 1-2.254-2.188zm1281.998 5.01l27.022-27.022a1.57 1.57 0 1 1 2.222 2.222l-27.022 27.022a1.571 1.571 0 1 1-2.222-2.221zm17.58-5.01l10.368-10.683a1.571 1.571 0 0 1 2.255 2.188l-10.37 10.683a1.571 1.571 0 1 1-2.254-2.188zM1143.17 18.338l27.022-27.022a1.57 1.57 0 1 1 2.222 2.222l-27.022 27.022a1.571 1.571 0 1 1-2.222-2.222zm17.58-5.01l10.368-10.684a1.571 1.571 0 0 1 2.255 2.189l-10.37 10.683a1.571 1.571 0 0 1-2.254-2.189zM974.841 69.947a3.456 3.456 0 0 0 4.12-2.632l3.724-16.905a2.828 2.828 0 0 0-3.37-3.37l-16.906 3.725a3.456 3.456 0 0 0-1.7 5.819l12.432 12.432a3.46 3.46 0 0 0 1.7.931zm-11.91-16.03a.319.319 0 0 1 .155-.084l16.425-3.618-3.62 16.424a.314.314 0 0 1-.528.155l-12.432-12.432a.315.315 0 0 1 0-.444zM681.163 216.666a3.457 3.457 0 0 0 1.052-4.773l-9.32-14.587a2.826 2.826 0 0 0-4.766 0l-9.32 14.587a3.456 3.456 0 0 0 2.912 5.317h17.581c.66 0 1.306-.189 1.861-.544zm-19.755-2.912c0-.06.017-.119.05-.17l9.054-14.172 9.056 14.173a.314.314 0 0 1-.265.483h-17.581a.314.314 0 0 1-.314-.314zm-534.492-61.551a3.457 3.457 0 0 0 1.052-4.773l-9.32-14.587a2.826 2.826 0 0 0-4.766 0l-9.32 14.587a3.456 3.456 0 0 0 2.912 5.317h17.581c.66 0 1.306-.189 1.861-.544zm-19.755-2.912c0-.06.017-.119.05-.17l9.054-14.172 9.056 14.173a.314.314 0 0 1-.265.483h-17.581a.314.314 0 0 1-.314-.314zm348.564-96.838v-8.999a2.601 2.601 0 0 1 5.202 0v9h9.03a2.755 2.755 0 1 1 0 5.51h-9.03v9.184a2.601 2.601 0 0 1-5.202 0v-9.184h-9.153a2.755 2.755 0 0 1 0-5.51h9.153zm-342-49.998v-8.998a2.601 2.601 0 0 1 5.202 0v8.998h9.03a2.755 2.755 0 1 1 0 5.511h-9.03v9.184a2.601 2.601 0 0 1-5.202 0V7.966h-9.153a2.755 2.755 0 0 1 0-5.51h9.153z"/></g></svg>