<svg width="46" height="55" fill="none" xmlns="http://www.w3.org/2000/svg"><path fill-rule="evenodd" clip-rule="evenodd" d="M32.2 0h2.3C40.852 0 46 5.13 46 11.459v34.375h-6.9V55H6.9v-9.166H0V11.459C0 5.13 5.15 0 11.5 0h4.6c0 3.79 3.095 6.875 6.901 6.875 3.804 0 6.9-3.084 6.9-6.875H32.2zM5.751 42.396c.635 0 1.148.512 1.148 1.147V41.25H2.301v2.293c0-.635.513-1.147 1.148-1.147.636 0 1.152.512 1.152 1.147 0-.635.514-1.147 1.15-1.147zM36.8 52.71h-1.15a1.15 1.15 0 0 0-2.301 0h-2.3c0-.633-.514-1.147-1.149-1.147a1.15 1.15 0 0 0-1.151 1.147H26.45c0-.633-.515-1.147-1.15-1.147a1.15 1.15 0 0 0-1.152 1.147H21.85a1.15 1.15 0 0 0-2.3 0h-2.301a1.15 1.15 0 1 0-2.3 0H12.65c0-.633-.515-1.147-1.15-1.147a1.15 1.15 0 0 0-1.151 1.147H9.2V29.793h27.6v22.916zM9.2 27.499h27.6v-9.165H9.2V27.5zm34.5 16.044c0-.635-.515-1.147-1.15-1.147-.636 0-1.15.512-1.15 1.147 0-.635-.515-1.147-1.15-1.147-.635 0-1.15.512-1.15 1.147V41.25h4.6v2.293zm-4.6-4.584h4.6v-27.5a9.088 9.088 0 0 0-2.695-6.482 9.154 9.154 0 0 0-6.506-2.685H31.91a9.196 9.196 0 0 1-8.909 6.875 9.196 9.196 0 0 1-8.91-6.875H11.5a9.158 9.158 0 0 0-6.506 2.685 9.095 9.095 0 0 0-2.693 6.482v27.5h4.598V13.75h2.302v2.292h27.6V13.75H39.1v25.209z" fill="#F11F60"/></svg>