<svg width="42" height="57" fill="none" xmlns="http://www.w3.org/2000/svg"><path d="M33.77 47.835a.498.498 0 0 0 .497-.497v-2.382a.498.498 0 0 0-.995 0v2.382c0 .275.222.497.497.497z" fill="#F11F60"/><path d="M33.77 47.835a.498.498 0 0 0 .497-.497v-2.382a.498.498 0 0 0-.995 0v2.382c0 .275.222.497.497.497z" stroke="#F11F60" stroke-width=".5"/><path d="M37.104 47.835a.498.498 0 0 0 .498-.497v-2.382a.498.498 0 0 0-.996 0v2.382c0 .275.223.497.498.497z" fill="#F11F60"/><path d="M37.104 47.835a.498.498 0 0 0 .498-.497v-2.382a.498.498 0 0 0-.996 0v2.382c0 .275.223.497.498.497z" stroke="#F11F60" stroke-width=".5"/><path fill-rule="evenodd" clip-rule="evenodd" d="M40.043 49.703h.468c.27 0 .489.22.489.49v5.318a.49.49 0 0 1-.49.489H1.49a.49.49 0 0 1-.49-.49v-5.318c0-.27.219-.49.49-.49h1.772v-5.697a.489.489 0 0 1 .01-.978h.542v-7.123c-.818-.73-1.318-1.7-1.318-2.765 0-1.301 1.124-2.543 2.315-3.857.854-.942 1.735-1.917 2.221-2.926v-4.341a.49.49 0 1 1 .979 0v4.35c.437.994 1.34 1.986 2.217 2.946 1.192 1.308 2.319 2.543 2.319 3.828 0 1.065-.5 2.035-1.319 2.765v7.123h.543a.49.49 0 0 1 .011.978v5.698h2.603V35.147c0-.27.219-.49.489-.49h.686l.9-9.563h-1a.49.49 0 0 1 0-.979h.2l3.526-10.103v-2.953a2.437 2.437 0 0 1-.638-1.64c0-.774.523-1.483 1.078-2.234.368-.5.747-1.015.958-1.537V1.49a.49.49 0 1 1 .978 0v4.164c.19.513.578 1.038.956 1.546.555.748 1.08 1.454 1.08 2.22a2.45 2.45 0 0 1-.78 1.786v2.806l3.526 10.103h.198a.49.49 0 1 1 0 .98H25.54l.901 9.563h.687c.27 0 .49.219.49.49v14.555h2.161v-7.585h-.3a.49.49 0 0 1-.467-.634l1.108-3.592a.49.49 0 0 1 .468-.345h1.182V32.58a3.855 3.855 0 0 1-.866-2.432c0-1.22.871-2.4 1.793-3.65.664-.9 1.35-1.829 1.726-2.794v-4.098a.49.49 0 0 1 .978 0v4.105c.34.952 1.041 1.898 1.722 2.814.924 1.244 1.797 2.418 1.797 3.623 0 .93-.332 1.784-.885 2.457v4.94h1.183a.49.49 0 0 1 .468.346l1.108 3.592a.49.49 0 0 1-.467.634h-.283v7.585zm-.38-8.564l-.807-2.613h-1.933v2.613h2.74zm-4.752-6.091a.49.49 0 0 0-.49.49v2.009h-1.674V33.45a4.045 4.045 0 0 0 2.164.624c.788 0 1.524-.225 2.145-.612v4.084H35.4v-2.01a.49.49 0 0 0-.489-.49zm1.033 3.478H33.88v2.613h2.065v-2.613zm3.12 3.592v7.585h-8.308v-7.585h8.309zm-4.153-9.022c1.671 0 3.03-1.322 3.03-2.947 0-.096-.011-.194-.029-.294l-4.784 2.674a3.07 3.07 0 0 0 1.783.567zm-1.428-6.015c.5-.677 1.011-1.37 1.417-2.104.343.633.777 1.24 1.215 1.835l-3.972 2.33c.296-.644.808-1.34 1.34-2.061zm4.082 1.847c-.224-.423-.53-.867-.864-1.325l-4.806 2.819c.05.51.232.985.515 1.387l5.155-2.881zm-6.618 9.598H32.9v2.613h-2.758l.806-2.613zm-5.945-14.41h.304l-.783-2.242-.953 2.241h1.432zm-.446.978l.21 2.235a4.058 4.058 0 0 0-1.53.604 4.104 4.104 0 0 0-2.237-.666c-.793 0-1.574.235-2.236.666a4.051 4.051 0 0 0-1.53-.604l.21-2.235h7.113zM21 20.974l-1.336 3.141h2.67L21 20.975zm-2.54 7.946a.488.488 0 0 0 .607 0 3.125 3.125 0 0 1 1.934-.673c.698 0 1.385.239 1.933.673.177.141.43.142.607 0 .39-.308.839-.515 1.318-.611l.277 2.932a4.122 4.122 0 0 0-1.899.65 4.113 4.113 0 0 0-2.236-.665c-.793 0-1.574.234-2.236.665a4.09 4.09 0 0 0-1.9-.648l.277-2.934c.48.096.93.303 1.318.611zm1.97-21.178l-.019.025c-.456.618-.887 1.202-.887 1.653 0 .826.694 1.499 1.547 1.499s1.546-.673 1.546-1.499c0-.441-.451-1.048-.887-1.635l-.014-.02c-.225-.302-.453-.61-.652-.93-.197.313-.418.613-.634.907zm1.408 4.156v1.676h-1.675v-1.676h1.675zm.13 2.655H20.03L17.955 20.5l1.09 2.566 1.504-3.534a.49.49 0 0 1 .9 0l1.503 3.534 1.092-2.565-2.076-5.95zm-4.491 7.322l.953 2.241h-1.736l.783-2.241zm.983 11.002a3.112 3.112 0 0 0-1.688-.659l-.229 2.44h8.914l-.23-2.443c-.613.05-1.204.28-1.687.662a.486.486 0 0 1-.606 0A3.129 3.129 0 0 0 21 32.204c-.698 0-1.385.238-1.934.672a.488.488 0 0 1-.606 0zm-3.097 2.76h11.275v4.696h-1.926v-1.89a.49.49 0 1 0-.979 0v1.89H21.49v-1.89a.489.489 0 1 0-.977 0v1.89h-2.244v-1.89a.49.49 0 0 0-.979 0v1.89h-1.926v-4.695zm11.275 10.006v-4.33H15.363v4.33h1.926v-1.89a.49.49 0 1 1 .979 0v1.89h2.244v-1.89a.49.49 0 1 1 .977 0v1.89h2.244v-1.89a.49.49 0 0 1 .979 0v1.89h1.926zm0 .98v3.081H15.363v-3.082h11.275zM11.568 33.14c0-.906-1.003-2.005-2.064-3.169l-.288-.317c.372 1.8.774 4.37.506 6.102 1.11-.557 1.846-1.521 1.846-2.616zM4.24 46.09v-2.083h6.564v2.083H4.24zm6.564 3.613V47.07H4.24v2.634h6.564zM7.52 39.623a.49.49 0 0 0-.489.49v2.914H4.793V36.58c.786.417 1.723.66 2.728.66a5.836 5.836 0 0 0 2.729-.66v6.448H8.01v-2.915a.49.49 0 0 0-.489-.49zm-.01-12.118c-.096.15-.2.3-.305.447-.2.76-1.52 6.026-.823 8.18a5.16 5.16 0 0 0 2.253.007c.697-2.14-.61-7.373-.819-8.175a8.366 8.366 0 0 1-.306-.459zM3.475 33.14c0-.924 1-2.03 2.061-3.2l.269-.297c-.372 1.795-.776 4.364-.511 6.1-1.096-.56-1.82-1.517-1.82-2.603zm34.612 21.88h1.934v-4.339H1.98v4.34h1.935V53.23a.49.49 0 1 1 .979 0v1.791h2.039v-1.79a.49.49 0 1 1 .978 0v1.79h2.04v-1.79a.49.49 0 1 1 .978 0v1.79h2.039v-1.79a.49.49 0 1 1 .978 0v1.79h2.04v-1.79a.49.49 0 1 1 .978 0v1.79h2.039v-1.79a.49.49 0 1 1 .978 0v1.79h2.04v-1.79a.49.49 0 1 1 .978 0v1.79h2.04v-1.79a.49.49 0 0 1 .978 0v1.79h2.039v-1.79a.49.49 0 0 1 .978 0v1.79h2.04v-1.79a.49.49 0 0 1 .978 0v1.79h2.04v-1.79a.49.49 0 1 1 .977 0v1.79h2.04v-1.79a.49.49 0 1 1 .979 0v1.79z" fill="#F11F60" stroke="#F11F60" stroke-width=".5"/></svg>