<svg width="55" height="56" fill="none" xmlns="http://www.w3.org/2000/svg"><mask id="a" fill="#fff"><path fill-rule="evenodd" clip-rule="evenodd" d="M51.046 48.166h3.05c.5 0 .904.407.904.908C55 52.342 52.352 55 49.097 55H5.903C2.648 55 0 52.342 0 49.074c0-.501.405-.907.904-.907h48.332v-10.62a2.494 2.494 0 0 0-2.486-2.497H8.25a2.494 2.494 0 0 0-2.486 2.496v7.449a.906.906 0 0 1-.905.908.906.906 0 0 1-.904-.908v-7.449c0-2.377 1.926-4.311 4.295-4.311h35.367V22.162a2.042 2.042 0 0 0-2.035-2.043H13.418a2.042 2.042 0 0 0-2.035 2.043v7.987a.906.906 0 0 1-.904.907.906.906 0 0 1-.905-.907v-7.987c0-2.127 1.725-3.859 3.844-3.859h10.717V9.402c0-.502.405-.908.904-.908h1.557V7.138A2.984 2.984 0 0 1 24.53 4.3c0-1.39 1.764-3.42 2.304-4.007a.903.903 0 0 1 1.33 0c.54.588 2.304 2.616 2.304 4.007a2.983 2.983 0 0 1-2.065 2.838v1.356h1.557c.499 0 .904.406.904.908v8.901h10.717c2.12 0 3.844 1.731 3.844 3.86v11.072h1.324c2.37 0 4.296 1.934 4.296 4.311v10.62zM27.5 2.31c-.66.84-1.16 1.678-1.16 1.99 0 .643.52 1.165 1.16 1.165.64 0 1.16-.522 1.16-1.164 0-.313-.5-1.15-1.16-1.991zm-1.558 15.994V10.31h3.113v7.994h-3.113zM1.91 49.982a4.106 4.106 0 0 0 3.994 3.202h43.194a4.106 4.106 0 0 0 3.994-3.202H1.909z"/></mask><path fill-rule="evenodd" clip-rule="evenodd" d="M51.046 48.27h3.05c.5 0 .904.407.904.908 0 3.268-2.648 5.926-5.903 5.926H5.903C2.648 55.104 0 52.446 0 49.178c0-.501.405-.908.904-.908h48.332V37.65a2.494 2.494 0 0 0-2.486-2.496H8.25a2.494 2.494 0 0 0-2.486 2.496v7.449a.906.906 0 0 1-.905.907.906.906 0 0 1-.904-.907v-7.45c0-2.376 1.926-4.31 4.295-4.31h35.367V22.266a2.042 2.042 0 0 0-2.035-2.043H13.418a2.042 2.042 0 0 0-2.035 2.043v7.987a.906.906 0 0 1-.904.907.906.906 0 0 1-.905-.907v-7.987c0-2.128 1.725-3.859 3.844-3.859h10.717V9.506c0-.502.405-.908.904-.908h1.557V7.242a2.984 2.984 0 0 1-2.065-2.838c0-1.391 1.764-3.42 2.304-4.008a.903.903 0 0 1 1.33 0c.54.589 2.304 2.617 2.304 4.008a2.983 2.983 0 0 1-2.065 2.838v1.356h1.557c.499 0 .904.406.904.908v8.901h10.717c2.12 0 3.844 1.731 3.844 3.859v11.073h1.324c2.37 0 4.296 1.934 4.296 4.31V48.27zM27.5 2.413c-.66.84-1.16 1.678-1.16 1.99 0 .643.52 1.165 1.16 1.165.64 0 1.16-.522 1.16-1.164 0-.313-.5-1.15-1.16-1.991zm-1.558 15.994v-7.994h3.113v7.994h-3.113zM1.91 50.086a4.106 4.106 0 0 0 3.994 3.202h43.194a4.106 4.106 0 0 0 3.994-3.202H1.909z" fill="#F11F60"/><path d="M51.046 48.166h-1v1h1v-1zm-1.81 0v1h1v-1h-1zm-5.619-14.931v1h1v-1h-1zM24.135 18.303v1h1v-1h-1zm2.46-9.809v1h1v-1h-1zm0-1.356h1v-.729l-.693-.223-.306.952zm.24-6.845L26.1-.385l-.002.001.737.677zm1.33 0l-.737.675.737-.675zm.24 6.845l-.307-.952-.694.223v.729h1zm0 1.356h-1v1h1v-1zm2.46 9.81h-1v1h1v-1zm14.56 14.93h-1v1h1v-1zM27.502 2.31l.787-.617-.787-1.004-.787 1.004.787.617zm-1.558 8v-1h-1v1h1zm0 7.994h-1v1h1v-1zm3.113-7.994h1v-1h-1v1zm0 7.994v1h1v-1h-1zM1.909 49.982v-1H.66l.275 1.22.975-.22zm51.182 0l.975.22.276-1.22H53.09v1zm1.005-2.816h-3.05v2h3.05v-2zM56 49.074c0-1.05-.848-1.908-1.904-1.908v2a.094.094 0 0 1-.096-.092h2zM49.097 56C52.907 56 56 52.89 56 49.074h-2C54 51.793 51.796 54 49.097 54v2zM5.903 56h43.194v-2H5.903v2zM-1 49.074C-1 52.89 2.093 56 5.903 56v-2C3.204 54 1 51.793 1 49.074h-2zm1.904-1.907A1.906 1.906 0 0 0-1 49.073h2c0 .048-.04.093-.096.093v-2zm3.955 0H.904v2H4.86v-2zm44.377 0H4.86v2h44.377v-2zm-1-9.62v10.62h2v-10.62h-2zM46.75 36.05c.815 0 1.486.669 1.486 1.496h2a3.494 3.494 0 0 0-3.486-3.496v2zm-2.228 0h2.228v-2h-2.228v2zm-34.044 0h34.044v-2H10.478v2zm-2.228 0h2.229v-2H8.25v2zm-1.486 1.496c0-.827.67-1.496 1.486-1.496v-2a3.494 3.494 0 0 0-3.486 3.496h2zm0 7.449v-7.449h-2v7.449h2zm-1.905 1.908a1.906 1.906 0 0 0 1.905-1.908h-2c0-.048.039-.092.095-.092v2zm-1.904-1.908c0 1.05.848 1.908 1.904 1.908v-2c.057 0 .096.045.096.092h-2zm0-7.449v7.449h2v-7.449h-2zm5.295-5.311c-2.925 0-5.295 2.385-5.295 5.311h2a3.307 3.307 0 0 1 3.295-3.311v-2zm2.229 0H8.25v2h2.229v-2zm33.138 0H10.478v2h33.14v-2zm-1-10.073v11.073h2V22.162h-2zm-1.035-1.043c.566 0 1.035.465 1.035 1.043h2a3.042 3.042 0 0 0-3.035-3.043v2zm-28.164 0h28.164v-2H13.418v2zm-1.035 1.043c0-.578.469-1.043 1.035-1.043v-2a3.042 3.042 0 0 0-3.035 3.043h2zm0 7.987v-7.987h-2v7.987h2zm-1.904 1.907a1.906 1.906 0 0 0 1.904-1.907h-2c0-.048.039-.093.096-.093v2zM8.574 30.15c0 1.05.848 1.907 1.905 1.907v-2c.056 0 .095.046.095.093h-2zm0-7.987v7.987h2v-7.987h-2zm4.844-4.859c-2.675 0-4.844 2.183-4.844 4.86h2a2.856 2.856 0 0 1 2.844-2.86v-2zm10.717 0H13.418v2h10.717v-2zm-1-7.901v8.901h2V9.402h-2zm1.904-1.908a1.906 1.906 0 0 0-1.904 1.908h2c0 .047-.04.092-.096.092v-2zm1.557 0h-1.557v2h1.557v-2zm-1-.356v1.356h2V7.138h-2zM23.53 4.3a3.984 3.984 0 0 0 2.758 3.79l.613-1.904a1.984 1.984 0 0 1-1.37-1.886h-2zm2.567-4.684a16.33 16.33 0 0 0-1.447 1.82 8.717 8.717 0 0 0-.751 1.331c-.201.457-.369.99-.369 1.533h2c0-.152.053-.395.2-.727.141-.323.345-.671.579-1.019A14.321 14.321 0 0 1 27.572.97L26.098-.384zM27.5-1c-.535 0-1.04.225-1.4.615L27.57.97a.097.097 0 0 1-.07.03v-2zm1.402.617A1.902 1.902 0 0 0 27.5-1v2a.099.099 0 0 1-.072-.032l1.474-1.351zM31.47 4.3c0-.543-.168-1.076-.369-1.533a8.717 8.717 0 0 0-.751-1.33 16.33 16.33 0 0 0-1.447-1.82L27.428.968c.255.278.794.89 1.262 1.585.234.348.438.696.58 1.019.146.332.199.575.199.727h2zm-2.76 3.79a3.983 3.983 0 0 0 2.76-3.79h-2c0 .88-.577 1.63-1.37 1.886l.611 1.904zm.694.404V7.138h-2v1.356h2zm.557-1h-1.557v2h1.557v-2zm1.904 1.908c0-1.05-.85-1.908-1.904-1.908v2a.094.094 0 0 1-.096-.092h2zm0 8.901V9.402h-2v8.901h2zm9.717-1H30.865v2h10.717v-2zm4.844 4.86c0-2.677-2.169-4.86-4.844-4.86v2a2.856 2.856 0 0 1 2.844 2.86h2zm0 11.072V22.162h-2v11.073h2zm.324-1h-1.324v2h1.324v-2zm5.296 5.311c0-2.926-2.371-5.311-5.296-5.311v2a3.308 3.308 0 0 1 3.296 3.311h2zm0 10.62v-10.62h-2v10.62h2zM27.34 4.3c0 .133-.038.178.01.064.034-.081.094-.2.185-.355.18-.307.443-.69.752-1.083l-1.574-1.234c-.35.447-.667.904-.903 1.304-.117.2-.223.4-.303.59a1.88 1.88 0 0 0-.167.714h2zm.16.164a.164.164 0 0 1-.16-.164h-2c0 1.19.965 2.164 2.16 2.164v-2zm.16-.164a.164.164 0 0 1-.16.164v2c1.195 0 2.16-.973 2.16-2.164h-2zm-.947-1.374c.309.394.572.776.752 1.083.09.154.15.274.185.355.048.114.01.069.01-.064h2c0-.29-.1-.556-.167-.714-.08-.19-.186-.39-.303-.59-.236-.4-.553-.857-.903-1.304l-1.574 1.234zm-1.77 7.383v7.994h2V10.31h-2zm4.112-1h-3.113v2h3.113v-2zm1 8.994V10.31h-2v7.994h2zm-4.113 1h3.113v-2h-3.113v2zM5.903 52.184a3.106 3.106 0 0 1-3.018-2.422l-1.951.44c.513 2.274 2.541 3.982 4.97 3.982v-2zm43.194 0H5.903v2h43.194v-2zm3.018-2.422a3.106 3.106 0 0 1-3.018 2.422v2c2.428 0 4.456-1.708 4.97-3.982l-1.952-.44zm-1.974 1.22h2.95v-2h-2.95v2zm-45.282 0h45.282v-2H4.859v2zm-2.95 0h2.95v-2H1.91v2z" transform="translate(0 .104)" fill="#F11F60" mask="url(#a)"/><path d="M40.576 22.874c-1.313-.022-2.214.87-2.939 1.587-.656.65-1.09 1.042-1.56 1.03-.44-.014-.777-.397-1.29-1.021-.6-.731-1.349-1.642-2.632-1.68-1.267-.037-2.101.794-2.837 1.527-.681.677-1.135 1.089-1.7 1.09-.557 0-.997-.413-1.655-1.092-.693-.715-1.555-1.605-2.865-1.605h-.025c-1.367.012-2.247.98-2.954 1.756-.633.697-1.053 1.12-1.541 1.12h-.003c-.488-.002-.899-.425-1.517-1.123-.672-.76-1.508-1.704-2.809-1.704h-.015a.906.906 0 0 0-.899.913c.003.5.407.902.904.902h.01c.456 0 .855.415 1.458 1.095.682.77 1.53 1.728 2.864 1.732h.007c1.32 0 2.184-.948 2.877-1.71.657-.722 1.094-1.16 1.634-1.165.525-.002.941.398 1.578 1.055.709.731 1.59 1.641 2.95 1.641h.003c1.35-.001 2.249-.897 2.972-1.616.623-.62 1.038-1 1.487-1h.024c.44.012.776.395 1.289 1.02.601.73 1.349 1.641 2.632 1.679 1.281.04 2.169-.843 2.884-1.551.675-.669 1.122-1.077 1.636-1.065a.904.904 0 0 0 .92-.891.907.907 0 0 0-.888-.924z" fill="#F11F60"/><path d="M37.99 24.817c-.325.32-.625.61-.913.814-.292.208-.625.37-1.014.359-.379-.011-.68-.186-.93-.402-.242-.209-.482-.496-.732-.8l.386-.318-.386.317c-.62-.755-1.234-1.466-2.26-1.496-1.022-.031-1.71.623-2.47 1.38-.337.335-.65.638-.96.855-.322.224-.675.38-1.092.38v-.5.5h-.001c-.416 0-.766-.158-1.081-.384-.304-.219-.608-.524-.933-.859m12.385.153l-12.385-.153m12.385.153c.75-.741 1.507-1.46 2.578-1.442m-2.578 1.442l2.578-1.442m-14.963 1.29c-.715-.739-1.437-1.454-2.506-1.454h-.018m2.524 1.453L23.08 23.21m17.487.164a.407.407 0 0 1 .398.415.404.404 0 0 1-.412.4c-.404-.008-.748.152-1.055.37-.3.211-.61.51-.942.84-.743.735-1.482 1.44-2.516 1.406h-.001c-1.027-.03-1.64-.742-2.26-1.497-.251-.305-.49-.592-.732-.8-.251-.217-.552-.391-.93-.402h-.038c-.374 0-.693.16-.972.362-.274.2-.56.477-.868.783-.743.74-1.505 1.47-2.619 1.471h-.002c-1.12 0-1.863-.737-2.592-1.489-.313-.322-.605-.619-.895-.83-.301-.22-.64-.379-1.044-.377h-.002c-.419.004-.767.18-1.075.418-.299.232-.6.554-.925.91-.72.791-1.44 1.547-2.507 1.547h-.006c-1.077-.003-1.784-.765-2.49-1.563-.298-.336-.575-.64-.844-.86-.273-.221-.596-.403-.987-.403h-.012a.406.406 0 0 1-.404-.406l26.732-.295zM23.08 23.21h-.002c-1.118.01-1.858.79-2.589 1.593l2.59-1.593zm-4.505 2.876c-.404-.001-.736-.18-1.023-.41-.28-.225-.563-.538-.868-.882-.699-.789-1.392-1.535-2.435-1.535h-.014a.406.406 0 0 0-.401.41l4.74 2.417zm0 0h.002c.402 0 .737-.178 1.026-.406m-1.028.406l1.028-.406m0 0c.283-.223.574-.534.886-.877l-.886.877zm3.47-2.97z" stroke="#F11F60"/><path d="M46.692 37.902c-1.35-.042-2.249.856-3.042 1.645-.654.65-1.218 1.213-1.912 1.217-.538-.011-.924-.414-1.508-1.068-.666-.748-1.495-1.678-2.893-1.703h-.053c-1.37 0-2.33.948-3.101 1.712-.633.627-1.18 1.166-1.77 1.15-.519-.014-.898-.445-1.475-1.146-.646-.787-1.45-1.767-2.816-1.807-1.35-.042-2.249.855-3.042 1.645-.656.653-1.222 1.217-1.92 1.217-.643 0-1.136-.46-1.872-1.22-.747-.77-1.677-1.73-3.074-1.73h-.026c-1.458.013-2.407 1.056-3.17 1.894-.709.78-1.18 1.252-1.75 1.252h-.002c-.57-.001-1.032-.476-1.723-1.257-.728-.821-1.63-1.84-3.027-1.835a.906.906 0 0 0-.899.912c.003.5.407.903.904.903h.006c.54-.008.987.461 1.664 1.226.735.83 1.65 1.863 3.07 1.867h.008c1.407 0 2.299-.98 3.085-1.844.734-.806 1.225-1.297 1.85-1.302h.01c.59 0 1.067.447 1.778 1.18.764.789 1.715 1.77 3.168 1.77h.002c1.441-.001 2.412-.967 3.192-1.744.71-.707 1.176-1.133 1.715-1.119.519.015.898.446 1.474 1.147.647.787 1.452 1.766 2.817 1.807 1.364.042 2.282-.87 3.093-1.673.65-.644 1.211-1.204 1.852-1.19.579.01.977.424 1.577 1.098.657.737 1.474 1.653 2.836 1.674h.014c1.441-.002 2.412-.968 3.191-1.744.71-.707 1.179-1.132 1.716-1.12.5.016.916-.379.93-.88a.906.906 0 0 0-.877-.934z" fill="#F11F60"/><path d="M46.678 38.402h-.001c-1.104-.034-1.855.684-2.674 1.5l-.018.018c-.314.312-.642.638-.984.884-.355.255-.77.457-1.26.46h-.014c-.408-.009-.74-.17-1.033-.398-.279-.217-.551-.517-.837-.838-.681-.764-1.376-1.514-2.528-1.535h-.045c-1.135 0-1.952.778-2.75 1.568l-.013.013c-.305.302-.623.617-.944.851-.327.239-.72.443-1.177.43h-.002c-.411-.011-.741-.193-1.025-.435-.272-.231-.539-.55-.82-.894-.668-.812-1.338-1.591-2.445-1.624h-.001c-1.103-.034-1.855.684-2.674 1.5l-.017.016c-.315.314-.645.642-.989.889-.357.255-.774.457-1.266.457l23.517-2.862zm0 0l.014-.5-.014.5zm-25.749 1.49c-.77-.795-1.56-1.578-2.715-1.578h-.022c-1.208.01-2.016.865-2.804 1.73l5.541-.151zm0 0c.364.375.702.714 1.04.954.352.25.735.418 1.19.418m-2.23-1.371l2.23 1.371m-9.893.196h-.002c-.438 0-.803-.189-1.125-.444-.313-.248-.63-.596-.97-.981-.755-.852-1.513-1.67-2.65-1.667a.406.406 0 0 0-.402.41l5.149 2.682zm0 0h.002c.438 0 .804-.186 1.13-.439m-1.132.44l1.132-.44m-5.85-1.838h.001c.42.003.768.19 1.071.434.303.243.612.585.945.96l-.356.316.356-.315c.761.86 1.533 1.694 2.696 1.698h.008l-4.721-3.093zm0 0H8.52m.027 0H8.52m0 0a.406.406 0 0 1-.404-.405l.404.405zm9.683-.053h.011c.436 0 .804.169 1.137.41.324.233.65.56 1.001.923.785.81 1.597 1.617 2.809 1.617l-4.956-2.95zm0 0h-.005m.005 0h-.005m0 0c-.457.004-.839.19-1.183.454-.334.255-.67.613-1.032 1.012-.812.892-1.561 1.68-2.715 1.68l4.93-3.146zm9.884.087h.001-.001zm0 0c-.419-.01-.776.154-1.096.381l1.096-.38zm4.292 2.954zm0 0c-1.108-.033-1.778-.812-2.446-1.625l-.36.296m2.806 1.329l-2.805-1.329m0 0l.36-.296-.36.296zm17.081-1.625h.004a.405.405 0 0 0 .415-.395l-.419.395zm0 0c-.417-.01-.773.155-1.094.381l1.094-.381zm-23.49 2.047v-.5.5zm-8.762-.243c.317-.246.64-.592.99-.977l-.99.977zm8.764 1.059zm0 0h-.001m0 0h-.001m0 0zm21.41-1.598l.353.354-.352-.354z" stroke="#F11F60"/></svg>