<svg width="24" height="24" viewBox="0 0 24 24" version="1.1" xmlns="http://www.w3.org/2000/svg" xmlns:xlink="http://www.w3.org/1999/xlink">
<g id="Canvas" fill="none" transform="translate(1.5 0)">
<g id="shopping-bag">
<g id="Shape">
<path fill-rule="evenodd" clip-rule="evenodd" d="M 21.0681 22.6207L 19.3347 6.47131C 19.3059 6.2113 19.0747 6.00903 18.8147 6.00903L 15.6082 6.00903L 15.6082 5.02686C 15.6082 2.25342 13.3547 0 10.5813 0C 7.80786 0 5.55444 2.25342 5.55444 5.02686L 5.55444 6.00903L 2.26099 6.00903C 2.00098 6.00903 1.76978 6.2113 1.74097 6.47131L 0.00756836 22.6207C -0.0214844 22.7653 0.036377 22.9097 0.123047 23.0253C 0.209717 23.1407 0.354248 23.1986 0.498535 23.1986L 20.5771 23.1986C 20.7214 23.1986 20.866 23.1407 20.9526 23.0253C 21.0393 22.9097 21.0972 22.7653 21.0681 22.6207ZM 15.0879 8.927C 15.3479 8.927 15.5503 9.12927 15.5503 9.38928C 15.5503 9.64929 15.3479 9.85144 15.0879 9.85144C 14.8279 9.85144 14.6257 9.64929 14.6257 9.38928C 14.6257 9.12927 14.8279 8.927 15.0879 8.927ZM 10.5813 1.04004C 8.38574 1.04004 6.59448 2.83118 6.59448 5.02686L 6.59448 6.00903L 14.5681 6.00903L 14.5681 5.02686C 14.5681 2.83118 12.7769 1.04004 10.5813 1.04004ZM 6.07422 8.927C 6.33423 8.927 6.53662 9.12927 6.53662 9.38928C 6.53662 9.64929 6.33423 9.85144 6.07422 9.85144C 5.81421 9.85144 5.61206 9.64929 5.61206 9.38928C 5.61206 9.12927 5.81421 8.927 6.07422 8.927ZM 2.72314 7.02026L 1.10522 22.1296L 20.0569 22.1296L 18.4392 7.02026L 15.4924 7.02026L 15.4924 7.97363C 16.0701 8.1759 16.4746 8.72473 16.4746 9.36035C 16.4746 10.1693 15.8101 10.8337 15.0012 10.8337C 14.1924 10.8337 13.5278 10.1693 13.5278 9.36035C 13.5278 8.72473 13.9324 8.1759 14.51 7.97363L 14.51 7.02026L 6.53662 7.02026L 6.53662 7.97363C 7.11426 8.1759 7.5188 8.72473 7.5188 9.36035C 7.5188 10.1693 6.85425 10.8337 6.04541 10.8337C 5.23657 10.8337 4.57202 10.1693 4.57202 9.36035C 4.57202 8.72473 4.97656 8.1759 5.5542 7.97363L 5.5542 7.02026L 2.72314 7.02026Z" transform="translate(0.050293 0.5)" fill="black"/>
</g>
</g>
</g>
</svg>

