<svg width="26" height="26" viewBox="0 0 26 26" version="1.1" xmlns="http://www.w3.org/2000/svg" xmlns:xlink="http://www.w3.org/1999/xlink">
<g id="Canvas" fill="none" transform="translate(0 1.5)">
<g id="like">
<g id="pasive">
<path fill-rule="evenodd" clip-rule="evenodd" d="M 23.9337 6.8466L 23.9322 6.82967C 23.5936 3.10244 20.9814 0.500471 17.8076 0.500471C 15.6702 0.500471 13.7056 1.65059 12.597 3.50651L 12.163 4.23298L 11.736 3.50237C 10.6355 1.61918 8.75728 0.5 6.6629 0.5C 3.48958 0.5 0.87697 3.10199 0.538787 6.82914L 0.537189 6.84675L 0.534351 6.86421C 0.515664 6.97913 0.399913 7.8264 0.735457 9.24708L 0.735479 9.24717C 1.21849 11.2939 2.33527 13.1615 3.97255 14.645L 3.97284 14.6453L 12.1649 22.0794L 20.4979 14.6455C 20.4984 14.6451 20.4989 14.6446 20.4994 14.6442C 22.1359 13.1604 23.2522 11.2937 23.735 9.24719L 23.7351 9.24704C 24.0705 7.82718 23.955 6.97956 23.9364 6.86338L 23.9337 6.8466Z" transform="translate(0.85376 0.131836)" fill="white"/>
<path fill-rule="evenodd" clip-rule="evenodd" d="M 23.9337 6.8466L 23.9322 6.82967C 23.5936 3.10244 20.9814 0.500471 17.8076 0.500471C 15.6702 0.500471 13.7056 1.65059 12.597 3.50651L 12.163 4.23298L 11.736 3.50237C 10.6355 1.61918 8.75728 0.5 6.6629 0.5C 3.48958 0.5 0.87697 3.10199 0.538787 6.82914L 0.537189 6.84675L 0.534351 6.86421C 0.515664 6.97913 0.399913 7.8264 0.735457 9.24708L 0.735479 9.24717C 1.21849 11.2939 2.33527 13.1615 3.97255 14.645L 3.97284 14.6453L 12.1649 22.0794L 20.4979 14.6455C 20.4984 14.6451 20.4989 14.6446 20.4994 14.6442C 22.1359 13.1604 23.2522 11.2937 23.735 9.24719L 23.7351 9.24704C 24.0705 7.82718 23.955 6.97956 23.9364 6.86338L 23.9337 6.8466Z" stroke-miterlimit="8" transform="translate(0.85376 0.131836)" stroke="black"/>
</g>
</g>
</g>
</svg>

