<svg xmlns="http://www.w3.org/2000/svg" width="76" height="89"><defs><clipPath id="a"><path clip-rule="evenodd" d="M-972-440H468v4803H-972z"/></clipPath></defs><g clip-path="url(#a)"><path fill="#606060" d="M63.491 16.69a.57.57 0 0 0-.313-.405L48.91 9.437a.57.57 0 0 0-.57.063c-1.565 1.233-5.6 1.295-7.02 1.216h-.086c-1.427.08-5.456 0-7.025-1.216a.57.57 0 0 0-.57-.063l-14.267 6.848a.57.57 0 0 0-.314.405L6.572 83.362a.57.57 0 0 0 .423.657l8.314 2.077a.57.57 0 0 0 .674-.348l2.853-7.419.936 8.783a.57.57 0 0 0 .57.508h41.831a.57.57 0 0 0 .57-.508l.937-8.783 2.853 7.419a.57.57 0 0 0 .668.348l8.315-2.077a.57.57 0 0 0 .422-.657L63.49 16.69zm-22.227-4.816l.156.003c.866.021 4.602.113 6.869-1.007-.052.89-.343 3.532-2.112 5.318-1.187 1.21-2.853 1.82-4.913 1.82-2.956 0-5.05-1.226-6.226-3.657a9.815 9.815 0 0 1-.908-3.538c2.408 1.272 6.746 1.084 7.134 1.061zm22.673 63.91l3.498 9.085 7.27-1.826-12.32-65.856-12.99-6.22c-.056 1.072-.399 3.96-2.425 6.02-1.386 1.433-3.315 2.163-5.706 2.163a7.79 7.79 0 0 1-5.758-2.163C33.48 14.956 33.08 12.114 33 11.012l-12.88 6.175L7.794 83.043l7.304 1.826 3.481-9.085.571-37.168a.57.57 0 1 1 1.141 0l-.57 37.236 1.141 10.586h40.792l1.141-10.586-.57-37.236a.57.57 0 1 1 1.14 0l.572 37.168z" fill-rule="evenodd"/></g><defs><clipPath id="b"><path clip-rule="evenodd" d="M-972-440H468v4803H-972z"/></clipPath></defs><g clip-path="url(#b)"><path fill="#FFEE18" d="M62.35 18.043H20.12a.856.856 0 1 1 0-1.712h42.23a.856.856 0 1 1 0 1.712z"/></g><defs><clipPath id="c"><path clip-rule="evenodd" d="M-972-440H468v4803H-972z"/></clipPath></defs><g clip-path="url(#c)"><path fill="#13A3CC" d="M34.13 88.453a.856.856 0 0 1-.856-.856V10.539a.856.856 0 1 1 1.712 0v77.04a.856.856 0 0 1-.856.874z"/></g><defs><clipPath id="d"><path clip-rule="evenodd" d="M-972-440H468v4803H-972z"/></clipPath></defs><g clip-path="url(#d)"><path fill="#F11F5F" d="M4.427 83.397a.79.79 0 0 1-.16 0 .856.856 0 0 1-.696-1.01l12.606-66.97a.857.857 0 1 1 1.683.32L5.283 82.7a.85.85 0 0 1-.856.697z"/></g><defs><clipPath id="e"><path clip-rule="evenodd" d="M-972-440H468v4803H-972z"/></clipPath></defs><g clip-path="url(#e)"><text fill="#343434" transform="translate(52.994 1.077)" font-size="10" font-family="Segoe UI" y="10.001">Б</text></g><defs><clipPath id="f"><path clip-rule="evenodd" d="M-972-440H468v4803H-972z"/></clipPath></defs><g clip-path="url(#f)"><text fill="#343434" transform="translate(37 42.077)" font-size="10" font-family="Segoe UI" y="10.001">В</text></g><defs><clipPath id="g"><path clip-rule="evenodd" d="M-972-440H468v4803H-972z"/></clipPath></defs><g clip-path="url(#g)"><text fill="#343434" transform="translate(0 42.077)" font-size="10" font-family="Segoe UI" y="10.001">A</text></g></svg>